<?xml version="1.0" encoding="UTF-8" standalone="no"?><!DOCTYPE svg PUBLIC "-//W3C//DTD SVG 1.1//EN" "http://www.w3.org/Graphics/SVG/1.1/DTD/svg11.dtd"><svg width="100%" height="100%" viewBox="0 0 1440 402" version="1.1" xmlns="http://www.w3.org/2000/svg" xmlns:xlink="http://www.w3.org/1999/xlink" xml:space="preserve" xmlns:serif="http://www.serif.com/" style="fill-rule:evenodd;clip-rule:evenodd;stroke-linejoin:round;stroke-miterlimit:2;"><rect id="Artboard3" x="0" y="0" width="1440" height="401.892" style="fill:none;"/><clipPath id="_clip1"><rect x="0" y="0" width="1440" height="401.892"/></clipPath><g clip-path="url(#_clip1)"><rect id="Artboard2" x="0" y="0" width="1440" height="331.475" style="fill:none;"/><g><rect id="Artboard1" x="0" y="-138" width="1440" height="445.626" style="fill:none;"/><g><path d="M0,222.624c58.386,10.729 116.008,3.077 173.892,1.614c29.087,-0.733 58.118,-13.95 86.99,-4.781c46.246,14.688 90.573,-0.045 135.506,-2.309c20.264,-1.022 41.492,-14.549 61.853,-7.814c45.22,14.956 89.081,2.191 132.678,-2.304c28.534,-2.94 57.77,0.119 86.29,-2.173c77.282,-6.206 155.842,10.16 233.221,2.718c19.483,-1.873 39.108,3.74 58.542,5.462c81.646,7.228 162.97,6.434 245.039,22.347c58.189,11.283 116.366,5.905 174.84,16.617c17.051,3.124 34.101,5.811 51.149,8.497l0,142.191l-1440,0l0,-180.065Zm1440,-171.361c-24.877,-7.716 -49.773,-14.596 -74.695,-20.548c-16.192,-3.867 -32.811,-11.963 -49.592,-17.818c22.633,-18.156 46.471,-11.39 69.966,-7.843c18.105,2.734 36.211,5.444 54.321,8.232l-0,37.977Z" style="fill:#77c1d3;"/></g></g></g></svg>