<?xml version="1.0" encoding="UTF-8" standalone="no"?><!DOCTYPE svg PUBLIC "-//W3C//DTD SVG 1.1//EN" "http://www.w3.org/Graphics/SVG/1.1/DTD/svg11.dtd"><svg width="100%" height="100%" viewBox="0 0 450 122" version="1.1" xmlns="http://www.w3.org/2000/svg" xmlns:xlink="http://www.w3.org/1999/xlink" xml:space="preserve" xmlns:serif="http://www.serif.com/" style="fill-rule:evenodd;clip-rule:evenodd;stroke-linejoin:round;stroke-miterlimit:2;"><g><path d="M340.701,40.029c-5.525,-0 -8.292,6.68 -4.384,10.585l6.98,6.983c0.573,0.573 0.573,1.501 -0,2.071l-6.98,6.982c-3.908,3.906 -1.141,10.586 4.384,10.586c1.646,-0 3.222,-0.653 4.384,-1.815l15.751,-15.753c0.573,-0.57 0.573,-1.498 -0,-2.071l-15.751,-15.751c-1.162,-1.162 -2.738,-1.817 -4.384,-1.817" style="fill:#fff;fill-rule:nonzero;"/><path d="M371.529,40.029c-5.525,-0 -8.293,6.68 -4.385,10.585l6.98,6.983c0.573,0.573 0.573,1.501 0,2.071l-6.98,6.982c-3.908,3.906 -1.14,10.586 4.385,10.586c1.645,-0 3.221,-0.653 4.384,-1.815l15.753,-15.753c0.57,-0.57 0.57,-1.498 -0,-2.071l-15.753,-15.751c-1.163,-1.162 -2.739,-1.817 -4.384,-1.817" style="fill:#fff;fill-rule:nonzero;"/><g><path d="M94.908,52.858c5.538,-3.187 10.774,-6.772 15.706,-10.755l-36.421,-0l0,-5.236l43.876,0l-0,5.236c-5.236,4.704 -11.154,9.2 -17.755,13.487l-0,24.47c-0,3.983 -1.973,5.975 -5.919,5.975c-3.452,-0 -6.468,-0.114 -9.048,-0.342l-1.479,-5.235c2.807,0.341 5.823,0.512 9.048,0.512c1.328,0 1.992,-0.626 1.992,-1.878l-0,-26.234Z" style="fill:#fff;fill-rule:nonzero;"/><path d="M162.684,65.264c-0.835,1.631 -1.935,3.206 -3.301,4.723l-3.13,-3.813c2.428,-2.655 4.041,-6.127 4.837,-10.414l4.439,0.797c-0.341,1.669 -0.645,2.959 -0.91,3.87l4.154,-0l-0,-4.894l5.292,-0l0,4.894l7.797,-0l-0,4.837l-7.797,-0l0,5.747l8.992,0l-0,4.951l-8.992,0l0,10.699l-5.292,-0l-0,-10.699l-12.121,0l-0,-4.951l12.121,0l-0,-5.747l-6.089,-0Zm-5.691,-23.503l0,-4.78l24.527,-0c-0.038,8.081 -0.607,12.918 -1.707,14.511c-1.062,1.594 -2.921,2.39 -5.577,2.39c-0.721,0 -2.333,-0.076 -4.837,-0.227l-1.252,-4.439c2.011,0.114 3.661,0.228 4.951,0.341c1.404,-0.075 2.276,-0.512 2.618,-1.308c0.303,-0.683 0.512,-2.846 0.626,-6.488l-7.228,0c-0.531,2.276 -1.346,4.458 -2.447,6.544c-1.517,2.429 -3.737,4.648 -6.658,6.659l-3.187,-4.041c2.428,-1.404 4.231,-3.016 5.407,-4.837c0.72,-1.176 1.327,-2.618 1.821,-4.325l-7.057,0Zm-18.495,20.487l0,6.43l3.984,0l-0,-6.43l-3.984,-0Zm-0.284,10.926c-0.493,5.463 -1.764,10.053 -3.813,13.771l-3.642,-3.357c2.011,-4.022 3.054,-9.162 3.13,-15.422l-0,-16.958l-2.902,-3.529c3.186,-3.338 5.918,-7.985 8.194,-13.942l4.894,1.138l-1.195,3.016l9.674,0l0,3.699c-1.138,2.201 -2.219,4.06 -3.243,5.577l6.089,0l-0,34.429c-0,2.959 -1.575,4.439 -4.724,4.439l-2.788,-0l-1.138,-4.041l-0,3.529l-4.268,-0l-0,-12.349l-4.268,-0Zm5.634,-26.007c0.796,-1.176 1.783,-2.807 2.959,-4.894l-6.032,0c-0.949,1.821 -1.916,3.453 -2.903,4.894l5.976,0Zm2.902,34.429c1.138,0.152 1.935,0.228 2.39,0.228c1.138,-0 1.707,-0.607 1.707,-1.821l0,-6.829l-4.097,-0l-0,8.422Zm4.097,-12.918l0,-6.43l-4.097,-0l-0,6.43l4.097,0Zm0,-10.869l0,-6.032l-4.097,-0l-0,6.032l4.097,-0Zm-8.365,-6.032l-3.984,-0l0,6.032l3.984,-0l-0,-6.032Z" style="fill:#fff;fill-rule:nonzero;"/><path d="M197.852,83.133l0,3.243l-4.95,0l-0,-20.657l15.706,0l-0,19.861l-4.951,-0l-0,-2.447l-5.805,-0Zm5.805,-4.894l-0,-7.74l-5.805,0l0,7.74l5.805,-0Zm-12.064,-37.445l7.284,-0c-0.911,-2.163 -1.783,-4.022 -2.618,-5.577l5.236,-1.366c1.024,2.276 1.858,4.591 2.503,6.943l5.862,-0l-0,5.008l-18.267,-0l-0,-5.008Zm1.707,8.479l14.91,-0l-0,4.723l-14.91,0l-0,-4.723Zm-0,7.91l14.91,-0l-0,4.78l-14.91,0l-0,-4.78Zm31.014,-8.479l-12.462,-0l-0,-5.122l7.796,0c-1.518,-2.845 -3.054,-5.33 -4.61,-7.455l4.496,-2.162c1.669,2.428 3.263,5.103 4.78,8.024l-3.243,1.593l8.479,0c1.479,-2.997 2.845,-6.26 4.097,-9.788l5.122,1.764c-1.176,2.959 -2.485,5.634 -3.927,8.024l7.227,0l0,5.122l-12.405,-0l-0,7.113l10.698,0l0,5.122l-10.698,-0l-0,7.341l13.885,-0l-0,5.178l-13.885,0l-0,13.203l-5.35,-0l0,-13.203l-13.828,0l-0,-5.178l13.828,-0l0,-7.341l-10.755,-0l-0,-5.122l10.755,0l0,-7.113Z" style="fill:#fff;fill-rule:nonzero;"/><path d="M278.433,70.385l-0,3.017l16.787,-0l0,-3.017l-16.787,0Zm16.787,-4.097l0,-3.244l-16.787,0l-0,3.244l16.787,0Zm-16.787,11.211l-0,8.877l-5.122,0l0,-27.657l27.088,0l0,21.853c0,3.718 -1.84,5.577 -5.52,5.577l-4.211,-0l-1.309,-4.724l3.927,0.228c1.29,0 1.934,-0.74 1.934,-2.219l0,-1.935l-16.787,-0Zm5.804,-43.591l5.35,-0l-0,3.414l12.747,0l-0,4.325l-12.747,0l-0,2.96l10.812,-0l0,4.211l-10.812,-0l-0,2.845l14.397,-0l0,4.439l-34.429,-0l0,-1.707l-2.731,0.682c-0.835,-3.186 -1.897,-6.297 -3.187,-9.332l0,40.518l-5.235,-0l-0,-52.127l5.235,-0l0,10.698l3.471,-1.138c1.214,2.807 2.201,5.463 2.96,7.967l14.169,-0l0,-2.845l-10.983,-0l0,-4.211l10.983,-0l0,-2.96l-12.917,0l-0,-4.325l12.917,0l0,-3.414Zm-27.258,11.495c-0.114,5.501 -0.816,10.869 -2.106,16.105l-4.04,-1.081c1.214,-4.743 1.916,-9.845 2.106,-15.308l4.04,0.284Z" style="fill:#fff;fill-rule:nonzero;"/></g><path d="M411.652,111.413l-170.984,-0c-66.354,-0 -132.841,1.254 -199.186,-0c-18.957,-0.358 -30.778,-12.471 -31.063,-31.499c-0.143,-9.392 -0,-18.798 -0,-28.19c-0,-8.811 -1.095,-18.692 3.294,-26.699c11.451,-20.898 46.021,-14.749 65.958,-14.749l324.508,-0c14.397,-0 29.15,3.315 34.097,19.467c2.299,7.504 1.3,16.437 1.3,24.183c0,9.223 0.273,18.491 0,27.711c-0.483,16.394 -10.945,28.92 -27.924,29.776c-6.192,0.312 -6.228,9.981 0,9.667c13.716,-0.691 26.225,-7.214 32.978,-19.537c4.599,-8.394 4.614,-17.274 4.614,-26.494c-0,-18.356 4.2,-43.039 -7.198,-58.864c-15.059,-20.908 -46.113,-15.577 -68.604,-15.577l-259.679,0c-24.73,0 -49.543,-0.599 -74.27,0c-21.58,0.522 -37.852,15.917 -38.742,37.671c-0.647,15.814 -1.377,32.794 0.169,48.56c2.014,20.56 19.11,33.898 39.064,34.241c8.592,0.148 17.198,0 25.792,0l116.124,0c75.07,0 150.207,0.933 225.271,0c1.494,-0.019 2.988,0 4.481,0c6.221,0 6.231,-9.667 0,-9.667" style="fill:#fff;fill-rule:nonzero;"/></g></svg>