<?xml version="1.0" encoding="UTF-8" standalone="no"?><!DOCTYPE svg PUBLIC "-//W3C//DTD SVG 1.1//EN" "http://www.w3.org/Graphics/SVG/1.1/DTD/svg11.dtd"><svg width="100%" height="100%" viewBox="0 0 150 60" version="1.1" xmlns="http://www.w3.org/2000/svg" xmlns:xlink="http://www.w3.org/1999/xlink" xml:space="preserve" xmlns:serif="http://www.serif.com/" style="fill-rule:evenodd;clip-rule:evenodd;stroke-linejoin:round;stroke-miterlimit:2;"><path d="M133.598,59.955l-117.195,-1.02c-9.059,-0 -16.403,-7.344 -16.403,-16.402l-0,-26.131c-0,-9.058 7.344,-16.402 16.403,-16.402l117.195,1.02c9.059,0 16.402,7.344 16.402,16.402l-0,26.131c-0,9.058 -7.343,16.402 -16.402,16.402" style="fill:#fff;fill-rule:nonzero;"/><path d="M105.649,20.889c-2.548,-0 -3.824,3.081 -2.023,4.882l3.22,3.218c0.263,0.265 0.263,0.692 -0,0.956l-3.22,3.219c-1.801,1.802 -0.525,4.882 2.023,4.882c0.758,-0 1.485,-0.301 2.022,-0.838l7.262,-7.263c0.264,-0.264 0.264,-0.691 -0,-0.956l-7.262,-7.263c-0.537,-0.536 -1.264,-0.837 -2.022,-0.837" style="fill:#004367;fill-rule:nonzero;"/><path d="M119.864,20.889c-2.547,-0 -3.824,3.081 -2.022,4.882l3.219,3.218c0.265,0.265 0.265,0.692 -0,0.956l-3.219,3.219c-1.802,1.802 -0.525,4.882 2.022,4.882c0.758,-0 1.486,-0.301 2.023,-0.838l7.262,-7.263c0.264,-0.264 0.264,-0.691 0,-0.956l-7.262,-7.263c-0.537,-0.536 -1.265,-0.837 -2.023,-0.837" style="fill:#004367;fill-rule:nonzero;"/><g><path d="M39.229,18.582l22.752,-0l-0,2.335l-10.156,0l0,1.811l8.03,0l-0,10.785l-8.397,0c-0.28,1.505 -0.726,2.747 -1.339,3.727c3.569,1.399 7.812,2.178 12.727,2.335l-0.629,2.414c-5.266,-0.245 -9.832,-1.224 -13.698,-2.939c-1.89,1.47 -4.864,2.441 -8.922,2.913l-1.076,-2.283c3.376,-0.21 5.895,-0.822 7.557,-1.837c-1.382,-0.77 -2.668,-1.653 -3.857,-2.65l1.915,-1.312c1.05,0.822 2.275,1.6 3.674,2.335c0.49,-0.77 0.866,-1.671 1.129,-2.703l-7.532,0l0,-10.785l7.951,0l0,-1.811l-10.129,0l0,-2.335Zm18.159,12.753l0,-2.23l-5.563,-0l0,0.63c0,0.559 -0.026,1.093 -0.079,1.6l5.642,0Zm-8.108,0c0.052,-0.525 0.078,-1.058 0.078,-1.6l0,-0.63l-5.484,-0l-0,2.23l5.406,0Zm-5.406,-4.277l5.484,-0l0,-2.204l-5.484,-0l-0,2.204Zm7.951,-2.204l0,2.204l5.563,-0l0,-2.204l-5.563,-0Z" style="fill:#004367;fill-rule:nonzero;"/><path d="M80.271,18.713c-0.49,0.525 -0.84,0.892 -1.05,1.102l7.007,0l-0,1.942c-2.852,5.056 -8.109,7.899 -15.772,8.529l-1.049,-2.257c2.239,-0.14 4.207,-0.437 5.904,-0.892c-0.682,-0.823 -1.452,-1.636 -2.309,-2.441l2.152,-1.023c0.909,0.892 1.74,1.784 2.493,2.676c2.431,-1.032 4.338,-2.475 5.72,-4.329l-7.059,-0c-2.029,1.189 -4.426,2.09 -7.19,2.702l-1.469,-2.283c4.653,-0.839 8.117,-2.466 10.391,-4.88l2.231,1.154Zm-2.651,15.246c0.98,0.98 1.872,1.986 2.677,3.018c2.607,-1.172 4.662,-2.729 6.167,-4.671l-7.19,0c-2.31,1.067 -4.986,1.898 -8.03,2.493l-1.496,-2.23c5.756,-0.56 9.963,-2.248 12.622,-5.065l2.126,1.155c-0.455,0.472 -0.963,0.936 -1.522,1.39l6.691,0l0,1.942c-3.761,6.141 -10.75,9.342 -20.967,9.605l-0.997,-2.388c3.971,-0 7.383,-0.446 10.234,-1.339c-0.874,-1.119 -1.714,-2.073 -2.519,-2.86l2.204,-1.05Z" style="fill:#004367;fill-rule:nonzero;"/></g><path d="M131.04,53.991c-19.868,-0.181 -39.736,-0.362 -59.604,-0.543l-38.797,-0.352c-7.546,-0.069 -18.45,1.628 -23.786,-4.9c-4.2,-5.137 -2.954,-13.04 -2.954,-19.233c0,-6.914 -1.264,-15.108 4.775,-20.045c5.772,-4.718 16.458,-2.879 23.382,-2.817l79.279,0.722c7.948,0.073 21.455,-2.077 27.376,4.462c5.023,5.546 3.391,15.278 3.391,22.193c-0,2.466 0.097,4.955 -0,7.419c-0.293,7.395 -5.674,12.762 -13.062,13.094c-2.62,0.117 -2.635,4.207 -0,4.088c9.643,-0.432 16.724,-7.536 17.15,-17.15c0.268,-6.03 0,-12.133 0,-18.17c0,-7.554 -2.334,-14.56 -9.643,-18.13c-3.488,-1.702 -7.087,-1.729 -10.831,-1.764c-27.164,-0.246 -54.328,-0.494 -81.492,-0.741c-8.927,-0.082 -17.902,-0.44 -26.829,-0.244c-7.187,0.157 -13.659,3.987 -16.36,10.843c-2.271,5.765 -1.224,13.208 -1.224,19.249c-0,6.758 -0.609,13.588 4.151,19.115c3.665,4.254 8.731,5.889 14.184,5.984c10.206,0.176 20.418,0.185 30.626,0.278c26.755,0.243 53.512,0.487 80.268,0.73c2.632,0.024 2.634,-4.065 -0,-4.088" style="fill:#004367;fill-rule:nonzero;"/></svg>