<?xml version="1.0" encoding="UTF-8" standalone="no"?><!DOCTYPE svg PUBLIC "-//W3C//DTD SVG 1.1//EN" "http://www.w3.org/Graphics/SVG/1.1/DTD/svg11.dtd"><svg width="100%" height="100%" viewBox="0 0 140 211" version="1.1" xmlns="http://www.w3.org/2000/svg" xmlns:xlink="http://www.w3.org/1999/xlink" xml:space="preserve" xmlns:serif="http://www.serif.com/" style="fill-rule:evenodd;clip-rule:evenodd;stroke-linejoin:round;stroke-miterlimit:2;"><g><path d="M70,99.819c-18.169,-0 -32.906,-14.731 -32.906,-32.906c-0,-18.169 14.737,-32.9 32.906,-32.9c18.175,-0 32.906,14.731 32.906,32.9c0,18.175 -14.731,32.906 -32.906,32.906m0,-99.819c-38.662,0 -70,31.338 -70,70c0,38.663 70,140.669 70,140.669c0,-0 70,-102.006 70,-140.669c0,-38.662 -31.337,-70 -70,-70" style="fill:#77c1d3;fill-rule:nonzero;"/><g opacity="0.8"><path d="M11.998,76.149c0,-33.587 27.225,-60.806 60.806,-60.806c19.632,0 37.088,9.3 48.207,23.738c-10.5,-18.232 -30.182,-30.5 -52.732,-30.5c-33.581,-0 -60.806,27.225 -60.806,60.806c0,13.956 4.7,26.806 12.606,37.069c-5.137,-8.925 -8.081,-19.269 -8.081,-30.307" style="fill:#fffdfd;fill-rule:nonzero;"/></g><g opacity="0.2"><path d="M53.493,183.894c9.538,15.982 16.506,26.769 16.506,26.769c0,0 70,-102.006 70,-140.662c0,-2.032 -0.106,-4.038 -0.275,-6.025c-2.762,10.743 -6.668,21.2 -11.462,31.181c-13.25,27.581 -32.844,45.25 -53.713,67.631c-6.731,7.206 -13.731,14.344 -21.056,21.106" style="fill:#515151;fill-rule:nonzero;"/></g></g></svg>