<svg viewBox="0 0 304 335" xmlns="http://www.w3.org/2000/svg" fill-rule="evenodd" clip-rule="evenodd" stroke-linejoin="round" stroke-miterlimit="2"><path d="M146.159 315.38L163.8 206.164l43.252-4.111c-1.48 4.833-2.713 9.953-3.743 15.218l-16.389.288-17.642 109.216c-.463 2.871.457 5.026 2.319 6.229l-.001.003s-22.858-11.202-23.369-11.574c-1.69-1.233-2.509-3.316-2.068-6.053" fill="#7dadb5" fill-rule="nonzero"/><path d="M180.235 333.299l21.23-6.973c7.912-2.605 14.947-10.598 14.734-16.757-.679-19.52-7.108-74.664.226-91.157l-29.506-.852-17.64 109.215c-.957 5.921 3.936 8.834 10.956 6.524" fill="#caf1fc" fill-rule="nonzero"/><path d="M214.021 227.953c.545-3.858 1.327-7.116 2.404-9.541l-29.506-.852-1.391 8.615 28.493 1.778z" fill="#0c6e91" fill-rule="nonzero"/><path d="M158.948 247.493l20.843-3.241 4.794-29.674-13.72 2.134-11.917 30.781z" fill="#005f89" fill-rule="nonzero"/><path d="M140.587 238.468l18.361 9.024 11.917-30.78-18.361-9.025-11.917 30.781z" fill="#0c6e91" fill-rule="nonzero"/><path d="M275.498 181.918c-1.391 7.353 3.442 14.442 10.795 15.833 7.352 1.391 14.44-3.442 15.832-10.794 1.391-7.353-3.442-14.442-10.795-15.834-7.352-1.39-14.441 3.442-15.832 10.795" fill="#005f89" fill-rule="nonzero"/><path d="M192.383 165.78c-5.229 27.63 12.932 54.267 40.562 59.495 27.631 5.228 54.267-12.932 59.495-40.563 5.228-27.63-12.932-54.266-40.563-59.495-27.63-5.228-54.266 12.933-59.494 40.563" fill="#caf1fc" fill-rule="nonzero"/><path d="M238.104 210.866c15.073-17.143 21.365-48.573 14.055-70.197-3.633-10.748-9.943-17.046-17.221-18.564l11.343 2.266c7.342 1.462 13.714 7.778 17.372 18.599 7.311 21.626 1.018 53.055-14.055 70.197-7.405 8.424-15.549 11.82-22.789 10.542l-.005.01-.218-.045a13.974 13.974 0 0 1-.344-.07l-10.503-2.129c7.132 1.073 15.103-2.35 22.365-10.609" fill="#005f89" fill-rule="nonzero"/><path d="M232.742 121.804c8.194.62 15.423 7.05 19.417 18.865 7.311 21.624 1.018 53.054-14.055 70.197-7.261 8.259-15.233 11.682-22.366 10.609 0 0-79.069-14.579-136.379 11.395 0 0 32.773-172.676 31.713-181.254 82.991 61.322 121.67 70.188 121.67 70.188" fill="#caf1fc" fill-rule="nonzero"/><path d="M32.463 61.578C3.853 94.119-8.092 153.774 5.785 194.821c13.875 41.048 48.317 47.945 76.928 15.404 28.609-32.54 40.554-92.196 26.677-133.243-13.875-41.048-48.317-47.945-76.927-15.404" fill="#0c6e91" fill-rule="nonzero"/><path d="M75.725 41.57l.004-.019.462.092c-.154-.029-.311-.046-.466-.073" fill="#ad2d2d" fill-rule="nonzero"/><path d="M82.712 210.225c28.61-32.541 40.555-92.196 26.678-133.243-6.895-20.398-18.872-32.354-32.686-35.236l21.53 4.302c13.936 2.774 26.029 14.761 32.974 35.302 13.875 41.047 1.931 100.703-26.679 133.243-14.055 15.987-29.514 22.432-43.255 20.01l-.011.016-.413-.083a30.302 30.302 0 0 1-.654-.133l-19.936-4.041c13.538 2.037 28.669-4.461 42.452-20.137" fill="#005f89" fill-rule="nonzero"/><path d="M36.542 73.629c-23.971 27.265-33.976 77.245-22.354 111.646 7.756 22.973 23.209 33.178 39.777 29.304-8.417-4.457-15.534-13.488-20.044-26.844-11.623-34.401-1.618-84.381 22.354-111.646 7.962-9.056 16.457-14.456 24.669-16.409-13.256-7.032-29.732-2.736-44.402 13.949" fill="#005f89" fill-rule="nonzero"/><path d="M56.275 76.089c-23.971 27.265-33.976 77.245-22.354 111.646 4.509 13.356 11.628 22.387 20.044 26.843 8.212-1.951 16.706-7.351 24.669-16.408 23.971-27.264 33.977-77.245 22.368-111.634-4.51-13.355-11.628-22.387-20.058-26.856-8.212 1.953-16.707 7.353-24.669 16.409" fill="#7dadb5" fill-rule="nonzero"/><path d="M56.788 134.993c-4.379 23.139 7.645 45.579 27.895 55.335 32.144-49.128 18.362-96.657 18.362-96.657-.692.051-1.38.115-2.065.194-21.564 2.481-39.945 18.679-44.192 41.128" fill="#caf1fc" fill-rule="nonzero"/><path d="M62.216 130.65c-2.353 2.675-3.346 7.568-2.198 10.938.931 2.789 3.019 3.651 5.046 2.369a5.908 5.908 0 0 1-.745-1.532c-1.149-3.37-.155-8.262 2.185-10.924.41-.466.839-.843 1.262-1.104-1.38-1.944-3.632-1.929-5.55.253" fill="#7dadb5" fill-rule="nonzero"/><path d="M66.503 131.5c-2.34 2.663-3.333 7.555-2.184 10.925.195.61.459 1.11.745 1.531.424-.259.853-.636 1.263-1.103 2.352-2.676 3.32-7.567 2.196-10.938-.205-.595-.459-1.111-.757-1.518-.423.26-.852.638-1.263 1.103" fill="#0c6e91" fill-rule="nonzero"/><path d="M288.995 134.519l-.154.119c.017-.041.031-.081.047-.121.375-.895 1.131-1.497.107.002m-9.816-38.37a2.249 2.249 0 0 1-.318-.102c.127-.04.254-.081.379-.129l.022.012-.083.219m-5.665 14.91c-.178-.013-.478-.101-.826-.285.119-.032.235-.071.353-.108l.095.036c.215.075.352.141.44.195l-.062.162m-.847 24.096c-.288.677-.965 1.318-.066-.111l.18-.179c-.039.097-.074.195-.114.29m-1.736-1.366l-.127-.127c.056.023.113.042.169.065.799.33 1.616 1.102-.042.062m-41.129-19.006h.16c-.035-.009-.098.027-.16 0M202.58 99.118c-.19-.052-.152-.044 0 0m-2.47-50.892c-.561-.397-1.034-.977 0 0m-14.349 47.946l-.02.043v-.074c.452-1.712.382-.732.02.031M174.804 80.84c.17.146.214.193 0 0m127.509 8.64c-1.782-2.931-5.334-4.07-8.424-5.128-2.21-.755-4.347-.88-6.264-.349-1.239-1.127-2.803-1.926-4.459-2.573-1.1-.429-2.189-.89-3.338-1.148a8.42 8.42 0 0 0-3.434-.081 9.055 9.055 0 0 0-2.896-1.382c-.065-.017-.13-.028-.195-.043-1.575-2.406-4.494-3.953-7.509-5.097-2.652-1.009-5.253-1.296-7.549-.586a8.638 8.638 0 0 0-2.372-.941 8.97 8.97 0 0 0-3.552-.096c-.133-.1-.262-.202-.405-.3-3.54-2.438-7.85-4.042-11.707-5.935-2.512-1.232-5.011-2.498-7.539-3.698-2.591-1.23-4.965-1.66-7.134-1.204-.879-2.68-3.086-4.724-6.179-6.241-3.588-1.76-6.766-2.556-9.702-1.442-1.057-.44-2.142-.773-3.316-.835-.461-.45-.977-.88-1.558-1.284-.717-.498-1.489-.929-2.236-1.384-.734-2.832-3.051-5.07-5.931-6.847-2.916-1.799-6.056-3.028-9.035-2.384-.895-.555-1.774-1.176-2.703-1.673-1.084-3.152-3.972-4.915-6.807-6.664-3.966-2.447-9.252-6.804-14.26-7.485a8.875 8.875 0 0 0-1.462-1.876 7.845 7.845 0 0 0-2.007-1.634l-11.449-6.635c-1.16-.672-2.302-1.429-3.502-2.029-2.054-1.029-4.098-1.345-5.994-1.03a15.319 15.319 0 0 0-.577-.409c-3.677-2.437-7.688-4.537-11.571-6.638-2.533-1.369-5.24-3.284-8.042-4.066-6.291-1.757-9.564 3.185-12.102 7.895-2.311 4.292-4.845 8.448-7.335 12.639a1237.383 1237.383 0 0 0-6.539 11.11c-3.734 6.446-9.498 14.417-2.784 21.264 1.984 2.023 4.681 3.3 7.106 4.706l8.778 5.086c1.506.872 3.093 1.586 4.69 1.962.144.173.277.348.44.52 1.594 1.687 4.065 2.981 6.111 4.031 2.271 1.168 4.563 1.475 6.655 1.008a15.313 15.313 0 0 0 5.951 3.044c.59 3.484 3.315 5.679 6.271 7.503 5.473 3.377 11.785 8.881 18.674 6.855a9.393 9.393 0 0 0 2.147-.951c.247.295.51.576.78.845-.185 1.286-.137 2.593.22 3.859.869 3.076 3.122 4.784 5.679 6.361 4.876 3.01 10.174 5.903 15.936 2.871a11.463 11.463 0 0 0 2.211-1.531c.432.54.961 1.049 1.581 1.524-.21.729-.348 1.478-.348 2.258 0 4.575 3.404 7.084 7.057 8.876 2.838 1.393 5.807 2.475 8.692 1.749.6 1.643 1.816 3.157 3.916 4.438 2.388 1.457 5.122 2.513 7.635 3.746 1.306.641 2.614 1.327 4.016 1.733 1.258.365 2.449.501 3.602.467a13.857 13.857 0 0 0 5.092 4.036c3.793 1.768 7.635 1.352 10.426-1.166.106.073.203.151.315.221a8.71 8.71 0 0 0 2.31.997c1.141 2.48 3.515 4.316 6.451 5.465 3.631 1.419 7.301 2.614 10.82.483 3.426.762 7.286-.405 9.57-3.494.09.037.173.077.263.113.709.275 1.423.541 2.134.81a16.56 16.56 0 0 0-.545 1.559c-1.835 6.423 2.63 9.977 7.965 12.004 5.837 2.217 11.201 1.154 13.726-5.172.349-.873.673-1.757 1.004-2.637 2.597-1.019 4.461-3.273 5.801-6.73 1.199-3.096 1.15-5.925-.088-8.313l2.116-5.572c1.856-4.882 3.711-9.765 5.565-14.647 1.585-4.172 3.817-8.314 1.143-12.708" fill="#005f89" fill-rule="nonzero"/><path d="M114.645 25.808l.9-1.551c.429-.739 1.013-.894 1.755-.465l4.138 2.399c.711.412.793 1.092.245 2.037-.427 1.214-1.131 1.813-2.111 1.797a63.985 63.985 0 0 1-4.456-2.464c-.742-.43-.899-1.015-.471-1.753m4.644-7.911l.822-1.418c.428-.739 1.014-.895 1.755-.465l4.094 2.372c.712.413.845 1.004.4 1.772l-.796 1.375c-.429.738-1.014.892-1.755.464l-4.049-2.347c-.743-.43-.899-1.014-.471-1.753m-4.398 34.884l-9.882-5.727c-.981-.293-1.509-.954-1.585-1.985.409-.908.875-1.783 1.402-2.623.428-.738 1.013-.894 1.755-.463l10.504 6.087a1.539 1.539 0 0 0 2.102-.559l1.488-2.566a1.545 1.545 0 0 0-.561-2.109l-10.502-6.085c-.742-.43-.949-.926-.624-1.488a63.63 63.63 0 0 0 1.694-3.257.734.734 0 0 1 1.03-.316l9.256 5.363c2.459.952 4.279.446 5.455-1.518l9.197-15.868a1.544 1.544 0 0 0-.562-2.109l-9.611-5.569c-.712-.413-8.018-4.325-8.018-4.325a2.504 2.504 0 0 0-.433-.138 1.128 1.128 0 0 0-1.222.529c-.985 1.678-3.559 6.563-3.923 7.19 0 0-9.596 16.148-9.916 16.701l-6.629 11.44c-1.018 2.372-.514 4.202 1.511 5.496l15.218 8.817c.889.517 1.592.331 2.105-.556l1.311-2.261a1.537 1.537 0 0 0-.56-2.101m41.664-25.135l-14.952-8.664c-.86-.499-1.556-.29-2.086.626l-22.663 39.108c-.513.886-.325 1.588.564 2.104l4.05 2.346c.889.515 1.592.33 2.105-.557l19.759-34.097c.428-.738 1.013-.892 1.754-.463l2.269 1.316c.743.428.899 1.014.471 1.752l-15.005 25.894c-.585 1.557-1.538 1.971-2.861 1.244-.416-.241-.859.251-1.332 1.479l-.93 2.424c-.365.972-.102 1.716.787 2.231a37.927 37.927 0 0 0 3.478 1.898c2.075.727 3.719.18 4.933-1.643l20.223-34.894c.513-.888.326-1.589-.564-2.104m32.01 20.711c.485-.785 1.136-.925 1.953-.421l4.026 2.485c.875.54 1.079 1.188.613 1.944-.485.785-.362 1.401.367 1.851l5.472 3.377c.875.54 1.044 1.247.505 2.119l-1.346 2.18c-.539.872-1.244 1.039-2.12.499l-5.471-3.377c-.73-.45-1.318-.311-1.766.416l-1.05 1.701c-.449.726-.308 1.315.421 1.764l4.946 3.052c.875.541 1.044 1.247.505 2.119l-1.372 2.224c-.539.872-1.055 1.155-1.55.849-.555-.342-1.057-.148-1.505.578l-.727 1.177c-.448.728-.323 1.307.378 1.739.7.432.78 1.084.242 1.957l-1.587 2.572c-.539.872-1.143 1.102-1.814.687-.729-.448-1.319-.31-1.767.416l-7.805 12.647c-1.264 1.788-3.238 2.276-5.919 1.465l-5.908-3.645c-.876-.541-1.117-1.293-.726-2.253l.781-2.049c.256-.806.033-1.425-.667-1.857-2.761-1.14-3.721-3.24-2.883-6.295a157.988 157.988 0 0 1 2.37-6.485c.399-1.039 1.007-1.306 1.824-.801l3.633 2.241c.875.54 1.131 1.299.768 2.28l-1.271 3.431c-.277.512-.126 1.148.455 1.906.296.304.22.819-.228 1.545l-.996 1.615c-.449.725-.308 1.314.422 1.765 1.476 1.392 2.86 1.142 4.15-.752l5.435-8.809c.448-.727.307-1.316-.422-1.766l-11.466-7.075c-.875-.539-1.044-1.247-.506-2.119l1.588-2.572c.538-.872 1.246-1.038 2.121-.498l11.467 7.074c.728.45 1.318.312 1.765-.415l.728-1.178c.447-.726.308-1.316-.422-1.764l-10.591-6.536c-.876-.54-1.044-1.246-.506-2.119l1.373-2.223c.537-.873 1.245-1.039 2.12-.499l4.814 2.971c.729.449 1.319.312 1.767-.415l1.049-1.701c.449-.727.309-1.317-.421-1.766l-5.864-3.618c-.876-.54-1.044-1.247-.506-2.119l1.346-2.18c.538-.873 1.245-1.039 2.12-.498l5.864 3.618c.729.45 1.328.298 1.794-.459m-19.927-4.527c.448-.727.308-1.317-.421-1.766l-1.883-1.161c-.729-.451-1.318-.312-1.766.414l-6.566 10.643c-.449.726-.309 1.314.421 1.764l1.882 1.161c.729.45 1.318.312 1.767-.414l6.566-10.641zm-11.141 18.054c.485-.785.391-1.385-.28-1.798l-1.97-1.216c-.729-.449-1.318-.31-1.767.415l-6.673 10.816c-.448.726-.309 1.314.421 1.766.683.461 1.445.891 2.286 1.289.893-.01 1.562-.541 2.009-1.589l5.974-9.683zm4.204-29.14c.556-.902 1.256-1.091 2.102-.569l13.306 8.209c.876.54 1.043 1.247.505 2.119l-22.578 36.59c-1.231 1.93-3.054 2.37-5.469 1.322l-11.204-6.913c-.875-.539-1.043-1.247-.505-2.118l23.843-38.64zm70.629 64.774c.792-.601.802-1.092.033-1.468l-7.756-3.806c-.77-.378-1.343-.183-1.718.584l-1.062 2.163-6.771 13.801c-.376.767-.267 1.202.333 1.305.659.058 1.34-.085 2.043-.426l4.128-3.395c.731-.555 1.098-1.421 1.103-2.599l.077-6.812c-.027-1.269.422-1.675 1.345-1.222l4.248 2.083c.923.453 1.363.878 1.321 1.276-.042.474.44.31 1.444-.491l1.232-.993zm-6.322-28.56c.466-.951 1.146-1.209 2.038-.771l19.392 9.514c.922.454 1.158 1.141.708 2.06l-4.109 8.374c-1.16 2.133-2.941 2.762-5.338 1.891l-6.233-3.059c-.923-.453-1.236-1.178-.939-2.173.191-.857.429-1.692.713-2.505.297-.995.909-1.266 1.832-.813a31.648 31.648 0 0 0 3.277 1.494c.903-.052 1.518-.605 1.847-1.663.346-.706.133-1.246-.636-1.624l-6.278-3.081c-.77-.378-1.343-.183-1.719.584l-4.244 8.649c-.376.766-.18 1.339.59 1.717l12.973 6.365c.924.453 1.16 1.14.709 2.059l-2.235 4.555c-.452.92-.966 1.62-1.544 2.097l-6.524 5.59c-.669.586-1.014 1.442-1.034 2.574l-.101 4.06c-.24.797.044 1.62.849 2.472.54.303.591.898.154 1.789l-.971 1.979c-.451.918-1.139 1.152-2.062.699-2.321-.873-3.854-2.575-4.596-5.109-.088-1.07-.64-1.266-1.66-.586-1.51.895-3.133.973-4.871.236l-9.28-4.553c-.924-.453-1.159-1.14-.708-2.06l20-40.761zm-14.552-8.169c.435-.888 1.1-1.115 1.992-.677l4.248 2.084c.924.454 1.175 1.11.753 1.968-.437.89-.27 1.523.501 1.9l2.815 1.382c.924.453 1.16 1.14.708 2.06l-1.129 2.3c-.451.92-1.138 1.154-2.061.701l-2.817-1.381c-.77-.379-1.342-.184-1.718.583l-.452.92c-.377.767-.179 1.339.59 1.717l3.37 1.653c.924.453 1.159 1.14.709 2.061l-.949 1.932c-.452.92-1.139 1.154-2.063.701l-16.251-7.973c-.923-.454-1.159-1.141-.707-2.061l.947-1.932c.453-.921 1.139-1.155 2.063-.702l3.601 1.767c.769.377 1.342.183 1.718-.583l.452-.92c.377-.767.179-1.34-.589-1.717l-2.863-1.405c-.923-.453-1.16-1.138-.708-2.059l1.128-2.3c.451-.921 1.139-1.153 2.063-.701l2.861 1.404c.77.377 1.365.137 1.788-.722m-14.203 15.637c.158-1.179.667-1.556 1.53-1.133l3.508 1.721c.924.454 1.299 1.208 1.124 2.264a46.122 46.122 0 0 0-.473 3.649c-.129.965.176 1.628.914 1.99.832.408 1.626.19 2.385-.656.697-.8 1.441-1.577 2.231-2.331.804-.861 1.622-1.087 2.453-.679l3.417 1.675c.924.454 1.021 1.072.292 1.857l-2.458 2.675c-.621.722-.687 1.204-.195 1.447.523.256.56.844.108 1.764l-1.128 2.301c-.452.919-1.139 1.153-2.062.699l-2.816-1.381c-.77-.377-1.344-.182-1.719.585l-.971 1.978c-.376.767-.179 1.338.59 1.716l3.371 1.653c.923.454 1.159 1.14.708 2.061l-1.152 2.346c-.451.92-1.139 1.154-2.063.701l-3.369-1.655c-.77-.376-1.343-.183-1.719.585l-1.738 3.543c-.452.919-1.139 1.153-2.063.7l-4.201-2.062c-.923-.453-1.159-1.14-.708-2.059l1.738-3.543c.377-.767.18-1.339-.59-1.716l-3.601-1.767c-.924-.452-1.158-1.139-.708-2.06l1.152-2.346c.451-.921 1.139-1.155 2.062-.7l3.601 1.766c.769.377 1.342.183 1.719-.583l.97-1.979c.376-.766.18-1.34-.589-1.717l-3.047-1.495c-.924-.453-1.161-1.14-.709-2.06l1.129-2.301c.451-.919.954-1.243 1.509-.971.615.302 1.008-.113 1.184-1.246a36.59 36.59 0 0 1 .384-3.236m79.469 12.465c.234-1.192.813-1.61 1.743-1.257l3.222 1.224c.96.365 1.324 1.051 1.088 2.059a43.422 43.422 0 0 0-.649 3.59c-.421 1.01-.206 1.895.641 2.655.488.26.582.788.279 1.586l-.838 2.203c-.364.959-1.027 1.255-1.988.89-1.639-.513-2.747-1.025-3.323-1.536-1.456-1.284-1.906-3.045-1.348-5.282.342-2.062.734-4.107 1.173-6.132m-5.827 14.615c.203-1.018.786-1.346 1.748-.98l3.173 1.205c.961.366 1.34 1.057 1.137 2.076l-.698 3.573c-.421 1.011-.103 1.862.955 2.556.457.246.532.769.229 1.566l-.837 2.204c-.364.958-1.026 1.255-1.989.889-1.734-.548-2.89-1.078-3.466-1.59-.888-.558-1.421-1.618-1.597-3.184-.02-.812.176-2.198.593-4.161.195-1.385.447-2.771.752-4.154m-1.237-16.148c.513-1.156 1.185-1.577 2.02-1.261.897.341 1.116.972.655 1.894-1.348 3.069-2.488 5.195-3.413 6.378-.563.517-1.222.705-1.975.566-.666-.181-.909-.747-.729-1.704l.222-1.45c.139-1.043.36-1.526.66-1.449.97.15 1.548-.215 1.736-1.094l.824-1.88zm19.04 4.767c.387-1.023 1.03-1.364 1.928-1.023l4.471 1.699c.961.365 1.26 1.027.896 1.985l-10.829 28.504c-.303.799.026 1.381.987 1.745.93.354 1.212 1.009.849 1.967l-1.056 2.779c-.364.958-1.012 1.26-1.941.908-.961-.366-1.594-.149-1.896.65l-2.567 6.754c-.364.957-1.027 1.254-1.989.889l-4.375-1.663c-.96-.364-1.259-1.026-.896-1.984l2.567-6.755c.303-.798.053-1.35-.747-1.654l-9.518-3.616c-.962-.366-1.261-1.027-.898-1.986l1.056-2.778c.365-.958 1.028-1.255 1.989-.889l9.519 3.617c.8.304 1.353.056 1.656-.742l10.794-28.407zm-27.501 15.044c.388-1.023 1.063-1.352 2.025-.987 1.024.39 1.356 1.065.991 2.022l-6.824 17.965c-.365.958-1.043 1.247-2.036.87-.993-.377-1.308-1.045-.945-2.003l6.789-17.867zm-8.658-26.589c.324-1.047.902-1.411 1.736-1.095.897.341 1.195 1.002.896 1.985l-.402 1.492c-.582 1.241-.487 2.1.287 2.576.352.134.366.631.037 1.495l-.545 1.437c-.365.958-1.156 1.206-2.373.744-1.13-.503-1.574-1.458-1.334-2.865a23.724 23.724 0 0 1 1.12-3.96l.578-1.809zm7.122.513c.387-1.022 1.03-1.363 1.928-1.023l4.423 1.681c.962.365 1.26 1.028.896 1.985l-4.204 11.067c-.304.798-.055 1.35.746 1.654l4.473 1.699c.96.365 1.258 1.027.894 1.985l-1.055 2.778c-.364.958-1.027 1.254-1.988.89l-4.471-1.7c-.801-.304-1.354-.055-1.657.742l-9.191 24.192c-.364.958-1.027 1.255-1.988.889l-4.326-1.644c-.962-.365-1.262-1.027-.897-1.984l9.191-24.193c.303-.798.054-1.35-.747-1.654l-4.135-1.571c-.961-.365-1.259-1.027-.895-1.984l1.055-2.778c.365-.96 1.027-1.255 1.988-.891l4.135 1.572c.801.303 1.353.057 1.656-.742l4.169-10.97zm-14.233 20.085c.388-1.023 1.063-1.352 2.026-.987 1.025.39 1.356 1.065.992 2.022l-6.552 17.247c-.614 1.227-1.787 1.805-3.52 1.731-.654-.211-.877-.826-.673-1.845l.592-3.009c.236-1.007.456-1.489.661-1.449 1.138-.006 1.774-.567 1.906-1.687l4.568-12.023z" fill="#fff" fill-rule="nonzero"/></svg>