<?xml version="1.0" encoding="UTF-8" standalone="no"?><!DOCTYPE svg PUBLIC "-//W3C//DTD SVG 1.1//EN" "http://www.w3.org/Graphics/SVG/1.1/DTD/svg11.dtd"><svg width="100%" height="100%" viewBox="0 0 1440 228" version="1.1" xmlns="http://www.w3.org/2000/svg" xmlns:xlink="http://www.w3.org/1999/xlink" xml:space="preserve" xmlns:serif="http://www.serif.com/" style="fill-rule:evenodd;clip-rule:evenodd;stroke-linejoin:round;stroke-miterlimit:2;"><rect id="Artboard1" x="0" y="0" width="1440" height="227.505" style="fill:none;"/><g><path d="M240.505,223.406l-8.022,-15.085l6.454,-18.631l0,-11.407l-19.753,11.407l-0,11.404l8.492,14.71c0.144,0.248 0.349,0.411 0.577,0.513l-0.005,0.007l12.257,7.082Z" style="fill:#f9bd82;fill-rule:nonzero;"/><g opacity="0.2"><path d="M240.505,223.406l-8.022,-15.085l6.454,-18.631l0,-11.407l-19.753,11.407l-0,11.404l8.492,14.71c0.144,0.248 0.349,0.411 0.577,0.513l-0.005,0.007l12.257,7.082Z" style="fill-rule:nonzero;"/></g><path d="M325.423,89.459c-0,-3.777 -2.652,-8.37 -5.923,-10.259l-4.822,-2.783c-3.271,-1.889 -8.574,-1.889 -11.845,-0l-111.699,64.535c-3.27,1.888 -5.923,6.481 -5.923,10.258l0,57.768c0,3.777 2.653,8.37 5.923,10.258l4.823,2.784c3.271,1.889 8.574,1.889 11.845,0l23.786,-13.742l8.475,14.681c0.541,0.939 1.936,0.805 2.29,-0.218l8.958,-25.858l68.19,-39.398c3.271,-1.888 5.922,-6.481 5.922,-10.258l-0,-57.768Z" style="fill:#f9bd82;fill-rule:nonzero;"/><g opacity="0.2"><path d="M185.212,208.978c-0,3.777 2.652,8.37 5.922,10.258l4.823,2.784c2.956,1.707 7.557,1.856 10.833,0.477c-2.788,1.054 -4.91,-0.518 -4.91,-3.896l-0.001,-57.767c0,-1.89 0.664,-3.982 1.735,-5.839l-16.668,-9.621c-1.072,1.855 -1.734,3.947 -1.734,5.836l-0,57.768Z" style="fill-rule:nonzero;"/></g><g opacity="0.2"><path d="M325.229,87.776c-0.691,-2.515 -2.984,-3.316 -5.719,-1.741l-111.711,64.546c-1.63,0.939 -3.122,2.542 -4.173,4.42l-16.661,-9.615c1.078,-1.879 2.542,-3.481 4.172,-4.421l111.684,-64.546c3.288,-1.879 8.592,-1.879 11.853,0l4.836,2.791c2.791,1.603 5.139,5.195 5.719,8.566" style="fill:#fff;fill-rule:nonzero;"/></g><path d="M234.51,161.761c-4.364,2.521 -7.903,8.651 -7.903,13.691c0.001,5.041 3.539,7.083 7.903,4.563c4.366,-2.52 7.904,-8.649 7.905,-13.69c-0,-5.041 -3.539,-7.084 -7.905,-4.564" style="fill:#fff;fill-rule:nonzero;"/><path d="M263.651,144.904c-4.365,2.52 -7.904,8.65 -7.904,13.689c0.001,5.041 3.54,7.084 7.904,4.563c4.365,-2.519 7.904,-8.649 7.904,-13.689c0,-5.041 -3.538,-7.085 -7.904,-4.563" style="fill:#fff;fill-rule:nonzero;"/><path d="M292.792,128.044c-4.365,2.521 -7.904,8.651 -7.903,13.691c-0,5.041 3.538,7.083 7.903,4.563c4.365,-2.52 7.903,-8.649 7.904,-13.689c0,-5.042 -3.538,-7.084 -7.904,-4.565" style="fill:#fff;fill-rule:nonzero;"/></g></svg>