<?xml version="1.0" encoding="UTF-8" standalone="no"?><!DOCTYPE svg PUBLIC "-//W3C//DTD SVG 1.1//EN" "http://www.w3.org/Graphics/SVG/1.1/DTD/svg11.dtd"><svg width="100%" height="100%" viewBox="0 0 1440 637" version="1.1" xmlns="http://www.w3.org/2000/svg" xmlns:xlink="http://www.w3.org/1999/xlink" xml:space="preserve" xmlns:serif="http://www.serif.com/" style="fill-rule:evenodd;clip-rule:evenodd;stroke-linejoin:round;stroke-miterlimit:2;"><rect id="Artboard1" x="0" y="0" width="1440" height="636.88" style="fill:none;"/><path d="M17.32,626.068c-0,0 15.432,-31.59 52.337,-28.079c-0,-0 53.578,-52.652 110.713,-7.02c-0,-0 60.734,-11.307 105.712,9.789c29.987,14.066 39.892,28.821 39.892,28.821l-308.654,-3.511Z" style="fill:#e2eef7;fill-rule:nonzero;"/><path d="M1147.66,484.971c0,-0 9.57,-19.59 32.455,-17.413c0,-0 33.225,-32.651 68.655,-4.353c0,-0 37.662,-7.012 65.554,6.07c18.596,8.722 24.738,17.872 24.738,17.872l-191.402,-2.176Z" style="fill:#e2eef7;fill-rule:nonzero;"/><path d="M148.873,375.36c0,-0 9.57,-19.59 32.455,-17.413c0,-0 33.225,-32.65 68.656,-4.353c-0,-0 37.662,-7.012 65.553,6.071c18.597,8.722 24.739,17.872 24.739,17.872l-191.403,-2.177Z" style="fill:#e2eef7;fill-rule:nonzero;"/></svg>