<?xml version="1.0" encoding="UTF-8" standalone="no"?><!DOCTYPE svg PUBLIC "-//W3C//DTD SVG 1.1//EN" "http://www.w3.org/Graphics/SVG/1.1/DTD/svg11.dtd"><svg width="100%" height="100%" viewBox="0 0 375 107" version="1.1" xmlns="http://www.w3.org/2000/svg" xmlns:xlink="http://www.w3.org/1999/xlink" xml:space="preserve" xmlns:serif="http://www.serif.com/" style="fill-rule:evenodd;clip-rule:evenodd;stroke-linejoin:round;stroke-miterlimit:2;"><g><path d="M345.228,106.972l-315.456,-0c-16.442,-0 -29.772,-13.33 -29.772,-29.773l0,-47.427c0,-16.443 13.33,-29.772 29.772,-29.772l315.456,-0c16.442,-0 29.772,13.329 29.772,29.772l-0,47.427c-0,16.443 -13.33,29.773 -29.772,29.773" style="fill:#fff;fill-rule:nonzero;"/><path d="M283.799,36.063c-4.625,0 -6.941,5.591 -3.67,8.86l5.842,5.843c0.479,0.479 0.479,1.257 -0,1.736l-5.842,5.842c-3.271,3.27 -0.955,8.861 3.67,8.861c1.377,-0 2.696,-0.547 3.669,-1.521l13.184,-13.182c0.478,-0.479 0.478,-1.257 0,-1.736l-13.184,-13.182c-0.973,-0.973 -2.292,-1.521 -3.669,-1.521" style="fill:#004367;fill-rule:nonzero;"/><path d="M309.601,36.063c-4.624,0 -6.941,5.591 -3.67,8.86l5.843,5.843c0.479,0.479 0.479,1.257 0,1.736l-5.843,5.842c-3.271,3.27 -0.954,8.861 3.67,8.861c1.377,-0 2.696,-0.547 3.67,-1.521l13.184,-13.182c0.478,-0.479 0.478,-1.257 -0,-1.736l-13.184,-13.182c-0.974,-0.973 -2.293,-1.521 -3.67,-1.521" style="fill:#004367;fill-rule:nonzero;"/><g><path d="M80.952,56.643c-2.096,0.699 -4.811,1.493 -8.145,2.382l0,9.859c0,3.144 -1.603,4.716 -4.81,4.716l-5.335,-0l-1,-4.335c1.683,0.191 3.27,0.286 4.763,0.286c1.206,0 1.81,-0.603 1.81,-1.81l-0,-7.668c-3.207,0.698 -6.145,1.254 -8.812,1.667l-0.619,-4.525c3.302,-0.54 6.446,-1.111 9.431,-1.715l-0,-8.525l-9.431,-0l-0,-4.335l9.431,0l-0,-5.049c-1.779,0.35 -4.224,0.762 -7.335,1.239l-0.953,-4.287c6.732,-0.73 12.638,-2.127 17.718,-4.191l1.572,4.239c-2.032,0.698 -4.175,1.365 -6.43,2l0,6.049l10.288,0c-0.285,-3.715 -0.428,-7.811 -0.428,-12.288l4.572,-0c0,4.667 0.143,8.764 0.429,12.288l14.384,0l0,4.335l-14.003,-0c0.286,3.143 0.714,5.763 1.286,7.859c0.159,0.698 0.381,1.524 0.667,2.476c2.095,-2.508 3.89,-5.318 5.382,-8.43l3.906,2.048c-2.16,4.414 -4.7,8.176 -7.621,11.288c0.667,1.461 1.222,2.54 1.667,3.239c1.429,2.159 2.524,3.239 3.286,3.239c0.635,-0 1.255,-2.477 1.858,-7.43l4.001,2.095c-1.207,6.796 -2.953,10.193 -5.239,10.193c-2.033,0 -4.176,-1.413 -6.431,-4.239c-0.952,-1.175 -1.762,-2.493 -2.429,-3.953c-3.334,2.794 -7.017,4.969 -11.05,6.525l-2.524,-3.906c4.477,-1.619 8.383,-3.953 11.717,-7.001c-0.54,-1.461 -1.032,-3.096 -1.477,-4.906c-0.667,-2.572 -1.191,-5.605 -1.572,-9.097l-10.669,-0l0,7.477c2.858,-0.762 5.573,-1.571 8.145,-2.429l-0,4.62Zm11.526,-25.863c3.335,2.096 6.208,4.239 8.622,6.43l-3.287,3.239c-2,-2.096 -4.795,-4.35 -8.383,-6.763l3.048,-2.906Z" style="fill:#004367;fill-rule:nonzero;"/><path d="M109.721,31.876l42.391,-0l-0,4.048l-13.67,0l-0,3.477l10.812,0l-0,12.622l-19.529,0c-0.635,1.048 -1.27,2.16 -1.905,3.334l24.863,0l0,4.192l-9.955,-0c-0.952,2.445 -2.492,4.62 -4.62,6.525c4.382,1.334 9.034,2.937 13.956,4.811l-2.81,3.715c-4.986,-2.127 -10.066,-4.033 -15.242,-5.716c-4.509,2.318 -11.844,4.16 -22.005,5.526l-1.715,-4.001c7.812,-0.889 13.734,-2.017 17.766,-3.382c-3.429,-1.016 -7.097,-1.985 -11.002,-2.906c1.397,-2.032 2.413,-3.556 3.048,-4.572l-11.003,-0l0,-4.192l13.575,0l1.953,-3.334l-12.051,0l0,-12.622l10.813,0l-0,-3.477l-13.67,0l-0,-4.048Zm23.481,32.769c2.287,-1.46 3.89,-3.159 4.811,-5.096l-12.717,-0l-1.858,2.762c3.366,0.699 6.621,1.477 9.764,2.334Zm0.905,-25.244l0,-3.477l-6.382,0l-0,3.477l6.382,0Zm10.812,8.764l0,-4.906l-6.477,0l-0,4.906l6.477,0Zm-10.812,0l0,-4.906l-6.382,0l-0,4.906l6.382,0Zm-10.716,0l-0,-4.906l-6.478,0l-0,4.906l6.478,0Z" style="fill:#004367;fill-rule:nonzero;"/><path d="M185.739,54.976c-4.827,4.065 -10.654,6.716 -17.481,7.955l-2.381,-3.192c6.985,-1.206 12.511,-3.508 16.575,-6.906l3.287,2.143Zm5.81,3.716c-6.382,5.144 -14.13,8.478 -23.243,10.002l-2.382,-3.334c9.368,-1.524 16.798,-4.493 22.291,-8.907l3.334,2.239Zm6.859,3.477c-7.97,6.319 -17.591,10.399 -28.864,12.241l-2.477,-3.287c11.686,-1.937 20.99,-5.684 27.912,-11.241l3.429,2.287Zm-21.005,-14.004c-4.858,1.143 -9.812,1.905 -14.86,2.287l-1.096,-3.096c2.985,-1.556 5.478,-4.033 7.478,-7.431l3.668,1.143c-1.302,2.096 -2.795,3.938 -4.478,5.525c2.033,-0.222 4.446,-0.619 7.24,-1.19l-2.048,-2.144l3.048,-1.905c1.969,1.874 3.62,3.636 4.954,5.287l1.191,0l-0.143,-0.429c2.635,-1.46 4.842,-3.746 6.62,-6.858l3.668,1.143c-1.143,1.873 -2.461,3.556 -3.953,5.049c1.905,-0.191 3.842,-0.429 5.811,-0.715l-1.572,-1.762l3.096,-1.953c2.508,2.604 4.525,4.969 6.049,7.097l-3.287,2.334c-0.794,-1.207 -1.476,-2.191 -2.048,-2.953c-3.175,0.635 -6.541,1.127 -10.097,1.476c4,2.318 9.573,4.462 16.718,6.43l-2.525,3.811c-8.668,-2.477 -15.146,-5.525 -19.433,-9.145c-5.176,3.969 -11.637,7.017 -19.385,9.145l-2.525,-3.811c7.431,-1.968 13.4,-4.413 17.909,-7.335Zm11.622,-17.385c4.033,2.795 7.256,5.351 9.669,7.669l-3.572,2.476l-2.525,-2.524c-10.002,0.762 -19.068,1.318 -27.197,1.667l-0.762,-3.477c3.303,0 7.24,-2.238 11.813,-6.716l4.191,1.143c-2.096,2.16 -3.969,3.843 -5.62,5.049c7.398,-0.476 11.971,-0.794 13.717,-0.952c-0.635,-0.508 -1.619,-1.271 -2.953,-2.287l3.239,-2.048Z" style="fill:#004367;fill-rule:nonzero;"/><path d="M251.754,35.686l0,37.819l-4.43,-0l0,-2.953l-7.335,-0l0,2.953l-4.429,-0l-0,-37.819l16.194,0Zm-11.765,30.484l7.335,-0l0,-26.102l-7.335,0l0,26.102Zm-22.195,-35.771l4.572,0l0,8.002l9.574,0c-0,16.194 -0.238,26.197 -0.715,30.007c-0.476,3.62 -2.841,5.43 -7.096,5.43c-0.572,-0 -1.81,-0.079 -3.716,-0.238l-1.143,-4.144c1.81,0.159 3.191,0.238 4.144,0.238c2.001,0 3.191,-1.111 3.572,-3.334c0.254,-2.064 0.429,-9.907 0.524,-23.529l-5.144,-0l0,1.286c-0.159,13.908 -3.223,24.069 -9.192,30.483l-3.668,-3.239c5.43,-5.62 8.192,-14.702 8.288,-27.244l-0,-1.286l-7.192,-0l-0,-4.43l7.192,0l-0,-8.002Z" style="fill:#004367;fill-rule:nonzero;"/></g><path d="M366.259,73.032c-0.398,13.987 -11.841,24.798 -25.674,25.093l-250.833,-0c-18.205,-0 -36.414,0.113 -54.617,-0c-7.691,-0.049 -14.863,-2.909 -20.019,-8.737c-6.149,-6.956 -6.387,-15.203 -6.387,-23.871l-0,-25.381c-0,-9.043 0.941,-17.443 7.923,-24.15c7.254,-6.97 15.939,-7.139 25.103,-7.139l295.915,-0c1.756,-0 3.531,-0.052 5.281,0.1c13.297,1.162 23.092,12.596 23.321,25.689c0.222,12.761 0.35,25.639 -0.013,38.396m3.477,-11.196l-0,-25.168c-0,-9.307 -2.889,-18.045 -10.167,-24.25c-7.643,-6.517 -16.412,-7.035 -25.755,-7.035l-239.906,-0c-19.558,-0 -39.119,-0.115 -58.675,-0c-17.047,0.1 -29.89,13.212 -29.968,30.185c-0.038,7.953 -0,15.905 -0,23.858c-0,6.794 -0.771,14.328 1.098,20.942c4.033,14.273 16.973,21.221 30.967,21.221l303.255,-0c11.857,-0.253 22.597,-7.213 27.061,-18.332c2.73,-6.8 2.09,-14.247 2.09,-21.421" style="fill:#004367;fill-rule:nonzero;"/></g></svg>