<?xml version="1.0" encoding="UTF-8" standalone="no"?><!DOCTYPE svg PUBLIC "-//W3C//DTD SVG 1.1//EN" "http://www.w3.org/Graphics/SVG/1.1/DTD/svg11.dtd"><svg width="100%" height="100%" viewBox="0 0 600 156" version="1.1" xmlns="http://www.w3.org/2000/svg" xmlns:xlink="http://www.w3.org/1999/xlink" xml:space="preserve" xmlns:serif="http://www.serif.com/" style="fill-rule:evenodd;clip-rule:evenodd;stroke-linejoin:round;stroke-miterlimit:2;"><g><path d="M570.834,155.408l-541.668,0c-16.107,0 -29.166,-13.058 -29.166,-29.166l-0,-97.076c-0,-16.107 13.059,-29.166 29.166,-29.166l541.668,-0c16.108,-0 29.166,13.059 29.166,29.166l-0,97.076c-0,16.108 -13.058,29.166 -29.166,29.166" style="fill:#fff;fill-rule:nonzero;"/><path d="M517.287,61.01c-4.529,-0 -6.799,5.477 -3.595,8.679l5.724,5.725c0.47,0.469 0.47,1.23 -0,1.7l-5.724,5.724c-3.204,3.202 -0.934,8.679 3.595,8.679c1.349,0 2.642,-0.535 3.596,-1.489l12.915,-12.914c0.469,-0.47 0.469,-1.231 -0,-1.7l-12.915,-12.915c-0.954,-0.953 -2.247,-1.489 -3.596,-1.489" style="fill:#004367;fill-rule:nonzero;"/><path d="M542.565,61.01c-4.53,-0 -6.799,5.477 -3.595,8.679l5.723,5.725c0.47,0.469 0.47,1.23 -0,1.7l-5.723,5.724c-3.204,3.202 -0.935,8.679 3.595,8.679c1.349,0 2.641,-0.535 3.595,-1.489l12.914,-12.914c0.47,-0.47 0.47,-1.231 0,-1.7l-12.914,-12.915c-0.954,-0.953 -2.246,-1.489 -3.595,-1.489" style="fill:#004367;fill-rule:nonzero;"/><g><path d="M60.993,36.915c-0.684,1.057 -1.384,2.084 -2.099,3.079l29.536,0l-0.327,10.546l5.646,-0l0,4.153l-5.786,-0l-0.326,6.672l4.806,0l-0,4.106l-5.086,0c-0.156,1.182 -0.265,1.898 -0.327,2.147c-0.404,1.493 -1.198,2.566 -2.38,3.219c-1.182,0.716 -2.893,1.073 -5.132,1.073l-5.833,0.047l-1.307,-4.059c3.236,0.124 5.398,0.186 6.486,0.186c0.84,0 1.665,-0.109 2.473,-0.326c0.685,-0.28 1.214,-0.887 1.587,-1.82l0.093,-0.467l-26.97,0c0.685,-3.888 1.229,-7.481 1.633,-10.778l-7.232,-0l-0,-4.153l7.652,-0c0.311,-3.204 0.514,-6.642 0.607,-10.312c-1.587,2.084 -3.266,3.95 -5.039,5.599l-2.847,-3.453c3.702,-3.328 6.906,-7.963 9.612,-13.905l4.48,1.027c-0.342,0.746 -0.856,1.804 -1.54,3.173l28.09,-0l-0,4.246l-30.47,-0Zm7.606,17.964c3.577,1.151 6.75,2.489 9.519,4.013l-1.633,2.473l6.859,0c0.093,-1.742 0.186,-3.966 0.28,-6.672l-21.511,-0c-0.342,2.893 -0.653,5.117 -0.933,6.672l13.578,0c-2.706,-1.586 -5.412,-2.784 -8.119,-3.593l1.96,-2.893Zm5.973,-4.339c-2.396,-1.338 -4.931,-2.473 -7.606,-3.406l1.96,-2.893c3.452,1.119 6.61,2.488 9.472,4.106l-1.447,2.193l6.813,-0l0.233,-6.439l-21.137,-0c-0.063,1.648 -0.187,3.795 -0.374,6.439l12.086,-0Z" style="fill:#004367;fill-rule:nonzero;"/><path d="M136.91,30.476l0,41.248l-4.432,-0l-0,-3.267l-21.044,0l-0,3.313l-4.433,0l-0,-41.294l29.909,-0Zm-25.476,33.642l21.044,0l-0,-12.972l-21.044,0l-0,12.972Zm-0,-17.311l21.044,-0l-0,-12.039l-21.044,0l-0,12.039Z" style="fill:#004367;fill-rule:nonzero;"/><path d="M175.312,46.994c3.173,3.95 5.646,7.403 7.419,10.358l-3.499,2.473c-1.898,-3.359 -4.34,-6.937 -7.326,-10.732l3.406,-2.099Zm2.94,-17.545c-0.56,2.52 -1.26,4.899 -2.1,7.139l14.838,0c0,15.958 -0.233,25.804 -0.7,29.536c-0.498,3.547 -2.8,5.32 -6.906,5.32c-0.715,-0 -2.364,-0.078 -4.946,-0.234l-1.073,-4.012c2.738,0.124 4.511,0.186 5.319,0.186c1.991,0 3.142,-1.073 3.453,-3.219c0.249,-2.053 0.42,-9.815 0.514,-23.284l-12.459,-0c-1.493,2.8 -3.219,5.319 -5.179,7.559l-2.753,-3.5c3.826,-4.386 6.392,-9.736 7.699,-16.051l4.293,0.56Zm-22.771,30.936c-0.28,4.355 -0.871,8.088 -1.773,11.199l-3.779,-1.167c0.995,-2.924 1.633,-6.423 1.913,-10.498l3.639,0.466Zm5.74,-0.793c0.622,3.111 1.182,6.439 1.679,9.985l-3.919,0.934c-0.405,-4.2 -0.856,-7.591 -1.353,-10.172l3.593,-0.747Zm4.479,-12.272c1.12,2.738 2.146,5.911 3.08,9.519l-3.78,0.933l-0.513,-1.96c-4.573,1.12 -8.866,1.867 -12.879,2.24l-1.119,-3.826c0.715,-0.311 1.353,-0.7 1.913,-1.167c1.586,-1.462 3.577,-3.919 5.972,-7.372l-7.279,0.84l-1.026,-3.78c0.622,-0.28 1.197,-0.793 1.726,-1.539c2.458,-3.733 4.619,-7.871 6.486,-12.412l4.106,1.586c-2.333,4.946 -4.744,8.99 -7.232,12.132c1.275,-0.124 3.188,-0.373 5.739,-0.746c0.622,-0.996 1.804,-2.94 3.546,-5.833l3.826,1.446c-4.604,7.591 -8.461,13.034 -11.572,16.332c2.582,-0.436 4.853,-0.871 6.813,-1.307c-0.684,-2.084 -1.136,-3.406 -1.353,-3.966l3.546,-1.12Zm0.98,11.339c0.995,2.333 1.897,4.915 2.706,7.745l-3.453,1.587c-0.746,-2.955 -1.571,-5.708 -2.473,-8.259l3.22,-1.073Z" style="fill:#004367;fill-rule:nonzero;"/><path d="M211.567,33.182c6.471,-0 10.126,3.017 10.966,9.052l-4.946,0c-0.685,-3.235 -2.707,-4.853 -6.066,-4.853c-2.333,0 -4.169,1.136 -5.506,3.407c-1.338,2.115 -2.007,4.806 -2.007,8.072c0,0.218 0.016,0.42 0.047,0.607l0.187,-0c0.933,-1.494 2.115,-2.582 3.546,-3.267c1.275,-0.684 2.815,-1.026 4.619,-1.026c3.267,-0 5.88,1.026 7.839,3.079c1.929,2.116 2.893,4.806 2.893,8.073c0,3.328 -1.104,6.066 -3.313,8.212c-2.27,2.177 -5.039,3.266 -8.305,3.266c-4.075,0 -7.186,-1.493 -9.332,-4.479c-2.053,-2.862 -3.08,-6.828 -3.08,-11.899c0,-5.475 1.104,-9.861 3.313,-13.158c2.24,-3.391 5.288,-5.086 9.145,-5.086Zm-0.186,16.098c-2.084,-0 -3.733,0.653 -4.946,1.96c-1.213,1.306 -1.82,3.048 -1.82,5.226c-0,2.177 0.622,3.904 1.866,5.179c1.214,1.307 2.831,1.96 4.853,1.96c2.053,-0 3.686,-0.685 4.899,-2.053c1.276,-1.431 1.914,-3.173 1.914,-5.226c-0,-2.178 -0.607,-3.873 -1.82,-5.086c-1.213,-1.307 -2.862,-1.96 -4.946,-1.96Z" style="fill:#004367;fill-rule:nonzero;"/><path d="M234.758,31.129l32.522,-0l0,4.293l-32.522,-0l-0,-4.293Zm-3.593,13.718l40.175,0l-0,4.293l-12.505,-0l-0,16.238c-0,1.244 0.575,1.866 1.726,1.866l5.133,0c0.684,0 1.197,-0.357 1.54,-1.073c0.435,-0.84 0.7,-3.188 0.793,-7.046l4.013,1.307c-0.311,5.164 -0.902,8.274 -1.773,9.332c-0.871,0.964 -2.116,1.446 -3.733,1.446l-7.233,0c-3.173,0 -4.759,-1.633 -4.759,-4.899l-0,-17.171l-7.372,-0l-0,0.84c-0.187,5.941 -1.462,10.732 -3.827,14.371c-2.333,3.298 -6.097,5.88 -11.292,7.746l-2.379,-3.733c5.008,-1.804 8.43,-4.09 10.265,-6.859c1.773,-2.986 2.753,-6.828 2.94,-11.525l-0,-0.84l-11.712,-0l-0,-4.293Z" style="fill:#004367;fill-rule:nonzero;"/><path d="M291.264,71.444l-1.073,-4.62c2.519,0.218 4.557,0.327 6.112,0.327c1.867,-0 2.8,-0.964 2.8,-2.893l-0,-34.669l4.619,0l0,35.836c0,4.012 -1.928,6.019 -5.786,6.019l-6.672,-0Zm-0.233,-29.257c-2.147,9.115 -4.978,16.114 -8.493,20.998l-3.872,-3.406c3.577,-4.884 6.221,-11.339 7.932,-19.365l4.433,1.773Zm23.657,-2.939c3.39,8.305 5.988,15.476 7.792,21.51l-4.013,2.8c-1.929,-6.408 -4.542,-13.671 -7.839,-21.79l4.06,-2.52Z" style="fill:#004367;fill-rule:nonzero;"/><path d="M333.865,48.067c-0.84,0.871 -1.804,1.757 -2.893,2.659l-2.24,-2.939c3.391,-2.738 5.709,-6.004 6.953,-9.799l3.733,0.56c-0.311,0.995 -0.56,1.711 -0.747,2.146l8.073,0l-0,2.987c-1.12,2.457 -2.349,4.526 -3.687,6.206c2.458,1.617 4.775,3.344 6.953,5.179l-2.94,2.939l-0.653,-0.606l-0,14.091l-3.92,0l0,-2.286l-6.952,0l-0,2.52l-3.873,-0l0,-13.625l-1.306,0.42l-1.773,-3.546c3.39,-0.871 6.33,-2.396 8.818,-4.573c-1.555,-1.058 -2.737,-1.836 -3.546,-2.333Zm6.719,4.572c-1.773,1.618 -3.639,2.956 -5.599,4.013l10.639,0c-1.556,-1.431 -3.235,-2.768 -5.04,-4.013Zm-0.653,-4.852c0.933,-1.12 1.773,-2.333 2.52,-3.64l-5.506,0c-0.28,0.467 -0.56,0.887 -0.84,1.26c1.213,0.716 2.488,1.509 3.826,2.38Zm-4.386,17.684l6.952,0l0,-5.179l-6.952,-0l-0,5.179Zm13.392,-32.662l-0,7.839l-3.827,-0l0,-4.153l-11.851,-0l-0,4.153l-3.827,-0l0,-7.839l7.699,-0c-0.342,-1.12 -0.762,-2.209 -1.259,-3.267l4.339,-0.699c0.404,1.306 0.778,2.628 1.12,3.966l7.606,-0Zm2.193,5.039l6.485,0c0.094,-0.747 0.203,-1.898 0.327,-3.453l-8.212,0l-0,-3.919l21.277,-0l0,3.919l-8.725,0c-0.125,1.462 -0.234,2.613 -0.327,3.453l7.512,0l0,24.73l-18.337,0l-0,-24.73Zm14.278,20.904l-0,-3.546l-10.266,-0l0,3.546l10.266,0Zm-10.266,-7.046l10.266,0l-0,-3.266l-10.266,0l0,3.266Zm0,-6.812l10.266,-0l-0,-3.406l-10.266,-0l0,3.406Zm3.593,20.437c-2.053,2.613 -4.588,4.931 -7.605,6.953l-2.613,-3.36c2.799,-1.742 5.195,-3.826 7.185,-6.252l3.033,2.659Zm6.16,-2.706c2.799,2.177 5.117,4.324 6.952,6.439l-2.986,2.94c-1.587,-2.116 -3.826,-4.355 -6.719,-6.719l2.753,-2.66Z" style="fill:#004367;fill-rule:nonzero;"/><path d="M393.638,51.566c-1.618,0.84 -3.173,1.587 -4.667,2.24l0,13.018c0,3.111 -1.586,4.666 -4.759,4.666l-4.246,0l-0.933,-4.292c1.4,0.155 2.613,0.233 3.639,0.233c1.245,-0 1.867,-0.576 1.867,-1.727l-0,-10.078c-2.178,0.777 -4.075,1.415 -5.693,1.913l-1.073,-4.246c2.24,-0.498 4.495,-1.151 6.766,-1.96l-0,-9.985l-6.113,-0l0,-4.247l6.113,0l-0,-8.119l4.432,0l0,8.119l5.413,0l0,4.247l-5.413,-0l0,8.165c1.898,-0.902 3.453,-1.68 4.667,-2.333l-0,4.386Zm2.986,-21.184l20.857,0l0,12.132l-20.857,0l-0,-12.132Zm16.471,8.306l0,-4.48l-12.132,0l0,4.48l12.132,-0Zm-13.158,17.684l-0,3.22l14.418,-0l-0,-3.22l-14.418,0Zm14.418,-3.826l-0,-3.406l-14.418,-0l-0,3.406l14.418,0Zm-14.418,10.872l-0,8.492l-4.48,0l0,-26.97l23.331,0l-0,21.884c-0,3.298 -1.696,4.946 -5.086,4.946l-4.573,0l-1.12,-4.246l4.246,0.234c1.4,-0 2.1,-0.654 2.1,-1.96l-0,-2.38l-14.418,0Z" style="fill:#004367;fill-rule:nonzero;"/><path d="M447.157,31.409l0,28.136c1.058,-0.373 2.007,-0.684 2.847,-0.933l-0,4.246c-6.128,2.209 -13.19,4.215 -21.184,6.019l-1.213,-4.246l3.126,-0.653l-0,-32.569l16.424,-0Zm-11.898,31.496c1.524,-0.373 4.028,-1.042 7.512,-2.007l0,-5.272l-7.512,-0l-0,7.279Zm-0,-11.292l7.512,-0l0,-6.206l-7.512,0l-0,6.206Zm-0,-10.172l7.512,-0l0,-5.973l-7.512,0l-0,5.973Zm19.224,-12.319l4.48,0l-0,8.306l10.172,0c-0,15.554 -0.234,25.15 -0.7,28.79c-0.498,3.546 -2.94,5.319 -7.326,5.319l-3.78,-0.187l-1.026,-3.919c1.773,0.155 3.142,0.233 4.106,0.233c2.209,0 3.468,-1.12 3.78,-3.359c0.28,-2.24 0.466,-9.799 0.559,-22.677l-5.785,-0l-0,0.839c-0.125,13.563 -3.329,23.502 -9.613,29.817l-3.546,-3.127c5.693,-5.506 8.586,-14.402 8.679,-26.69l0,-0.839l-5.273,-0l0,-4.2l5.273,0l0,-8.306Z" style="fill:#004367;fill-rule:nonzero;"/><path d="M483.879,60.525c2.738,0 4.107,1.804 4.107,5.413c-0,4.448 -2.054,7.777 -6.16,9.985l-1.54,-2.473c2.707,-1.68 4.184,-3.81 4.433,-6.392c-0.311,0.062 -0.591,0.093 -0.84,0.093c-0.933,-0 -1.742,-0.311 -2.426,-0.933c-0.653,-0.653 -0.98,-1.431 -0.98,-2.333c0,-1.058 0.311,-1.882 0.933,-2.473c0.622,-0.591 1.447,-0.887 2.473,-0.887Z" style="fill:#004367;fill-rule:nonzero;"/><path d="M69.719,79.8l4.573,0l-0,5.74l17.871,-0l-0,4.292l-17.871,0l-0,6.113l12.411,-0l0,3.919c-2.457,5.009 -6.034,9.317 -10.732,12.925c2.302,1.214 4.589,2.256 6.859,3.127c3.64,1.306 7.171,2.348 10.592,3.126l-2.566,3.919c-3.919,-1.026 -7.761,-2.317 -11.525,-3.872c-2.364,-1.027 -4.744,-2.256 -7.139,-3.687c-5.133,3.173 -11.37,5.755 -18.711,7.746l-2.566,-3.966c6.781,-1.524 12.598,-3.655 17.451,-6.393c-2.396,-1.866 -4.433,-3.888 -6.113,-6.066c-1.617,-2.021 -2.784,-4.23 -3.499,-6.625l-3.267,-0l0,-4.153l14.232,-0l-0,-6.113l-17.778,0l0,-4.292l17.778,-0l-0,-5.74Zm2.38,30.656c4.168,-2.986 7.356,-6.439 9.565,-10.358l-18.524,-0c0.871,2.208 2.084,4.137 3.639,5.786c1.618,1.773 3.391,3.297 5.32,4.572Z" style="fill:#004367;fill-rule:nonzero;"/><path d="M101.728,122.448l-0.98,-4.293c1.338,0.156 2.52,0.234 3.546,0.234c1.089,-0 1.634,-0.56 1.634,-1.68l-0,-9.892c-1.68,0.56 -3.407,1.12 -5.18,1.68l-1.12,-4.48c2.271,-0.498 4.371,-1.073 6.3,-1.726l-0,-9.612l-5.32,-0l0,-4.293l5.32,-0l-0,-8.446l4.479,0l-0,8.446l4.433,-0l-0,4.293l-4.433,-0l-0,7.979c1.431,-0.623 2.94,-1.322 4.526,-2.1l0,4.479l-4.526,2.007l-0,12.785c-0,3.079 -1.524,4.619 -4.573,4.619l-4.106,0Zm25.197,-42.694l4.479,-0l0,4.666l9.052,-0l0,4.059l-9.052,0l0,4.48l10.872,-0l0,4.199l-25.756,0l-0,-4.199l10.405,-0l-0,-4.48l-8.679,0l-0,-4.059l8.679,-0l-0,-4.666Zm-10.825,22.023l16.238,0l-0,-2.939l4.479,-0l-0,2.939l6.019,0l0,4.247l-6.019,-0l-0,11.805c-0,3.11 -1.555,4.666 -4.666,4.666l-6.159,-0l-0.98,-4.246c2.177,0.155 4.044,0.233 5.599,0.233c1.151,-0 1.727,-0.591 1.727,-1.773l-0,-10.685l-16.238,-0l-0,-4.247Zm4.666,5.413c2.55,2.644 4.541,4.993 5.972,7.046l-3.499,2.473c-1.462,-2.24 -3.438,-4.682 -5.926,-7.326l3.453,-2.193Z" style="fill:#004367;fill-rule:nonzero;"/><path d="M172.559,79.754c5.848,6.034 12.567,10.778 20.157,14.231l-2.193,3.966c-2.395,-1.151 -4.572,-2.348 -6.532,-3.593l-0,4.2l-10.779,-0l0,6.999l13.112,-0l-0,4.293l-13.112,-0l0,7.372l17.358,0l0,4.34l-39.148,-0l-0,-4.34l17.311,0l-0,-7.372l-13.158,-0l-0,-4.293l13.158,-0l-0,-6.999l-10.779,-0l0,-4.2c-1.991,1.214 -4.23,2.442 -6.719,3.687l-2.146,-3.873c8.119,-3.889 14.884,-8.695 20.297,-14.418l3.173,-0Zm11.339,14.558c-4.853,-2.987 -9.161,-6.502 -12.925,-10.546c-3.484,3.827 -7.793,7.342 -12.925,10.546l25.85,-0Z" style="fill:#004367;fill-rule:nonzero;"/><path d="M213.201,84.513l5.132,-0l0,-4.573l4.293,0l0,4.573l6.812,-0l0,-4.573l4.293,0l0,4.573l5.553,-0l-0,4.059l-5.553,0l0,4.527l7.046,-0l0,4.106l-6.906,-0c1.898,2.737 4.713,4.899 8.446,6.486l-1.867,3.826c-2.333,-1.245 -4.261,-2.551 -5.786,-3.92l0,9.146l-14.138,-0l0,3.546c0,1.089 0.638,1.633 1.913,1.633l11.852,0c0.84,-0.062 1.4,-0.389 1.68,-0.98c0.28,-0.466 0.513,-1.773 0.7,-3.919l4.199,1.353c-0.28,2.333 -0.606,4.013 -0.98,5.039c-0.591,1.618 -1.975,2.473 -4.152,2.567l-15.025,-0c-3.017,-0 -4.526,-1.323 -4.526,-3.967l-0,-12.785c-1.4,1.214 -2.94,2.333 -4.62,3.36l-2.286,-3.733c4.231,-2.364 7.17,-4.915 8.819,-7.652l-6.719,-0l-0,-4.106l6.952,-0l0,-4.527l-5.132,0l-0,-4.059Zm19.27,16.891c-1.213,-1.306 -2.193,-2.706 -2.939,-4.199l-7.233,-0c-0.653,1.493 -1.493,2.893 -2.519,4.199l12.691,0Zm-9.845,-8.305l6.812,-0l0,-4.527l-6.812,0l0,4.527Zm-2.1,15.911l9.986,-0l-0,-3.92l-9.986,0l0,3.92Zm-17.451,-28.556c3.329,2.426 6.113,4.806 8.352,7.139l-3.126,3.079c-1.897,-2.177 -4.681,-4.573 -8.352,-7.186l3.126,-3.032Zm-0.84,11.431c3.08,2.333 5.662,4.635 7.746,6.906l-3.08,3.126c-1.928,-2.239 -4.526,-4.572 -7.792,-6.999l3.126,-3.033Zm7.559,15.492c-1.679,5.506 -3.593,10.638 -5.739,15.398l-4.479,-1.96c2.333,-4.822 4.401,-9.83 6.205,-15.025l4.013,1.587Z" style="fill:#004367;fill-rule:nonzero;"/><path d="M252.629,84.746l15.025,0l-0,-4.899l4.292,-0l0,4.899l14.838,0l0,4.06l-14.838,-0l0,6.252l18.058,0l0,4.153l-40.315,0l0,-4.153l17.965,0l-0,-6.252l-15.025,-0l-0,-4.06Zm16.098,15.538l4.246,0l-0,5.6l12.832,-0l-0,4.152l-12.832,0l-0,7.979c2.52,0.218 4.977,0.327 7.372,0.327c4.262,0 7.855,-0.093 10.779,-0.28l-1.307,4.479c-2.519,0 -5.583,-0.031 -9.192,-0.093c-7.994,-0.031 -13.485,-0.778 -16.471,-2.24c-2.24,-1.119 -4.277,-3.281 -6.113,-6.485c-1.493,3.204 -3.53,6.221 -6.112,9.052l-3.406,-2.987c4.759,-5.381 7.419,-11.323 7.979,-17.824l4.339,0.56c-0.187,2.52 -0.622,4.915 -1.306,7.186c1.897,3.546 4.059,5.801 6.485,6.766c0.809,0.342 1.711,0.622 2.707,0.839l-0,-17.031Z" style="fill:#004367;fill-rule:nonzero;"/><path d="M301.809,109.336l15.258,0l0,-2.939l3.78,-0l-2.753,-2.473c2.799,-2.862 4.246,-6.47 4.339,-10.825l0,-11.852l16.052,-0l-0,21.277c-0,2.769 -1.385,4.153 -4.153,4.153l-4.153,-0l-1.073,-3.966c1.866,0.124 3.188,0.186 3.966,0.186c0.809,0 1.213,-0.606 1.213,-1.819l0,-2.1l-8.539,-0c-0.84,2.955 -2.271,5.521 -4.293,7.699l0,2.659l15.492,0l-0,4.107l-15.492,-0l0,3.779l18.525,0l-0,4.06l-41.248,-0l-0,-4.06l18.337,0l0,-3.779l-15.258,-0l0,-4.107Zm-2.566,-24.17l4.899,0c-0.746,-1.4 -1.493,-2.659 -2.239,-3.779l3.499,-1.727c0.996,1.556 2.022,3.391 3.08,5.506l2.753,0c0.964,-1.742 1.804,-3.639 2.519,-5.692l3.967,1.353c-0.623,1.493 -1.354,2.939 -2.194,4.339l5.087,0l-0,3.873l-8.306,0l-0,4.013c-0.031,0.84 -0.109,1.851 -0.233,3.033l3.452,-0l0,-5.04l3.873,0l0,8.726l-8.212,0c-0.498,1.275 -1.058,2.364 -1.68,3.266c-1.68,2.271 -4.448,4.044 -8.305,5.32l-2.193,-3.453c3.484,-1.151 5.863,-2.629 7.139,-4.433l0.42,-0.7l-5.973,0l0,-8.726l3.826,0l0,5.04l3.453,-0c0.156,-0.871 0.265,-1.882 0.327,-3.033l-0,-4.013l-8.959,0l-0,-3.873Zm27.296,6.953l0,0.7c0,0.653 -0.062,1.539 -0.186,2.659l7.932,0l0,-3.359l-7.746,-0Zm7.746,-3.5l0,-3.453l-7.746,0l0,3.453l7.746,0Z" style="fill:#004367;fill-rule:nonzero;"/><path d="M347.91,84l14.652,-0l-0,4.293l-4.9,-0l0,21.183c1.773,-0.746 3.562,-1.57 5.366,-2.473l0,4.247c-4.542,2.177 -9.332,3.997 -14.371,5.459l-0.98,-4.2c2.084,-0.466 3.95,-0.948 5.599,-1.446l0,-22.77l-5.366,-0l0,-4.293Zm18.151,4.293l7.559,-0c0.342,-0.934 0.669,-1.976 0.98,-3.127l-10.452,0l-0,-3.919l25.523,-0l0,3.919l-10.685,0c-0.28,1.027 -0.607,2.069 -0.98,3.127l9.519,-0l-0,25.71l-6.253,-0c3.609,2.084 6.595,4.106 8.959,6.065l-2.799,2.893c-2.085,-1.99 -5.04,-4.168 -8.866,-6.532l2.566,-2.426l-8.958,-0l2.659,2.333c-2.737,2.55 -6.112,4.806 -10.125,6.765l-2.38,-3.126c3.702,-1.68 6.828,-3.671 9.379,-5.972l-5.646,-0l0,-25.71Zm17.218,22.117l-0,-4.06l-12.972,0l0,4.06l12.972,-0Zm-12.972,-7.466l12.972,-0l-0,-3.92l-12.972,0l0,3.92Zm0,-7.372l12.972,-0l-0,-3.687l-12.972,0l0,3.687Z" style="fill:#004367;fill-rule:nonzero;"/><path d="M435.072,82.087l0,40.734l-4.433,0l0,-2.753l-24.73,0l0,2.753l-4.432,0l-0,-40.734l33.595,-0Zm-29.163,33.689l24.73,-0l0,-6.953l-24.73,0l0,6.953Zm0,-11.059l24.73,0l0,-7.232l-24.73,-0l0,7.232Zm0,-11.338l24.73,-0l0,-7l-24.73,0l0,7Z" style="fill:#004367;fill-rule:nonzero;"/><path d="M453.177,84.746l5.832,0l-1.073,23.891l-3.686,-0l-1.073,-23.891Zm2.893,26.644c1.026,-0 1.85,0.311 2.473,0.933c0.653,0.591 0.979,1.384 0.979,2.379c0,0.965 -0.326,1.774 -0.979,2.427c-0.716,0.622 -1.54,0.933 -2.473,0.933c-0.934,0 -1.727,-0.327 -2.38,-0.98c-0.684,-0.653 -1.027,-1.446 -1.027,-2.38c0,-0.995 0.343,-1.788 1.027,-2.379c0.622,-0.622 1.415,-0.933 2.38,-0.933Z" style="fill:#004367;fill-rule:nonzero;"/></g><path d="M590.906,126.816c-2.44,11.673 -12.892,19.676 -24.62,19.925l-530.48,0c-10.127,0 -19.565,-4.205 -24.432,-13.581c-4.553,-8.768 -2.823,-21.112 -2.823,-30.678l-0,-63.06c-0,-3.798 -0.194,-7.649 0.673,-11.375c2.853,-12.257 13.889,-19.345 25.974,-19.38c3.675,-0.009 7.349,-0 11.023,-0l513.447,-0c2.19,-0 4.383,-0.037 6.573,-0c9.545,0.165 18.399,5.399 22.64,14.068c2.337,4.775 2.568,9.717 2.568,14.868l0,78.815c0,3.466 0.17,6.987 -0.543,10.398m3.716,-96.442c-1.165,-9.586 -7.295,-18.15 -16.024,-22.303c-8.881,-4.226 -20.58,-2.798 -30.188,-2.798l-481.165,0c-10.715,0 -21.431,-0.028 -32.147,0c-10.876,0.031 -21.028,5.006 -26.401,14.778c-5.013,9.119 -3.54,20.738 -3.54,30.784l0,46.096c0,9.266 -0.949,19.103 0.252,28.329c1.888,14.518 14.456,24.769 28.851,24.875c3.056,0.023 6.114,-0 9.17,-0l522.856,-0c17.085,-0.364 28.557,-14.032 28.557,-30.55l-0,-79.254c-0,-3.294 0.178,-6.679 -0.221,-9.957" style="fill:#004367;fill-rule:nonzero;"/></g></svg>