<?xml version="1.0" encoding="UTF-8" standalone="no"?><!DOCTYPE svg PUBLIC "-//W3C//DTD SVG 1.1//EN" "http://www.w3.org/Graphics/SVG/1.1/DTD/svg11.dtd"><svg width="100%" height="100%" viewBox="0 0 600 137" version="1.1" xmlns="http://www.w3.org/2000/svg" xmlns:xlink="http://www.w3.org/1999/xlink" xml:space="preserve" xmlns:serif="http://www.serif.com/" style="fill-rule:evenodd;clip-rule:evenodd;stroke-linejoin:round;stroke-miterlimit:2;"><g><path d="M574.444,136.174l-548.888,-0c-14.113,-0 -25.556,-11.442 -25.556,-25.557l0,-85.061c0,-14.113 11.443,-25.556 25.556,-25.556l548.888,0c14.114,0 25.556,11.443 25.556,25.556l0,85.061c0,14.115 -11.442,25.557 -25.556,25.557" style="fill:#fff;fill-rule:nonzero;"/><path d="M489.401,52.034c-3.969,-0 -5.957,4.799 -3.15,7.605l5.015,5.016c0.411,0.411 0.411,1.078 -0,1.489l-5.015,5.015c-2.807,2.807 -0.819,7.606 3.15,7.606c1.182,-0 2.315,-0.469 3.151,-1.305l11.316,-11.316c0.41,-0.411 0.41,-1.078 -0,-1.489l-11.316,-11.317c-0.836,-0.835 -1.969,-1.304 -3.151,-1.304" style="fill:#004367;fill-rule:nonzero;"/><path d="M511.55,52.034c-3.969,-0 -5.957,4.799 -3.15,7.605l5.015,5.016c0.412,0.411 0.412,1.078 0,1.489l-5.015,5.015c-2.807,2.807 -0.819,7.606 3.15,7.606c1.182,-0 2.315,-0.469 3.15,-1.305l11.317,-11.316c0.41,-0.411 0.41,-1.078 -0,-1.489l-11.317,-11.317c-0.835,-0.835 -1.968,-1.304 -3.15,-1.304" style="fill:#004367;fill-rule:nonzero;"/><g><path d="M231.099,27.071l-0,32.463l-3.802,0l-0,-2.535l-6.297,0l0,2.535l-3.802,0l-0,-32.463l13.901,0Zm-10.099,26.167l6.297,-0l-0,-22.405l-6.297,-0l0,22.405Zm-19.053,-30.705l3.925,-0l0,6.869l8.218,-0c0,13.901 -0.204,22.487 -0.613,25.758c-0.409,3.107 -2.439,4.66 -6.092,4.66c-0.49,0 -1.553,-0.068 -3.189,-0.204l-0.981,-3.557c1.554,0.136 2.739,0.204 3.557,0.204c1.717,0 2.739,-0.954 3.066,-2.862c0.218,-1.771 0.368,-8.504 0.45,-20.197l-4.416,-0l0,1.104c-0.136,11.938 -2.766,20.661 -7.89,26.167l-3.149,-2.781c4.661,-4.824 7.033,-12.62 7.114,-23.386l0,-1.104l-6.173,-0l-0,-3.802l6.173,-0l0,-6.869Z" style="fill:#004367;fill-rule:nonzero;"/><path d="M255.14,32.182c-1.799,-3.298 -3.994,-5.874 -6.583,-7.728l3.23,-2.044c3.434,2.399 6.474,6.992 9.118,13.779c3.87,9.54 8.913,16.313 15.127,20.32l-2.412,3.066c-6.405,-3.843 -11.775,-11.216 -16.109,-22.119l-0.286,-0.777c-2.78,9.895 -8.3,17.54 -16.559,22.937l-2.33,-3.312c8.504,-5.587 14.105,-13.628 16.804,-24.122Z" style="fill:#004367;fill-rule:nonzero;"/><path d="M297.702,43.057l3.27,0l0,6.869l1.881,0c0.136,-0.845 0.232,-1.812 0.286,-2.903l0,-4.988l3.476,0l-0,4.988c-0.082,3.571 -0.682,6.474 -1.799,8.709c-1.118,2.017 -2.917,3.598 -5.397,4.743l-1.963,-3.108c2.181,-1.063 3.653,-2.357 4.416,-3.884l0.163,-0.409l-4.333,0l-0,-10.017Zm17.253,0l3.353,0l-0,10.058l-5.847,0l0,7.033l-3.598,-0l0,-18.113l3.598,0l0,7.85l2.494,0l0,-6.828Zm-8.995,-9.567c0.655,2.235 1.213,4.688 1.677,7.36l-2.699,0.695c-0.19,-0.9 -0.3,-1.472 -0.327,-1.718c-3.243,0.437 -5.819,0.75 -7.727,0.941l-0.654,-2.699c1.335,-0.79 2.998,-2.671 4.988,-5.642l-4.13,0.409l-0.736,-2.698c0.436,-0.191 0.859,-0.573 1.268,-1.145c1.281,-2.126 2.371,-4.389 3.271,-6.787l3.148,1.185c-1.336,2.699 -2.617,4.866 -3.843,6.501c0.626,-0.054 1.567,-0.163 2.821,-0.327l1.799,-3.025l2.943,1.185c-3.025,4.934 -5.492,8.273 -7.4,10.017l3.762,-0.531l-0.736,-2.903l2.575,-0.818Zm11.162,-0.572c0.818,2.153 1.568,4.729 2.249,7.727l-2.862,0.736c-0.164,-0.627 -0.286,-1.199 -0.368,-1.717c-2.399,0.327 -4.961,0.627 -7.687,0.899l-0.654,-2.739c1.172,-0.79 2.631,-2.671 4.375,-5.642l-4.088,0.368l-0.777,-2.699c0.463,-0.19 0.886,-0.558 1.267,-1.104c1.036,-1.989 1.935,-4.129 2.699,-6.419l3.148,1.186c-1.118,2.508 -2.235,4.552 -3.353,6.133l2.699,-0.286l1.553,-3.067l2.944,1.186c-1.254,2.235 -2.508,4.334 -3.761,6.296l2.616,-0.858Zm-2.698,0.981c-0.981,1.499 -1.935,2.739 -2.862,3.721l1.84,-0.246c0.872,-0.109 1.553,-0.204 2.044,-0.286c-0.164,-0.572 -0.504,-1.635 -1.022,-3.189Zm-32.3,-10.181l15.291,0l0,3.598l-2.535,0l0,21.67c0.655,-0.246 1.241,-0.436 1.759,-0.573l-0,3.68l-1.759,0.572l0,7.523l-3.638,0l-0,-6.5c-3.162,0.845 -6.024,1.512 -8.586,2.003l-0.941,-3.68l2.208,-0.368l0,-24.327l-1.799,0l0,-3.598Zm5.397,27.23l3.721,-0.899l-0,-5.397l-3.721,-0l0,6.296Zm0,-9.73l3.721,-0l-0,-5.234l-3.721,0l0,5.234Zm0,-8.668l3.721,-0l-0,-5.234l-3.721,0l0,5.234Z" style="fill:#004367;fill-rule:nonzero;"/><path d="M329.143,23.718l29.683,0l-0,8.3l-14.188,0l0,2.004l8.382,-0l-0,2.903c1.581,-1.282 3.053,-2.658 4.415,-4.13l3.19,1.676c-1.609,1.69 -3.476,3.299 -5.602,4.825l7.36,-0l-0,3.312l-12.838,-0c-1.254,0.654 -2.917,1.417 -4.989,2.289l12.92,0l0,15.537l-3.802,-0l-0,-1.677l-16.436,0l-0,1.677l-3.802,-0l-0,-11.98c-2.072,0.464 -3.925,0.859 -5.561,1.186l-2.085,-3.189c6.433,-0.654 12.143,-1.935 17.131,-3.843l-16.967,-0l-0,-3.312l14.923,-0l-0,-2.249l-10.467,0l0,-3.025l10.467,-0l-0,-2.004l-11.734,0l-0,-8.3Zm20.483,15.578c1.172,-0.763 2.249,-1.513 3.23,-2.249l-8.218,0l0,2.249l4.988,-0Zm5.52,-10.099l-0,-2.617l-5.07,0l0,2.617l5.07,0Zm-8.627,0l-0,-2.617l-4.988,0l-0,2.617l4.988,0Zm-8.545,0l-0,-2.617l-5.152,0l0,2.617l5.152,0Zm-0.736,24.041l-0,2.371l16.436,0l-0,-2.371l-16.436,-0Zm16.436,-2.944l-0,-2.453l-16.436,-0l-0,2.453l16.436,0Z" style="fill:#004367;fill-rule:nonzero;"/><path d="M101.594,95.149l-0,-3.557l15.945,0l0,-1.635l3.843,-0l0,1.635l15.7,0l0,3.557l-11.202,0c2.698,2.126 6.596,3.844 11.693,5.152l-1.676,3.434c-6.487,-2.207 -11.148,-5.069 -13.983,-8.586l-0.532,0l0,9.649l-3.843,0l0,-9.649l-0.531,0c-2.59,3.38 -7.196,6.297 -13.82,8.75l-2.044,-3.312c5.56,-1.635 9.54,-3.448 11.939,-5.438l-11.489,0Zm3.72,-16.967c-0.736,0.79 -1.621,1.69 -2.657,2.698l-2.249,-2.943c3.407,-3.081 5.983,-6.774 7.727,-11.08l3.639,0.817c-0.409,1.091 -0.817,2.045 -1.226,2.862l7.85,0c-0.518,-1.145 -1.091,-2.208 -1.717,-3.189l3.965,-0.654c0.546,1.199 1.077,2.48 1.595,3.843l12.879,0l-0,3.189l-12.675,0l0,2.085l11.04,0l-0,2.944l-11.04,0l0,2.004l11.04,-0l-0,2.943l-11.04,0l0,2.167l13.452,0l-0,3.23l-30.583,0l0,-10.916Zm13.329,7.686l0,-2.167l-9.731,0l0,2.167l9.731,0Zm0,-5.11l0,-2.004l-9.731,0l0,2.004l9.731,-0Zm0,-4.948l0,-2.085l-9.731,0l0,2.085l9.731,0Z" style="fill:#004367;fill-rule:nonzero;"/><path d="M146.241,94.209l-0,-3.271l10.426,0l-0,-6.664l3.638,-0l0,6.664l9.772,0l0,3.271l-9.772,-0l0,0.327c3.108,1.472 6.379,3.216 9.813,5.233l-2.044,3.067c-3.108,-2.262 -5.697,-3.993 -7.769,-5.193l0,7.074l-3.638,-0l-0,-8.055c-2.453,2.862 -5.833,5.343 -10.14,7.441l-1.962,-3.23c4.906,-1.826 8.531,-4.047 10.875,-6.664l-9.199,-0Zm22.037,-8.831c-0.927,1.771 -2.058,3.42 -3.393,4.947l-2.781,-1.39c1.282,-1.663 2.345,-3.326 3.19,-4.988l2.984,1.431Zm-17.049,-1.186c1.063,1.336 2.071,2.93 3.025,4.784l-2.739,1.431c-0.981,-1.908 -2.031,-3.571 -3.148,-4.988l2.862,-1.227Zm1.881,-11.652c-1.69,2.453 -3.898,4.674 -6.624,6.664l-2.371,-3.066c3.898,-2.617 6.528,-5.806 7.891,-9.568l3.802,0.491c-0.273,0.79 -0.559,1.513 -0.859,2.167l24.246,-0l-0,3.312l-26.085,-0Zm-1.391,2.044l25.595,-0l-0,3.066l-25.595,0l0,-3.066Zm25.758,30.214c-1.826,-0.027 -3.175,-0.872 -4.047,-2.535c-0.872,-1.635 -1.309,-5.042 -1.309,-10.221l0,-8.954l-25.962,0l0,-3.312l29.724,0l-0,12.266c-0,3.571 0.109,5.806 0.327,6.705c0.164,0.954 0.463,1.431 0.899,1.431c0.3,0 0.586,-0.572 0.859,-1.717c0.218,-0.981 0.423,-2.126 0.613,-3.434l3.23,1.553c-0.572,3.271 -1.213,5.479 -1.921,6.624c-0.736,1.063 -1.54,1.594 -2.413,1.594Z" style="fill:#004367;fill-rule:nonzero;"/><path d="M207.079,85.787l-0,4.538l6.337,-0l-0,-4.538l-6.337,-0Zm-0,8.136l-0,5.07l6.337,-0l-0,-5.07l-6.337,-0Zm-0,8.79l-0,1.84l-3.844,0l0,-22.651c-0.681,1.009 -1.567,2.167 -2.657,3.476l-1.309,-4.089c3.271,-4.388 5.547,-9.117 6.828,-14.187l3.762,0.736c-0.573,2.044 -1.268,4.007 -2.085,5.887l6.255,0c-0.681,-2.071 -1.417,-4.006 -2.208,-5.805l3.721,-0.982c0.981,2.753 1.69,5.016 2.126,6.787l6.255,0l0,3.721l-6.664,-0l0,4.702l5.847,-0l-0,3.639l-5.847,-0l0,4.538l5.847,-0l-0,3.598l-5.847,-0l0,5.07l7.114,-0l0,3.72l-17.294,0Zm6.337,-25.267l-6.337,-0l-0,4.702l6.337,-0l-0,-4.702Zm-13.451,10.058l-3.476,1.513l0,11.161c0,2.644 -1.376,3.966 -4.129,3.966l-3.68,0l-0.859,-3.761c1.118,0.163 2.181,0.245 3.19,0.245c1.063,0 1.594,-0.477 1.594,-1.431l0,-8.709c-1.39,0.491 -2.957,0.982 -4.702,1.472l-0.981,-3.925c1.881,-0.409 3.775,-0.899 5.683,-1.472l0,-8.586l-4.906,0l-0,-3.761l4.906,-0l0,-7.196l3.884,0l0,7.196l3.803,-0l-0,3.761l-3.803,0l0,7.155c1.118,-0.463 2.276,-0.995 3.476,-1.594l-0,3.966Z" style="fill:#004367;fill-rule:nonzero;"/><path d="M255.119,67.143l3.639,-0l0,7.441l8.095,-0c0,13.628 -0.19,22.092 -0.572,25.39c-0.354,2.944 -2.153,4.416 -5.397,4.416l-3.925,-0.164l-0.94,-3.434c1.826,0.136 3.271,0.204 4.334,0.204c1.335,-0 2.126,-0.899 2.371,-2.698c0.245,-2.045 0.409,-8.764 0.491,-20.157l-4.457,-0l0,1.513c-0.136,11.42 -2.603,19.734 -7.4,24.94l-2.331,-2.044c-5.751,0.708 -11.788,1.253 -18.112,1.635l-0.491,-3.434c1.145,-0.055 2.576,-0.15 4.293,-0.287l4.089,-0.245l-0,-2.862l-7.032,0l-0,-3.189l7.032,0l-0,-2.167l-7.155,0l-0,-13.042l7.155,-0l-0,-1.963l-8.014,0l0,-3.189l8.014,0l-0,-2.126c-2.372,0.136 -4.647,0.204 -6.828,0.204l-1.022,-3.066c6.732,0 12.511,-0.545 17.335,-1.635l1.717,2.943c-2.126,0.546 -4.633,0.968 -7.522,1.268l-0,2.412l7.809,0l-0,3.189l-7.809,0l-0,1.963l7.195,-0l0,13.042l-7.195,0l-0,2.167l7.073,0l-0,3.189l-7.073,0l-0,2.535c2.453,-0.245 4.797,-0.491 7.032,-0.736l-0,1.922c3.652,-4.716 5.519,-11.857 5.601,-21.424l0,-1.513l-3.68,-0l0,-3.557l3.68,-0l0,-7.441Zm-8.954,21.996l0,-2.371l-3.925,-0l0,2.371l3.925,0Zm-7.114,0l0,-2.371l-3.884,-0l0,2.371l3.884,0Zm-3.884,-4.988l3.884,0l0,-2.371l-3.884,-0l0,2.371Zm7.073,-2.371l0,2.371l3.925,0l0,-2.371l-3.925,-0Z" style="fill:#004367;fill-rule:nonzero;"/><path d="M293.184,85.582l16.109,0l-0,13.165l-16.109,0l-0,-13.165Zm12.592,9.813l0,-6.419l-9.117,-0l-0,6.419l9.117,-0Zm-30.255,-23.142l5.929,0l-0,-5.274l3.72,0l0,5.274l5.847,0l-0,3.435l-5.847,-0l0,5.233l5.601,0l0,3.516l-4.742,0l-0,4.947l4.947,0l-0,3.517l-4.947,-0l-0,6.296c0.163,0.027 0.313,0.082 0.449,0.164c2.372,0.817 7.891,1.226 16.559,1.226c3.544,0 6.31,-0.068 8.3,-0.204l-0.654,3.843l-6.787,-0c-10.412,-0 -16.981,-0.586 -19.707,-1.758c-2.017,-0.927 -3.83,-2.481 -5.438,-4.661c-0.491,2.29 -1.172,4.606 -2.044,6.95l-2.821,-2.494c1.662,-4.742 2.589,-9.948 2.78,-15.618l3.312,0.409c-0.082,2.399 -0.232,4.416 -0.45,6.051c0.899,1.554 1.853,2.794 2.862,3.721l-0,-12.389l-7.237,0l0,-3.516l6.297,0l-0,-5.233l-5.929,-0l0,-3.435Zm16.6,0.041l-0,-3.598l17.785,0c-0.027,7.251 -0.423,11.598 -1.186,13.043c-0.79,1.445 -2.112,2.167 -3.966,2.167c-0.708,-0 -1.744,-0.068 -3.107,-0.205l-0.94,-3.393c0.463,0.054 1.063,0.109 1.799,0.163l1.431,0.123c0.954,-0.027 1.553,-0.504 1.799,-1.431c0.272,-0.899 0.422,-3.189 0.449,-6.869l-5.233,0c-0.545,2.753 -1.24,4.947 -2.085,6.583c-1.118,1.99 -2.808,3.802 -5.07,5.438l-2.535,-3.189c1.908,-1.254 3.353,-2.631 4.334,-4.13c0.79,-1.308 1.376,-2.875 1.758,-4.702l-5.233,0Z" style="fill:#004367;fill-rule:nonzero;"/><path d="M317.797,71.395l16.191,-0c-0.682,-1.636 -1.35,-2.998 -2.004,-4.089l4.17,-0.654c0.655,1.526 1.254,3.107 1.799,4.743l16.314,-0l-0,3.72l-16.273,0l0,4.457l13.288,-0l0,15.169c0,2.643 -1.363,3.965 -4.088,3.965l-4.13,0l-0.981,-3.679l3.884,0.204c0.981,0 1.472,-0.463 1.472,-1.39l-0,-10.548l-9.445,-0l0,21.424l-3.925,-0l0,-21.424l-8.954,-0l0,15.7l-3.802,-0l-0,-19.421l12.756,-0l0,-4.457l-16.272,0l-0,-3.72Z" style="fill:#004367;fill-rule:nonzero;"/><path d="M364.243,71.354l13.165,-0l0,-4.293l3.762,-0l-0,4.293l13.001,-0l0,3.557l-13.001,-0l-0,5.479l15.822,-0l0,3.638l-35.325,0l0,-3.638l15.741,-0l0,-5.479l-13.165,-0l-0,-3.557Zm14.105,13.615l3.721,-0l0,4.906l11.244,0l-0,3.639l-11.244,-0l0,6.991c2.208,0.191 4.361,0.287 6.46,0.287c3.734,-0 6.882,-0.082 9.445,-0.246l-1.145,3.925c-2.208,0 -4.893,-0.027 -8.055,-0.081c-7.005,-0.028 -11.816,-0.682 -14.432,-1.963c-1.963,-0.981 -3.748,-2.876 -5.356,-5.683c-1.309,2.807 -3.094,5.451 -5.356,7.932l-2.985,-2.617c4.17,-4.715 6.501,-9.922 6.991,-15.618l3.803,0.49c-0.164,2.208 -0.545,4.307 -1.145,6.297c1.663,3.107 3.557,5.083 5.683,5.928c0.709,0.3 1.499,0.545 2.371,0.736l0,-14.923Z" style="fill:#004367;fill-rule:nonzero;"/><path d="M407.336,92.901l13.37,-0l-0,-2.576l3.312,-0l-2.413,-2.167c2.454,-2.508 3.721,-5.67 3.803,-9.486l-0,-10.384l14.064,-0l0,18.643c0,2.426 -1.213,3.639 -3.638,3.639l-3.639,0l-0.941,-3.475c1.636,0.109 2.794,0.163 3.476,0.163c0.708,0 1.063,-0.531 1.063,-1.594l-0,-1.84l-7.482,0c-0.736,2.589 -1.99,4.838 -3.762,6.746l0,2.331l13.574,-0l0,3.598l-13.574,-0l0,3.311l16.232,0l-0,3.557l-36.143,0l-0,-3.557l16.068,0l-0,-3.311l-13.37,-0l0,-3.598Zm-2.248,-21.179l4.293,-0c-0.655,-1.227 -1.309,-2.331 -1.963,-3.312l3.067,-1.513c0.872,1.363 1.771,2.971 2.698,4.825l2.412,-0c0.845,-1.526 1.581,-3.189 2.208,-4.988l3.475,1.186c-0.545,1.308 -1.185,2.575 -1.921,3.802l4.456,-0l0,3.393l-7.277,0l-0,3.517c-0.028,0.736 -0.096,1.621 -0.205,2.657l3.026,0l-0,-4.416l3.393,0l0,7.646l-7.196,0c-0.436,1.118 -0.926,2.072 -1.472,2.862c-1.471,1.99 -3.897,3.544 -7.277,4.661l-1.922,-3.025c3.053,-1.009 5.138,-2.304 6.256,-3.885l0.368,-0.613l-5.234,0l0,-7.646l3.353,0l-0,4.416l3.025,0c0.137,-0.763 0.232,-1.649 0.287,-2.657l-0,-3.517l-7.85,0l-0,-3.393Zm23.918,6.092l-0,0.613c-0,0.573 -0.055,1.349 -0.164,2.331l6.951,-0l-0,-2.944l-6.787,-0Zm6.787,-3.067l-0,-3.025l-6.787,-0l-0,3.025l6.787,0Z" style="fill:#004367;fill-rule:nonzero;"/><path d="M449.857,71.354l5.111,-0l-0.94,20.933l-3.23,0l-0.941,-20.933Zm2.535,23.346c0.9,-0 1.622,0.272 2.167,0.817c0.573,0.518 0.859,1.213 0.859,2.085c-0,0.845 -0.286,1.554 -0.859,2.127c-0.627,0.545 -1.349,0.817 -2.167,0.817c-0.817,0 -1.513,-0.286 -2.085,-0.858c-0.6,-0.573 -0.899,-1.268 -0.899,-2.086c-0,-0.872 0.299,-1.567 0.899,-2.085c0.545,-0.545 1.24,-0.817 2.085,-0.817Z" style="fill:#004367;fill-rule:nonzero;"/></g><path d="M592.485,107.552c-0.59,11.804 -10.365,20.779 -22.027,21.027l-535.057,0c-1.948,0 -3.899,0.035 -5.847,0c-10.667,-0.186 -19.993,-7.778 -21.773,-18.43c-0.574,-3.432 -0.288,-7.137 -0.288,-10.602l0,-42.413c0,-9.465 -0.457,-19.054 0.022,-28.511c0.644,-12.738 11.308,-20.999 23.479,-21.028c3.531,-0.009 7.062,0 10.594,0l527.329,0c11.762,0 22.404,7.681 23.504,20.018c0.844,9.476 0.086,19.313 0.086,28.811l-0,42.67c-0,2.809 0.119,5.65 -0.022,8.458m2.995,-77.759c-0.238,-14.126 -11.35,-24.983 -25.411,-25.171c-8.847,-0.119 -17.704,-0 -26.552,-0l-481.793,-0c-10.286,-0 -20.572,-0.025 -30.858,-0c-10.746,0.025 -20.582,5.614 -24.628,15.912c-1.724,4.39 -1.718,8.849 -1.718,13.448l-0,62.155c-0,3.435 -0.058,6.875 -0,10.31c0.147,8.939 4.719,17.26 12.533,21.766c8.413,4.85 20.11,3.34 29.504,3.34l523.901,-0c10.098,-0.215 19.294,-6.105 23.154,-15.558c1.791,-4.388 1.868,-8.826 1.868,-13.446l0,-40.721c0,-10.673 0.181,-21.363 0,-32.035" style="fill:#004367;fill-rule:nonzero;"/></g></svg>