<?xml version="1.0" encoding="UTF-8" standalone="no"?><!DOCTYPE svg PUBLIC "-//W3C//DTD SVG 1.1//EN" "http://www.w3.org/Graphics/SVG/1.1/DTD/svg11.dtd"><svg width="100%" height="100%" viewBox="0 0 450 180" version="1.1" xmlns="http://www.w3.org/2000/svg" xmlns:xlink="http://www.w3.org/1999/xlink" xml:space="preserve" xmlns:serif="http://www.serif.com/" style="fill-rule:evenodd;clip-rule:evenodd;stroke-linejoin:round;stroke-miterlimit:2;"><g><path d="M400.793,179.865l-351.583,-3.06c-27.178,-0 -49.21,-22.033 -49.21,-49.207l0,-78.391c0,-27.175 22.032,-49.207 49.21,-49.207l351.583,3.06c27.178,0 49.207,22.033 49.207,49.207l0,78.391c0,27.175 -22.029,49.207 -49.207,49.207" style="fill:#fff;fill-rule:nonzero;"/><path d="M316.946,62.667c-7.644,-0 -11.471,9.242 -6.068,14.645l9.659,9.656c0.791,0.794 0.791,2.076 0,2.867l-9.659,9.657c-5.403,5.406 -1.576,14.645 6.068,14.645c2.276,-0 4.456,-0.902 6.066,-2.512l21.787,-21.79c0.791,-0.791 0.791,-2.073 -0,-2.867l-21.787,-21.79c-1.61,-1.607 -3.79,-2.511 -6.066,-2.511" style="fill:#004367;fill-rule:nonzero;"/><path d="M359.592,62.667c-7.641,-0 -11.471,9.242 -6.065,14.645l9.656,9.656c0.794,0.794 0.794,2.076 -0,2.867l-9.656,9.657c-5.406,5.406 -1.576,14.645 6.065,14.645c2.275,-0 4.459,-0.902 6.069,-2.512l21.787,-21.79c0.791,-0.791 0.791,-2.073 -0,-2.867l-21.787,-21.79c-1.61,-1.607 -3.794,-2.511 -6.069,-2.511" style="fill:#004367;fill-rule:nonzero;"/><g><path d="M117.688,55.746l68.254,-0l-0,7.006l-30.467,0l0,5.432l24.09,0l-0,32.356l-25.192,-0c-0.84,4.513 -2.178,8.24 -4.015,11.179c10.707,4.198 23.434,6.534 38.181,7.006l-1.889,7.243c-15.797,-0.735 -29.495,-3.674 -41.094,-8.817c-5.668,4.408 -14.59,7.321 -26.766,8.738l-3.228,-6.849c10.129,-0.63 17.687,-2.467 22.673,-5.511c-4.146,-2.309 -8.004,-4.959 -11.573,-7.951l5.747,-3.936c3.149,2.467 6.823,4.802 11.022,7.007c1.469,-2.31 2.597,-5.013 3.385,-8.109l-22.594,-0l-0,-32.356l23.853,0l0,-5.432l-30.387,0l-0,-7.006Zm54.477,38.26l-0,-6.692l-16.69,0l0,1.89c0,1.679 -0.078,3.28 -0.236,4.802l16.926,-0Zm-24.326,-0c0.158,-1.575 0.236,-3.175 0.236,-4.802l0,-1.89l-16.453,0l-0,6.692l16.217,-0Zm-16.217,-12.832l16.453,-0l0,-6.613l-16.453,0l-0,6.613Zm23.853,-6.613l0,6.613l16.69,-0l-0,-6.613l-16.69,0Z" style="fill:#004367;fill-rule:nonzero;"/><path d="M240.812,56.14c-1.469,1.574 -2.519,2.676 -3.149,3.306l21.02,-0l-0,5.826c-8.555,15.167 -24.326,23.696 -47.314,25.585l-3.149,-6.77c6.718,-0.42 12.623,-1.312 17.713,-2.677c-2.046,-2.467 -4.356,-4.907 -6.927,-7.321l6.455,-3.071c2.729,2.677 5.222,5.354 7.479,8.03c7.295,-3.096 13.016,-7.426 17.162,-12.989l-21.177,-0c-6.088,3.569 -13.278,6.272 -21.571,8.108l-4.408,-6.849c13.96,-2.519 24.352,-7.4 31.175,-14.642l6.691,3.464Zm-7.951,45.738c2.939,2.939 5.616,5.957 8.03,9.054c7.82,-3.517 13.987,-8.188 18.5,-14.013l-21.57,-0c-6.928,3.201 -14.958,5.694 -24.09,7.478l-4.487,-6.691c17.267,-1.68 29.889,-6.744 37.866,-15.194l6.377,3.464c-1.365,1.417 -2.887,2.808 -4.566,4.172l20.074,0l0,5.826c-11.283,18.421 -32.25,28.026 -62.9,28.813l-2.992,-7.164c11.914,0 22.148,-1.338 30.703,-4.015c-2.624,-3.359 -5.144,-6.219 -7.558,-8.581l6.613,-3.149Z" style="fill:#004367;fill-rule:nonzero;"/></g><path d="M393.119,161.973c-59.602,-0.543 -119.207,-1.086 -178.81,-1.629l-116.393,-1.057c-22.636,-0.206 -55.349,4.884 -71.356,-14.698c-12.6,-15.412 -8.862,-39.122 -8.862,-57.701c0,-20.742 -3.793,-45.322 14.324,-60.133c17.316,-14.155 49.375,-8.638 70.147,-8.451l237.837,2.165c23.844,0.218 64.364,-6.231 82.128,13.385c15.069,16.638 10.171,45.834 10.171,66.581c0,7.397 0.292,14.863 0,22.257c-0.877,22.185 -17.021,38.284 -39.186,39.281c-7.859,0.352 -7.905,12.621 0,12.265c28.929,-1.297 50.173,-22.608 51.452,-51.451c0.804,-18.089 0,-36.399 0,-54.509c0,-22.664 -7.004,-43.682 -28.929,-54.39c-10.465,-5.108 -21.262,-5.188 -32.495,-5.292c-81.49,-0.739 -162.984,-1.482 -244.475,-2.224c-26.782,-0.245 -53.705,-1.321 -80.488,-0.733c-21.56,0.473 -40.976,11.963 -49.078,32.529c-6.814,17.295 -3.673,39.625 -3.673,57.747c-0,20.276 -1.828,40.766 12.452,57.346c10.997,12.762 26.194,17.666 42.553,17.951c30.619,0.53 61.255,0.555 91.877,0.834c80.267,0.73 160.537,1.463 240.804,2.192c7.896,0.071 7.903,-12.195 0,-12.265" style="fill:#004367;fill-rule:nonzero;"/></g></svg>