<?xml version="1.0" encoding="UTF-8" standalone="no"?><!DOCTYPE svg PUBLIC "-//W3C//DTD SVG 1.1//EN" "http://www.w3.org/Graphics/SVG/1.1/DTD/svg11.dtd"><svg width="100%" height="100%" viewBox="0 0 450 150" version="1.1" xmlns="http://www.w3.org/2000/svg" xmlns:xlink="http://www.w3.org/1999/xlink" xml:space="preserve" xmlns:serif="http://www.serif.com/" style="fill-rule:evenodd;clip-rule:evenodd;stroke-linejoin:round;stroke-miterlimit:2;"><g><path d="M408.426,149.38l-366.85,0c-22.962,0 -41.576,-18.614 -41.576,-41.576l0,-66.228c0,-22.962 18.614,-41.576 41.576,-41.576l366.85,-0c22.96,-0 41.574,18.614 41.574,41.576l0,66.228c0,22.962 -18.614,41.576 -41.574,41.576" style="fill:#fff;fill-rule:nonzero;"/><path d="M120.079,93.847c6.459,0 9.692,-7.807 5.127,-12.373l-8.158,-8.158c-0.67,-0.669 -0.67,-1.753 -0,-2.423l8.158,-8.158c4.565,-4.566 1.332,-12.373 -5.127,-12.373c-1.921,0 -3.765,0.762 -5.124,2.123l-18.409,18.408c-0.668,0.67 -0.668,1.754 -0,2.423l18.409,18.408c1.359,1.361 3.203,2.123 5.124,2.123" style="fill:#004367;fill-rule:nonzero;"/><path d="M84.05,93.847c6.456,0 9.69,-7.807 5.124,-12.373l-8.158,-8.158c-0.67,-0.669 -0.67,-1.753 -0,-2.423l8.158,-8.158c4.566,-4.566 1.332,-12.373 -5.124,-12.373c-1.923,0 -3.767,0.762 -5.126,2.123l-18.41,18.408c-0.668,0.67 -0.668,1.754 -0,2.423l18.41,18.408c1.359,1.361 3.203,2.123 5.126,2.123" style="fill:#004367;fill-rule:nonzero;"/><g><path d="M191.652,42.252l6.518,-0l-0,20.02l24.609,0l0,6.119l-24.609,0l-0,26.738l29.731,0l-0,6.12l-59.595,-0l-0,-6.12l23.346,0l-0,-52.877Z" style="fill:#004367;fill-rule:nonzero;"/><rect x="238.41" y="69.256" width="60.194" height="6.252" style="fill:#004367;fill-rule:nonzero;"/><path d="M316.895,54.756l17.359,0c0.444,-1.463 0.799,-3.037 1.065,-4.722l-24.943,-0l0,-5.72l57.467,-0l0,5.72l-26.339,-0c-0.354,2.128 -0.665,3.702 -0.931,4.722l21.617,0l-0,37.646l-12.904,0c7.095,1.685 13.791,3.769 20.087,6.253l-3.392,5.121c-6.873,-3.148 -13.968,-5.631 -21.284,-7.449l2.66,-3.925l-17.359,0l3.192,4.191c-5.188,3.015 -12.526,5.454 -22.015,7.316l-2.993,-5.121c9.533,-1.685 16.739,-3.814 21.616,-6.386l-12.903,0l-0,-37.646Zm39.109,31.793l0,-5.387l-32.99,-0l-0,5.387l32.99,0Zm-32.99,-10.708l32.99,-0l0,-5.188l-32.99,-0l-0,5.188Zm-0,-10.509l32.99,-0l0,-4.789l-32.99,-0l-0,4.789Z" style="fill:#004367;fill-rule:nonzero;"/></g><path d="M436.292,103.778c-1.415,18.16 -16.558,31.217 -34.35,31.815l-299.307,0c-18.541,0 -37.362,0.955 -55.886,-0.042c-18.745,-1.013 -32.459,-15.888 -33.127,-34.394c-0.228,-6.316 -0,-12.68 -0,-18.995c-0,-19.14 -4.416,-44.648 10.979,-59.127c9.361,-8.805 20.52,-9.25 32.287,-9.25l277.792,0c22.098,0 44.292,-0.591 66.386,0c23.399,0.628 35.314,18.35 35.314,40.079c0,16.502 1.196,33.455 -0.088,49.914m7.438,-60.749c-2.682,-21.935 -21.478,-36.52 -42.893,-36.943c-8.362,-0.164 -16.745,-0 -25.108,-0l-250.91,-0c-25.195,-0 -50.461,-0.539 -75.656,-0c-21.426,0.46 -40.205,14.966 -42.893,36.943c-2.161,17.68 -0.348,36.421 -0.348,54.207c-0,24.864 16.21,45.295 42.138,46.057c5.632,0.167 11.297,-0 16.931,-0l336.951,-0c25.921,-0.874 42.138,-21.116 42.138,-46.057c-0,-17.783 1.811,-36.531 -0.35,-54.207" style="fill:#004367;fill-rule:nonzero;"/></g></svg>