<?xml version="1.0" encoding="UTF-8" standalone="no"?><!DOCTYPE svg PUBLIC "-//W3C//DTD SVG 1.1//EN" "http://www.w3.org/Graphics/SVG/1.1/DTD/svg11.dtd"><svg width="100%" height="100%" viewBox="0 0 600 170" version="1.1" xmlns="http://www.w3.org/2000/svg" xmlns:xlink="http://www.w3.org/1999/xlink" xml:space="preserve" xmlns:serif="http://www.serif.com/" style="fill-rule:evenodd;clip-rule:evenodd;stroke-linejoin:round;stroke-miterlimit:2;"><g id="button"><path d="M552.834,169.47l-505.665,0c-26.051,0 -47.169,-21.114 -47.169,-47.166l-0,-75.138c-0,-26.048 21.118,-47.166 47.169,-47.166l505.665,0c26.051,0 47.166,21.118 47.166,47.166l-0,75.138c-0,26.052 -21.115,47.166 -47.166,47.166" style="fill:#fff;fill-rule:nonzero;"/><path d="M447.87,57.766c-7.137,0 -10.712,8.633 -5.666,13.676l9.02,9.02c0.74,0.741 0.74,1.94 -0,2.681l-9.02,9.016c-5.046,5.049 -1.471,13.679 5.666,13.679c2.124,0 4.163,-0.842 5.664,-2.346l20.352,-20.349c0.738,-0.741 0.738,-1.94 -0,-2.681l-20.352,-20.35c-1.501,-1.5 -3.54,-2.346 -5.664,-2.346" style="fill:#004367;fill-rule:nonzero;"/><path d="M487.699,57.766c-7.137,0 -10.712,8.633 -5.663,13.676l9.017,9.02c0.74,0.741 0.74,1.94 -0,2.681l-9.017,9.016c-5.049,5.049 -1.474,13.679 5.663,13.679c2.127,0 4.163,-0.842 5.667,-2.346l20.349,-20.349c0.738,-0.741 0.738,-1.94 -0,-2.681l-20.349,-20.35c-1.504,-1.5 -3.54,-2.346 -5.667,-2.346" style="fill:#004367;fill-rule:nonzero;"/><path d="M584.876,124.996c-4.687,18.014 -21.027,30.069 -39.395,30.461l-525.698,-0l155.349,-0l-85.4,-0c-11.443,-0 -22.904,0.189 -34.346,-0c-14.247,-0.239 -27.514,-7.337 -34.953,-19.652c-5.79,-9.585 -5.856,-19.738 -5.856,-30.431l0,-35.095c0,-8.704 -0.878,-18.226 1.542,-26.672c5.379,-18.782 22.438,-29.533 41.346,-29.591c5.31,-0.016 10.622,0 15.932,0l71.201,0l-20.18,0l418.13,0c15.926,0 30.702,6.72 38.651,21.178c5.137,9.343 4.975,19.186 4.975,29.416l-0,35.781c-0,8.051 0.744,16.757 -1.298,24.605m6.528,-74.954c-2.475,-23.952 -22.827,-41.165 -46.499,-41.514c-4.155,-0.063 -8.315,0 -12.469,0l-472.427,0l43.849,0c-15.539,0 -31.078,-0.052 -46.618,0c-16.9,0.055 -32.623,7.596 -41.546,22.366c-5.614,9.297 -6.605,19.343 -6.605,29.888l0,34.659c0,8.199 -0.639,16.741 0.354,24.912c1.844,15.164 11.404,28.867 25.113,35.688c8.229,4.097 16.843,4.904 25.774,4.904l54.6,-0l-32.313,-0l462.864,-0c15.564,-0.335 29.983,-7.787 38.632,-20.879c6.163,-9.324 7.549,-19.669 7.549,-30.54l-0,-34.201c-0,-8.345 0.601,-16.963 -0.258,-25.283" style="fill:#004367;fill-rule:nonzero;"/><g><path d="M143.733,89.952l-9.508,-0l-0,6.037l9.508,-0l-0,-6.037Zm-0,11.62l-9.508,0l-0,5.811l9.508,-0l-0,-5.811Zm6.112,5.811l9.432,-0l0,-5.811l-9.432,0l-0,5.811Zm9.432,5.961l-25.052,0l-0,3.32l-6.565,0l-0,-30.259l-1.736,0.981l-3.018,-4.829l-0,1.811l-5.509,2.867l0,21.204c0,4.981 -2.414,7.471 -7.244,7.471l-6.338,-0l-1.585,-6.867c1.912,0.302 3.723,0.453 5.433,0.453c1.761,-0 2.641,-0.956 2.641,-2.868l0,-16.223c-2.465,0.955 -5.081,1.936 -7.848,2.942l-1.811,-7.093c3.22,-0.704 6.44,-1.685 9.659,-2.943l0,-15.695l-8.149,-0l-0,-6.791l8.149,-0l0,-13.659l7.093,0l0,13.659l5.66,-0l-0,6.791l-5.66,-0l0,12.677c1.761,-0.855 3.597,-1.836 5.509,-2.943l-0,3.999c6.389,-2.515 11.344,-5.609 14.865,-9.281l-12.601,-0l-0,-6.263l7.697,-0c-0.805,-1.711 -1.837,-3.496 -3.094,-5.358l5.886,-2.264c1.006,1.912 2.087,4.453 3.244,7.622l4.603,-0l0,-9.583c-5.131,0.301 -10.589,0.452 -16.374,0.452l-2.038,-5.886c15.897,0 29.304,-1.282 40.22,-3.848l3.245,5.735c-5.182,1.308 -11.369,2.314 -18.563,3.018l-0,10.112l4.678,-0c1.459,-2.817 2.817,-5.886 4.075,-9.206l6.037,2.113c-1.308,2.767 -2.591,5.131 -3.849,7.093l8.678,-0l0,6.263l-13.809,-0c3.924,3.471 9.256,6.489 15.998,9.055l-3.094,5.886l-2.943,-1.585l-0,31.24l-6.49,0l0,-3.32Zm4.377,-29.203c-5.131,-3.219 -9.558,-7.244 -13.281,-12.073l-0.377,-0l-0,9.961l-6.49,-0l0,-9.961l-0.302,-0c-2.817,4.578 -6.766,8.602 -11.847,12.073l32.297,0Zm-13.809,11.848l9.432,-0l0,-6.037l-9.432,-0l-0,6.037Z" style="fill:#004367;fill-rule:nonzero;"/><path d="M180.649,57.731l13.885,-0c-1.459,-3.572 -3.044,-6.792 -4.754,-9.659l7.319,-1.207c1.761,3.622 3.295,7.244 4.603,10.866l10.866,-0l0,6.866l-17.733,0l-0.075,9.584l14.413,-0c-0,18.512 -0.327,30.133 -0.981,34.862c-0.755,4.377 -4.025,6.565 -9.81,6.565c-0.704,-0 -2.49,-0.126 -5.358,-0.377l-1.584,-6.188c2.414,0.251 4.376,0.377 5.885,0.377c2.465,0 3.924,-1.207 4.377,-3.622c0.352,-2.213 0.604,-10.539 0.755,-24.977l-7.999,0c-1.056,15.746 -4.276,27.643 -9.659,35.692l-5.584,-4.904c5.785,-8.552 8.754,-22.362 8.904,-41.428l0,-5.584l-7.47,0l0,-6.866Zm43.314,6.791c-0.503,1.459 -1.157,3.194 -1.962,5.207c2.062,7.546 4.804,14.262 8.225,20.147c3.471,-7.244 5.433,-15.695 5.886,-25.354l-12.149,0Zm2.414,31.768c-3.32,-5.735 -6.087,-12.048 -8.3,-18.94c-1.157,1.861 -2.163,3.345 -3.019,4.452l-4.452,-5.433c5.031,-7.445 8.452,-17.481 10.263,-30.108l7.093,1.207c-0.604,3.622 -1.283,7.018 -2.037,10.187l21.732,0l-0,6.867l-4.754,0c-0.554,12.426 -3.371,23.065 -8.452,31.919c4.478,5.987 9.684,10.69 15.62,14.111l-4.074,6.037c-5.936,-3.421 -11.118,-8.15 -15.545,-14.186c-4.377,5.584 -9.835,10.312 -16.375,14.186l-3.923,-6.263c6.741,-3.622 12.148,-8.301 16.223,-14.036Z" style="fill:#004367;fill-rule:nonzero;"/><path d="M262.841,49.355l33.353,-0l-0,21.128l-14.337,0l0.905,3.773l16.903,0l-0,5.509l-40.748,-0l-0,-5.509l17.129,0l-0.905,-3.773l-12.3,0l-0,-21.128Zm26.863,16.45l0,-3.622l-20.449,-0l-0,3.622l20.449,-0Zm-20.449,-7.848l20.449,0l0,-3.773l-20.449,0l-0,3.773Zm-5.81,25.354l32.296,0l0,15.319l-12.753,-0l0,11.168c0,4.074 -2.138,6.112 -6.414,6.112l-5.282,-0l-1.433,-6.263c1.609,0.301 3.119,0.452 4.527,0.452c1.157,0 1.736,-0.628 1.736,-1.886l-0,-9.583l-12.677,-0l-0,-15.319Zm25.731,10.338l0,-5.508l-19.167,-0l0,5.508l19.167,0Zm-18.865,9.131c-1.962,4.829 -4.301,9.055 -7.017,12.677l-5.132,-3.698c2.667,-3.269 4.93,-7.118 6.792,-11.545l5.357,2.566Zm20.978,-2.415c2.566,3.522 4.628,6.867 6.188,10.036l-5.056,3.547c-1.66,-3.522 -3.672,-7.043 -6.037,-10.564l4.905,-3.019Zm33.428,-48.143c-6.036,6.087 -13.507,11.143 -22.411,15.167l-2.943,-6.112c8.552,-3.622 15.545,-8.3 20.978,-14.035l4.376,4.98Zm2.038,19.846c-6.339,7.093 -13.985,12.878 -22.94,17.356l-2.943,-6.037c8.754,-4.176 15.922,-9.609 21.506,-16.299l4.377,4.98Zm1.811,18.638c-6.188,11.923 -15.419,20.5 -27.694,25.732l-2.867,-6.565c11.118,-4.779 19.468,-12.551 25.052,-23.317l5.509,4.15Z" style="fill:#004367;fill-rule:nonzero;"/><path d="M355.069,90.027c-1.66,11.017 -5.232,19.444 -10.715,25.279l-5.358,-4.678c6.54,-7.194 9.835,-18.664 9.885,-34.41l0,-28.372l7.244,-0l0,16.978l22.034,-0l0,-17.884l6.943,0l-0,17.884l20.223,-0l-0,6.942l-49.2,0l0,4.452c0,1.61 -0.1,3.924 -0.302,6.942l34.41,0l-0,33.58l-7.169,-0l0,-26.713l-27.995,0Z" style="fill:#004367;fill-rule:nonzero;"/></g></g></svg>