<?xml version="1.0" encoding="UTF-8" standalone="no"?><!DOCTYPE svg PUBLIC "-//W3C//DTD SVG 1.1//EN" "http://www.w3.org/Graphics/SVG/1.1/DTD/svg11.dtd"><svg width="100%" height="100%" viewBox="0 0 450 75" version="1.1" xmlns="http://www.w3.org/2000/svg" xmlns:xlink="http://www.w3.org/1999/xlink" xml:space="preserve" xmlns:serif="http://www.serif.com/" style="fill-rule:evenodd;clip-rule:evenodd;stroke-linejoin:round;stroke-miterlimit:2;"><path d="M429.184,74.79l-408.368,0c-11.497,0 -20.816,-9.319 -20.816,-20.815l0,-33.16c0,-11.496 9.319,-20.815 20.816,-20.815l408.368,-0c11.497,-0 20.816,9.319 20.816,20.815l0,33.16c0,11.496 -9.319,20.815 -20.816,20.815" style="fill:#fff;fill-rule:nonzero;"/><path d="M384.419,25.214c-3.233,-0 -4.853,3.909 -2.566,6.195l4.085,4.085c0.335,0.335 0.335,0.878 -0,1.213l-4.085,4.085c-2.287,2.286 -0.667,6.195 2.566,6.195c0.962,-0 1.885,-0.382 2.566,-1.063l9.217,-9.217c0.335,-0.335 0.335,-0.878 -0,-1.213l-9.217,-9.217c-0.681,-0.68 -1.604,-1.063 -2.566,-1.063" style="fill:#004367;fill-rule:nonzero;"/><path d="M402.459,25.214c-3.233,-0 -4.852,3.909 -2.566,6.195l4.085,4.085c0.335,0.335 0.335,0.878 0,1.213l-4.085,4.085c-2.286,2.286 -0.667,6.195 2.566,6.195c0.963,-0 1.885,-0.382 2.566,-1.063l9.217,-9.217c0.335,-0.335 0.335,-0.878 0,-1.213l-9.217,-9.217c-0.681,-0.68 -1.603,-1.063 -2.566,-1.063" style="fill:#004367;fill-rule:nonzero;"/><g><path d="M66.077,25.461l-0,26.441l-3.097,0l-0,-2.064l-5.129,-0l0,2.064l-3.097,0l0,-26.441l11.323,0Zm-8.226,21.313l5.129,-0l-0,-18.249l-5.129,-0l0,18.249Zm-15.518,-25.009l3.197,-0l-0,5.594l6.693,0c0,11.323 -0.166,18.316 -0.499,20.98c-0.333,2.531 -1.987,3.796 -4.962,3.796c-0.4,0 -1.265,-0.055 -2.597,-0.166l-0.8,-2.897c1.266,0.111 2.232,0.166 2.898,0.166c1.398,0 2.231,-0.777 2.497,-2.331c0.178,-1.443 0.3,-6.927 0.366,-16.451l-3.596,0l-0,0.899c-0.111,9.724 -2.253,16.829 -6.427,21.313l-2.564,-2.264c3.796,-3.93 5.727,-10.279 5.794,-19.049l-0,-0.899l-5.028,0l-0,-3.097l5.028,0l-0,-5.594Z" style="fill:#004367;fill-rule:nonzero;"/><path d="M85.066,29.624c-1.465,-2.687 -3.253,-4.785 -5.362,-6.294l2.631,-1.665c2.797,1.953 5.273,5.694 7.426,11.222c3.153,7.771 7.26,13.287 12.322,16.551l-1.965,2.498c-5.217,-3.131 -9.591,-9.136 -13.121,-18.016l-0.233,-0.633c-2.264,8.059 -6.76,14.286 -13.487,18.682l-1.898,-2.698c6.927,-4.551 11.489,-11.1 13.687,-19.647Z" style="fill:#004367;fill-rule:nonzero;"/><path d="M126.3,21.432l10.956,-0l0,2.897l-7.726,-0l0,17.516l-3.23,0l0,-20.413Z" style="fill:#004367;fill-rule:nonzero;"/><path d="M143.99,25.195l10.723,-0l0,-3.497l3.064,0l0,3.497l10.59,-0l-0,2.897l-10.59,-0l0,4.462l12.888,0l-0,2.964l-28.773,0l0,-2.964l12.821,0l0,-4.462l-10.723,-0l0,-2.897Zm11.489,11.089l3.031,-0l-0,3.996l9.158,0l-0,2.964l-9.158,-0l-0,5.694c1.798,0.156 3.552,0.234 5.261,0.234c3.042,-0 5.606,-0.067 7.693,-0.2l-0.933,3.197c-1.798,-0 -3.985,-0.023 -6.56,-0.067c-5.706,-0.022 -9.624,-0.555 -11.755,-1.598c-1.599,-0.8 -3.053,-2.343 -4.363,-4.629c-1.065,2.286 -2.519,4.44 -4.362,6.46l-2.431,-2.131c3.397,-3.841 5.295,-8.081 5.694,-12.721l3.097,0.399c-0.133,1.799 -0.444,3.508 -0.932,5.129c1.354,2.531 2.897,4.14 4.629,4.829c0.577,0.244 1.221,0.444 1.931,0.599l0,-12.155Z" style="fill:#004367;fill-rule:nonzero;"/><path d="M178.498,42.744l10.889,0l0,-2.098l2.698,0l-1.965,-1.765c1.998,-2.042 3.03,-4.617 3.097,-7.725l-0,-8.459l11.456,0l-0,15.185c-0,1.976 -0.988,2.964 -2.964,2.964l-2.964,0l-0.766,-2.83c1.332,0.088 2.276,0.133 2.831,0.133c0.577,-0 0.865,-0.433 0.865,-1.299l0,-1.498l-6.094,-0c-0.599,2.109 -1.62,3.94 -3.063,5.494l-0,1.898l11.056,0l-0,2.931l-11.056,-0l-0,2.697l13.22,0l0,2.898l-29.438,-0l-0,-2.898l13.087,0l0,-2.697l-10.889,-0l-0,-2.931Zm-1.832,-17.25l3.497,0c-0.533,-0.999 -1.066,-1.898 -1.599,-2.697l2.498,-1.232c0.71,1.11 1.443,2.42 2.198,3.929l1.965,0c0.688,-1.243 1.287,-2.597 1.798,-4.062l2.831,0.965c-0.445,1.066 -0.966,2.098 -1.566,3.097l3.63,0l0,2.764l-5.927,0l-0,2.864c-0.023,0.6 -0.078,1.321 -0.167,2.165l2.464,-0l0,-3.597l2.764,0l0,6.228l-5.861,-0c-0.355,0.91 -0.754,1.687 -1.198,2.331c-1.199,1.62 -3.175,2.886 -5.928,3.796l-1.565,-2.464c2.486,-0.822 4.185,-1.876 5.095,-3.164l0.3,-0.499l-4.263,-0l-0,-6.228l2.731,0l-0,3.597l2.464,-0c0.111,-0.622 0.189,-1.343 0.233,-2.165l0,-2.864l-6.394,0l0,-2.764Zm19.481,4.962l0,0.5c0,0.466 -0.044,1.099 -0.133,1.898l5.661,-0l0,-2.398l-5.528,0Zm5.528,-2.497l0,-2.465l-5.528,0l0,2.465l5.528,-0Z" style="fill:#004367;fill-rule:nonzero;"/><path d="M229.656,21.898l3.197,-0l-0,9.524l7.359,0l0,3.097l-7.359,0l-0,13.654l8.125,-0l0,3.097l-19.647,-0l-0,-3.097l8.325,-0l-0,-13.654l-7.16,0l0,-3.097l7.16,0l-0,-9.524Zm-14.386,17.416c-1.199,1.199 -2.498,2.365 -3.897,3.497l-0.999,-3.33c4.396,-3.574 7.349,-7.049 8.859,-10.423l-8.059,-0l-0,-3.031l4.695,0c-0.444,-1.132 -0.977,-2.353 -1.598,-3.663l2.997,-0.832c0.755,1.82 1.299,3.319 1.632,4.495l3.529,0l0,2.664c-0.843,2.354 -2.153,4.685 -3.929,6.994c1.998,1.154 3.741,2.375 5.228,3.663l-1.798,2.73c-1.132,-1.154 -2.32,-2.197 -3.563,-3.13l-0,13.387l-3.097,0l-0,-13.021Z" style="fill:#004367;fill-rule:nonzero;"/><path d="M254.539,27.226l15.452,0l-0,8.459l-15.452,-0l0,-8.459Zm12.488,5.661l0,-2.864l-9.491,0l0,2.864l9.491,0Zm-15.052,4.662l9.624,0l0,9.325l-9.624,-0l0,-9.325Zm6.827,6.627l-0,-3.929l-4.03,-0l0,3.929l4.03,0Zm4.962,-6.627l9.624,0l-0,9.325l-9.624,-0l-0,-9.325Zm6.826,6.627l0,-3.929l-4.062,-0l-0,3.929l4.062,0Zm-23.344,-21.446l26.941,0l-0,3.031l-23.844,-0l0,22.511l24.51,0l-0,3.031l-27.607,-0l0,-28.573Z" style="fill:#004367;fill-rule:nonzero;"/><path d="M309.027,22.73l0,29.705l-3.03,0l-0,-1.232l-21.712,-0l-0,1.232l-3.031,0l0,-29.705l27.773,0Zm-24.742,25.676l21.712,-0l-0,-22.978l-21.712,-0l-0,22.978Zm1.931,-21.446l7.36,-0l-0,-0.933l2.93,0l0,0.933l7.46,-0l-0,1.998l-7.46,-0l0,1.132l6.261,-0l-0,6.66c0.777,0.866 1.465,1.732 2.064,2.598l-1.864,1.298c-0.422,-0.643 -0.678,-1.021 -0.766,-1.132l-1.033,0.067l0,1.498l3.264,0l-0,2.331l-3.264,0l0,1.666c0,1.642 -0.932,2.464 -2.797,2.464l-3.23,-0l-0.566,-2.498c1.332,0.089 2.297,0.133 2.897,0.133c0.644,0 0.966,-0.244 0.966,-0.732l-0,-1.033l-8.992,0c1.332,0.489 2.631,1.077 3.896,1.765l-1.298,1.998c-1.332,-0.91 -2.709,-1.631 -4.13,-2.164l1.066,-1.599l-3.197,0l0,-2.331l12.655,0l-0,-1.332c-4.552,0.2 -8.526,0.356 -11.922,0.467l-0.3,-1.999c3.33,-0.044 5.794,-0.088 7.393,-0.133l-0,-1.032l-6.194,-0l-0,-6.96l6.161,-0l-0,-1.132l-7.36,-0l0,-1.998Zm10.257,10.09l-0,0.966l4.429,-0.167c-0.333,-0.444 -0.544,-0.71 -0.633,-0.799l-3.796,-0Zm3.696,-1.565l0,-1.199l-4.029,-0l-0,1.199l4.029,-0Zm-6.227,-0l-0,-1.199l-3.896,-0l-0,1.199l3.896,-0Zm-3.896,-2.598l3.896,0l-0,-1.099l-3.896,0l-0,1.099Zm6.094,-1.099l-0,1.099l4.029,0l0,-1.099l-4.029,0Z" style="fill:#004367;fill-rule:nonzero;"/><path d="M315.628,22.797l9.658,0l-0,2.364c-0.666,2.442 -1.488,5.129 -2.465,8.059c1.532,2.731 2.365,5.151 2.498,7.26c-0,1.709 -0.3,2.919 -0.899,3.63c-0.91,0.932 -2.464,1.421 -4.662,1.465l-0.966,-3.164c0.733,0.111 1.288,0.167 1.665,0.167c0.666,-0.067 1.143,-0.244 1.432,-0.533c0.244,-0.311 0.366,-0.832 0.366,-1.565c0,-1.976 -0.843,-4.252 -2.531,-6.827c1.044,-2.886 1.876,-5.561 2.498,-8.025l-3.463,-0l-0,26.474l-3.131,0l0,-29.305Zm10.191,2.997l4.195,0c-0.466,-1.11 -0.999,-2.142 -1.598,-3.097l2.964,-1.099c0.599,1.132 1.176,2.531 1.731,4.196l3.664,0c0.643,-1.243 1.254,-2.631 1.831,-4.163l2.964,1.033c-0.511,1.176 -1.055,2.22 -1.632,3.13l4.463,0l-0,3.064l-8.059,-0c-0.666,0.866 -1.421,1.687 -2.265,2.464c0.977,0.977 1.787,2.142 2.431,3.497c2.02,-0.977 3.819,-2.32 5.395,-4.03l2.264,1.865c-0.999,1.066 -2.053,1.987 -3.163,2.764c0.799,3.952 2.264,7.46 4.396,10.523l-2.165,2.698c-2.065,-3.575 -3.53,-7.549 -4.396,-11.922l-1.365,0.633c0.688,2.264 1.032,4.806 1.032,7.626c0,3.374 -0.455,5.428 -1.365,6.16c-0.91,0.689 -2.387,1.077 -4.429,1.166l-1.632,0.033l-0.966,-2.83l2.465,-0c0.932,-0 1.643,-0.222 2.131,-0.666c0.488,-0.533 0.733,-1.821 0.733,-3.863c-0,-0.866 -0.034,-1.665 -0.1,-2.398c-2.598,2.597 -5.65,4.784 -9.158,6.56l-1.798,-2.697c4.44,-2.065 7.903,-4.496 10.39,-7.293c-0.2,-0.777 -0.433,-1.488 -0.7,-2.131c-1.754,2.02 -4.051,3.718 -6.893,5.095l-1.532,-2.664c2.975,-1.288 5.35,-2.92 7.126,-4.896c-0.399,-0.599 -0.754,-1.054 -1.065,-1.365c-1.687,1.11 -3.563,2.109 -5.628,2.997l-1.632,-2.697c3.619,-1.266 6.35,-2.809 8.192,-4.629l-6.826,-0l-0,-3.064Z" style="fill:#004367;fill-rule:nonzero;"/><path d="M356.629,32.121l3.231,0l-0,20.414l-10.956,-0l-0,-2.897l7.725,-0l0,-17.517Z" style="fill:#004367;fill-rule:nonzero;"/></g><path d="M425.938,68.605l-386.668,-0c-5.049,-0 -10.107,0.085 -15.157,-0c-6.288,-0.106 -12.144,-3.238 -15.426,-8.672c-2.555,-4.23 -2.585,-8.71 -2.585,-13.431l0,-15.487c0,-3.841 -0.386,-8.044 0.682,-11.771c2.373,-8.288 9.902,-13.033 18.246,-13.059c2.344,-0.007 4.688,0 7.032,0l392.582,0c7.029,0 13.55,2.966 17.058,9.347c2.266,4.122 2.195,8.467 2.195,12.981l0,15.791c0,3.552 0.328,7.395 -0.573,10.859c-2.067,7.95 -9.279,13.269 -17.386,13.442c-1.556,0.033 -1.561,2.455 0,2.422c6.87,-0.147 13.232,-3.438 17.05,-9.214c2.72,-4.116 3.331,-8.68 3.331,-13.477l0,-15.093c0,-3.683 0.265,-7.488 -0.114,-11.159c-1.092,-10.57 -10.074,-18.166 -20.52,-18.321c-1.833,-0.026 -3.669,0 -5.502,0l-374.679,0c-6.857,0 -13.715,-0.022 -20.572,0c-7.459,0.024 -14.399,3.353 -18.336,9.871c-2.478,4.102 -2.915,8.537 -2.915,13.19l-0,15.295c-0,3.619 -0.281,7.389 0.157,10.993c0.814,6.693 5.032,12.741 11.081,15.751c3.632,1.808 7.434,2.164 11.375,2.164l399.644,-0c1.559,-0 1.561,-2.422 0,-2.422" style="fill:#004367;fill-rule:nonzero;"/></svg>