<?xml version="1.0" encoding="UTF-8" standalone="no"?><!DOCTYPE svg PUBLIC "-//W3C//DTD SVG 1.1//EN" "http://www.w3.org/Graphics/SVG/1.1/DTD/svg11.dtd"><svg width="100%" height="100%" viewBox="0 0 701 594" version="1.1" xmlns="http://www.w3.org/2000/svg" xmlns:xlink="http://www.w3.org/1999/xlink" xml:space="preserve" xmlns:serif="http://www.serif.com/" style="fill-rule:evenodd;clip-rule:evenodd;stroke-linejoin:round;stroke-miterlimit:2;"><g><path d="M168.901,386.332c-13.7,-0.062 -24.844,10.981 -24.9,24.681c-0.063,13.7 10.975,24.832 24.681,24.894c13.712,0.063 24.837,-10.975 24.9,-24.681c0.056,-13.694 -10.975,-24.831 -24.681,-24.894" style="fill:#fff;fill-rule:nonzero;"/><path d="M610.115,532.521l-522.894,-2.3c-33.312,-0.144 -60.45,26.762 -60.6,60.069l643.563,2.831c0.144,-33.313 -26.763,-60.456 -60.069,-60.6" style="fill:#fff;fill-rule:nonzero;"/><path d="M83.644,264.286l47.95,0.213l-0.138,30.931l69.057,0.306l0.131,-30.937l42.769,0.187l-0.819,186.407l-159.769,-0.707l0.819,-186.4Zm212.881,31.869l19.763,0.088l0.137,-30.932l70.225,0.307l0.719,30.937l54.831,0.244l0.138,-30.938l62.956,0.275l-0.138,30.938l69.057,0.3l0.131,-30.931l41.862,0.187l-0.812,186.4l-319.556,-1.406l0.687,-155.469Zm-266.594,207.338l0,0.256l569.944,3.05c37.65,0.2 68.313,8.919 70.55,-35.375c2.275,-44.881 -0.119,-90.619 -2.669,-135.444c-0.956,-16.775 2.45,-39.406 19.163,-41.144c2.1,-0.218 4.362,-0.068 6.169,-1.162c2.568,-1.556 3.187,-4.95 3.55,-7.938c3.725,-30.493 7.406,-61.781 0.143,-91.625c-10.218,-41.968 -40.575,-75.637 -69.868,-107.375c-22.888,-24.793 -45.769,-49.587 -68.657,-74.381c-7.731,-8.381 -21.581,-16.862 -28.9,-8.112c31.8,55.237 63.607,110.481 95.407,165.725c5.718,9.943 11.562,22.043 6.456,32.318c-6.6,13.3 -25.425,12.869 -40.075,10.45c-3.55,-0.581 -7.306,-1.256 -10.006,-3.637c-2.894,-2.55 -3.982,-6.519 -4.969,-10.244c-17.013,-64.125 -45.088,-125.294 -82.619,-179.994c-7.5,-10.931 -20.819,-22.9 -32.1,-15.943c22.119,67.781 37.125,137.887 44.681,208.781c-20.35,-0.088 -40.7,-0.181 -61.043,-0.275c-2.819,-66.681 -16.169,-132.913 -39.413,-195.481c-3.244,-8.732 -11.65,-19.275 -19.537,-14.332c-4.632,2.907 -5.044,9.369 -4.944,14.832c1.169,64.956 2.337,129.918 3.5,194.875c-22.4,-0.063 -44.794,-0.125 -67.194,-0.188c-0.244,-69.762 -0.481,-139.525 -0.719,-209.287c-6.356,-3.7 -12.881,4.525 -15.606,11.356c-23.619,59.294 -40.294,121.35 -49.556,184.5c-0.663,4.519 -1.588,9.562 -5.319,12.2c-3.106,2.194 -7.237,2.037 -11.031,1.781c-11.75,-0.769 -23.5,-1.537 -35.25,-2.312c7.944,-70.719 25.831,-140.307 52.981,-206.088c-9.987,-7.831 -23.112,4.6 -29.606,15.5c-24.638,41.363 -49.269,82.725 -73.906,124.081c-12.094,20.3 -24.65,43.45 -18.8,66.344c-13.269,1.588 -26.688,1.913 -40.019,0.95c-4.044,-0.294 -8.313,-0.787 -11.556,-3.219c-8.15,-6.112 -4.607,-18.887 -0.213,-28.075c29.144,-60.893 62.556,-119.743 99.925,-175.968c-11.337,-8.244 -26.431,2.725 -36.006,12.968c-31.656,33.882 -63.3,67.775 -94.938,101.675c-17.793,19.069 -36.143,39.088 -43.643,64.075c-10.688,35.607 2.668,73.969 -1.063,110.95c8.781,1.563 17.563,3.119 26.344,4.682c0.137,68.75 0.275,137.5 0.412,206.25" style="fill:#fff;fill-rule:nonzero;"/></g></svg>