<?xml version="1.0" encoding="UTF-8" standalone="no"?><!DOCTYPE svg PUBLIC "-//W3C//DTD SVG 1.1//EN" "http://www.w3.org/Graphics/SVG/1.1/DTD/svg11.dtd"><svg width="100%" height="100%" viewBox="0 0 620 661" version="1.1" xmlns="http://www.w3.org/2000/svg" xmlns:xlink="http://www.w3.org/1999/xlink" xml:space="preserve" xmlns:serif="http://www.serif.com/" style="fill-rule:evenodd;clip-rule:evenodd;stroke-linejoin:round;stroke-miterlimit:2;"><g><path d="M206.218,80.376c-6.35,-0 -11.488,5.137 -11.488,11.481c0,6.35 5.138,11.481 11.488,11.481c31.4,0 56.943,25.55 56.943,56.95c0,6.344 5.138,11.481 11.482,11.481c6.35,0 11.487,-5.137 11.487,-11.481c0,-44.062 -35.856,-79.912 -79.912,-79.912" style="fill:#fff;fill-rule:nonzero;"/><path d="M454.075,619.194c-68.287,-0 -123.837,-55.556 -123.837,-123.838c-0,-68.287 55.55,-123.837 123.837,-123.837c68.288,-0 123.838,55.55 123.838,123.837c-0,68.282 -55.55,123.838 -123.838,123.838m-229.925,-90.5l50.494,-61.713l-45.938,-105.256l37.988,-52.237c3.569,-1.463 7.025,-3.138 10.456,-4.85l10.925,9.287c23.694,20.069 41.306,35.088 54.087,60.269c-8.681,8.025 -16.537,16.9 -23.337,26.612c-7.688,-17.812 -19.806,-34 -39.044,-43.618c-5.675,-2.875 -12.569,-0.519 -15.412,5.131c-2.838,5.675 -0.531,12.562 5.137,15.412c19.194,9.588 28.975,29.55 34.069,49.938c-9.313,20.681 -14.619,43.544 -14.619,67.687c0,9.05 0.925,17.869 2.325,26.532c-20.687,3.731 -43.619,6.043 -67.131,6.806m-18.406,-253.1c-63.319,-0 -114.838,-51.513 -114.838,-114.831c0,-63.319 51.519,-114.832 114.838,-114.832c63.312,0 114.831,51.513 114.831,114.832c-0,63.318 -51.519,114.831 -114.831,114.831m-144.863,226.994c-4.5,-2.6 -14.95,-9.332 -15.012,-13.975c9.075,-115.907 32.281,-135.557 78.481,-174.688l10.587,-8.994c3.244,1.6 6.488,3.182 9.851,4.557l37.987,52.237l-45.931,105.256l50.469,61.694c-50.782,-1.731 -99.238,-10.4 -126.432,-26.087m393.194,-172.35c-26.619,-0 -51.688,6.45 -73.956,17.637c-15.306,-27.712 -35.806,-46.519 -62.356,-69.012l-1.663,-1.407c30.975,-29.306 50.406,-70.687 50.406,-116.693c0,-88.788 -71.975,-160.763 -160.762,-160.763c-88.794,0 -160.775,71.975 -160.775,160.763c-0,46.225 19.631,87.781 50.869,117.112l-1.169,0.988c-55.206,46.768 -84.488,77.181 -94.669,207.956c0,15.369 6.581,37.456 37.913,55.537c36.975,21.35 102.631,32.025 168.287,32.025c34.256,-0.012 68.413,-2.993 98.6,-8.8c26.406,56.025 83.231,94.894 149.275,94.894c91.194,0 165.119,-73.931 165.119,-165.119c-0,-91.193 -73.925,-165.118 -165.119,-165.118" style="fill:#fff;fill-rule:nonzero;"/><path d="M524.846,474.714l-50.132,0l0,-50.131c0,-11.406 -9.243,-20.637 -20.637,-20.637c-11.4,-0 -20.638,9.231 -20.638,20.637l0,50.131l-50.131,0c-11.4,0 -20.644,9.232 -20.644,20.644c0,11.406 9.244,20.638 20.644,20.638l50.131,-0l0,50.125c0,11.412 9.238,20.643 20.638,20.643c11.394,0 20.637,-9.231 20.637,-20.643l0,-50.125l50.132,-0c11.393,-0 20.637,-9.232 20.637,-20.638c0,-11.412 -9.244,-20.644 -20.637,-20.644" style="fill:#fff;fill-rule:nonzero;"/></g></svg>