<?xml version="1.0" encoding="UTF-8" standalone="no"?><!DOCTYPE svg PUBLIC "-//W3C//DTD SVG 1.1//EN" "http://www.w3.org/Graphics/SVG/1.1/DTD/svg11.dtd"><svg width="100%" height="100%" viewBox="0 0 23 23" version="1.1" xmlns="http://www.w3.org/2000/svg" xmlns:xlink="http://www.w3.org/1999/xlink" xml:space="preserve" xmlns:serif="http://www.serif.com/" style="fill-rule:evenodd;clip-rule:evenodd;stroke-linejoin:round;stroke-miterlimit:2;"><g opacity="0.9"><path d="M12.105,6.428c0.353,-0 0.529,0.176 0.529,0.529l0,2.398c0,0.294 0.148,0.441 0.441,0.441l2.239,-0c0.353,-0 0.529,0.176 0.529,0.529l0,1.763c0,0.352 -0.176,0.529 -0.529,0.529l-2.239,-0c-0.293,-0 -0.441,0.147 -0.441,0.441l0,2.486c0,0.352 -0.176,0.529 -0.529,0.529l-1.728,-0c-0.353,-0 -0.529,-0.177 -0.529,-0.529l0,-2.486c0,-0.294 -0.147,-0.441 -0.441,-0.441l-2.221,-0c-0.353,-0 -0.529,-0.177 -0.529,-0.529l-0,-1.763c-0,-0.353 0.176,-0.529 0.529,-0.529l2.221,-0c0.294,-0 0.441,-0.147 0.441,-0.441l0,-2.398c0,-0.353 0.176,-0.529 0.529,-0.529l1.728,-0Zm-12.105,4.823c-0,6.212 5.037,11.25 11.25,11.25c6.213,-0 11.25,-5.038 11.25,-11.25c-0,-6.214 -5.037,-11.251 -11.25,-11.251c-6.213,-0 -11.25,5.037 -11.25,11.251" style="fill:#a3a3a3;fill-rule:nonzero;"/></g></svg>