<?xml version="1.0" encoding="UTF-8" standalone="no"?><!DOCTYPE svg PUBLIC "-//W3C//DTD SVG 1.1//EN" "http://www.w3.org/Graphics/SVG/1.1/DTD/svg11.dtd"><svg width="100%" height="100%" viewBox="0 0 38 38" version="1.1" xmlns="http://www.w3.org/2000/svg" xmlns:xlink="http://www.w3.org/1999/xlink" xml:space="preserve" xmlns:serif="http://www.serif.com/" style="fill-rule:evenodd;clip-rule:evenodd;stroke-linejoin:round;stroke-miterlimit:2;"><path d="M37.5,9.809c0,-5.395 -4.415,-9.809 -9.809,-9.809l-17.881,0c-5.395,0 -9.81,4.414 -9.81,9.809l0,17.88c0,5.395 4.415,9.811 9.81,9.811l6.011,-0l-0,-12.714l-4.762,-0l0,-5.42l4.762,-0l-0,-4.132c-0,-4.698 2.799,-7.295 7.081,-7.295c2.052,-0 4.198,0.367 4.198,0.367l0,4.614l-2.365,-0c-2.329,-0 -3.055,1.445 -3.055,2.927l0,3.519l5.2,-0l-0.832,5.42l-4.368,-0l0,12.714l6.011,-0c5.394,-0 9.809,-4.416 9.809,-9.811l0,-17.88Z" style="fill:#fff;fill-rule:nonzero;"/></svg>