<?xml version="1.0" encoding="UTF-8" standalone="no"?><!DOCTYPE svg PUBLIC "-//W3C//DTD SVG 1.1//EN" "http://www.w3.org/Graphics/SVG/1.1/DTD/svg11.dtd"><svg width="100%" height="100%" viewBox="0 0 38 38" version="1.1" xmlns="http://www.w3.org/2000/svg" xmlns:xlink="http://www.w3.org/1999/xlink" xml:space="preserve" xmlns:serif="http://www.serif.com/" style="fill-rule:evenodd;clip-rule:evenodd;stroke-linejoin:round;stroke-miterlimit:2;"><path d="M29.194,12.343c0,0.053 -0.001,0.181 -0.108,0.326c-0.478,0.642 -0.994,1.219 -1.635,1.699c-0.093,0.071 -0.249,0.143 -0.249,0.275c-0,3.377 -0.863,6.749 -3.324,9.195c-3.135,3.115 -7.837,3.961 -12.012,2.809c-0.808,-0.223 -1.581,-0.537 -2.322,-0.93c-0.246,-0.133 -0.486,-0.272 -0.724,-0.428c-0.06,-0.049 -0.104,-0.093 -0.053,-0.125c0.05,-0.026 0.09,-0.028 0.276,-0c1.167,0.114 2.37,-0.059 3.475,-0.444c0.608,-0.213 1.912,-0.64 2.288,-1.213c0.009,-0.013 0.018,-0.013 0.027,-0.028c-0.152,-0.035 -0.304,-0.035 -0.456,-0.062c-1.134,-0.324 -2.649,-0.893 -3.35,-2.806c-0.045,-0.111 0,-0.168 0.116,-0.147c0.933,0.073 1.269,0.023 1.595,-0.05c-0.184,-0.03 -0.37,-0.093 -0.54,-0.164c-1.43,-0.544 -2.473,-1.937 -2.664,-3.444c-0.021,-0.174 -0.036,-0.322 -0.026,-0.482c0.008,-0.112 0.058,-0.148 0.156,-0.086c0.735,0.38 1.559,0.47 1.626,0.456c-0.183,-0.142 -0.352,-0.3 -0.518,-0.456c-1.239,-1.174 -1.719,-3.562 -0.728,-5.049c0.081,-0.12 0.134,-0.12 0.232,-0.007c2.267,2.581 5.059,3.786 8.426,4.287c0.089,0.014 0.098,0 0.085,-0.098c-0.088,-0.592 -0.1,-1.173 0.044,-1.76c0.149,-0.609 0.439,-1.182 0.833,-1.668c0.38,-0.469 0.858,-0.859 1.394,-1.139c0.534,-0.279 1.126,-0.448 1.728,-0.488c0.619,-0.04 1.247,0.059 1.822,0.293c0.438,0.179 0.826,0.42 1.188,0.729c0.076,0.062 0.142,0.137 0.213,0.219c0.046,0.045 0.098,0.062 0.17,0.045c0.861,-0.216 1.67,-0.52 2.452,-0.938c0.036,-0.019 0.065,-0.028 0.11,-0.01c0.035,0.027 0.022,0.072 0.004,0.108c-0.14,0.456 -0.387,0.879 -0.686,1.25c-0.197,0.244 -0.685,0.847 -1.017,0.902c0.701,-0.117 1.418,-0.295 2.068,-0.59c0.083,-0.038 0.084,-0.053 0.084,0l0,0.019Zm-1.503,-12.343l-17.882,-0c-5.395,-0 -9.809,4.414 -9.809,9.809l0,17.882c0,5.394 4.414,9.809 9.809,9.809l17.882,-0c5.395,-0 9.809,-4.415 9.809,-9.809l-0,-17.882c-0,-5.395 -4.414,-9.809 -9.809,-9.809" style="fill:#fff;fill-rule:nonzero;"/></svg>