<?xml version="1.0" encoding="UTF-8" standalone="no"?><!DOCTYPE svg PUBLIC "-//W3C//DTD SVG 1.1//EN" "http://www.w3.org/Graphics/SVG/1.1/DTD/svg11.dtd"><svg width="100%" height="100%" viewBox="0 0 38 38" version="1.1" xmlns="http://www.w3.org/2000/svg" xmlns:xlink="http://www.w3.org/1999/xlink" xml:space="preserve" xmlns:serif="http://www.serif.com/" style="fill-rule:evenodd;clip-rule:evenodd;stroke-linejoin:round;stroke-miterlimit:2;"><path d="M30.739,9.585c-0.003,0.044 -0.039,0.093 -0.073,0.126c-0.613,0.589 -1.227,1.177 -1.844,1.764c-0.143,0.136 -0.224,0.293 -0.209,0.492c0.004,0.066 0.003,0.131 0.003,0.196l-0,13.197c-0,0.083 -0.003,0.167 -0.003,0.251c-0.001,0.152 0.058,0.281 0.165,0.385c0.575,0.565 1.142,1.135 1.731,1.683c0.188,0.173 0.22,0.355 0.18,0.59l-9.384,-0c-0.026,-0.224 -0.021,-0.407 0.173,-0.586c0.595,-0.547 1.165,-1.122 1.748,-1.685c0.135,-0.13 0.198,-0.28 0.198,-0.47c-0.003,-3.613 -0.002,-7.226 -0.002,-10.839c-0,-0.018 -0.002,-0.037 -0.022,-0.064c-0.019,0.042 -0.04,0.084 -0.057,0.128c-1.75,4.443 -3.5,8.886 -5.246,13.331c-0.045,0.114 -0.093,0.172 -0.226,0.158c-0.148,-0.015 -0.298,-0.01 -0.446,-0.001c-0.096,0.006 -0.136,-0.033 -0.174,-0.116c-0.906,-1.985 -1.816,-3.967 -2.725,-5.95c-1.134,-2.473 -2.267,-4.945 -3.401,-7.418c-0.02,-0.044 -0.042,-0.089 -0.091,-0.13l0,0.157c0,2.948 0.002,5.896 -0.002,8.843c0,0.257 -0.036,0.52 0.092,0.751c0.105,0.189 0.237,0.366 0.373,0.534c0.757,0.924 1.512,1.849 2.282,2.764c0.149,0.176 0.118,0.355 0.118,0.554l-7.133,-0c-0.02,-0.217 -0.016,-0.405 0.144,-0.593c0.821,-0.973 1.627,-1.96 2.436,-2.944c0.207,-0.253 0.29,-0.546 0.268,-0.871c-0.007,-0.106 -0.013,-0.212 -0.013,-0.319c-0.001,-3.433 -0.003,-6.864 0.002,-10.296c0,-0.287 -0.027,-0.556 -0.219,-0.784c-0.377,-0.449 -0.754,-0.897 -1.129,-1.347c-0.378,-0.453 -0.752,-0.909 -1.134,-1.361c-0.123,-0.148 -0.031,-0.31 -0.075,-0.481l0.175,-0c2.219,-0 4.436,0.001 6.655,-0.003c0.113,-0.001 0.16,0.04 0.203,0.137c1.746,3.836 3.494,7.67 5.242,11.505c0.019,0.041 0.039,0.081 0.071,0.147c0.151,-0.378 0.294,-0.731 0.436,-1.086c1.413,-3.524 2.825,-7.047 4.235,-10.572c0.036,-0.086 0.069,-0.131 0.176,-0.131c2.126,0.004 4.25,0.003 6.375,0.003l0.131,-0c-0,0.13 0.006,0.242 -0.004,0.351m-3.048,-9.585l-17.882,-0c-5.395,-0 -9.809,4.415 -9.809,9.809l-0,17.881c-0,5.395 4.414,9.81 9.809,9.81l17.882,-0c5.395,-0 9.809,-4.415 9.809,-9.81l-0,-17.881c-0,-5.394 -4.414,-9.809 -9.809,-9.809" style="fill:#fff;fill-rule:nonzero;"/></svg>