<?xml version="1.0" encoding="UTF-8" standalone="no"?><!DOCTYPE svg PUBLIC "-//W3C//DTD SVG 1.1//EN" "http://www.w3.org/Graphics/SVG/1.1/DTD/svg11.dtd"><svg width="100%" height="100%" viewBox="0 0 38 38" version="1.1" xmlns="http://www.w3.org/2000/svg" xmlns:xlink="http://www.w3.org/1999/xlink" xml:space="preserve" xmlns:serif="http://www.serif.com/" style="fill-rule:evenodd;clip-rule:evenodd;stroke-linejoin:round;stroke-miterlimit:2;"><path d="M28.789,21.381c-0,2.487 -2.017,4.503 -4.503,4.503l-11.513,-0c-2.487,-0 -4.503,-2.016 -4.503,-4.503l-0,-5.357c-0,-2.488 2.016,-4.503 4.503,-4.503l11.513,0c2.486,0 4.503,2.015 4.503,4.503l-0,5.357Zm-1.098,-21.381l-17.882,0c-5.395,0 -9.809,4.413 -9.809,9.809l0,17.882c0,5.395 4.414,9.809 9.809,9.81l17.882,-0c5.396,-0 9.809,-4.415 9.809,-9.81l0,-17.882c0,-5.396 -4.413,-9.809 -9.809,-9.809" style="fill:#fff;fill-rule:nonzero;"/><path d="M21.803,18.573l-4.942,-2.689c-0.203,-0.115 -0.897,0.031 -0.897,0.264l0,5.243c0,0.23 0.688,0.376 0.891,0.267l5.163,-2.554c0.209,-0.113 -0.008,-0.413 -0.215,-0.531" style="fill:#fff;fill-rule:nonzero;"/></svg>