<?xml version="1.0" encoding="UTF-8" standalone="no"?><!DOCTYPE svg PUBLIC "-//W3C//DTD SVG 1.1//EN" "http://www.w3.org/Graphics/SVG/1.1/DTD/svg11.dtd"><svg width="100%" height="100%" viewBox="0 0 900 165" version="1.1" xmlns="http://www.w3.org/2000/svg" xmlns:xlink="http://www.w3.org/1999/xlink" xml:space="preserve" xmlns:serif="http://www.serif.com/" style="fill-rule:evenodd;clip-rule:evenodd;stroke-linejoin:round;stroke-miterlimit:2;"><path d="M819.532,82.461l80.468,-82.461l-819.516,0l-80.484,82.461l80.484,82.475l819.516,-0l-80.468,-82.475Z" style="fill:#005f89;fill-rule:nonzero;"/><g><path d="M241.903,29.766c-0,-2.437 1.07,-3.656 3.209,-3.656l10.547,0c2.293,0 3.439,1.143 3.439,3.427l0,2.97c0,1.904 0.956,2.856 2.866,2.856l40.009,0c2.292,0 3.439,1.143 3.439,3.427l-0,6.74c-0,2.285 -1.147,3.427 -3.439,3.427l-40.009,0c-1.91,0 -2.866,0.952 -2.866,2.856l0,12.68c0,1.904 0.956,2.856 2.866,2.856l39.206,-0c2.293,-0 3.439,1.142 3.439,3.427l0,7.311c0,2.285 -1.146,4.303 -3.439,6.054l-33.245,26.046c-1.91,1.675 -1.949,3.198 -0.114,4.569c6.649,5.255 12.075,7.92 16.278,7.996l17.884,0c2.292,0 3.439,1.143 3.439,3.427l-0,6.626c-0,2.285 -1.147,3.427 -3.439,3.427l-25.335,0c-5.197,-0.685 -12.075,-4.379 -20.635,-11.081c-2.369,-1.599 -4.662,-1.675 -6.878,-0.228c-3.057,2.285 -6.114,4.722 -9.171,7.311c-3.057,2.513 -6.229,3.846 -9.515,3.998l-29.462,0c-2.293,0 -3.63,-1.142 -4.012,-3.427l-0.917,-5.712c-0.459,-2.894 0.458,-4.341 2.751,-4.341l21.896,0l4.585,-0.685c2.446,-0.457 5.503,-2.399 9.171,-5.826c2.293,-1.828 2.369,-3.617 0.229,-5.369l-27.513,-18.506c-2.674,-1.828 -2.865,-2.741 -0.573,-2.741l20.864,-0c2.293,-0 4.204,0.533 5.732,1.599l15.132,10.281c1.758,1.295 3.822,0.99 6.191,-0.914c7.336,-5.864 14.673,-11.576 22.01,-17.135c2.064,-1.676 2.064,-2.513 0,-2.513l-76.692,-0c-2.293,-0 -3.439,-1.143 -3.439,-3.427l-0,-6.74c-0,-2.285 1.146,-3.427 3.439,-3.427l39.206,-0c1.91,-0 2.866,-0.952 2.866,-2.856l-0,-12.68c-0,-1.904 -0.956,-2.856 -2.866,-2.856l-40.582,0c-2.293,0 -3.439,-1.142 -3.439,-3.427l-0,-6.74c-0,-2.284 1.146,-3.427 3.439,-3.427l40.582,0c1.91,0 2.866,-0.952 2.866,-2.856l-0,-2.741Z" style="fill:#fff;fill-rule:nonzero;"/><path d="M337.097,29.766c0,-2.437 1.07,-3.656 3.21,-3.656l10.661,0c2.293,0 3.44,1.143 3.44,3.427l-0,6.283c-0,1.904 0.955,2.856 2.866,2.856l3.209,0c2.293,0 3.439,1.142 3.439,3.427l0,6.626c0,2.284 -1.146,3.427 -3.439,3.427l-3.209,-0c-1.911,-0 -2.866,0.952 -2.866,2.856l-0,15.992c-0,1.904 1.031,2.399 3.095,1.485l2.522,-0.913c2.293,-0.914 3.439,-0.229 3.439,2.056l-0,9.139c-0,2.284 -1.146,3.883 -3.439,4.797c-0.917,0.229 -1.873,0.572 -2.866,1.028c-1.834,0.914 -2.751,2.285 -2.751,4.113l-0,33.585c-1.147,5.711 -4.28,9.024 -9.401,9.938l-9.285,0c-2.293,0 -3.63,-1.142 -4.013,-3.427l-0.917,-5.712c-0.458,-2.894 -0.267,-4.341 0.573,-4.341c4.51,0 6.42,-2.246 5.732,-6.739l0,-17.135c0,-1.904 -1.031,-2.437 -3.095,-1.6l-6.076,2.285c-2.522,0.99 -3.783,0.343 -3.783,-1.942l0,-9.139c0,-2.284 1.147,-3.884 3.439,-4.798l6.764,-2.513c1.834,-0.837 2.751,-2.17 2.751,-3.998l0,-22.161c0,-1.904 -0.955,-2.856 -2.866,-2.856l-6.19,-0c-2.293,-0 -3.439,-1.143 -3.439,-3.427l-0,-6.626c-0,-2.285 1.146,-3.427 3.439,-3.427l6.19,0c1.911,0 2.866,-0.952 2.866,-2.856l0,-6.054Zm56.86,-0c0,-2.437 1.07,-3.656 3.21,-3.656l10.662,0c2.292,0 3.439,1.143 3.439,3.427l-0,1.714c-0,1.904 0.955,2.856 2.866,2.856l16.966,-0c2.293,-0 3.439,1.142 3.439,3.427l0,6.625c0,2.285 -1.146,3.427 -3.439,3.427l-16.966,0c-1.911,0 -2.866,0.952 -2.866,2.856l-0,6.397c-0,1.904 0.955,2.856 2.866,2.856l15.246,0c2.293,0 3.44,1.143 3.44,3.427l-0,6.626c-0,2.284 -0.803,3.427 -2.408,3.427c-1.758,-0 -2.636,0.952 -2.636,2.856l-0,3.655c-0,1.904 1.146,2.856 3.439,2.856c2.216,0 3.324,1.142 3.324,3.427l0,6.626c0,2.284 -1.108,3.427 -3.324,3.427c-2.293,-0 -3.439,0.952 -3.439,2.856l-0,27.416c-0.306,4.95 -3.516,8.263 -9.63,9.938l-12.725,0c-2.293,0 -3.63,-1.142 -4.012,-3.427l-0.229,-1.599c-0.459,-1.828 -1.605,-2.742 -3.439,-2.742l-12.84,0c-5.044,-1.371 -7.91,-4.265 -8.598,-8.682c-1.299,-3.807 -2.483,-7.615 -3.553,-11.423c-0.841,-2.742 -0.115,-4.112 2.178,-4.112l10.202,-0c2.293,-0 3.822,1.142 4.586,3.427c0.306,1.142 0.726,2.284 1.261,3.427c0.841,3.807 3.095,5.369 6.764,4.683c1.91,0 2.865,1.143 2.865,3.427c0,2.361 0.956,3.541 2.866,3.541c4.739,0.61 7.07,-1.485 6.993,-6.282l0,-17.592c0,-1.904 -0.955,-2.856 -2.866,-2.856l-34.162,-0c-2.292,-0 -3.439,-1.143 -3.439,-3.427l0,-6.626c0,-2.285 1.147,-3.427 3.439,-3.427l34.162,0c1.911,0 2.866,-0.952 2.866,-2.856l0,-3.655c0,-1.904 -0.955,-2.856 -2.866,-2.856l-30.493,-0c-2.293,-0 -3.439,-1.143 -3.439,-3.427l-0,-6.626c-0,-2.284 1.146,-3.427 3.439,-3.427l13.986,0c1.91,0 2.865,-0.952 2.865,-2.856l0,-6.397c0,-1.904 -0.955,-2.856 -2.865,-2.856l-17.196,0c-2.293,0 -3.439,-1.142 -3.439,-3.427l-0,-6.625c-0,-2.285 1.146,-3.427 3.439,-3.427l17.196,-0c1.91,-0 2.865,-0.952 2.865,-2.856l0,-1.485Z" style="fill:#fff;fill-rule:nonzero;"/><path d="M513.341,29.88c-0.153,-2.513 0.84,-3.77 2.98,-3.77l10.662,0c2.292,0 3.515,1.143 3.668,3.427c0.382,7.235 0.879,14.47 1.49,21.705c0.153,2.513 1.185,3.77 3.096,3.77l5.044,-0c1.91,-0 2.789,-1.181 2.636,-3.542l-1.49,-18.163c-0.229,-2.361 0.764,-3.541 2.98,-3.541l7.796,-0c2.293,-0 3.515,1.142 3.668,3.427l1.605,18.963c0.153,1.904 1.261,2.856 3.325,2.856c1.91,-0 2.866,1.142 2.866,3.427l-0,6.739c-0,2.285 -1.147,3.427 -3.44,3.427l-23.844,0c-1.911,0 -2.828,1.181 -2.751,3.542c0.458,7.844 1.031,15.688 1.719,23.532c0.153,1.904 0.955,2.856 2.408,2.856c1.528,0.152 2.942,-0.876 4.241,-3.085l4.242,-15.992c0.688,-2.285 2.178,-3.427 4.471,-3.427l9.171,-0c2.292,-0 3.133,1.142 2.522,3.427c-2.446,8.758 -4.777,17.516 -6.993,26.274c-1.758,3.884 -4.853,5.978 -9.286,6.282l-6.42,0c-1.91,0 -2.827,1.181 -2.751,3.542c0,0.99 0.115,2.094 0.344,3.313c0.382,3.122 2.178,4.417 5.388,3.883l17.081,0c2.293,0 3.439,1.143 3.439,3.427l0,6.626c0,2.285 -1.146,3.427 -3.439,3.427l-30.379,0c-4.662,-0.457 -7.451,-3.198 -8.369,-8.225l-1.146,-13.137c-0.153,-1.904 -1.184,-2.856 -3.095,-2.856l-3.21,0c-2.293,0 -3.63,-1.142 -4.012,-3.427c-0.459,-1.903 -0.803,-3.807 -1.032,-5.711c-0.459,-2.894 0.459,-4.341 2.751,-4.341l4.242,-0c1.91,-0 2.789,-1.181 2.637,-3.541l-1.72,-23.533c-0.076,-1.904 -1.07,-2.856 -2.981,-2.856l-22.01,0c-1.911,0 -2.866,0.952 -2.866,2.856l0,10.51c0,1.904 1.223,2.513 3.668,1.828l5.503,-1.371c2.446,-0.609 3.668,0.228 3.668,2.513l0,9.253c0,2.285 -1.146,3.693 -3.439,4.227l-5.732,1.599c-2.445,0.761 -3.668,2.056 -3.668,3.884l0,22.618c-0.458,4.874 -3.668,8.111 -9.629,9.71l-16.394,0c-2.292,0 -3.63,-1.142 -4.012,-3.427l-0.917,-5.712c-0.459,-2.894 0.459,-4.341 2.751,-4.341c4.509,0.381 7.528,0.039 9.057,-1.028c1.528,-1.142 2.14,-2.894 1.834,-5.254l-0,-8.111c-0,-1.904 -1.223,-2.551 -3.669,-1.942l-10.088,2.513c-2.522,0.609 -3.783,-0.228 -3.783,-2.513l0,-9.253c0,-2.285 1.147,-3.732 3.439,-4.341l11.35,-2.97c1.834,-0.533 2.751,-1.713 2.751,-3.541l-0,-14.851c-0,-1.904 -0.955,-2.856 -2.866,-2.856l-11.235,0c-2.292,0 -3.439,-1.142 -3.439,-3.427l0,-6.739c0,-2.285 1.147,-3.427 3.439,-3.427l11.235,-0c1.911,-0 2.866,-0.952 2.866,-2.856l-0,-4.455c-0,-1.904 -0.955,-2.856 -2.866,-2.856l-7.222,-0c-2.293,-0 -3.63,-1.143 -4.013,-3.427l-0.917,-5.712c-0.458,-2.894 0.459,-4.341 2.752,-4.341l21.322,0c3.821,0.381 6.114,-0.914 6.878,-3.884c0.077,-0.533 1.261,-0.799 3.554,-0.799l10.318,-0c2.292,-0 3.439,1.142 3.439,3.427c0.84,5.102 -0.421,9.176 -3.783,12.223c-2.675,2.208 -5.465,3.046 -8.369,2.513c-2.522,-0 -3.783,0.952 -3.783,2.856l0,4.455c0,1.904 0.955,2.856 2.866,2.856l20.864,-0c1.911,-0 2.79,-1.181 2.637,-3.542l-1.605,-21.59Z" style="fill:#fff;fill-rule:nonzero;"/><path d="M591.34,31.022c0.764,-2.894 2.216,-4.34 4.356,-4.34l9.974,-0c2.292,-0 3.171,1.142 2.636,3.427l-6.878,30.614c-0.382,1.98 0.076,2.97 1.376,2.97c1.299,0 1.948,1.143 1.948,3.427l0,65.685c0,2.285 -1.146,3.427 -3.439,3.427l-9.858,0c-2.293,0 -3.44,-1.142 -3.44,-3.427l0,-59.059c0,-1.904 -0.535,-2.856 -1.605,-2.856c-0.993,0 -1.681,-1.142 -2.063,-3.427c-0.535,-2.285 -0.955,-4.569 -1.261,-6.854c-0.306,-2.208 -0.306,-3.313 0,-3.313c1.911,-0.837 2.904,-1.98 2.981,-3.427l5.273,-22.847Zm20.749,0.572c0,-2.361 1.108,-3.542 3.325,-3.542l29.691,0c2.293,0 3.439,1.143 3.439,3.427l-0,48.093c-0.229,4.874 -3.057,7.768 -8.483,8.682l-8.713,-0c-1.91,-0 -2.866,0.952 -2.866,2.856l0,41.695c0,2.285 -1.146,3.427 -3.439,3.427l-9.515,0c-2.292,0 -3.439,-1.142 -3.439,-3.427l0,-101.211Zm43.104,-0c-0,-2.361 1.108,-3.542 3.324,-3.542l29.348,0c2.292,0 3.439,1.143 3.439,3.427l-0,95.843c-0.077,5.102 -3.019,8.072 -8.827,8.91l-13.184,0c-2.292,0 -3.63,-1.142 -4.012,-3.427c-0.459,-1.904 -0.802,-3.808 -1.032,-5.712c-0.458,-2.894 0.459,-4.341 2.752,-4.341c1.987,0.077 3.974,0 5.961,-0.228c1.681,-1.066 2.331,-2.856 1.949,-5.369l-0,-26.502c-0,-1.904 -0.956,-2.856 -2.866,-2.856l-13.413,-0c-2.293,-0 -3.439,-1.143 -3.439,-3.427l-0,-52.776Zm-18.342,12.223c-0,-2.057 -0.879,-3.085 -2.637,-3.085l-2.866,0c-1.91,0 -2.866,0.952 -2.866,2.856l0,6.283c0,1.904 0.956,2.856 2.866,2.856l2.637,-0c1.911,-0 2.866,-0.952 2.866,-2.856l-0,-6.054Zm38.06,-0c-0,-2.057 -0.879,-3.085 -2.637,-3.085l-2.522,0c-1.911,0 -2.866,0.952 -2.866,2.856l-0,6.283c-0,1.904 0.955,2.856 2.866,2.856l2.293,-0c1.91,-0 2.866,-0.952 2.866,-2.856l-0,-6.054Zm-38.06,22.846c-0,-2.056 -0.879,-3.084 -2.637,-3.084l-2.866,0c-1.91,0 -2.866,0.952 -2.866,2.856l0,6.397c0,1.904 0.994,2.856 2.981,2.856c4.356,0.381 6.152,-1.485 5.388,-5.597l-0,-3.428Zm38.06,0c-0,-2.056 -0.879,-3.084 -2.637,-3.084l-2.522,0c-1.911,0 -2.866,0.952 -2.866,2.856l-0,5.94c-0,1.904 0.955,2.856 2.866,2.856l2.293,0c1.91,0 2.866,-0.952 2.866,-2.856l-0,-5.712Z" style="fill:#fff;fill-rule:nonzero;"/></g></svg>