<?xml version="1.0" encoding="UTF-8" standalone="no"?><!DOCTYPE svg PUBLIC "-//W3C//DTD SVG 1.1//EN" "http://www.w3.org/Graphics/SVG/1.1/DTD/svg11.dtd"><svg width="100%" height="100%" viewBox="0 0 900 165" version="1.1" xmlns="http://www.w3.org/2000/svg" xmlns:xlink="http://www.w3.org/1999/xlink" xml:space="preserve" xmlns:serif="http://www.serif.com/" style="fill-rule:evenodd;clip-rule:evenodd;stroke-linejoin:round;stroke-miterlimit:2;"><path d="M819.532,82.461l80.468,-82.461l-819.516,-0l-80.484,82.461l80.484,82.475l819.516,-0l-80.468,-82.475Z" style="fill:#005f89;fill-rule:nonzero;"/><g><path d="M270.562,30.339c-0,-2.437 1.07,-3.656 3.21,-3.656l10.546,0c2.293,0 3.44,1.143 3.44,3.427l-0,4.798c-0,1.904 0.955,2.856 2.865,2.856l9.286,-0c2.293,-0 3.439,1.142 3.439,3.427l0,6.626c0,2.284 -1.146,3.427 -3.439,3.427l-9.286,-0c-1.91,-0 -2.865,0.951 -2.865,2.855l-0,65.799c-0,1.904 0.955,2.856 2.865,2.856l11.579,0c2.293,0 3.439,1.142 3.439,3.427l-0,6.626c-0,2.284 -1.146,3.427 -3.439,3.427l-47.575,-0c-2.292,-0 -3.439,-1.143 -3.439,-3.427l0,-6.626c0,-2.285 1.147,-3.427 3.439,-3.427l13.069,0c1.911,0 2.866,-0.952 2.866,-2.856l-0,-65.799c-0,-1.904 -0.955,-2.855 -2.866,-2.855l-10.317,-0c-2.293,-0 -3.439,-1.143 -3.439,-3.427l-0,-6.626c-0,-2.285 1.146,-3.427 3.439,-3.427l10.317,-0c1.911,-0 2.866,-0.952 2.866,-2.856l-0,-4.569Zm-71.19,1.256c0,-2.361 1.108,-3.541 3.325,-3.541l36.225,0c2.293,0 3.439,1.142 3.439,3.427l0,5.826c0,2.285 -1.146,3.427 -3.439,3.427l-36.111,0c-2.293,0 -3.439,-1.142 -3.439,-3.427l0,-5.712Zm-3.668,21.134c-0,-2.361 1.108,-3.542 3.324,-3.542l43.562,0c2.293,0 3.44,1.143 3.44,3.427l-0,6.626c-0,2.285 -1.147,3.427 -3.44,3.427l-9.744,-0c-1.91,-0 -2.866,0.952 -2.866,2.856l0,67.284c0,2.284 -1.146,3.427 -3.439,3.427l-10.317,-0c-2.293,-0 -3.439,-1.143 -3.439,-3.427l-0,-67.284c-0,-1.904 -0.956,-2.856 -2.866,-2.856l-10.776,-0c-2.293,-0 -3.439,-1.142 -3.439,-3.427l-0,-6.511Zm2.866,21.476c-0,-2.437 1.146,-3.656 3.439,-3.656c2.445,0 3.668,1.142 3.668,3.427l0,47.179c-1.146,3.96 -3.324,6.092 -6.534,6.397c-1.147,-0 -1.911,-1.142 -2.293,-3.427c-0.458,-2.209 -0.802,-4.455 -1.032,-6.74c-0.382,-2.285 -0.382,-3.465 0,-3.541c1.07,-0.152 1.987,-1.066 2.752,-2.742l-0,-36.897Zm38.518,-0c-0,-2.437 1.146,-3.656 3.439,-3.656c2.446,0 3.668,1.142 3.668,3.427l0,48.321c0,2.285 -1.184,3.427 -3.553,3.427c-2.37,0 -3.554,-1.142 -3.554,-3.427l-0,-48.092Z" style="fill:#fff;fill-rule:nonzero;"/><path d="M327.468,32.052c-0,-2.361 1.108,-3.541 3.324,-3.541l99.047,-0c2.293,-0 3.439,1.142 3.439,3.427l0,5.826c0,2.285 -1.146,3.427 -3.439,3.427l-82.195,-0c-1.911,-0 -2.866,0.952 -2.866,2.856l0,76.651c0,1.904 0.955,2.856 2.866,2.856l82.195,-0c2.293,-0 3.439,1.142 3.439,3.427l0,5.826c0,2.284 -1.146,3.427 -3.439,3.427l-98.932,-0c-2.293,-0 -3.439,-1.143 -3.439,-3.427l-0,-100.755Zm25.679,19.42c-0,-2.361 1.108,-3.541 3.324,-3.541l69.126,-0c2.293,-0 3.44,1.142 3.44,3.427l-0,15.536c-0.306,5.178 -3.21,8.11 -8.713,8.796l-63.738,-0c-2.293,-0 -3.439,-1.143 -3.439,-3.427l-0,-20.791Zm58.694,9.139c-0.076,-2.133 -1.032,-3.199 -2.866,-3.199l-35.767,0c-1.91,0 -2.866,0.952 -2.866,2.856l0,3.199c0,1.904 0.956,2.855 2.866,2.855l33.245,0c4.356,0.381 6.152,-1.523 5.388,-5.711Zm-60.529,25.817c0,-2.285 1.147,-3.427 3.44,-3.427l28.773,-0c2.293,-0 3.44,1.142 3.44,3.427l-0,21.59c-0.23,5.407 -3.172,8.415 -8.827,9.024l-23.386,0c-2.293,0 -3.44,-1.142 -3.44,-3.427l0,-27.187Zm43.563,-0c-0,-2.285 1.146,-3.427 3.439,-3.427l29.576,-0c2.293,-0 3.439,1.142 3.439,3.427l0,21.361c-0.305,5.179 -3.21,8.111 -8.712,8.796l-24.303,0c-2.293,0 -3.439,-1.142 -3.439,-3.427l-0,-26.73Zm-20.635,11.195c-0,-1.98 -0.917,-2.97 -2.751,-2.97l-4.701,-0c-1.91,-0 -2.866,0.951 -2.866,2.855l0,5.027c0,1.904 1.3,2.856 3.898,2.856c2.446,0.38 4.28,0.038 5.503,-1.029c0.917,-1.066 1.223,-3.312 0.917,-6.739Zm44.479,0.913c0,-2.589 -0.917,-3.883 -2.751,-3.883l-5.617,-0c-1.911,-0 -2.866,0.951 -2.866,2.855l-0,4.57c-0,1.904 0.955,2.856 2.866,2.856c1.987,0.076 3.974,-0 5.961,-0.229c2.293,-0.838 3.095,-2.894 2.407,-6.169Z" style="fill:#fff;fill-rule:nonzero;"/><path d="M471.727,30.453c0,-2.285 1.147,-3.427 3.439,-3.427l10.433,-0c2.292,-0 3.439,1.142 3.439,3.427l-0,9.367c-0,1.904 0.955,2.856 2.866,2.856l10.661,-0c2.293,-0 3.439,1.142 3.439,3.427l-0,1.942c-0,1.904 0.573,2.856 1.72,2.856c1.91,0.152 3.4,-0.914 4.47,-3.199l5.503,-17.363c0.688,-2.437 2.14,-3.656 4.356,-3.656l10.318,0c2.292,0 3.095,1.143 2.407,3.427l-1.834,5.94c-0.612,2.057 0.038,3.085 1.949,3.085l25.334,-0c2.293,-0 3.44,1.142 3.44,3.427l-0,6.625c-0,2.285 -0.421,3.427 -1.261,3.427c-0.841,0 -1.758,1.219 -2.752,3.656l-14.1,35.184c-0.917,2.361 -0.803,4.684 0.344,6.968l9.056,18.163c1.529,4.341 3.821,6.398 6.878,6.169c1.223,0 1.835,1.142 1.835,3.427l-0,6.626c-0,2.284 -1.147,3.427 -3.44,3.427c-6.114,1.066 -11.578,-1.028 -16.393,-6.283c-1.987,-3.503 -4.432,-8.225 -7.336,-14.165c-0.306,-0.152 -0.994,0.99 -2.064,3.427c-2.369,6.702 -4.433,11.271 -6.19,13.708c-3.21,2.894 -7.337,3.998 -12.381,3.313c-2.293,-0 -3.63,-1.143 -4.013,-3.427c-0.458,-1.904 -0.802,-3.808 -1.031,-5.712c-0.459,-2.894 -0.038,-4.341 1.261,-4.341c4.05,0.533 6.763,-1.98 8.139,-7.539c1.834,-5.255 3.783,-10.51 5.847,-15.765c0.687,-1.98 0.458,-4.036 -0.688,-6.168l-9.401,-19.192c-1.146,-2.36 -0.573,-3.541 1.72,-3.541l10.661,0c2.293,0 3.86,0.8 4.7,2.399c1.07,1.98 1.987,2.132 2.752,0.457c2.14,-5.864 4.394,-11.728 6.763,-17.592c0.841,-2.132 0.344,-3.199 -1.49,-3.199l-10.317,0c-1.911,0 -3.21,1.219 -3.898,3.656c-2.14,6.549 -7.031,9.291 -14.674,8.225c-2.292,-0 -3.668,-1.143 -4.127,-3.427c0,-0.61 -0.114,-1.219 -0.343,-1.828c-0.23,-1.98 -1.3,-2.97 -3.21,-2.97l-12.61,-0c-1.911,-0 -2.866,0.952 -2.866,2.856l-0,12.68c-0,1.904 0.955,2.856 2.866,2.856l10.202,-0c2.293,-0 3.439,1.142 3.439,3.427l0,49.235c-0.076,5.102 -3.018,8.072 -8.827,8.91l-37.142,-0c-2.293,-0 -3.439,-1.143 -3.439,-3.427l-0,-54.718c-0,-2.285 1.146,-3.427 3.439,-3.427l9.285,-0c1.911,-0 2.866,-0.952 2.866,-2.856l0,-12.68c0,-1.904 -0.955,-2.856 -2.866,-2.856l-11.693,-0c-2.292,-0 -3.439,-1.142 -3.439,-3.427l0,-6.74c0,-2.285 1.147,-3.427 3.439,-3.427l11.693,-0c1.911,-0 2.866,-0.952 2.866,-2.856l0,-9.367Zm16.508,60.773c0,-1.981 -0.917,-2.971 -2.751,-2.971l-9.286,0c-1.91,0 -2.866,0.952 -2.866,2.856l0,28.787c0,1.904 0.956,2.856 2.866,2.856c3.363,0.076 6.726,0 10.088,-0.228c1.682,-1.067 2.331,-2.856 1.949,-5.369l0,-25.931Z" style="fill:#fff;fill-rule:nonzero;"/><path d="M629.056,28.511c-0,-1.599 1.07,-2.399 3.209,-2.399l11.12,0c2.293,0 3.439,0.762 3.439,2.285c0,1.599 0.956,2.399 2.866,2.399l39.206,-0c2.293,-0 3.439,1.142 3.439,3.427l0,3.084c0,2.285 -1.146,3.427 -3.439,3.427l-39.206,0c-1.91,0 -2.866,1.218 -2.866,3.655c0,2.514 0.956,3.77 2.866,3.77l37.372,0c2.293,0 3.439,1.143 3.439,3.427l0,12.794c-0.153,5.179 -3.057,8.111 -8.712,8.797l-32.099,-0c-1.91,-0 -2.866,1.256 -2.866,3.769c0,2.513 0.956,3.77 2.866,3.77l36.914,-0c2.292,-0 3.439,1.142 3.439,3.427l-0,9.367c-0,1.904 0.458,2.856 1.375,2.856c0.917,0 1.376,1.142 1.376,3.427l0,2.627c0,2.285 -0.42,3.427 -1.261,3.427c-0.994,0 -1.49,0.952 -1.49,2.856c0.917,5.712 -0.917,9.786 -5.503,12.223l-3.21,0.686l-31.64,-0c-1.91,-0 -2.866,0.952 -2.866,2.856c0.688,7.844 -2.713,11.766 -10.202,11.766l-30.379,-0c-2.293,-0 -3.592,-1.028 -3.898,-3.085c-0.382,-2.056 0.573,-3.084 2.866,-3.084l20.52,0c2.751,-0.685 3.86,-2.551 3.325,-5.597c-0,-1.904 -0.956,-2.856 -2.866,-2.856l-38.06,-0c-2.293,-0 -3.439,-1.143 -3.439,-3.427l-0,-1.257c-0,-2.284 1.146,-3.427 3.439,-3.427l38.06,0c1.91,0 2.866,-1.256 2.866,-3.77c-0,-2.589 -0.956,-3.884 -2.866,-3.884l-40.353,0c-2.292,0 -3.439,-1.142 -3.439,-3.427l0,-2.627c0,-2.285 1.147,-3.427 3.439,-3.427l40.353,0c1.91,0 2.866,-1.257 2.866,-3.77c-0,-2.589 -0.956,-3.884 -2.866,-3.884l-38.06,0c-2.293,0 -3.439,-1.142 -3.439,-3.427l-0,-1.142c-0,-2.285 1.146,-3.427 3.439,-3.427l38.06,-0c1.91,-0 2.866,-1.257 2.866,-3.77c-0,-2.513 -0.956,-3.769 -2.866,-3.769l-37.945,-0c-2.293,-0 -3.439,-1.143 -3.439,-3.428l-0,-18.163c-0,-2.284 1.146,-3.427 3.439,-3.427l37.945,0c1.91,0 2.866,-1.218 2.866,-3.655c-0,-2.513 -0.956,-3.77 -2.866,-3.77l-39.894,0c-2.293,0 -3.439,-1.142 -3.439,-3.427l-0,-3.084c-0,-2.285 1.146,-3.427 3.439,-3.427l39.894,-0c1.91,-0 2.866,-0.762 2.866,-2.285Zm-0,30.729c-0,-1.98 -0.917,-2.97 -2.752,-2.97l-21.437,-0c-1.911,-0 -2.866,0.952 -2.866,2.856l0,3.084c0,1.904 0.955,2.856 2.866,2.856l21.323,-0c1.91,-0 2.866,-0.952 2.866,-2.856l-0,-2.97Zm44.25,0.228c-0,-2.132 -0.917,-3.198 -2.752,-3.198l-20.864,-0c-1.91,-0 -2.866,0.952 -2.866,2.856l0,3.084c0,1.904 0.956,2.856 2.866,2.856l18.342,-0c4.204,0.381 5.961,-1.485 5.274,-5.598Zm-0.459,33.243c0,-2.666 -0.879,-3.999 -2.637,-3.999l-20.52,0c-1.91,0 -2.866,1.257 -2.866,3.77c0,2.589 0.956,3.884 2.866,3.884l20.291,0c1.911,0 2.866,-1.218 2.866,-3.655Zm0,15.764c-0.076,-1.752 -0.993,-2.628 -2.751,-2.628l-20.406,0c-1.91,0 -2.866,1.257 -2.866,3.77c0,2.59 0.956,3.884 2.866,3.884l17.54,0c3.974,0.762 5.846,-0.914 5.617,-5.026Z" style="fill:#fff;fill-rule:nonzero;"/></g></svg>