<?xml version="1.0" encoding="UTF-8" standalone="no"?><!DOCTYPE svg PUBLIC "-//W3C//DTD SVG 1.1//EN" "http://www.w3.org/Graphics/SVG/1.1/DTD/svg11.dtd"><svg width="100%" height="100%" viewBox="0 0 900 165" version="1.1" xmlns="http://www.w3.org/2000/svg" xmlns:xlink="http://www.w3.org/1999/xlink" xml:space="preserve" xmlns:serif="http://www.serif.com/" style="fill-rule:evenodd;clip-rule:evenodd;stroke-linejoin:round;stroke-miterlimit:2;"><path d="M819.532,82.461l80.468,-82.461l-819.517,-0l-80.483,82.461l80.483,82.475l819.517,0l-80.468,-82.475Z" style="fill:#005f89;fill-rule:nonzero;"/><g><path d="M194.785,29.041c-0,-2.391 1.122,-3.586 3.366,-3.586l10.099,-0c2.322,-0 3.483,1.157 3.483,3.47l-0,2.545c-0,1.928 0.967,2.892 2.902,2.892l23.216,-0c2.322,-0 3.483,1.157 3.483,3.47l-0,89.994c-0.078,5.167 -3.057,8.174 -8.939,9.023l-9.17,-0c-2.322,-0 -3.676,-1.157 -4.063,-3.471l-0.929,-5.783c-0.464,-2.931 -0.077,-4.396 1.161,-4.396c3.482,0.077 4.953,-1.812 4.411,-5.668l0,-66.628c0,-1.928 -0.967,-2.892 -2.902,-2.892l-6.268,0c-1.935,0 -2.902,0.964 -2.902,2.892l-0,76.229c-0.697,3.933 -2.632,6.786 -5.804,8.56c-2.245,1.157 -6.346,1.542 -12.305,1.157c-2.322,-0 -3.676,-1.157 -4.063,-3.471l-0.929,-5.783c-0.541,-2.931 -0.348,-4.396 0.581,-4.396c4.179,-0.154 6.036,-2.275 5.572,-6.362l-0,-65.934c-0,-1.928 -1.006,-2.892 -3.018,-2.892c-1.935,0 -2.903,-1.156 -2.903,-3.47l0,-6.709c0,-2.313 0.968,-3.47 2.903,-3.47c2.012,-0 3.018,-0.964 3.018,-2.892l-0,-2.429Zm55.487,3.47c-0,-2.468 1.083,-3.701 3.25,-3.701l39.932,-0c2.322,-0 3.483,1.156 3.483,3.47l-0,95.777c-0.31,5.244 -3.251,8.175 -8.822,8.792l-34.361,-0c-2.321,-0 -3.482,-1.157 -3.482,-3.471l-0,-100.867Zm29.252,13.071c0,-2.082 -0.889,-3.123 -2.669,-3.123l-6.269,0c-1.935,0 -2.902,0.964 -2.902,2.892l0,74.956c0,1.928 0.967,2.892 2.902,2.892c2.322,0.077 4.643,0 6.965,-0.231c1.703,-1.08 2.36,-2.892 1.973,-5.437l0,-71.949Z" style="fill:#fff;fill-rule:nonzero;"/><path d="M339.237,32.511c-0,-2.468 1.083,-3.701 3.25,-3.701l43.183,-0c5.494,0.077 9.325,3.123 11.492,9.138l26.699,80.971c0.773,2.931 2.669,4.357 5.688,4.28c1.006,0 1.509,1.157 1.509,3.47l-0,6.709c-0,2.314 -1.161,3.471 -3.483,3.471c-6.578,0.617 -11.879,-0.733 -15.903,-4.049c-1.703,-1.851 -3.057,-4.588 -4.063,-8.213l-23.913,-74.031c-0.155,-1.388 -0.774,-2.93 -1.857,-4.627c-1.703,-1.928 -3.018,-1.966 -3.947,-0.115l-36.798,82.475c-1.006,3.701 -3.405,6.208 -7.197,7.519c-2.786,1.079 -5.727,1.426 -8.822,1.041c-2.322,-0 -3.715,-1.157 -4.179,-3.471l-0.929,-5.783c-0.541,-2.931 0.349,-4.434 2.67,-4.511c2.631,-0.463 4.334,-2.006 5.108,-4.627l31.806,-72.99c0.851,-2.005 0.271,-3.008 -1.741,-3.008l-15.091,0c-2.321,0 -3.482,-1.157 -3.482,-3.47l-0,-6.478Z" style="fill:#fff;fill-rule:nonzero;"/><path d="M452.579,30.892c0,-2.391 1.122,-3.586 3.367,-3.586l98.785,-0c2.322,-0 3.483,1.156 3.483,3.47l-0,97.166c-0.31,5.244 -3.251,8.213 -8.823,8.907l-93.329,-0c-2.322,-0 -3.483,-1.157 -3.483,-3.471l0,-102.486Zm44.46,11.567c-0.078,-2.159 -1.045,-3.239 -2.903,-3.239l-21.707,0c-1.935,0 -2.902,0.964 -2.902,2.892l0,80.046c0,1.928 0.967,2.892 2.902,2.892l63.497,-0c4.256,0.386 6.036,-1.504 5.34,-5.668l-0,-77.27c-0,-1.928 -0.968,-2.892 -2.902,-2.892l-21.127,0c-1.935,0 -2.902,1.041 -2.902,3.123c-0,2.082 0.967,3.124 2.902,3.124l15.439,-0c2.321,-0 3.482,1.041 3.482,3.123c0,2.082 -1.161,3.123 -3.482,3.123l-15.439,-0c-1.935,-0 -2.902,1.041 -2.902,3.123c-0,2.082 0.967,3.123 2.902,3.123l14.626,0c2.322,0 3.483,1.157 3.483,3.47l-0,13.303c-0.387,4.087 -2.283,6.786 -5.688,8.097c-2.013,0.848 -6.153,1.118 -12.421,0.81c-1.935,-0 -2.902,0.925 -2.902,2.776c-0,1.928 1.083,2.892 3.25,2.892c2.167,0.385 3.869,-0 5.108,-1.157c0.696,-0.848 1.896,-1.272 3.598,-1.272l6.385,-0c2.321,-0 3.482,0.385 3.482,1.156c0.232,2.083 -0.619,3.895 -2.554,5.437c-0.696,0.54 -1.044,1.812 -1.044,3.817c-0,2.16 0.619,3.239 1.857,3.239c1.161,0 1.741,1.041 1.741,3.123c0,2.082 -0.58,3.124 -1.741,3.124c-1.238,-0 -1.857,1.118 -1.857,3.354c0.619,6.709 -2.632,10.064 -9.751,10.064l-9.171,-0c-2.321,-0 -3.598,-0.733 -3.83,-2.198c-0.233,-1.465 0.077,-2.198 0.928,-2.198c3.715,-0.154 5.146,-2.121 4.295,-5.899c0,-2.082 -0.967,-3.123 -2.902,-3.123l-34.592,-0c-2.322,-0 -3.483,-1.042 -3.483,-3.124c0,-2.082 1.161,-3.123 3.483,-3.123l34.592,0c1.935,0 2.902,-0.964 2.902,-2.892c0,-1.928 -0.967,-2.892 -2.902,-2.892l-33.78,0c-2.321,0 -3.637,-0.809 -3.946,-2.429c-0.31,-2.005 0.541,-3.007 2.553,-3.007l17.064,-0c1.935,-0 2.902,-0.926 2.902,-2.776c0,-1.928 -0.967,-2.892 -2.902,-2.892l-14.974,-0c-2.322,-0 -3.483,-1.157 -3.483,-3.47l0,-18.74c0,-2.313 1.161,-3.47 3.483,-3.47l14.974,0c1.935,0 2.902,-1.041 2.902,-3.123c0,-2.082 -0.967,-3.123 -2.902,-3.123l-16.019,-0c-2.322,-0 -3.482,-1.041 -3.482,-3.123c-0,-2.082 1.16,-3.123 3.482,-3.123l16.019,-0c1.935,-0 2.941,-1.003 3.019,-3.008Zm-0,23.135c-0.078,-2.16 -1.045,-3.239 -2.903,-3.239l-4.643,-0c-1.935,-0 -2.902,1.041 -2.902,3.123c0,2.082 0.967,3.123 2.902,3.123l4.527,0c1.935,0 2.941,-1.002 3.019,-3.007Zm27.395,-0c-0.078,-2.16 -1.045,-3.239 -2.902,-3.239l-4.295,-0c-1.935,-0 -2.902,1.041 -2.902,3.123c-0,2.082 0.967,3.123 2.902,3.123l4.179,0c1.934,0 2.94,-1.002 3.018,-3.007Zm-27.512,10.526c0,-2.082 -0.928,-3.123 -2.786,-3.123l-4.643,-0c-1.935,-0 -2.902,1.002 -2.902,3.007c0,2.082 0.967,3.124 2.902,3.124l4.527,-0c1.935,-0 2.902,-1.003 2.902,-3.008Zm27.396,-1.388c-0,-1.157 -0.968,-1.735 -2.902,-1.735l-4.179,-0c-1.935,-0 -2.902,1.002 -2.902,3.007c-0,2.082 1.238,3.124 3.714,3.124c2.322,0.308 4.063,-0 5.224,-0.926c0.929,-1.002 1.277,-2.159 1.045,-3.47Zm-46.665,39.792c-1.084,-1.388 -0.464,-2.082 1.857,-2.082l11.26,-0c2.322,-0 3.792,0.385 4.411,1.156c1.625,1.465 3.599,2.044 5.92,1.735c1.703,0 2.554,0.579 2.554,1.735c0,1.157 -1.161,1.736 -3.482,1.736l-13.93,-0c-3.328,-0.078 -6.191,-1.504 -8.59,-4.28Z" style="fill:#fff;fill-rule:nonzero;"/><path d="M631.856,31.007c1.161,-3.084 2.786,-4.627 4.875,-4.627l8.707,0c2.321,0 3.134,1.157 2.437,3.471c-1.857,5.706 -3.598,11.413 -5.223,17.119c-1.006,2.005 -0.503,3.008 1.509,3.008l29.136,-0c1.857,-0 2.399,-1.041 1.625,-3.123l-1.741,-4.859c-0.851,-1.85 -2.205,-2.776 -4.063,-2.776l-10.215,0c-2.322,0 -3.482,-1.157 -3.482,-3.47l-0,-5.784c-0,-2.313 1.16,-3.47 3.482,-3.47l19.85,0c2.322,0 3.986,1.157 4.992,3.47c1.006,2.699 2.128,5.398 3.366,8.097c0.542,0.772 1.432,1.543 2.67,2.314c1.47,0.385 2.205,1.581 2.205,3.586l0,6.13c0,2.314 -0.812,3.471 -2.437,3.471c-1.78,-0 -2.67,0.964 -2.67,2.892l-0,2.891c-0,2.314 -1.161,3.471 -3.483,3.471l-30.181,-0c-1.857,-0 -3.212,1.311 -4.063,3.932c-1.006,2.777 -0.58,4.165 1.277,4.165l15.787,-0c2.322,-0 3.483,1.156 3.483,3.47l-0,53.557c-0.31,4.087 -2.129,6.786 -5.456,8.097c-2.012,0.848 -5.572,1.118 -10.68,0.81c-2.321,-0 -3.714,-1.157 -4.179,-3.471l-0.928,-5.783c-0.387,-2.314 -0.349,-3.47 0.116,-3.47c3.25,-0.694 4.488,-2.584 3.714,-5.668l0,-32.852c0,-1.928 -0.967,-2.892 -2.902,-2.892l-2.786,0c-1.857,0 -3.095,0.386 -3.714,1.157c-2.399,2.699 -6.191,3.856 -11.376,3.47c-2.322,0 -3.754,-1.156 -4.295,-3.47c-0.31,-0.848 -0.503,-1.735 -0.581,-2.66c-0.541,-2.622 -0.425,-3.933 0.348,-3.933c2.786,0.308 4.682,-0.887 5.688,-3.586l2.09,-6.941c0.851,-2.621 0.077,-3.932 -2.322,-3.932c-2.321,-0 -3.482,-1.157 -3.482,-3.471l-0,-2.429c-0,-1.928 -0.464,-2.892 -1.393,-2.892c-0.929,0 -1.625,-1.156 -2.09,-3.47l-0.232,-1.157c-0.464,-2.159 -0.812,-3.431 -1.044,-3.817c-0.697,-1.002 -1.277,-1.157 -1.742,-0.463c-0.154,0.617 -0.232,1.851 -0.232,3.702l0,17.12c-0.077,3.624 -1.818,6.516 -5.224,8.675c-2.399,0.926 -3.753,1.581 -4.062,1.967c-0,0.462 1.276,1.156 3.83,2.082c3.328,1.542 5.147,4.357 5.456,8.444l0,30.538c-0.077,5.167 -3.057,8.174 -8.938,9.022l-11.376,0c-1.935,0 -2.902,0.964 -2.902,2.892l-0,3.817c-0,2.314 -1.161,3.471 -3.483,3.471l-9.17,-0c-2.322,-0 -3.483,-1.157 -3.483,-3.471l0,-102.949c0,-2.314 1.161,-3.47 3.483,-3.47l26.815,-0c6.81,1.002 9.789,4.819 8.938,11.451c0,1.928 1.2,2.854 3.599,2.777c1.47,-0 2.786,-1.08 3.946,-3.239c0.619,-2.314 1.355,-4.627 2.206,-6.941Zm-25.77,15.038c0.851,-3.393 -0.735,-5.205 -4.76,-5.437c-1.547,0 -2.321,0.964 -2.321,2.892l-0,23.482c-0,1.928 0.774,2.892 2.321,2.892c3.87,0.154 5.456,-1.697 4.76,-5.553l-0,-18.276Zm73.364,28.803c0.386,-2.391 1.702,-3.586 3.946,-3.586l4.876,-0c2.321,-0 3.327,1.156 3.018,3.47c-0.542,2.699 -0.967,5.398 -1.277,8.097c-0.31,3.393 -0.774,5.707 -1.393,6.941c-2.012,3.007 -4.798,4.626 -8.358,4.858c-2.322,0.077 -3.753,-1.041 -4.295,-3.355l-0.813,-3.47c-0.541,-2.545 -0.464,-3.894 0.233,-4.049c1.934,-0.462 2.979,-1.542 3.134,-3.238c0.155,-1.851 0.464,-3.74 0.929,-5.668Zm-73.364,14.227c0.851,-3.547 -0.774,-5.359 -4.876,-5.436c-1.47,-0 -2.205,0.964 -2.205,2.892l-0,23.597c-0,1.928 0.774,2.892 2.321,2.892c3.87,0.231 5.456,-1.658 4.76,-5.668l-0,-18.277Zm25.538,4.974c0.619,-1.927 2.012,-2.891 4.179,-2.891l7.777,-0c2.322,-0 3.096,1.156 2.322,3.47l-2.438,8.097c-1.857,5.167 -5.997,7.442 -12.421,6.825c-2.321,-0 -3.753,-1.157 -4.295,-3.471c-0.387,-1.156 -0.657,-2.313 -0.812,-3.47c-0.542,-2.545 -0.271,-3.856 0.812,-3.933c2.09,0.155 3.715,-1.388 4.876,-4.627Zm43.182,12.956c-0.077,-2.545 0.929,-3.817 3.018,-3.817l6.037,-0c2.321,-0 3.559,1.156 3.714,3.47c0.155,4.241 0.426,8.483 0.813,12.724c0.232,1.157 1.122,2.044 2.67,2.66c0.619,0.155 0.928,1.389 0.928,3.702l0,5.784c0,2.313 -1.16,3.47 -3.482,3.47c-5.185,0.385 -8.977,-1.542 -11.376,-5.784c-0.929,-1.542 -1.393,-3.856 -1.393,-6.94l-0.929,-15.269Zm-44.575,12.261c0.696,-2.39 2.167,-3.586 4.411,-3.586l7.545,0c2.322,0 3.134,1.157 2.438,3.471l-2.322,8.097c-1.315,7.017 -5.533,10.218 -12.653,9.601c-2.321,-0 -3.753,-1.157 -4.295,-3.471l-0.812,-3.47c-0.542,-2.545 -0.194,-3.933 1.044,-4.164c1.548,0.077 2.825,-1.041 3.831,-3.355c0.155,-1.002 0.426,-2.043 0.813,-3.123Z" style="fill:#fff;fill-rule:nonzero;"/></g></svg>