<?xml version="1.0" encoding="UTF-8" standalone="no"?><!DOCTYPE svg PUBLIC "-//W3C//DTD SVG 1.1//EN" "http://www.w3.org/Graphics/SVG/1.1/DTD/svg11.dtd"><svg width="100%" height="100%" viewBox="0 0 900 165" version="1.1" xmlns="http://www.w3.org/2000/svg" xmlns:xlink="http://www.w3.org/1999/xlink" xml:space="preserve" xmlns:serif="http://www.serif.com/" style="fill-rule:evenodd;clip-rule:evenodd;stroke-linejoin:round;stroke-miterlimit:2;"><path d="M819.532,82.461l80.468,-82.461l-819.516,0l-80.484,82.461l80.484,82.475l819.516,-0l-80.468,-82.475Z" style="fill:#005f89;fill-rule:nonzero;"/><g><path d="M286.726,28.624c0.23,-1.294 1.376,-1.942 3.439,-1.942l9.63,0c2.293,0 3.439,1.143 3.439,3.427c0.229,4.189 0.038,7.045 -0.573,8.568c-1.834,4.112 -4.395,6.397 -7.681,6.854c-3.974,0.228 -7.948,0.304 -11.922,0.228c-1.911,0 -2.866,0.952 -2.866,2.856l-0,5.826c-0,1.904 0.955,2.856 2.866,2.856l19.374,-0c2.292,-0 3.439,1.142 3.439,3.427l-0,6.74c-0,2.284 -1.147,3.427 -3.439,3.427l-19.374,-0c-1.911,-0 -2.866,0.952 -2.866,2.856l-0,7.653c-0,1.904 0.955,2.856 2.866,2.856l17.081,0c2.293,0 3.439,1.143 3.439,3.427l0,39.868c-0.306,5.179 -3.21,8.073 -8.712,8.682l-52.275,-0c-2.293,-0 -3.439,-1.143 -3.439,-3.427l-0,-45.123c-0,-2.284 1.146,-3.427 3.439,-3.427l17.539,0c1.911,0 2.866,-0.952 2.866,-2.856l0,-7.653c0,-1.904 -0.955,-2.856 -2.866,-2.856l-18.571,-0c-2.293,-0 -3.439,-1.143 -3.439,-3.427l0,-6.74c0,-2.285 1.146,-3.427 3.439,-3.427l18.571,-0c1.911,-0 2.866,-0.952 2.866,-2.856l0,-5.826c0,-1.904 -0.955,-2.856 -2.866,-2.856l-16.851,0c-2.293,0 -3.63,-1.142 -4.013,-3.427l-0.917,-5.711c-0.458,-2.894 0.459,-4.341 2.752,-4.341l41.957,-0c1.528,-0 2.751,-1.219 3.668,-3.656Zm-88.614,3.199c-0.765,-2.513 -0.153,-3.77 1.834,-3.77l10.661,0c2.293,0 3.898,1.142 4.815,3.427l1.375,3.427c0.765,3.808 2.446,6.131 5.045,6.968l5.502,0c2.293,0 3.439,1.143 3.439,3.427l0,6.626c0,2.285 -1.146,3.427 -3.439,3.427l-15.82,-0c-3.286,-0.152 -5.923,-2.247 -7.91,-6.283l-5.502,-17.249Zm1.146,36.44c-0.917,-3.046 -0.344,-4.569 1.72,-4.569l10.546,0c2.293,0 3.898,1.142 4.815,3.427c1.376,5.712 3.974,8.225 7.795,7.54l3.21,-0c2.293,-0 3.439,1.142 3.439,3.427l0,6.739c0,2.285 -1.146,3.427 -3.439,3.427l-15.82,0c-3.286,-0.152 -5.923,-2.246 -7.91,-6.282l-4.356,-13.709Zm10.891,32.9c0.611,-2.437 1.987,-3.656 4.126,-3.656l11.235,0c2.293,0 3.172,1.143 2.637,3.427l-7.796,29.473c-1.834,3.579 -4.585,5.521 -8.254,5.826l-10.432,-0c-2.292,-0 -3.63,-1.143 -4.012,-3.427c-0.459,-1.904 -0.802,-3.808 -1.032,-5.712c-0.458,-2.894 0.306,-4.341 2.293,-4.341c4.127,0.914 6.611,-1.028 7.451,-5.826c1.147,-5.255 2.408,-10.509 3.784,-15.764Zm76.233,-0.229c0,-2.056 -0.878,-3.084 -2.636,-3.084l-24.533,0c-1.91,0 -2.866,0.952 -2.866,2.856l0,19.191c0,1.904 0.956,2.856 2.866,2.856l21.896,0c4.203,0.381 5.961,-1.485 5.273,-5.597l0,-16.222Z" style="fill:#fff;fill-rule:nonzero;"/><path d="M363.464,27.025c0.153,-0.609 1.3,-0.914 3.44,-0.914l8.712,0c2.293,0 3.439,1.142 3.439,3.427c0.612,5.559 -1.987,9.291 -7.795,11.195l-5.847,0c-1.91,0 -2.866,1.028 -2.866,3.084c0,2.057 0.956,3.085 2.866,3.085l12.954,-0c2.293,-0 3.439,1.142 3.439,3.427l0,3.884c0,2.284 -1.146,3.427 -3.439,3.427l-12.954,-0c-1.91,-0 -2.866,0.952 -2.866,2.856c0,1.903 0.956,2.855 2.866,2.855l12.381,0c2.293,0 3.439,1.143 3.439,3.427l0,27.188c-0.153,3.123 -1.528,5.674 -4.127,7.654c-3.133,1.294 -7.031,1.713 -11.693,1.256c-1.91,0 -2.866,1.105 -2.866,3.313c0,2.209 0.956,3.313 2.866,3.313l11.12,-0c2.293,-0 3.439,1.142 3.439,3.427l0,2.056c0,2.285 -1.146,3.427 -3.439,3.427l-11.12,0c-1.91,0 -2.866,1.066 -2.866,3.199c0,2.132 0.956,3.198 2.866,3.198l12.496,0c2.293,0 3.439,1.143 3.439,3.427l-0,4.341c-0,2.285 -1.146,3.427 -3.439,3.427l-49.409,0c-2.293,0 -3.439,-1.142 -3.439,-3.427l-0,-4.341c-0,-2.284 1.146,-3.427 3.439,-3.427l13.986,0c1.91,0 2.866,-1.066 2.866,-3.198c-0,-2.133 -0.956,-3.199 -2.866,-3.199l-12.152,0c-2.293,0 -3.439,-1.142 -3.439,-3.427l0,-2.056c0,-2.285 1.146,-3.427 3.439,-3.427l12.152,-0c1.91,-0 2.866,-1.104 2.866,-3.313c-0,-2.208 -0.956,-3.313 -2.866,-3.313l-12.266,0c-2.293,0 -3.44,-1.142 -3.44,-3.427l0,-32.671c0,-2.284 1.147,-3.427 3.44,-3.427l12.266,0c1.91,0 2.866,-0.952 2.866,-2.855c-0,-1.904 -0.956,-2.856 -2.866,-2.856l-13.986,-0c-2.293,-0 -3.439,-1.143 -3.439,-3.427l-0,-3.884c-0,-2.285 1.146,-3.427 3.439,-3.427l13.986,-0c1.91,-0 2.866,-1.028 2.866,-3.085c-0,-2.056 -0.956,-3.084 -2.866,-3.084l-11.235,0c-2.292,0 -3.63,-1.142 -4.012,-3.427l-0.459,-3.427c-0.458,-2.589 0.459,-3.884 2.752,-3.884l27.971,-0c2.599,0.685 4.586,-0.305 5.961,-2.97Zm26.826,2.742c-0,-2.361 1.108,-3.542 3.324,-3.542l9.63,0c2.292,0 3.439,1.143 3.439,3.427l-0,2.513c-0,1.904 0.955,2.856 2.866,2.856l19.373,0c2.293,0 3.44,1.143 3.44,3.427l-0,88.874c-0.077,5.103 -3.019,8.073 -8.828,8.911l-5.846,-0c-2.293,-0 -3.63,-1.143 -4.012,-3.427l-0.917,-5.712c-0.535,-2.894 -0.459,-4.379 0.229,-4.455c2.522,-0.457 3.515,-2.247 2.98,-5.369l0,-65.913c0,-1.904 -0.955,-2.856 -2.866,-2.856l-3.553,-0c-1.911,-0 -2.866,0.952 -2.866,2.856l-0,75.509c-0.23,3.122 -2.255,5.94 -6.076,8.453c-1.911,0.914 -4.891,1.218 -8.942,0.914c-2.292,-0 -3.63,-1.143 -4.012,-3.427l-0.917,-5.712c-0.535,-2.894 -0.382,-4.417 0.458,-4.569c2.37,-0.762 3.401,-2.742 3.096,-5.941l-0,-65.227c-0,-1.904 -0.726,-2.856 -2.179,-2.856c-1.375,-0 -2.063,-1.142 -2.063,-3.427l0,-6.626c0,-2.284 0.688,-3.427 2.063,-3.427c1.453,0 2.179,-0.952 2.179,-2.856l-0,-2.398Zm-44.938,46.15c-0,-2.437 -0.917,-3.655 -2.752,-3.655l-2.522,-0c-1.91,-0 -2.866,1.18 -2.866,3.541c0,2.437 0.956,3.655 2.866,3.655l2.408,0c1.91,0 2.866,-1.18 2.866,-3.541Zm25.449,0c0,-2.437 -0.917,-3.655 -2.751,-3.655l-2.637,-0c-1.91,-0 -2.866,1.18 -2.866,3.541c0,2.437 0.956,3.655 2.866,3.655l2.522,0c1.911,0 2.866,-1.18 2.866,-3.541Zm-25.449,14.622c-0.077,-2.285 -1.032,-3.427 -2.866,-3.427l-2.408,0c-1.91,0 -2.866,1.104 -2.866,3.313c0,2.285 0.956,3.427 2.866,3.427l2.408,-0c1.91,-0 2.866,-1.104 2.866,-3.313Zm25.449,-1.371c0.306,-2.056 -1.49,-2.741 -5.388,-2.056c-1.91,0 -2.866,1.104 -2.866,3.313c0,2.285 0.956,3.427 2.866,3.427l3.325,-0.114c1.605,-1.067 2.293,-2.59 2.063,-4.57Z" style="fill:#fff;fill-rule:nonzero;"/><path d="M473.333,29.767c-0,-2.437 1.07,-3.656 3.21,-3.656l10.088,0c2.292,0 3.439,1.142 3.439,3.427l-0,17.592c-0,1.904 0.611,2.856 1.834,2.856c1.146,-0 1.72,1.142 1.72,3.427l-0,6.74c-0,2.284 -0.574,3.427 -1.72,3.427c-1.223,-0 -1.834,0.952 -1.834,2.856l-0,66.37c-0,2.284 -1.147,3.427 -3.439,3.427l-9.859,-0c-2.293,-0 -3.439,-1.143 -3.439,-3.427l-0,-103.039Zm48.835,-1.828c0,-1.219 1.07,-1.828 3.21,-1.828l10.547,0c2.293,0 3.439,0.533 3.439,1.599c-0,1.219 0.955,1.828 2.866,1.828l16.278,0c2.293,0 3.44,1.142 3.44,3.427l-0,2.97c-0,2.285 -1.147,3.427 -3.44,3.427l-16.278,0c-1.911,0 -2.866,1.181 -2.866,3.541c-0,2.361 0.955,3.542 2.866,3.542l14.788,-0c2.293,-0 3.439,1.142 3.439,3.427l0,1.142c0,2.285 -1.146,3.427 -3.439,3.427l-14.788,0c-1.911,0 -2.866,1.028 -2.866,3.084c-0,2.057 0.955,3.085 2.866,3.085l17.539,-0c2.293,-0 3.44,1.142 3.44,3.427l-0,3.884c-0,2.284 -1.147,3.427 -3.44,3.427l-58.579,-0c-2.293,-0 -3.439,-1.143 -3.439,-3.427l-0,-3.884c-0,-2.285 1.146,-3.427 3.439,-3.427l18.112,-0c1.911,-0 2.866,-1.028 2.866,-3.085c0,-2.056 -0.955,-3.084 -2.866,-3.084l-14.444,0c-2.293,0 -3.439,-1.142 -3.439,-3.427l-0,-1.142c-0,-2.285 1.146,-3.427 3.439,-3.427l14.444,-0c1.911,-0 2.866,-1.181 2.866,-3.542c0,-2.36 -0.955,-3.541 -2.866,-3.541l-15.82,0c-2.292,0 -3.439,-1.142 -3.439,-3.427l0,-2.97c0,-2.285 1.147,-3.427 3.439,-3.427l15.82,0c1.911,0 2.866,-0.533 2.866,-1.599Zm-66.489,7.653c-0,-2.284 1.146,-3.427 3.439,-3.427l2.98,0c2.293,0 3.439,1.143 3.439,3.427l0,92.187c0,2.285 -1.146,3.427 -3.439,3.427l-2.98,0c-2.293,0 -3.439,-1.142 -3.439,-3.427l-0,-92.187Zm44.25,46.265c-0,-2.284 1.146,-3.427 3.439,-3.427l54.338,0c2.293,0 3.439,1.143 3.439,3.427l0,45.694c-0.306,5.179 -3.21,8.073 -8.712,8.682l-16.623,-0c-2.293,-0 -3.706,-1.143 -4.241,-3.427l-0.688,-3.427c-0.459,-2.59 0.458,-3.884 2.751,-3.884c2.828,0.076 5.77,-0 8.827,-0.229c1.987,-1.599 2.637,-3.617 1.949,-6.054c-0,-2.361 -0.955,-3.541 -2.866,-3.541l-22.01,-0c-1.911,-0 -2.866,0.952 -2.866,2.855l-0,14.28c-0,2.284 -1.147,3.427 -3.439,3.427l-9.859,-0c-2.293,-0 -3.439,-1.143 -3.439,-3.427l-0,-50.949Zm25.449,12.223c0,-2.056 -0.879,-3.084 -2.636,-3.084l-3.21,0c-1.911,0 -2.866,0.952 -2.866,2.856l-0,7.197c-0,1.904 0.955,2.855 2.866,2.855l2.98,0c1.911,0 2.866,-0.951 2.866,-2.855l0,-6.969Zm19.03,0c-0,-2.056 -0.879,-3.084 -2.637,-3.084l-3.553,0c-1.911,0 -2.866,0.952 -2.866,2.856l-0,7.197c-0,1.904 0.955,2.855 2.866,2.855l3.324,0c1.911,0 2.866,-0.951 2.866,-2.855l-0,-6.969Z" style="fill:#fff;fill-rule:nonzero;"/><path d="M598.104,29.538c0,-2.208 1.108,-3.313 3.324,-3.313l10.547,0c2.293,0 3.439,1.066 3.439,3.199c0,2.208 0.956,3.313 2.866,3.313l6.993,-0c2.293,-0 3.439,1.142 3.439,3.427l0,5.711c0,2.285 -1.146,3.427 -3.439,3.427l-6.993,0c-1.91,0 -2.866,0.952 -2.866,2.856l0,2.285c0,1.904 0.956,2.856 2.866,2.856l8.369,-0c2.292,-0 3.439,1.142 3.439,3.427l-0,4.798c-0,2.284 -1.147,3.427 -3.439,3.427l-40.353,-0c-2.292,-0 -3.439,-1.143 -3.439,-3.427l0,-4.798c0,-2.285 1.147,-3.427 3.439,-3.427l8.942,-0c1.911,-0 2.866,-0.952 2.866,-2.856l0,-2.285c0,-1.904 -0.955,-2.856 -2.866,-2.856l-7.107,0c-2.293,0 -3.44,-1.142 -3.44,-3.427l0,-5.711c0,-2.285 1.147,-3.427 3.44,-3.427l7.107,-0c1.911,-0 2.866,-1.067 2.866,-3.199Zm37.143,2.056c-0,-2.361 1.108,-3.541 3.324,-3.541l48.148,0c2.292,0 3.439,1.142 3.439,3.427l-0,20.791c-0.229,5.407 -3.172,8.415 -8.827,9.024l-15.476,0c-2.293,0 -3.63,-1.142 -4.013,-3.427c-0.458,-1.904 -0.802,-3.808 -1.031,-5.712c-0.382,-2.284 0.573,-3.427 2.866,-3.427c2.674,0.077 5.349,0 8.024,-0.228c1.758,-0.99 2.446,-2.704 2.064,-5.141c-0,-1.751 -0.956,-2.627 -2.866,-2.627l-15.591,0c-1.911,0 -2.866,0.952 -2.866,2.856l0,21.476c0,1.904 0.955,2.856 2.866,2.856l32.213,-0c2.293,-0 3.439,1.142 3.439,3.427l0,11.309c0,2.285 -0.344,4.189 -1.031,5.712l-7.566,17.592c-0.765,1.827 -0.612,3.884 0.458,6.168l3.783,8.225c0.306,1.828 1.681,3.199 4.127,4.113c1.376,0.076 2.064,1.218 2.064,3.427l-0,4.912c-0,2.284 -1.147,3.427 -3.44,3.427c-5.502,0.533 -10.241,-1.371 -14.215,-5.712c-1.222,-2.056 -2.522,-1.904 -3.897,0.457c-2.14,3.275 -5.312,5.026 -9.515,5.255l-23.042,-0c-2.293,-0 -3.439,-1.143 -3.439,-3.427l-0,-101.212Zm-50.212,43.181c-0.84,-2.513 -0.191,-3.77 1.949,-3.77l8.713,0c2.292,0 3.783,1.142 4.47,3.427c0.765,2.589 1.644,5.179 2.637,7.768c0.688,2.056 1.949,3.084 3.783,3.084c2.064,0 3.439,-1.218 4.127,-3.655c0.612,-2.285 1.338,-4.57 2.178,-6.854c0.764,-2.513 2.178,-3.77 4.242,-3.77l8.483,0c2.293,0 3.095,1.142 2.407,3.427l-2.292,7.768c-0.535,2.056 -0.191,3.084 1.031,3.084c1.3,0 1.949,1.143 1.949,3.427l0,5.712c0,2.285 -1.146,3.427 -3.439,3.427l-6.993,0c-1.91,0 -2.866,0.952 -2.866,2.856l0,4.912c0,1.904 0.956,2.856 2.866,2.856l8.369,-0c2.292,-0 3.439,1.142 3.439,3.427l-0,5.826c-0,2.285 -1.147,3.427 -3.439,3.427l-8.369,-0c-1.91,-0 -2.866,0.952 -2.866,2.856l0,8.796c0,2.284 -1.146,3.427 -3.439,3.427l-10.432,-0c-2.293,-0 -3.439,-1.143 -3.439,-3.427l0,-8.796c0,-1.904 -0.955,-2.856 -2.866,-2.856l-8.942,-0c-2.292,-0 -3.439,-1.142 -3.439,-3.427l0,-5.826c0,-2.285 1.147,-3.427 3.439,-3.427l8.942,-0c1.911,-0 2.866,-0.952 2.866,-2.856l0,-4.912c0,-1.904 -0.955,-2.856 -2.866,-2.856l-7.566,0c-2.293,0 -3.439,-1.142 -3.439,-3.427l-0,-5.712c-0,-2.284 0.688,-3.427 2.063,-3.427c1.529,0 1.911,-1.218 1.147,-3.655c-0.917,-2.285 -1.72,-4.57 -2.408,-6.854Zm90.908,7.768c0.993,-1.98 0.535,-2.97 -1.376,-2.97l-19.259,-0c-1.911,-0 -2.866,0.952 -2.866,2.855l0,39.64c0,1.904 0.65,2.665 1.949,2.284c1.376,-0.533 2.598,-1.485 3.668,-2.855l4.93,-10.853c0.917,-1.827 0.802,-3.922 -0.344,-6.283l-6.534,-13.708c-1.3,-2.513 -0.803,-3.769 1.49,-3.769l10.546,-0c2.293,-0 3.592,0.418 3.898,1.256c0.382,0.99 1.185,0.191 2.408,-2.399l1.49,-3.198Z" style="fill:#fff;fill-rule:nonzero;"/></g></svg>