<?xml version="1.0" encoding="UTF-8" standalone="no"?><!DOCTYPE svg PUBLIC "-//W3C//DTD SVG 1.1//EN" "http://www.w3.org/Graphics/SVG/1.1/DTD/svg11.dtd"><svg width="100%" height="100%" viewBox="0 0 1440 48" version="1.1" xmlns="http://www.w3.org/2000/svg" xmlns:xlink="http://www.w3.org/1999/xlink" xml:space="preserve" xmlns:serif="http://www.serif.com/" style="fill-rule:evenodd;clip-rule:evenodd;stroke-linejoin:round;stroke-miterlimit:2;"><rect id="Artboard1" x="0" y="0" width="1440" height="47.155" style="fill:none;"/><clipPath id="_clip1"><rect x="0" y="0" width="1440" height="47.155"/></clipPath><g clip-path="url(#_clip1)"><path d="M1238.41,-111.157c22.339,8.846 45.429,5.636 67.708,6.357c-21.794,-3.073 -43.631,-5.937 -67.708,-6.357m113.306,-7.59c-0.048,6.426 12.551,3.641 13.275,7.128c3.05,5.02 -4.794,5.999 -2.528,10.752c57.536,3.967 116.153,7.731 173.499,17.871c-10.377,3.224 -21.3,7.109 -31.643,4.776c-17.28,-3.897 -35.189,-4.407 -52.637,-5.383c-36.701,-2.051 -72.727,-8.431 -109.837,-7.525c-2.75,0.066 -5.507,0.008 -13.371,0.008c11.409,2.818 20.706,1.991 24.647,9.749c-31.131,1.928 -60.637,-3.5 -91.649,-4.923c-0.934,2.512 -1.937,5.208 -3.039,8.169c91.929,3.083 183.381,7.134 277.709,20.689c-18.151,7.033 -33.038,4.6 -46.922,3.607c-29.133,-2.085 -58.026,-5.63 -87.065,-8.355c-4.102,-0.385 -10.291,-0.628 -12.393,0.934c-9.519,7.07 -18.567,2.785 -30.105,1.696c6.215,-4.27 10.723,2.17 16.606,-3.38c-23.702,-4.581 -46.303,2.484 -68.647,-0.03c-22.499,-2.53 -45.64,-2.517 -71.478,-3.762c8.589,6.987 19.852,5.958 26.671,6.011c21.548,0.163 42.652,3.377 64.178,2.958c22.493,-0.439 44.628,2.168 66.862,4.096c14.196,1.231 28.488,-0.311 42.636,-1.763c4.711,-0.483 2.074,1.485 2.784,2.79c2.252,4.136 9.358,3.779 15.386,3.689c21.994,-0.328 43.233,2.711 64.321,6.459c3.08,0.547 6.837,0.091 7.043,3.333c0.203,3.208 -3.601,2.776 -6.455,3.712c-16.414,5.39 -32.235,-0.833 -48.333,-0.994c-8.997,-0.091 -18.362,-6.482 -26.062,2.162c-1.403,1.575 -5.753,0.309 -9.08,-0.295c-19.288,-3.506 -39.538,-2.426 -59.186,-6.71c-9.79,-2.135 -23.985,0.594 -36.262,2.19c-17.026,2.214 -34.378,-3.088 -51.967,-4.048c-14.867,-0.811 -30.589,-2.247 -45.388,-2.916c-30.633,-1.388 -61.368,-5.349 -95.803,-1.949c21.155,5.02 40.617,5.319 59.134,5.33c42.073,0.021 82.691,10.137 124.995,7.079c31.244,14.203 68.611,6.833 102.399,12.764c21.043,3.693 43.596,3.534 65.448,5.238c1.782,0.14 3.381,1.315 4.676,3.859c-86.218,-9.522 -173.467,-6.335 -262.185,-13.169c21.05,9.308 46.589,-1.252 66.076,12.228c-34.728,8.617 -68.144,-4.108 -101.446,-0.358c12.237,6.235 30.867,4.828 39.834,14.525c1.856,2.008 0.539,4.856 -5.003,5.677c10.131,4.317 14.909,-9.243 24.675,-1.616c0.507,-2.479 0.95,-4.644 1.377,-6.734c3.55,-1.51 8.517,3.602 6.746,6.61c-0.354,0.605 0.056,1.408 0.132,2.12c80.564,1.768 160.431,7.587 242.285,15.827c-7.005,4.765 -12.2,5.501 -17.955,5.1c-30.391,-2.111 -60.79,-4.166 -91.174,-6.326c-13.599,-0.967 -27.475,-1.693 -40.871,-1.989c-32.415,-0.717 -64.508,-3.082 -96.755,-4.579c-38.532,-1.789 -77.394,-0.476 -116.112,-0.376c-5.65,0.015 -12.495,-1.579 -16.407,4.451c64.217,1.327 127.873,2.594 191.319,5.065c63.979,2.492 128.63,5.572 190.71,18.626c-18.875,4.46 -38.133,4.067 -56.254,2.238c-22.608,-2.281 -45.48,-4.907 -67.967,-5.503c-49.467,-1.312 -98.785,-4.182 -148.269,-5.434c-76.37,-1.934 -152.687,-1.27 -229.025,-1.691c-46.626,-0.258 -93.305,-0.953 -139.875,0.155c-76.89,1.83 -153.833,0.812 -230.659,2.436c-56.617,1.196 -113.253,0.456 -169.775,2.072c-48.336,1.38 -96.751,2.513 -144.979,4.622c-56.576,2.475 -113.041,0.713 -169.522,1.802c-16.488,0.318 -32.942,0.893 -50.393,-0.904c4.074,-5.338 10.282,-5.93 16.85,-5.771c35.981,0.873 71.582,-1.626 107.358,-3.867c16.489,-1.033 33.948,-1.991 51.381,0.893c10.498,1.737 22.874,-1.333 34.493,-1.948c31.666,-1.674 63.329,-2.956 95.039,-4.213c51.09,-2.026 102.232,-5.287 153.306,-3.736c33.025,1.002 65.759,-2.84 98.611,-0.434c10.036,0.734 18.871,-2.333 28.299,-4.466l-75.755,-0c-41.094,-0 -82.207,-0.527 -123.276,0.162c-34.547,0.579 -69.103,1.332 -103.634,3.434c-11.163,0.68 -23.282,0.269 -35.079,0.618c-43.419,1.283 -86.913,2.512 -130.346,2.106c-23.097,-0.215 -45.882,-0.46 -68.578,2.509c-9.766,1.276 -17.663,-5.815 -27.949,-2.687c0.851,1.925 1.719,3.89 2.935,6.645c-7.965,-0 -17.283,1.936 -21.439,-0.335c-18.203,-9.942 -40.563,-6.744 -60.721,-10.022c-7.379,-1.201 -16.325,-0.307 -18.423,-6.529c-1.997,-5.931 8.131,-6.495 11.658,-11.751c-18.157,-6.192 -20.158,-22.329 -36.472,-32.081c-6.493,0.669 -3.969,12.393 -17.901,5.792c1.56,10.85 19.166,17.309 11.976,28.395c-9.794,1.529 -14.271,-3.669 -17.784,-7.711c-15.15,-17.426 -26.402,-37.057 -25.919,-56.409c0.756,-30.299 0.381,-61.259 15.176,-90.753c1.025,-2.045 1.648,-4.311 3.425,-6.029c3.992,-3.862 5.044,-10.51 15.253,-9.319c9.392,1.096 10.876,6.687 11.227,11.785c0.417,6.074 6.634,8.042 14.137,11.083c3.691,-6.06 2.156,-13.091 11.043,-16.647c0.728,-0.291 1.468,-1.635 1.172,-1.847c-13.53,-9.658 5.344,-9.752 9.756,-14.612c-13.235,-8.226 -17.236,-18.957 -16.165,-31.2c-6.951,-1.158 -13.383,-1.827 -19.49,0.176c-7.63,2.503 -9.155,-2.276 -12.992,-4.346c2.783,-2.209 3.131,-5.104 9.612,-5.856c32.684,-3.795 65.112,-7.744 98.508,-8.905c85.991,-2.992 171.99,-3.889 258.069,-4.511c51.485,-0.372 102.543,1.786 153.651,4.779c15.557,0.911 30.45,-4.05 45.864,-2.135c34.018,4.225 68.295,1.443 102.435,2.067c31.172,0.571 62.13,-2.675 93.61,-0.233c52.541,4.075 105.613,1.325 158.348,2.868c40.572,1.188 81.302,1.988 121.7,4.46c51.193,3.134 102.404,5.94 153.633,8.756c47.899,2.631 96.425,2.283 143.514,9.018c30.551,4.37 61.796,5.11 92.253,10.613c17.513,3.164 35.308,7.107 53.438,8.602c9.007,0.744 3.776,4.474 6.371,6.793c-17.129,-3.738 -34.839,-3.346 -51.761,-6.346c-18.604,-3.299 -37.013,-4.293 -55.44,1.93c-12.649,4.271 -27.074,1.094 -39.822,-0.28c-44.032,-4.744 -88.381,-7.267 -132.593,-10.778c-52.198,-4.144 -104.64,-6.014 -156.894,-9.235c-42.988,-2.65 -86.003,-2.154 -128.792,-4.344c-49.197,-2.518 -98.366,0.102 -147.326,-2.169c-26.515,-1.231 -52.945,-1.268 -79.412,-1.794c-18.258,-0.363 -36.328,5.649 -55.153,1.215c2.564,1.03 5.131,2.958 7.693,2.956c45.559,-0.045 89.967,8.239 135.863,7.346c28.209,-0.549 56.861,0.86 85.132,3.752c13.716,1.404 27.261,-1.71 41.93,-0.411c32.807,2.907 66.403,2.005 99.454,3.399c53.317,2.249 106.834,1.958 159.868,4.695c57.653,2.976 115.127,9.254 171.944,18.221c26.628,4.202 54.944,6.636 82.913,7.657c2.402,0.086 4.766,0.636 6.817,2.003c-20.245,0.316 -40.182,0.051 -59.726,-2.388c-2.518,5.034 5.947,3.869 6.962,8.516c-42.315,7.297 -84.751,-6.315 -126.432,-0.582c9.07,6.113 21.875,4.263 32.242,4.38c31.114,0.351 60.962,5.612 91.289,8.658c12.202,1.226 25.196,-0.154 36.874,3.717c6.827,2.264 19.682,-4.912 21.055,5.99c17.127,-3.114 31.037,6.682 47.889,5.214c17.196,-1.498 33.425,2.735 50.003,4.68c3.643,0.427 9.094,1.13 9.795,4.758c0.835,4.312 -4.338,5.365 -8.934,6.734c-14.883,4.435 -28.791,-1.858 -43.327,-1.871c-3.962,-0.004 -8.523,-1.11 -12.874,-1.016c-41.311,0.898 -81.586,-5.549 -122.511,-7.594c-26.056,-2.025 -52.075,-4.065 -78.094,-6.106c-0.135,0.956 -0.27,1.912 -0.405,2.869c26.088,1.95 51.853,6.191 78.648,3.132" style="fill:#77c1d3;fill-rule:nonzero;"/><path d="M-14.546,4.46c0,-0 18.76,-34.114 106.788,-24.894c88.028,9.22 126.992,2.766 170.284,-4.61c43.293,-7.376 61.881,-7.746 103.095,2.12c41.214,9.866 55.645,30.15 189.852,9.866c134.206,-20.284 197.702,-36.88 281.401,-21.206c83.699,15.674 186.817,-12.99 290.06,13.83c103.243,26.819 262.641,-20.284 343.454,24.894l-1484.93,-0Z" style="fill:#77c1d3;fill-rule:nonzero;"/></g></svg>