<?xml version="1.0" encoding="utf-8"?>
<!-- Generator: Adobe Illustrator 21.0.2, SVG Export Plug-In . SVG Version: 6.00 Build 0)  -->
<svg version="1.1" id="Layer_1" xmlns="http://www.w3.org/2000/svg" xmlns:xlink="http://www.w3.org/1999/xlink" x="0px" y="0px"
	 viewBox="0 0 200.7 125.4" style="enable-background:new 0 0 200.7 125.4;" xml:space="preserve">
<title>credit-card-ae-white</title>
<g id="Layer_2">
	<g id="Layer_1-2">
		<g>
			<defs>
				<path id="SVGID_1_" d="M7,0.2h186.7c3.7,0,6.7,3,6.7,6.7v111.7c0,3.7-3,6.7-6.7,6.7H7c-3.7,0-6.7-3-6.7-6.7V6.9
					C0.3,3.2,3.3,0.2,7,0.2z"/>
			</defs>
			<clipPath id="SVGID_2_">
				<use xlink:href="#SVGID_1_"  style="overflow:visible;"/>
			</clipPath>
			<g style="clip-path:url(#SVGID_2_);">
				<path style="fill:#F9F9F9;" d="M6.7,0H194c3.7,0,6.7,3,6.7,6.7v112c0,3.7-3,6.7-6.7,6.7H6.7c-3.7,0-6.7-3-6.7-6.7V6.7
					C0,3,3,0,6.7,0z"/>
				<path style="fill:#FFFFFF;" d="M62.3,59.8v-2l-1,2H53l-1-2.2v2.2H36.4l-1.8-4.3h-3.1l-1.9,4.3h-8.1V46.7l5.9-13.3h11.3l1.6,3.8
					v-3.8h13.8l3,6.4l3-6.4h43.6c1.3,0,2.6,0.3,3.8,1v-1h11v1.5c1.5-0.9,3.2-1.5,4.9-1.5h19.4l1.7,3.8v-3.8H157l2.3,3.8v-3.8h11.9
					v26.5h-12.3l-2.9-4.6v4.6h-15.2l-2.1-4.7h-3l-2,4.7h-9.2c-2.1-0.1-4.2-0.7-6-1.9v1.9h-18.2v-6.2c0-0.9-0.7-0.8-0.7-0.8h-0.7v7
					L62.3,59.8z M53.1,65.5h24l3.5,3.9l3.6-3.9h18.5c1.2,0.1,2.3,0.4,3.4,0.9v-0.9h16.4c1.3,0,2.7,0.4,3.8,1v-1h21.1v1
					c1.1-0.6,2.3-1,3.5-1h13.8v1c1.1-0.6,2.3-0.9,3.6-1h10.8v25c-1.2,1.1-2.7,1.7-4.4,1.6h-14.2v-0.8c-1.1,0.5-2.2,0.8-3.4,0.8
					h-37.9v-6.5c0-0.6-0.3-0.8-0.8-0.8h-0.5v7.2H106V85c-1.1,0.5-2.3,0.7-3.5,0.7h-4.3v6.4H83.7l-3.3-4l-3.6,4H53.1V65.5z"/>
				<path style="fill:#0078A9;" d="M128.9,69.5h15.1v4h-10.5V77h10.2v3.6h-10.2v3.7h10.5v3.9h-15.1V69.5z M173,76.8
					c5.7,0.3,6.1,3.1,6.1,6.1c0,3.5-2.9,5.4-5.9,5.4h-9.7v-4h7.6c1.3,0,3.2,0,3.2-1.8c0-0.9-0.3-1.4-1.7-1.6
					c-0.6-0.1-2.9-0.2-3.2-0.2c-5.1-0.1-6.3-2.7-6.3-5.8c-0.2-2.9,2-5.3,4.9-5.5c0.2,0,0.4,0,0.6,0h9.7v4h-7.1
					c-1.6,0-3.4-0.2-3.4,1.6c0,1.2,0.9,1.4,2,1.5L173,76.8z M155.6,76.8c5.7,0.3,6.1,3.1,6.1,6.1c0,3.5-2.9,5.4-5.9,5.4h-9.7v-4h7.6
					c1.3,0,3.2,0,3.2-1.8c0-0.9-0.3-1.4-1.7-1.6c-0.6-0.1-2.9-0.2-3.2-0.2c-5.1-0.1-6.3-2.7-6.3-5.8c-0.2-2.9,2-5.3,4.9-5.5
					c0.2,0,0.4,0,0.6,0h9.8v4h-7.1c-1.6,0-3.4-0.2-3.4,1.6c0,1.2,0.9,1.4,2,1.5C152.8,76.7,155.4,76.8,155.6,76.8L155.6,76.8z
					 M101,69.5H84.8l-5.3,5.8l-5.1-5.9H56.3v18.8h17.6l5.5-6.2l5.4,6.2h8.8V82h6.2c2.4,0,6.8-0.1,6.8-6.7
					C106.6,70.6,103.3,69.5,101,69.5L101,69.5z M71.4,84.3H60.8v-3.7H71v-3.6H60.8v-3.5H72l4.5,5.1L71.4,84.3z M89,86.5l-6.6-7.8
					l6.6-7.3V86.5z M99.4,78.1h-5.7v-4.5h5.8c1.9,0,2.5,1.2,2.5,2.2c0.1,1.2-0.8,2.3-2.1,2.4C99.8,78.1,99.6,78.1,99.4,78.1
					L99.4,78.1z M123.3,79.8c2.1-0.8,3.4-3,3.2-5.2c0-4-3.3-5-5.5-5H109v18.8h4.6v-6.6h6c1.6,0,2.2,1.6,2.3,3.2l0.1,3.4h4.5
					l-0.2-3.9C126.3,81.5,125.5,80,123.3,79.8L123.3,79.8z M119.3,77.8h-5.7v-4.3h5.8c1.9,0,2.5,1.2,2.5,2.2
					C121.8,77,121.2,77.8,119.3,77.8L119.3,77.8z M110.8,37.1h4.6v18.8h-4.6V37.1z M73,37.1h15.1v4H77.7v3.5h10.2v3.6H77.7V52h10.5
					v3.9H73V37.1z M105.2,47.3c2.1-0.8,3.4-3,3.2-5.2c0-4-3.3-5-5.5-5h-12v18.8h4.6v-6.6h6c1.6,0,2.2,1.6,2.3,3.2l0.1,3.4h4.5
					l-0.2-3.9C108.2,49,107.4,47.6,105.2,47.3L105.2,47.3z M101.2,45.4h-5.7v-4.3h5.8c1.9,0,2.5,1.2,2.5,2.2
					C103.8,44.5,103.1,45.4,101.2,45.4L101.2,45.4z M62.4,37.1l-5.7,12.6l-5.6-12.6h-7.2v18.1l-8-18.1h-6.1l-8.2,18.8h4.9l1.8-4.2
					h9.2l1.8,4.2h9.3V42l6.2,13.9h4.2l6.3-13.7v13.7h4.6V37.1H62.4z M29.9,47.6l2.8-6.6l2.9,6.6H29.9z M163,37.1v13l-7.8-13h-6.8
					v17.6l-7.9-17.6h-6.1l-6.3,14.5c0,0-2.7,0-3-0.1c-1.1-0.2-2.8-1-2.9-4.3v-1.4c0-4.4,2.4-4.7,5.5-4.7h2.9v-4.1h-6
					c-2.1,0-6.7,1.6-6.8,9.3c-0.1,5.2,2.2,9.5,7.3,9.5h6.1l1.8-4.2h9.2l1.8,4.2h9.1V42.1l8.3,13.8h6.3V37.1H163z M134.7,47.7
					l2.8-6.6l2.9,6.6H134.7z"/>
			</g>
		</g>
	</g>
</g>
</svg>
