<?xml version="1.0" encoding="utf-8"?>
<!-- Generator: Adobe Illustrator 21.0.2, SVG Export Plug-In . SVG Version: 6.00 Build 0)  -->
<svg version="1.1" id="Layer_1" xmlns="http://www.w3.org/2000/svg" xmlns:xlink="http://www.w3.org/1999/xlink" x="0px" y="0px"
	 viewBox="0 0 200.7 125.4" style="enable-background:new 0 0 200.7 125.4;" xml:space="preserve">
<title>credit-card-visa-white</title>
<g id="Layer_2">
	<g id="Layer_1-2">
		<g>
			<defs>
				<path id="SVGID_1_" d="M7,0.2h186.7c3.7,0,6.7,3,6.7,6.7v111.7c0,3.7-3,6.7-6.7,6.7H7c-3.7,0-6.7-3-6.7-6.7V6.9
					C0.3,3.2,3.3,0.2,7,0.2z"/>
			</defs>
			<clipPath id="SVGID_2_">
				<use xlink:href="#SVGID_1_"  style="overflow:visible;"/>
			</clipPath>
			<g style="clip-path:url(#SVGID_2_);">
				<path style="fill:#F9F9F9;" d="M6.7,0H194c3.7,0,6.7,3,6.7,6.7v112c0,3.7-3,6.7-6.7,6.7H6.7c-3.7,0-6.7-3-6.7-6.7V6.7
					C0,3,3,0,6.7,0z"/>
				<path style="fill:#0066B2;" d="M92.3,81.5h-9.8l6.1-37.7h9.8L92.3,81.5z M74.3,43.9L65,69.8l-1.1-5.6l-3.3-16.9
					c0,0-0.4-3.4-4.7-3.4H40.5l-0.2,0.6c3.6,0.9,7.1,2.4,10.3,4.3L59,81.5h10.2l15.6-37.7H74.3z M151.4,81.5h9l-7.8-37.7h-7.9
					c-2-0.2-3.8,1-4.5,2.8l-14.6,34.8h10.2l2-5.6h12.5L151.4,81.5z M140.6,68.2l5.1-14.1l2.9,14.1H140.6z M126.3,53l1.4-8.1
					c-2.8-1-5.8-1.6-8.8-1.6c-4.9,0-16.4,2.1-16.4,12.5c0,9.7,13.6,9.9,13.6,15s-12.2,4.2-16.2,1l-1.5,8.4c3.5,1.5,7.3,2.2,11.1,2.1
					c6.7,0,16.8-3.5,16.8-12.9c0-9.8-13.7-10.7-13.7-15S122.1,50.6,126.3,53z"/>
				<path style="fill:#F9A533;" d="M63.8,64.2l-3.3-16.9c0,0-0.4-3.4-4.7-3.4H40.5l-0.2,0.6c5.3,1.4,10.3,3.8,14.5,7.3
					C58.9,55.1,62,59.4,63.8,64.2L63.8,64.2z"/>
			</g>
		</g>
	</g>
</g>
</svg>
