<?xml version="1.0" encoding="utf-8"?>
<!-- Generator: Adobe Illustrator 21.0.2, SVG Export Plug-In . SVG Version: 6.00 Build 0)  -->
<svg version="1.1" id="Layer_1" xmlns="http://www.w3.org/2000/svg" xmlns:xlink="http://www.w3.org/1999/xlink" x="0px" y="0px"
	 viewBox="0 0 200.7 125.4" style="enable-background:new 0 0 200.7 125.4;" xml:space="preserve">
<title>credit-card-mc-dark</title>
<g>
	<defs>
		<path id="SVGID_1_" d="M7,0.2h186.7c3.7,0,6.7,3,6.7,6.7v111.7c0,3.7-3,6.7-6.7,6.7H7c-3.7,0-6.7-3-6.7-6.7V6.9
			C0.3,3.2,3.3,0.2,7,0.2z"/>
	</defs>
	<clipPath id="SVGID_2_">
		<use xlink:href="#SVGID_1_"  style="overflow:visible;"/>
	</clipPath>
	<g id="Layer_1-2" style="clip-path:url(#SVGID_2_);">
		<path style="fill:#13457C;" d="M6.7,0H194c3.7,0,6.7,3,6.7,6.7v112c0,3.7-3,6.7-6.7,6.7H6.7c-3.7,0-6.7-3-6.7-6.7V6.7
			C0,3,3,0,6.7,0z"/>
		<path style="fill:#FBB231;" d="M124.4,98.7l1.9-0.1l1.8-0.1l1.8-0.2l1.8-0.3l1.7-0.4l1.7-0.5l1.7-0.6l1.6-0.6l1.6-0.7l1.6-0.8
			l1.5-0.9l1.5-0.9l1.4-1l1.4-1.1l1.3-1.1l1.2-1.2l1.2-1.3l1.1-1.3l1.1-1.4l1-1.4l0.9-1.5l0.9-1.5l0.8-1.6l0.7-1.6l0.6-1.6l0.6-1.7
			l0.5-1.7l0.4-1.7l0.3-1.8l0.2-1.8l0.1-1.8l0.1-1.9l-0.1-1.8l-0.1-1.8l-0.2-1.8l-0.3-1.8l-0.4-1.7l-0.5-1.7l-0.6-1.7l-0.6-1.6
			l-0.7-1.6l-0.8-1.6l-0.9-1.6l-0.9-1.5l-1-1.4l-1.1-1.3l-1.1-1.3l-1.2-1.2l-1.2-1.2l-1.3-1.1l-1.4-1l-1.4-1l-1.5-0.9l-1.5-0.9
			l-1.6-0.8l-1.6-0.7l-1.6-0.6l-1.7-0.6l-1.7-0.5l-1.7-0.4l-1.8-0.3l-1.8-0.2l-1.8-0.1l-1.9,0l-1.8,0l-1.8,0.1l-1.8,0.2l-1.8,0.3
			l-1.7,0.4l-1.7,0.5l-1.7,0.6l-1.6,0.6l-1.6,0.7l-1.5,0.8l-1.5,0.9l-1.5,0.9l-1.4,1l-1.4,1.1l-1.3,1.1L99,37.2l-1.2,1.2l-1.1,1.3
			l-1.1,1.3l-1,1.4L93.7,44l-0.9,1.5L92,47.1l-0.7,1.6l-0.7,1.6L90.1,52l-0.5,1.7l-0.4,1.7l-0.3,1.8L88.7,59l-0.1,1.8l-0.1,1.8
			l0.1,1.9l0.1,1.8l0.2,1.8l0.3,1.8l0.4,1.7l0.5,1.7l0.6,1.6l0.7,1.6l0.7,1.6l0.8,1.6l0.9,1.5l0.9,1.5l1,1.4l1.1,1.4l1.1,1.3
			l1.2,1.3l1.2,1.2l1.3,1.1l1.4,1.1l1.4,1l1.5,0.9l1.5,0.9l1.5,0.8l1.6,0.7l1.6,0.6l1.7,0.6l1.7,0.5l1.7,0.4l1.8,0.3l1.8,0.2
			l1.8,0.1L124.4,98.7z"/>
		<path style="fill:#EC1C2E;" d="M76.2,98.7l1.8-0.1l1.8-0.1l1.8-0.2l1.8-0.3l1.7-0.4l1.7-0.5l1.7-0.6l1.6-0.6l1.6-0.7l1.6-0.8
			l1.5-0.9l1.5-0.9l1.4-1l1.4-1.1l1.3-1.1l1.2-1.2l1.2-1.3l1.1-1.3l1.1-1.4l1-1.4l0.9-1.5l0.9-1.5l0.8-1.6l0.7-1.6L110,75l0.6-1.7
			l0.5-1.7l0.4-1.7l0.3-1.8l0.2-1.8l0.1-1.8v-3.7L112,59l-0.2-1.8l-0.3-1.8l-0.4-1.7l-0.5-1.7l-0.6-1.7l-0.6-1.6l-0.7-1.6l-0.8-1.6
			L107,44l-1-1.4l-1-1.4l-1-1.3l-1.1-1.3l-1.2-1.2l-1.2-1.2l-1.3-1.1l-1.4-1.1l-1.4-1l-1.5-0.9l-1.5-0.9l-1.6-0.8l-1.6-0.7l-1.6-0.6
			L87,28.3l-1.7-0.5l-1.7-0.4l-1.8-0.3l-1.8-0.2l-1.8-0.1l-1.8,0l-1.9,0l-1.8,0.1l-1.8,0.2L69,27.4l-1.7,0.4l-1.7,0.5l-1.7,0.6
			l-1.6,0.6l-1.6,0.7l-1.5,0.8l-1.5,0.9l-1.5,0.9l-1.4,1l-1.4,1.1L52,36.1l-1.2,1.2l-1.2,1.2l-1.1,1.3l-1.1,1.3l-1,1.4L45.4,44
			l-0.9,1.5L43.7,47L43,48.7l-0.6,1.6L41.8,52l-0.5,1.7l-0.4,1.7l-0.3,1.8L40.4,59l-0.1,1.8v3.7l0.1,1.8l0.2,1.8l0.3,1.8l0.4,1.7
			l0.5,1.7l0.6,1.6l0.6,1.7l0.7,1.6l0.8,1.6l0.9,1.5l0.9,1.5l1,1.4l1.1,1.4l1.1,1.3l1.2,1.3l1.3,1.2l1.3,1.1l1.4,1.1l1.4,1l1.5,0.9
			l1.5,0.9l1.5,0.8l1.6,0.7l1.6,0.6l1.7,0.6l1.7,0.5L69,98l1.8,0.3l1.8,0.2l1.8,0.1L76.2,98.7z"/>
		<path style="fill:#FBB231;" d="M96.1,40.5h19.1v-2H97.8L96.1,40.5z M93.2,44.9h22v-2H94.4L93.2,44.9z M91.1,49.2h24.1v-2H92
			L91.1,49.2z M89.6,53.5h25.6v-2h-25L89.6,53.5z M90.5,74.5h24.8v-2H89.9L90.5,74.5z M92.3,78.9h23v-1.9H91.4L92.3,78.9z
			 M94.9,83.2h20.4v-2H93.7L94.9,83.2z M98.5,87.6h16.9v-2H96.7L98.5,87.6z M88.8,57.9h26.5v-2H89.2L88.8,57.9z M104.9,70.2H115v-2
			h-9.7L104.9,70.2z M105.7,65.9h9.3v-2h-8.9L105.7,65.9z M88.1,63.9h2.6v2h-2.5L88.1,63.9z"/>
		<path style="fill:#FFFFFF;" d="M83.2,61.5h-3.8l-0.2,0.1l-0.2,0.1l-0.2,0.1l-0.2,0.1L78.6,62h-0.1l-0.1,0.1l-0.1,0.1v0.6l0.1,0.2
			l0.1,0.2l0.2,0.2l0.3,0.2l0.3,0.2l0.4,0.1l0.4,0.1l0.4,0.1l0.4,0.2l0.4,0.2l0.4,0.2l0.3,0.2l0.3,0.3l0.2,0.4l0.2,0.5l0.1,0.5
			l0.1,0.7l0,0.7l-0.1,0.6l-0.1,0.5l-0.2,0.5l-0.2,0.4l-0.3,0.4l-0.3,0.3l-0.3,0.3L81,71.1l-0.4,0.2l-0.4,0.2l-0.4,0.1l-0.4,0.1
			L79,71.7H74l-0.2-0.1l-0.2-0.1l-0.2-0.1l-0.2-0.1L73,71.2l0.6-2.7h0.2l0.2,0.1l0.2,0.1l0.2,0.1h0.2l0.3,0.1l0.3,0.1l0.3,0.1
			l0.3,0.1h2.1l0.3-0.1l0.3-0.1l0.2-0.1l0.2-0.2l0.1-0.2l0.1-0.2l0.1-0.2l0.1-0.2v-0.3l-0.1-0.3L79,67l-0.3-0.2l-0.4-0.2l-0.4-0.2
			l-0.5-0.2L77,66.1l-0.5-0.2L76,65.6l-0.4-0.3l-0.4-0.4l-0.3-0.5l-0.2-0.5l-0.1-0.7v-0.8l0-0.5l0.1-0.5l0.1-0.4l0.1-0.4l0.2-0.4
			l0.2-0.3l0.3-0.3l0.3-0.3l0.4-0.2l0.4-0.2l0.4-0.2l0.5-0.1l0.5-0.1l0.6-0.1l0.7,0h4.5l-0.6,2.7L83.2,61.5z"/>
		<path style="fill:none;stroke:#FFFFFF;stroke-width:0.22;stroke-miterlimit:2.61;" d="M83.2,61.5h-3.8l-0.2,0.1l-0.2,0.1l-0.2,0.1
			l-0.2,0.1L78.6,62h-0.1l-0.1,0.1l-0.1,0.1v0.6l0.1,0.2l0.1,0.2l0.2,0.2l0.3,0.2l0.3,0.2l0.4,0.1l0.4,0.1l0.4,0.1l0.4,0.2l0.4,0.2
			l0.4,0.2l0.3,0.2l0.3,0.3l0.2,0.4l0.2,0.5l0.1,0.5l0.1,0.7l0,0.7l-0.1,0.6l-0.1,0.5l-0.2,0.5l-0.2,0.4l-0.3,0.4l-0.3,0.3l-0.3,0.3
			L81,71.1l-0.4,0.2l-0.4,0.2l-0.4,0.1l-0.4,0.1L79,71.7H74l-0.2-0.1l-0.2-0.1l-0.2-0.1l-0.2-0.1L73,71.2l0.6-2.7h0.2l0.2,0.1
			l0.2,0.1l0.2,0.1h0.2l0.3,0.1l0.3,0.1l0.3,0.1l0.3,0.1h2.1l0.3-0.1l0.3-0.1l0.2-0.1l0.2-0.2l0.1-0.2l0.1-0.2l0.1-0.2l0.1-0.2v-0.3
			l-0.1-0.3L79,67l-0.3-0.2l-0.4-0.2l-0.4-0.2l-0.5-0.2L77,66.1l-0.5-0.2L76,65.6l-0.4-0.3l-0.4-0.4l-0.3-0.5l-0.2-0.5l-0.1-0.7
			v-0.8l0-0.5l0.1-0.5l0.1-0.4l0.1-0.4l0.2-0.4l0.2-0.3l0.3-0.3l0.3-0.3l0.4-0.2l0.4-0.2l0.4-0.2l0.5-0.1l0.5-0.1l0.6-0.1l0.7,0h4.5
			l-0.6,2.7"/>
		<path style="fill:#FFFFFF;" d="M86.1,55.8h3.4L89,58.7h2l-0.4,2.7l-2.1-0.1l-1.2,6.8v0.2l0.1,0.2l0.1,0.2l0.2,0.1l0.2,0.1l0.2,0.1
			l0.3,0.1h1.2l0.2-0.1h0.2l-0.4,2.3l-0.1,0.1l-0.1,0.1l-0.1,0.1l-0.1,0.1H86l-0.4-0.1l-0.4-0.1l-0.3-0.1l-0.3-0.1l-0.2-0.1L84.2,71
			L84,71l-0.1-0.2l-0.1-0.2l-0.1-0.2v-1.3C83.7,69.1,86.1,55.8,86.1,55.8z"/>
		<path style="fill:none;stroke:#FFFFFF;stroke-width:0.22;stroke-miterlimit:2.61;" d="M86.1,55.8h3.4L89,58.7h2l-0.4,2.7l-2.1-0.1
			l-1.2,6.8v0.2l0.1,0.2l0.1,0.2l0.2,0.1l0.2,0.1l0.2,0.1l0.3,0.1h1.2l0.2-0.1h0.2l-0.4,2.3l-0.1,0.1l-0.1,0.1l-0.1,0.1l-0.1,0.1H86
			l-0.4-0.1l-0.4-0.1l-0.3-0.1l-0.3-0.1l-0.2-0.1L84.2,71L84,71l-0.1-0.2l-0.1-0.2l-0.1-0.2v-1.3L86.1,55.8 M93.7,66.1v0.7l0.1,0.2
			l0.1,0.2l0.1,0.2l0.1,0.2l0.1,0.2l0.2,0.2l0.2,0.2l0.2,0.2l0.2,0.2l0.2,0.1l0.2,0.1l0.2,0.1l0.2,0.1l0.3,0.1h2.3l0.3-0.1l0.3-0.1
			l0.3-0.1l0.3-0.1l0.3-0.1l0.3-0.2l0.3-0.2l0.3-0.2l-0.5,3l-0.2,0.1l-0.2,0.1l-0.2,0.1l-0.2,0.1l-0.2,0.1l-0.2,0.1l-0.2,0.1h-3.2
			l-0.6-0.1l-0.6-0.1l-0.6-0.1L93.7,71l-0.7,0l-0.5-0.3L92,70.4L91.6,70l-0.4-0.5l-0.3-0.6l-0.3-0.7l-0.2-0.7l-0.1-0.8v-0.9l0.1-1
			l0.1-0.4l0.1-0.4l0.1-0.5l0.1-0.5l0.2-0.5L91,62l0.3-0.5l0.3-0.5l0.4-0.5l0.5-0.5l0.5-0.4l0.6-0.4l0.7-0.3l0.8-0.2l0.9-0.1l1,0
			h0.5l0.5,0l0.5,0.1l0.5,0.1l0.5,0.2l0.5,0.2l0.4,0.3l0.4,0.3l0.4,0.4l0.3,0.5l0.2,0.6l0.2,0.6l0.1,0.7v0.8l-0.1,0.9l-0.2,1
			l-0.1,0.7h-8.9l0.6-2.4h5.3v-0.9l-0.1-0.2l-0.1-0.2l-0.1-0.2L98.2,62l-0.1-0.2l-0.2-0.1l-0.2-0.1l-0.2-0.1l-0.2-0.1l-0.2-0.1
			l-0.2,0h-0.9l-0.2,0l-0.2,0.1l-0.2,0.1l-0.2,0.1l-0.2,0.1L95,61.9L94.9,62l-0.2,0.2l-0.1,0.2l-0.1,0.2l-0.1,0.2l-0.1,0.2l-0.1,0.2
			l-0.1,0.2L93.7,66.1"/>
		<path style="fill:#FFFFFF;" d="M122.6,59.5l-0.2-0.1l-0.2-0.1l-0.2-0.1l-0.2-0.1l-0.2-0.1l-0.2-0.1l-0.2-0.1l-0.2-0.1l-0.2-0.1
			h-0.2l-0.3,0h-2.3l-0.3,0.1l-0.3,0.1l-0.3,0.1l-0.3,0.2l-0.3,0.2l-0.3,0.3l-0.3,0.3l-0.3,0.4l-0.3,0.5l-0.3,0.5l-0.2,0.6l-0.2,0.7
			l-0.2,0.8l-0.1,0.4l-0.1,0.4v1.3l0.1,0.4l0.1,0.4l0.1,0.4l0.2,0.3l0.2,0.3l0.3,0.3l0.3,0.3l0.3,0.2l0.4,0.2l0.4,0.2l0.5,0.1h2.3
			l0.3-0.1l0.3-0.1l0.3-0.1l0.3-0.1l0.3-0.2l0.3-0.2l0.2-0.2l-0.6,3.2l-0.1,0.1l-0.1,0.1l-0.1,0.1l-0.1,0.1l-0.1,0.1l-0.2,0.1
			l-0.2,0.1l-0.2,0.1l-0.3,0.1l-0.3,0.1l-0.4,0.1l-0.4,0.1h-2.3l-0.6-0.1l-0.6-0.1l-0.6-0.2l-0.6-0.2l-0.5-0.3l-0.5-0.4l-0.5-0.4
			l-0.4-0.5l-0.4-0.6l-0.3-0.6l-0.3-0.7l-0.2-0.7l-0.2-0.8l-0.1-0.9v-0.9l0.1-1l0.1-0.5l0.1-0.5l0.1-0.5l0.1-0.4L111,61l0.2-0.4
			l0.2-0.4l0.2-0.4l0.2-0.4l0.2-0.3l0.2-0.3l0.2-0.3l0.2-0.3l0.2-0.3l0.2-0.3l0.3-0.2l0.3-0.2l0.3-0.2l0.3-0.2l0.3-0.2l0.3-0.2
			l0.3-0.2l0.3-0.1l0.3-0.1l0.4-0.1l0.4-0.1l0.4-0.1l0.4-0.1l0.4-0.1h2.5l0.4,0l0.3,0l0.3,0.1l0.3,0.1l0.3,0.1l0.3,0.1l0.2,0.1
			l0.2,0.1l0.2,0.1l0.2,0.1l0.1,0l0.1,0h0.1L122.6,59.5L122.6,59.5z"/>
		<path style="fill:none;stroke:#FFFFFF;stroke-width:0.22;stroke-miterlimit:2.61;" d="M122.6,59.5l-0.2-0.1l-0.2-0.1l-0.2-0.1
			l-0.2-0.1l-0.2-0.1l-0.2-0.1l-0.2-0.1l-0.2-0.1l-0.2-0.1h-0.2l-0.3,0h-2.3l-0.3,0.1l-0.3,0.1l-0.3,0.1l-0.3,0.2l-0.3,0.2l-0.3,0.3
			l-0.3,0.3l-0.3,0.4l-0.3,0.5l-0.3,0.5l-0.2,0.6l-0.2,0.7l-0.2,0.8l-0.1,0.4l-0.1,0.4v1.3l0.1,0.4l0.1,0.4l0.1,0.4l0.2,0.3l0.2,0.3
			l0.3,0.3l0.3,0.3l0.3,0.2l0.4,0.2l0.4,0.2l0.5,0.1h2.3l0.3-0.1l0.3-0.1l0.3-0.1l0.3-0.1l0.3-0.2l0.3-0.2l0.2-0.2l-0.6,3.2
			l-0.1,0.1l-0.1,0.1l-0.1,0.1l-0.1,0.1l-0.1,0.1l-0.2,0.1l-0.2,0.1l-0.2,0.1l-0.3,0.1l-0.3,0.1l-0.4,0.1l-0.4,0.1h-2.3l-0.6-0.1
			l-0.6-0.1l-0.6-0.2l-0.6-0.2l-0.5-0.3l-0.5-0.4l-0.5-0.4l-0.4-0.5l-0.4-0.6l-0.3-0.6l-0.3-0.7l-0.2-0.7l-0.2-0.8l-0.1-0.9v-0.9
			l0.1-1l0.1-0.5l0.1-0.5l0.1-0.5l0.1-0.4L111,61l0.2-0.4l0.2-0.4l0.2-0.4l0.2-0.4l0.2-0.3l0.2-0.3l0.2-0.3l0.2-0.3l0.2-0.3l0.2-0.3
			l0.3-0.2l0.3-0.2l0.3-0.2l0.3-0.2l0.3-0.2l0.3-0.2l0.3-0.2l0.3-0.1l0.3-0.1l0.4-0.1l0.4-0.1l0.4-0.1l0.4-0.1l0.4-0.1h2.5l0.4,0
			l0.3,0l0.3,0.1l0.3,0.1l0.3,0.1l0.3,0.1l0.2,0.1l0.2,0.1l0.2,0.1l0.2,0.1l0.1,0l0.1,0h0.1L122.6,59.5"/>
		<path style="fill:#FFFFFF;" d="M152.5,71.7h-3.4l0.2-1.3v-0.1l-0.2,0.2l-0.2,0.2l-0.2,0.2l-0.2,0.2l-0.2,0.2l-0.2,0.1l-0.2,0.1
			l-0.2,0.1l-0.2,0.1l-0.2,0.1l-0.2,0.1h-1.2l-0.6-0.1l-0.6-0.1l-0.5-0.2l-0.5-0.3l-0.4-0.4l-0.4-0.4l-0.3-0.4l-0.3-0.5l-0.2-0.6
			l-0.2-0.6l-0.1-0.6l-0.1-0.6V66l0.1-0.6l0.1-0.6l0.2-0.7l0.2-0.7l0.2-0.6l0.3-0.6l0.3-0.5l0.4-0.5l0.4-0.4l0.4-0.4l0.4-0.3
			l0.4-0.3l0.5-0.3l0.5-0.2l0.5-0.2l0.5-0.1l0.5-0.1h1.2l0.3,0.1l0.3,0.1l0.3,0.1l0.2,0.1l0.2,0.1l0.2,0.1l0.2,0.2l0.2,0.2l0.1,0.2
			l0.1,0.2l0.1,0.2l0.1,0.2l0.1,0.2l0.1,0.1l0.9-4.8h3.3L152.5,71.7L152.5,71.7z"/>
		<path style="fill:none;stroke:#FFFFFF;stroke-width:0.22;stroke-miterlimit:2.61;" d="M152.5,71.7h-3.4l0.2-1.3v-0.1l-0.2,0.2
			l-0.2,0.2l-0.2,0.2l-0.2,0.2l-0.2,0.2l-0.2,0.1l-0.2,0.1l-0.2,0.1l-0.2,0.1l-0.2,0.1l-0.2,0.1h-1.2l-0.6-0.1l-0.6-0.1l-0.5-0.2
			l-0.5-0.3l-0.4-0.4l-0.4-0.4l-0.3-0.4l-0.3-0.5l-0.2-0.6l-0.2-0.6l-0.1-0.6l-0.1-0.6V66l0.1-0.6l0.1-0.6l0.2-0.7l0.2-0.7l0.2-0.6
			l0.3-0.6l0.3-0.5l0.4-0.5l0.4-0.4l0.4-0.4l0.4-0.3l0.4-0.3l0.5-0.3l0.5-0.2l0.5-0.2l0.5-0.1l0.5-0.1h1.2l0.3,0.1l0.3,0.1l0.3,0.1
			l0.2,0.1l0.2,0.1l0.2,0.1l0.2,0.2l0.2,0.2l0.1,0.2l0.1,0.2l0.1,0.2l0.1,0.2l0.1,0.2l0.1,0.1l0.9-4.8h3.3L152.5,71.7"/>
		<path style="fill:#FBB231;" d="M147,68.8h0.3l0.3-0.1l0.3-0.1l0.3-0.1l0.2-0.2l0.2-0.2L149,68l0.2-0.2l0.2-0.2l0.2-0.3l0.2-0.3
			l0.1-0.3l0.1-0.3l0.1-0.3l0.1-0.3l0.1-0.3l0.1-0.3v-1.3l-0.1-0.3l-0.1-0.3l-0.1-0.3l-0.1-0.2l-0.1-0.2l-0.2-0.2l-0.2-0.2l-0.2-0.2
			l-0.2-0.1l-0.2-0.1h-0.9l-0.3,0.1l-0.3,0.1l-0.2,0.2l-0.2,0.2l-0.2,0.2l-0.2,0.2l-0.2,0.3l-0.2,0.3l-0.2,0.3l-0.1,0.3l-0.1,0.3
			l-0.1,0.3l-0.1,0.3l-0.1,0.4l-0.1,0.5v0.6l0.1,0.6l0.1,0.6l0.2,0.5l0.3,0.4l0.4,0.3L147,68.8L147,68.8z"/>
		<path style="fill:#FFFFFF;" d="M72.5,69.1L72,71.7h-3.1l0.1-0.5l0.1-0.4l0.1-0.3l0.1-0.2L69,70.5l-0.2,0.2l-0.2,0.2L68.3,71
			L68,71.2l-0.3,0.2l-0.3,0.1l-0.3,0.1l-0.3,0.1l-0.4,0.1L66,71.9l-0.4,0.1h-1l-0.3-0.1l-0.4-0.1l-0.4-0.1l-0.3-0.2l-0.3-0.2
			l-0.3-0.2l-0.2-0.2l-0.2-0.2L62,70.4l-0.1-0.2l-0.1-0.3l-0.1-0.3l-0.1-0.3v-1.6l0.1-0.4l0.1-0.4l0.2-0.4l0.2-0.4l0.2-0.4l0.3-0.3
			l0.3-0.3l0.3-0.3l0.3-0.2l0.3-0.2l0.4-0.2l0.4-0.2l0.4-0.1l0.4-0.1l0.4-0.1h4v-0.1l0.1-0.2l0.1-0.3v-0.7l-0.1-0.2L69.8,62
			l-0.2-0.2l-0.2-0.2l-0.2-0.1l-0.3-0.1h-3l-0.4,0l-0.4,0l-0.3,0.1l-0.3,0.1l-0.3,0.1l-0.3,0.1l-0.2,0.1L63.5,62l-0.1,0.1l0.9-2.9
			l0.3-0.1l0.3-0.1l0.3-0.1l0.3-0.1l0.3-0.1l0.3,0l0.3,0H70l0.4,0.1l0.4,0.1l0.4,0.1l0.4,0.2l0.4,0.2l0.4,0.2l0.3,0.2l0.3,0.3
			l0.3,0.3l0.2,0.3l0.2,0.4l0.1,0.4l0.1,0.4v0.5l-0.1,0.5L72.5,69.1L72.5,69.1z"/>
		<path style="fill:none;stroke:#FFFFFF;stroke-width:0.22;stroke-miterlimit:2.61;" d="M72.5,69.1L72,71.7h-3.1l0.1-0.5l0.1-0.4
			l0.1-0.3l0.1-0.2L69,70.5l-0.2,0.2l-0.2,0.2L68.3,71L68,71.2l-0.3,0.2l-0.3,0.1l-0.3,0.1l-0.3,0.1l-0.4,0.1L66,71.9l-0.4,0.1h-1
			l-0.3-0.1l-0.4-0.1l-0.4-0.1l-0.3-0.2l-0.3-0.2l-0.3-0.2l-0.2-0.2l-0.2-0.2L62,70.4l-0.1-0.2l-0.1-0.3l-0.1-0.3l-0.1-0.3v-1.6
			l0.1-0.4l0.1-0.4l0.2-0.4l0.2-0.4l0.2-0.4l0.3-0.3l0.3-0.3l0.3-0.3l0.3-0.2l0.3-0.2l0.4-0.2l0.4-0.2l0.4-0.1l0.4-0.1l0.4-0.1h4
			v-0.1l0.1-0.2l0.1-0.3v-0.7l-0.1-0.2L69.8,62l-0.2-0.2l-0.2-0.2l-0.2-0.1l-0.3-0.1h-3l-0.4,0l-0.4,0l-0.3,0.1l-0.3,0.1l-0.3,0.1
			l-0.3,0.1l-0.2,0.1L63.5,62l-0.1,0.1l0.9-2.9l0.3-0.1l0.3-0.1l0.3-0.1l0.3-0.1l0.3-0.1l0.3,0l0.3,0H70l0.4,0.1l0.4,0.1l0.4,0.1
			l0.4,0.2l0.4,0.2l0.4,0.2l0.3,0.2l0.3,0.3l0.3,0.3l0.2,0.3l0.2,0.4l0.1,0.4l0.1,0.4v0.5l-0.1,0.5L72.5,69.1"/>
		<path style="fill:#EC1C2E;" d="M69.5,65.9L69.5,65.9l-0.1-0.1H67l-0.1,0.1l-0.1,0.1l-0.2,0.1L66.5,66l-0.2,0.1l-0.2,0.1L66,66.3
			l-0.2,0.1l-0.1,0.1l-0.1,0.2l-0.1,0.2l-0.1,0.2l-0.1,0.2v0.6l0.1,0.3l0.1,0.2l0.2,0.2l0.2,0.1l0.2,0.1h0.8L67,69h0.3l0.3-0.1
			l0.2-0.1l0.2-0.1l0.2-0.1l0.2-0.1l0.2-0.1l0.2-0.2l0.1-0.1l0.1-0.2l0.1-0.1l0.1-0.2l0.1-0.1v-0.1l0.1-0.3l0.1-0.4l0.1-0.4
			L69.5,65.9L69.5,65.9z"/>
		<path style="fill:#FFFFFF;" d="M46.9,71.7h-3.3l2.8-15.9h5.8l0.5,9.5l4-9.5h6l-2.8,15.9h-3.3l2.1-11.9h-0.1l-4.9,11.9h-3.7v-0.5
			l-0.1-1.3L49.6,68l-0.1-2.2l-0.1-2.2l-0.1-1.9l-0.1-1.4v-0.6H49L46.9,71.7z"/>
		<path style="fill:none;stroke:#FFFFFF;stroke-width:0.22;stroke-miterlimit:2.61;" d="M46.9,71.7h-3.3l2.8-15.9h5.8l0.5,9.5l4-9.5
			h6l-2.8,15.9h-3.3l2.1-11.9h-0.1l-4.9,11.9h-3.7v-0.5l-0.1-1.3L49.6,68l-0.1-2.2l-0.1-2.2l-0.1-1.9l-0.1-1.4v-0.6H49L46.9,71.7"/>
		<path style="fill:#FFFFFF;" d="M132.7,69.1l-0.5,2.7h-3.1v-1.4l-0.2,0.2l-0.2,0.2l-0.2,0.2l-0.2,0.2l-0.3,0.2l-0.3,0.2l-0.3,0.2
			l-0.3,0.1l-0.3,0.1l-0.3,0.1l-0.3,0.1l-0.3,0.1h-1l-0.3-0.1l-0.4-0.1l-0.4-0.1l-0.3-0.2l-0.3-0.2l-0.3-0.2l-0.2-0.2l-0.2-0.2
			l-0.2-0.2l-0.1-0.2l-0.1-0.3l-0.1-0.3l-0.1-0.3l-0.1-0.3v-1.3l0.1-0.4l0.1-0.4l0.2-0.4l0.2-0.4l0.2-0.4l0.2-0.3l0.3-0.3l0.3-0.3
			l0.3-0.2l0.4-0.2l0.4-0.2l0.4-0.2l0.4-0.1l0.4-0.1l0.4-0.1h4.2v-0.8l-0.1-0.3l-0.1-0.2L130,62l-0.2-0.2l-0.2-0.2l-0.3-0.1
			l-0.3-0.1h-2.9l-0.4,0l-0.4,0l-0.3,0.1l-0.3,0.1l-0.3,0.1l-0.3,0.1l-0.2,0.1l-0.2,0.1l-0.1,0.1l0.9-2.9l0.3-0.1l0.3-0.1l0.3-0.1
			l0.3-0.1l0.3-0.1l0.3,0l0.3,0h3.7l0.4,0.1l0.4,0.1l0.4,0.1l0.4,0.2l0.4,0.2l0.4,0.2l0.3,0.2l0.3,0.3l0.3,0.3l0.2,0.3l0.2,0.4
			l0.1,0.4l0.1,0.4v0.5l-0.1,0.5L132.7,69.1L132.7,69.1z M132.2,71.8L132.2,71.8l0.6-2.8h-0.1L132.2,71.8l0-0.2L132.2,71.8
			L132.2,71.8L132.2,71.8L132.2,71.8L132.2,71.8z M129.1,71.7L129.1,71.7l3.1,0.1v-0.2L129.1,71.7l0.2,0L129.1,71.7L129.1,71.7
			L129.1,71.7L129.1,71.7L129.1,71.7z M129.3,70.4l-0.1-0.1l-0.1,0.2v1.3h0.1L129.3,70.4l-0.1-0.1L129.3,70.4L129.3,70.4z
			 M124.6,71.9h1.7l0.3-0.1l0.3-0.1l0.3-0.1l0.3-0.1l0.3-0.2l0.3-0.1l0.3-0.2l0.3-0.2l0.2-0.2l0.2-0.2l0.2-0.2l-0.1-0.1l-0.2,0.2
			l-0.2,0.2l-0.2,0.2l-0.2,0.2l-0.3,0.1l-0.3,0.2l-0.3,0.1l-0.3,0.1l-0.3,0.1l-0.3,0.1l-0.3,0.1l-0.3,0.1h-1l-0.3-0.1L124.6,71.9z
			 M121.6,68.3v0.8l0.1,0.3l0.1,0.3l0.1,0.3l0.1,0.3l0.2,0.2l0.2,0.3l0.2,0.2l0.2,0.2l0.3,0.2l0.3,0.2l0.4,0.2l0.4,0.1l0.4,0.1v-0.2
			l-0.4-0.1l-0.4-0.1l-0.3-0.2l-0.3-0.2l-0.3-0.2l-0.2-0.2l-0.2-0.2l-0.2-0.2l-0.1-0.3l-0.1-0.2l-0.1-0.2l-0.1-0.3l-0.1-0.3v-0.8
			L121.6,68.3L121.6,68.3z M126,63.6l-0.4,0.1l-0.4,0.1l-0.4,0.1l-0.4,0.2l-0.4,0.2l-0.4,0.2l-0.3,0.2l-0.3,0.3l-0.3,0.3l-0.2,0.3
			l-0.2,0.4l-0.2,0.4l-0.2,0.4l-0.1,0.4l-0.1,0.5v0.5h0.2v-0.5l0.1-0.4l0.1-0.4l0.2-0.4l0.2-0.4l0.2-0.3l0.3-0.3l0.3-0.3l0.3-0.3
			l0.3-0.2l0.3-0.2l0.4-0.2l0.4-0.2l0.4-0.1l0.4-0.1l0.4-0.1L126,63.6L126,63.6z M128.5,63.3H126v0.2h2.5V63.3z M130.1,63.5
			L130.1,63.5l-1.6-0.1v0.2h1.7l0.1-0.1l-0.1,0.1h0.1v-0.1L130.1,63.5z M130.3,62.7v0.8h0.1v-0.8L130.3,62.7L130.3,62.7z
			 M128.8,61.5h0.3l0.2,0.1l0.2,0.1l0.2,0.1L130,62l0.1,0.2l0.1,0.2l0.1,0.2h0.1v-0.3l-0.1-0.3l-0.2-0.2l-0.2-0.2l-0.2-0.2l-0.3-0.1
			l-0.3-0.1h-0.3L128.8,61.5L128.8,61.5z M123.6,62.1l0.1,0.1l0.1-0.1L124,62l0.2-0.1l0.3-0.1l0.3-0.1l0.3-0.1l0.4-0.1h0.3l0.4,0
			h2.6v-0.2h-2.7l-0.4,0l-0.4,0l-0.3,0.1l-0.3,0.1l-0.3,0.1l-0.3,0.1l-0.2,0.1l-0.2,0.1L123.6,62.1l0.1,0.1L123.6,62.1L123.6,62.1z
			 M124.5,59.1L124.5,59.1l-0.9,3h0.2L124.5,59.1l0,0.1L124.5,59.1L124.5,59.1L124.5,59.1z M129.9,58.5h-3.7l-0.3,0l-0.3,0.1
			l-0.3,0.1l-0.3,0.1l-0.3,0.1l-0.3,0.1l0.1,0.1l0.3-0.1l0.3-0.1l0.3-0.1l0.3-0.1l0.3-0.1l0.3,0l0.3,0L129.9,58.5L129.9,58.5
			L129.9,58.5z M134.1,62.6l0.1-0.5v-0.5l-0.1-0.4l-0.1-0.4l-0.2-0.4l-0.2-0.3l-0.3-0.3l-0.3-0.3l-0.4-0.2l-0.4-0.2l-0.4-0.2
			l-0.4-0.1l-0.4-0.1l-0.4-0.1l-0.4-0.1h-0.3v0.1h0.3l0.4,0.1l0.4,0.1l0.4,0.1l0.4,0.2l0.4,0.2l0.4,0.2l0.3,0.2l0.3,0.3l0.3,0.3
			l0.2,0.3l0.2,0.4l0.1,0.4l0.1,0.4v0.5l-0.1,0.5L134.1,62.6L134.1,62.6z M132.8,69.1l1.3-6.4h-0.1l-1.3,6.4L132.8,69.1z"/>
		<path style="fill:#FBB231;" d="M129.8,65.9L129.8,65.9l-0.1-0.1h-2.6L127,66l-0.2,0.1l-0.2,0.1l-0.2,0.1l-0.2,0.1l-0.2,0.1
			l-0.2,0.1l-0.1,0.1l-0.1,0.2l-0.1,0.2l-0.1,0.2l-0.1,0.2V68l0.1,0.3l0.1,0.2l0.1,0.2l0.2,0.1l0.2,0.1h1.1l0.3-0.1l0.3-0.1l0.3-0.1
			l0.2-0.1l0.2-0.1l0.2-0.1l0.2-0.1l0.1-0.2l0.1-0.2l0.1-0.2l0.1-0.1l0.1-0.2l0.1-0.2v-0.1l0.1-0.3l0.1-0.3l0.1-0.3L129.8,65.9
			L129.8,65.9z"/>
		<path style="fill:#FFFFFF;" d="M154.8,70.1v-0.3l0.1-0.3l0.2-0.3l0.2-0.3l0.2-0.2l0.3-0.2l0.3-0.1h0.7l0.3,0.1l0.3,0.2l0.2,0.2
			l0.2,0.3l0.2,0.3l0.1,0.3v0.3h-0.4v-0.2l-0.1-0.3l-0.1-0.2l-0.2-0.2l-0.2-0.2l-0.2-0.1l-0.3-0.1h-0.6l-0.3,0.1l-0.2,0.1l-0.2,0.2
			l-0.2,0.2l-0.1,0.2l-0.1,0.3v0.2H154.8z M155.9,70.1v-0.7h1.1l0.1,0.1l0.1,0.1l0.1,0.1V70h-0.5h0.1h0.1h0.1h0.1h0.1v-0.3h-0.6v0.5
			H156L155.9,70.1z M154.8,70.1v0.4l0.1,0.3l0.2,0.3l0.2,0.2l0.2,0.2l0.3,0.2l0.3,0.1h0.7l0.3-0.1l0.3-0.2l0.2-0.2l0.2-0.2l0.2-0.3
			l0.1-0.3v-0.4h-0.4v0.4l-0.1,0.3l-0.1,0.2l-0.2,0.2l-0.2,0.2l-0.2,0.1l-0.3,0.1h-0.6l-0.3-0.1l-0.2-0.1l-0.2-0.2l-0.2-0.2
			l-0.1-0.2l-0.1-0.3v-0.4H154.8z M155.9,70.1v0.7h0.3v-0.6h0.3l0.4,0.6h0.2l-0.4-0.6h0.2l0.1-0.1L155.9,70.1L155.9,70.1z"/>
		<path style="fill:none;stroke:#FFFFFF;stroke-width:0.22;stroke-miterlimit:2.61;" d="M154.8,70.2v-0.3l0.1-0.3l0.2-0.3l0.2-0.2
			l0.2-0.2l0.3-0.2l0.3-0.1h0.7l0.3,0.1l0.3,0.2l0.2,0.2l0.2,0.2l0.2,0.3l0.1,0.3v0.7l-0.1,0.3l-0.2,0.3l-0.2,0.2l-0.2,0.2l-0.3,0.2
			l-0.3,0.1h-0.7l-0.3-0.1l-0.3-0.2l-0.2-0.2l-0.2-0.2l-0.2-0.3l-0.1-0.3V70.2 M156.2,70.8h-0.3v-1.5h1.1l0.1,0.1V70h-0.3l0.4,0.6
			h-0.2l-0.4-0.6h-0.3v0.6 M156.5,69.9h0.3v-0.2h-0.6v0.5h0.3 M156.5,71.6h0.3l0.3-0.1l0.2-0.1l0.2-0.2l0.2-0.2l0.1-0.2l0.1-0.3
			v-0.6l-0.1-0.3l-0.1-0.2l-0.2-0.2l-0.2-0.2l-0.2-0.1l-0.3-0.1h-0.6l-0.3,0.1l-0.2,0.1l-0.2,0.2l-0.2,0.2l-0.1,0.2l-0.1,0.3v0.6
			l0.1,0.3l0.1,0.2l0.2,0.2l0.2,0.2l0.2,0.1l0.3,0.1H156.5"/>
		<path style="fill:#FFFFFF;" d="M133.6,71.7h3.4l1.2-6.9l0.1-0.3l0.1-0.3l0.1-0.3l0.1-0.3l0.1-0.3l0.1-0.3L139,63l0.2-0.2l0.2-0.2
			l0.2-0.2l0.3-0.2l0.3-0.1l0.4-0.1l0.4-0.1l0.4-0.1h0.8l0.6-3.1h-0.7l-0.3,0.1l-0.3,0.1l-0.3,0.1L141,59l-0.2,0.1l-0.2,0.1
			l-0.2,0.2l-0.2,0.2l-0.2,0.2l-0.2,0.2l-0.2,0.2l-0.2,0.2l-0.2,0.2l-0.2,0.2l0.4-2.2h-3.4L133.6,71.7L133.6,71.7z"/>
		<path style="fill:none;stroke:#FFFFFF;stroke-width:0.22;stroke-miterlimit:2.61;" d="M133.6,71.7h3.4l1.2-6.9l0.1-0.3l0.1-0.3
			l0.1-0.3l0.1-0.3l0.1-0.3l0.1-0.3L139,63l0.2-0.2l0.2-0.2l0.2-0.2l0.3-0.2l0.3-0.1l0.4-0.1l0.4-0.1l0.4-0.1h0.8l0.6-3.1h-0.7
			l-0.3,0.1l-0.3,0.1l-0.3,0.1L141,59l-0.2,0.1l-0.2,0.1l-0.2,0.2l-0.2,0.2l-0.2,0.2l-0.2,0.2l-0.2,0.2l-0.2,0.2l-0.2,0.2l-0.2,0.2
			l0.4-2.2h-3.4L133.6,71.7"/>
		<path style="fill:#FFFFFF;" d="M101.5,71.7h3.5l1.2-6.9l0.1-0.3l0.1-0.2l0.1-0.3l0.1-0.2l0.1-0.2l0.1-0.2l0.1-0.2l0.2-0.2l0.2-0.2
			l0.2-0.2l0.3-0.2l0.3-0.1l0.3-0.1l0.4-0.1L109,62h0.8v-0.2l0.1-0.2l0.1-0.3L110,61l0.1-0.3l0.1-0.3l0.1-0.3l0.1-0.2l0.1-0.2
			l0.1-0.2l0.1-0.2l0.1-0.2l0.1-0.2l0.1-0.1h0h-0.1h-0.3h-0.4h-0.3l-0.3,0.1l-0.3,0.1l-0.3,0.1l-0.2,0.1l-0.2,0.1l-0.2,0.1l-0.2,0.2
			l-0.2,0.2l-0.2,0.2l-0.2,0.2l-0.2,0.2l-0.2,0.2l-0.2,0.2l-0.2,0.2l0.4-2.2h-3.5L101.5,71.7L101.5,71.7z"/>
		<path style="fill:none;stroke:#FFFFFF;stroke-width:0.22;stroke-miterlimit:2.61;" d="M101.5,71.7h3.5l1.2-6.9l0.1-0.3l0.1-0.2
			l0.1-0.3l0.1-0.2l0.1-0.2l0.1-0.2l0.1-0.2l0.2-0.2l0.2-0.2l0.2-0.2l0.3-0.2l0.3-0.1l0.3-0.1l0.4-0.1L109,62h0.8v-0.2l0.1-0.2
			l0.1-0.3L110,61l0.1-0.3l0.1-0.3l0.1-0.3l0.1-0.2l0.1-0.2l0.1-0.2l0.1-0.2l0.1-0.2l0.1-0.2l0.1-0.1h0h-0.1h-0.3h-0.4h-0.3
			l-0.3,0.1l-0.3,0.1l-0.3,0.1l-0.2,0.1l-0.2,0.1l-0.2,0.1l-0.2,0.2l-0.2,0.2l-0.2,0.2l-0.2,0.2l-0.2,0.2l-0.2,0.2l-0.2,0.2
			l-0.2,0.2l0.4-2.2h-3.5L101.5,71.7"/>
		<path style="fill:#FBB231;" d="M154.8,84.5L154.8,84.5l0.1-0.4l0.2-0.3l0.2-0.2l0.2-0.2l0.3-0.2l0.3-0.1h0.7l0.3,0.1l0.3,0.2
			l0.2,0.2l0.2,0.2l0.2,0.3l0.1,0.3v0.1h-0.4l-0.1-0.3l-0.1-0.2l-0.2-0.2l-0.2-0.2l-0.2-0.1l-0.3-0.1h-0.6l-0.3,0.1l-0.2,0.1
			l-0.2,0.2l-0.2,0.2l-0.1,0.2l-0.1,0.3H154.8z M155.9,84.5v-0.4h1.1l0.1,0.1l0.1,0.1l0.1,0.1v0.2h-0.2v-0.2h-0.6v0.2L155.9,84.5
			L155.9,84.5z M154.8,84.8v-0.3h0.4v0.2L154.8,84.8z M155.9,84.8v-0.3h0.3v0.2h0.7v-0.1h0.2v0.2h-1.2V84.8z M157.9,84.8v-0.2h0.4
			v0.3L157.9,84.8z M154.8,84.8v0.3l0.1,0.3l0.2,0.3l0.2,0.3l0.2,0.2l0.3,0.2l0.3,0.1h0.7l0.3-0.1l0.3-0.2l0.2-0.2l0.2-0.3l0.2-0.3
			l0.1-0.3v-0.3h-0.4v0.3l-0.1,0.3l-0.1,0.2l-0.2,0.2l-0.2,0.2l-0.2,0.1l-0.3,0.1h-0.6l-0.3-0.1l-0.2-0.1l-0.2-0.2l-0.2-0.2
			l-0.1-0.2l-0.1-0.3v-0.3H154.8z M155.9,84.8v0.7h0.3v-0.6h0.3l0.4,0.6h0.2l-0.4-0.6h0.2l0.1-0.1L155.9,84.8z"/>
		<path style="fill:#FFFFFF;" d="M101.9,62.6l-0.1-0.7l-0.2-0.6l-0.2-0.6l-0.3-0.5l-0.4-0.4l-0.4-0.3l-0.4-0.3l-0.5-0.2l-0.5-0.2
			l-0.5-0.1l-0.5-0.1h-1l-1,0L95,58.7L94.2,59l-0.7,0.3l-0.6,0.4L92.4,60l-0.5,0.5L91.5,61l-0.3,0.5L90.9,62l-0.2,0.5l-0.2,0.5
			l-0.1,0.5L90.3,64l-0.1,0.4v0.4l-0.1,1v0.9l0.1,0.8l0.2,0.7l0.3,0.6l0.3,0.6l0.4,0.5l0.5,0.4l0.5,0.3l0.6,0.3l0.6,0.2l0.6,0.2
			l0.6,0.2l0.6,0.1l0.6,0.1h3.4l0.2-0.1l0.2-0.1l0.2-0.1l0.2-0.1l0.2-0.1l0.2-0.1l0.5-3l-0.4,0.2l-0.3,0.2l-0.3,0.2L99.7,69
			l-0.3,0.1L99,69.2l-0.3,0.1h-3.1l-0.2-0.1L95.1,69l-0.2-0.1l-0.2-0.1l-0.2-0.2l-0.2-0.2l-0.2-0.2L93.9,68l-0.1-0.2l-0.1-0.2v-1.4
			h7.9l0.1-0.7l0.2-1l0.1-0.9L101.9,62.6z M98.6,63.7h-4.4v-0.2l0.1-0.2l0.1-0.2l0.1-0.2l0.1-0.2l0.1-0.2l0.1-0.2l0.2-0.2l0.2-0.2
			l0.2-0.2l0.2-0.1l0.2-0.1l0.2-0.1l0.2-0.1l0.2,0h1.1l0.2,0.1l0.2,0.1l0.2,0.1l0.2,0.1l0.1,0.2l0.1,0.2l0.1,0.2l0.1,0.2l0.1,0.2
			v0.8L98.6,63.7z"/>
	</g>
</g>
</svg>
