<svg xmlns="http://www.w3.org/2000/svg" viewBox="0 0 364 364"><title>question-gray</title><g id="Layer_2" data-name="Layer 2"><g id="Layer_1-2" data-name="Layer 1"><path d="M182,0A182,182,0,1,0,364,182,182,182,0,0,0,182,0Zm21.89,285.81H162.2v-40.3h41.69ZM243.66,168.4q-5.28,7.53-20.3,19.24l-9.87,7.67q-8.07,6.27-10.71,14.64-1.67,5.3-1.81,16.45H163.18q.83-23.56,4.45-32.56t18.63-20.71l10.15-7.95a35.53,35.53,0,0,0,8.06-8.23A28.11,28.11,0,0,0,210,140.1a32.6,32.6,0,0,0-6.19-19.31q-6.19-8.71-22.6-8.72-16.14,0-22.89,10.74a41.37,41.37,0,0,0-6.75,22.31H111.3q1.67-39.74,27.75-56.33,16.45-10.6,40.44-10.6,31.51,0,52.36,15.06t20.85,44.62Q252.7,156,243.66,168.4Z" style="fill:#ddd"/></g></g></svg>