<?xml version="1.0" encoding="UTF-8" standalone="no"?><!DOCTYPE svg PUBLIC "-//W3C//DTD SVG 1.1//EN" "http://www.w3.org/Graphics/SVG/1.1/DTD/svg11.dtd"><svg width="100%" height="100%" viewBox="0 0 38 38" version="1.1" xmlns="http://www.w3.org/2000/svg" xmlns:xlink="http://www.w3.org/1999/xlink" xml:space="preserve" xmlns:serif="http://www.serif.com/" style="fill-rule:evenodd;clip-rule:evenodd;stroke-linejoin:round;stroke-miterlimit:2;"><path d="M25.781,13.698c-0.86,0 -1.557,-0.696 -1.557,-1.557c-0,-0.86 0.697,-1.557 1.557,-1.557c0.86,0 1.558,0.697 1.558,1.557c-0,0.861 -0.698,1.557 -1.558,1.557m-6.922,11.964c-3.607,0 -6.54,-2.934 -6.54,-6.541c-0,-3.606 2.933,-6.54 6.54,-6.54c3.606,-0 6.54,2.934 6.54,6.54c0,3.607 -2.934,6.541 -6.54,6.541m5.193,-17.321l-10.603,-0c-3.022,-0 -5.479,2.457 -5.479,5.479l-0,10.603c-0,3.022 2.457,5.479 5.479,5.479l10.603,0c3.021,0 5.479,-2.457 5.479,-5.479l-0,-10.603c-0,-3.022 -2.458,-5.479 -5.479,-5.479" style="fill:#fff;fill-rule:nonzero;"/><path d="M18.859,14.931c-2.31,0 -4.19,1.881 -4.19,4.19c0,2.311 1.88,4.189 4.19,4.189c2.31,0 4.19,-1.878 4.19,-4.189c-0,-2.309 -1.88,-4.19 -4.19,-4.19" style="fill:#fff;fill-rule:nonzero;"/><path d="M32.03,24.423c-0,4.399 -3.58,7.978 -7.978,7.978l-10.604,0c-4.399,0 -7.978,-3.579 -7.978,-7.978l0,-10.603c0,-4.4 3.579,-7.978 7.978,-7.978l10.604,-0c4.398,-0 7.978,3.578 7.978,7.978l-0,10.603Zm-4.339,-24.422l-17.882,-0.001c-5.394,-0 -9.809,4.415 -9.809,9.81l-0,17.881c-0,5.396 4.415,9.81 9.809,9.81l17.882,0.001c5.395,-0 9.809,-4.415 9.809,-9.811l-0,-17.881c-0,-5.395 -4.414,-9.809 -9.809,-9.809" style="fill:#fff;fill-rule:nonzero;"/></svg>