<?xml version="1.0" encoding="UTF-8" standalone="no"?><!DOCTYPE svg PUBLIC "-//W3C//DTD SVG 1.1//EN" "http://www.w3.org/Graphics/SVG/1.1/DTD/svg11.dtd"><svg width="100%" height="100%" viewBox="0 0 209 209" version="1.1" xmlns="http://www.w3.org/2000/svg" xmlns:xlink="http://www.w3.org/1999/xlink" xml:space="preserve" xmlns:serif="http://www.serif.com/" style="fill-rule:evenodd;clip-rule:evenodd;stroke-linejoin:round;stroke-miterlimit:2;"><path d="M160.387,36.248l-0.143,-0c-6.888,-0 -12.457,5.575 -12.5,12.468c-0.057,6.869 5.431,12.475 12.375,12.557l0.012,-0c6.938,-0.007 12.588,-5.613 12.631,-12.469c0.057,-6.956 -5.506,-12.556 -12.375,-12.556" style="fill:#77c1d3;fill-rule:nonzero;"/><path d="M187.182,156.45c-2.906,18.25 -15.038,29.55 -33.388,31.556c-8.075,0.881 -29.537,1.575 -51.406,1.575c-23.75,0 -47.975,-0.812 -56.062,-3.075c-14.957,-4.187 -23.413,-14.487 -25.725,-29.469c-2.238,-14.4 -2.282,-86.056 0.712,-105.225c2.906,-18.081 15.125,-29.3 33.306,-31.387c9.088,-0.988 29.75,-1.55 50.507,-1.55c21.512,-0 43.137,0.606 52.118,1.969c18.144,2.843 29.35,14.9 31.219,33.231c1.713,17.156 1.706,84.037 -1.281,102.375m20.044,-104.131c-1.319,-13.725 -6.494,-25.869 -16.638,-35.582c-10.631,-10.206 -23.744,-14.818 -38.05,-15.568c-11.819,-0.644 -31.444,-1.169 -50.906,-1.169c-20.913,-0 -41.638,0.606 -52.231,2.344c-23.382,3.85 -38.807,17.412 -45.425,40.512c-5.075,17.744 -4.775,99.444 -1.982,117.025c3.757,23.944 17.869,39.344 41.513,45.45c8.319,2.163 33.106,3.075 57.919,3.075c24.243,0 48.512,-0.869 57.5,-2.319c24.056,-3.85 39.568,-17.912 46.031,-41.687c4.819,-18.163 3.819,-95.675 2.269,-112.081" style="fill:#77c1d3;fill-rule:nonzero;"/><path d="M103.918,138.786l-0.312,0c-19.088,-0.162 -34.282,-15.818 -33.963,-34.906c0.3,-18.981 15.913,-34.237 34.85,-34.237l0.319,-0c19.075,0.168 34.275,15.737 33.962,34.906c-0.312,18.987 -15.912,34.237 -34.856,34.237m0.781,-87.975c-29.55,-0.087 -53.675,23.85 -53.893,53.407c-0.232,29.543 23.443,53.487 52.987,53.487c29.556,0 53.675,-23.944 53.9,-53.406c0.231,-29.55 -23.525,-53.488 -52.994,-53.488" style="fill:#77c1d3;fill-rule:nonzero;"/></svg>