<?xml version="1.0" encoding="UTF-8" standalone="no"?><!DOCTYPE svg PUBLIC "-//W3C//DTD SVG 1.1//EN" "http://www.w3.org/Graphics/SVG/1.1/DTD/svg11.dtd"><svg width="100%" height="100%" viewBox="0 0 116 219" version="1.1" xmlns="http://www.w3.org/2000/svg" xmlns:xlink="http://www.w3.org/1999/xlink" xml:space="preserve" xmlns:serif="http://www.serif.com/" style="fill-rule:evenodd;clip-rule:evenodd;stroke-linejoin:round;stroke-miterlimit:2;"><path d="M86.3,-0c5.85,-0 11.738,0.319 17.575,0.581c3.806,0.156 7.606,0.7 11.188,1.094l-0.269,35.219l-2.806,-0c-3.863,-0 -7.725,-0.044 -11.594,-0.044c-2.9,-0 -5.8,0.019 -8.7,0.125c-9.331,0.312 -16.2,3.806 -16.681,15.475c-0.3,8.394 -0.513,26.937 -0.525,27.912c0.487,0 9.712,0.038 18.993,0.038c4.65,-0 9.182,-0.013 12.344,-0.038l7.544,0c-1.894,13.532 -3.619,26.525 -5.513,39.582l-33.356,-0l-0.756,98.837l-40.975,0l0.75,-98.987l-33.519,-0l0.3,-39.35l33.675,-0l0.025,-2.957c0.063,-7.931 -0.037,-15.862 0.256,-23.793c0.113,-4.975 0.388,-10.107 1.282,-15.088c2.268,-12.056 7.868,-22.162 17.956,-29.394c8.831,-6.3 18.881,-8.943 29.544,-9.175c1.081,-0.025 2.168,-0.037 3.262,-0.037" style="fill:#77c1d3;fill-rule:nonzero;"/></svg>