<?xml version="1.0" encoding="UTF-8" standalone="no"?><!DOCTYPE svg PUBLIC "-//W3C//DTD SVG 1.1//EN" "http://www.w3.org/Graphics/SVG/1.1/DTD/svg11.dtd"><svg width="100%" height="100%" viewBox="0 0 900 165" version="1.1" xmlns="http://www.w3.org/2000/svg" xmlns:xlink="http://www.w3.org/1999/xlink" xml:space="preserve" xmlns:serif="http://www.serif.com/" style="fill-rule:evenodd;clip-rule:evenodd;stroke-linejoin:round;stroke-miterlimit:2;"><path d="M819.532,82.461l80.468,-82.461l-819.517,-0l-80.483,82.461l80.483,82.475l819.517,0l-80.468,-82.475Z" style="fill:#005f89;fill-rule:nonzero;"/><g><path d="M235.529,29.041c0,-2.391 1.122,-3.586 3.367,-3.586l10.563,-0c2.322,-0 3.483,1.157 3.483,3.47l-0,2.545c-0,1.928 0.967,2.892 2.902,2.892l37.262,-0c2.322,-0 3.482,1.156 3.482,3.47l0,6.709c0,2.313 -1.16,3.47 -3.482,3.47l-37.262,0c-1.935,0 -2.902,0.964 -2.902,2.892l-0,12.493c-0,1.928 0.967,2.892 2.902,2.892l40.512,-0c2.322,-0 3.483,1.156 3.483,3.47l-0,6.709c-0,2.313 -1.161,3.47 -3.483,3.47l-40.512,0c-1.935,0 -2.902,0.964 -2.902,2.892l-0,9.254c-0,1.928 0.967,2.892 2.902,2.892l35.869,-0c2.322,-0 3.482,1.156 3.482,3.47l0,6.709c0,2.313 -1.16,3.47 -3.482,3.47l-35.869,0c-1.935,0 -2.902,0.964 -2.902,2.892l-0,8.791c-0,1.928 0.967,2.892 2.902,2.892l40.512,0c2.322,0 3.483,1.157 3.483,3.47l-0,6.709c-0,2.314 -1.161,3.47 -3.483,3.47l-78.007,0c-1.548,-0.308 -3.095,-0.771 -4.643,-1.388c-2.477,-1.465 -4.798,-1.503 -6.965,-0.115c-3.096,1.542 -7.429,2.043 -13.001,1.503c-2.322,0 -3.676,-1.156 -4.063,-3.47l-0.929,-5.783c-0.541,-2.931 -0.387,-4.396 0.465,-4.396c4.333,-0.231 6.229,-2.313 5.688,-6.246l-0,-23.713c-0,-2.314 1.16,-3.471 3.482,-3.471l9.983,0c2.322,0 3.483,1.157 3.483,3.471l-0,20.127c-0,1.851 0.464,3.547 1.393,5.089c2.708,3.702 5.881,5.283 9.518,4.743l9.867,0c1.935,0 2.902,-0.964 2.902,-2.892l0,-37.478c0,-1.928 -0.967,-2.892 -2.902,-2.892l-41.093,0c-2.321,0 -3.482,-1.157 -3.482,-3.47l-0,-6.709c-0,-2.314 1.161,-3.47 3.482,-3.47l41.093,-0c1.935,-0 2.902,-0.964 2.902,-2.892l0,-12.493c0,-1.928 -0.967,-2.892 -2.902,-2.892l-37.843,0c-2.321,0 -3.482,-1.157 -3.482,-3.47l0,-6.709c0,-2.314 1.161,-3.47 3.482,-3.47l37.843,-0c1.935,-0 2.902,-0.964 2.902,-2.892l0,-2.429Z" style="fill:#fff;fill-rule:nonzero;"/><path d="M326.352,29.735c-1.239,-2.545 -0.852,-3.817 1.16,-3.817l10.796,-0c2.322,-0 4.024,1.156 5.108,3.47c1.393,2.699 3.056,4.048 4.991,4.048c2.167,0 3.87,-1.156 5.108,-3.47c1.47,-2.699 3.211,-4.048 5.223,-4.048l10.448,-0c2.321,-0 2.941,1.156 1.857,3.47l-0.464,1.041c-0.929,2.005 -0.116,3.007 2.438,3.007c2.476,0 3.714,1.157 3.714,3.471l0,4.858c0,2.313 -1.161,3.47 -3.482,3.47l-13.582,0c-1.935,0 -2.902,0.964 -2.902,2.892l0,15.269c0,1.928 0.967,2.892 2.902,2.892c2.244,0.385 4.024,-0.579 5.34,-2.892c0.232,-2.391 0.309,-4.82 0.232,-7.288c0,-2.313 1.161,-3.47 3.483,-3.47l3.018,0c2.321,0 3.482,1.157 3.482,3.47l0,14.807c-0.155,3.855 -2.283,6.169 -6.384,6.94c-3.019,0.231 -6.075,0.308 -9.171,0.231c-1.935,0 -2.902,0.964 -2.902,2.892c0.232,4.627 0.039,7.75 -0.58,9.37c-1.316,3.778 -3.986,6.015 -8.01,6.709l-22.752,-0c-2.322,-0 -3.676,-1.157 -4.063,-3.47l-0.464,-3.471c-0.465,-2.622 0.464,-3.933 2.786,-3.933l9.054,0c4.489,0.386 6.655,-1.542 6.501,-5.783c-0,-1.543 -0.968,-2.314 -2.902,-2.314l-12.189,0c-2.322,0 -3.482,-1.156 -3.482,-3.47l-0,-18.508c-0,-2.313 1.16,-3.47 3.482,-3.47l3.018,0c2.322,0 3.483,1.157 3.483,3.47l-0,7.288c-0,1.928 0.967,2.892 2.902,2.892l2.786,-0c1.934,-0 2.902,-0.964 2.902,-2.892l-0,-15.269c-0,-1.928 -0.968,-2.892 -2.902,-2.892l-14.162,0c-2.322,0 -3.483,-1.157 -3.483,-3.47l0,-4.858c0,-2.314 1.161,-3.471 3.483,-3.471l3.134,0c1.935,0 2.283,-1.234 1.045,-3.701Zm56.299,1.156c0,-2.39 1.122,-3.585 3.367,-3.585l37.959,-0c2.321,-0 3.482,1.156 3.482,3.47l-0,57.027c-0.464,5.012 -3.096,7.866 -7.894,8.56c-2.166,0.231 -4.372,0.308 -6.616,0.231c-2.322,0 -3.715,-1.157 -4.179,-3.47l-0.929,-4.28c-0.309,-1.928 -0.155,-3.008 0.464,-3.239c2.09,-1.157 2.825,-3.085 2.206,-5.784c0,-2.082 -0.967,-3.123 -2.902,-3.123l-5.108,0c-1.934,0 -2.902,0.964 -2.902,2.892l0,8.676c0,1.927 -0.735,3.855 -2.205,5.783c-2.709,2.545 -6.346,3.548 -10.912,3.008c-1.935,-0 -2.902,0.964 -2.902,2.892l0,2.544c0,1.928 0.967,2.892 2.902,2.892l36.914,0c2.322,0 3.483,1.157 3.483,3.47l-0,4.396c-0,2.314 -1.161,3.47 -3.483,3.47l-36.914,0c-1.935,0 -2.902,0.964 -2.902,2.892l0,2.545c0,1.928 0.967,2.892 2.902,2.892l40.513,-0c2.321,-0 3.482,1.157 3.482,3.47l0,4.858c0,2.314 -1.161,3.47 -3.482,3.47l-104.822,0c-2.322,0 -3.483,-1.156 -3.483,-3.47l0,-4.858c0,-2.313 1.161,-3.47 3.483,-3.47l41.093,-0c1.934,-0 2.902,-0.964 2.902,-2.892l-0,-2.545c-0,-1.928 -0.968,-2.892 -2.902,-2.892l-36.914,0c-2.322,0 -3.483,-1.156 -3.483,-3.47l0,-4.396c0,-2.313 1.161,-3.47 3.483,-3.47l36.914,0c1.934,0 2.902,-0.964 2.902,-2.892l-0,-1.966c-0,-2.313 1.161,-3.47 3.482,-3.47l7.894,-0c1.934,-0 2.67,-1.234 2.205,-3.702l-0.464,-3.239c-0.542,-2.622 -0.387,-3.971 0.464,-4.048c2.477,-0.617 3.444,-2.429 2.902,-5.437l0,-49.74Zm27.86,11.336c0,-2.005 -0.929,-3.007 -2.786,-3.007l-5.224,-0c-1.934,-0 -2.902,0.964 -2.902,2.892l0,2.66c0,1.928 0.968,2.892 2.902,2.892l5.108,0c1.935,0 2.902,-0.964 2.902,-2.892l0,-2.545Zm0,18.508c0,-2.005 -0.929,-3.007 -2.786,-3.007l-5.224,-0c-1.934,-0 -2.902,0.964 -2.902,2.892l0,3.238c0,1.928 0.968,2.892 2.902,2.892l5.108,0c1.935,0 2.902,-0.964 2.902,-2.892l0,-3.123Z" style="fill:#fff;fill-rule:nonzero;"/><path d="M453.624,30.891c-0,-2.39 1.122,-3.585 3.366,-3.585l100.643,-0c2.322,-0 3.483,1.156 3.483,3.47l-0,4.974c-0,2.313 -0.581,3.47 -1.742,3.47c-1.238,-0 -1.857,0.964 -1.857,2.892c1.006,4.55 -0.89,8.213 -5.688,10.989c-1.78,0.617 -2.67,1.928 -2.67,3.933c0,2.159 0.967,3.239 2.902,3.239l5.224,-0c2.322,-0 3.482,1.156 3.482,3.47l0,3.007c0,2.314 -1.16,3.471 -3.482,3.471l-5.224,-0c-1.935,-0 -2.902,0.963 -2.902,2.891l0,19.086c0,2.314 -1.161,3.471 -3.482,3.471l-9.635,-0c-2.322,-0 -3.483,-1.157 -3.483,-3.471l0,-19.086c0,-1.928 -0.967,-2.891 -2.902,-2.891l-4.411,-0c-2.321,-0 -3.482,-1.157 -3.482,-3.471l-0,-3.007c-0,-2.314 1.161,-3.47 3.482,-3.47l4.411,-0c1.935,-0 2.902,-1.119 2.902,-3.355c0,-2.236 -0.967,-3.354 -2.902,-3.354l-1.857,-0c-2.322,-0 -3.676,-1.157 -4.063,-3.471l-0.232,-1.156c-0.31,-2.314 0.697,-3.471 3.018,-3.471l11.957,0c2.399,-0.617 3.559,-1.966 3.482,-4.048c-0.077,-1.465 -1.083,-2.198 -3.018,-2.198l-22.172,-0c-1.934,-0 -2.902,1.272 -2.902,3.817c0.697,5.321 -1.548,8.946 -6.733,10.874c-1.47,0.077 -2.205,1.233 -2.205,3.47c-0,2.236 0.967,3.354 2.902,3.354l3.947,0c2.321,0 3.482,1.157 3.482,3.47l0,3.008c0,2.313 -1.161,3.47 -3.482,3.47l-3.947,0c-1.935,0 -2.902,0.964 -2.902,2.892l-0,18.623c-0,2.314 -1.161,3.471 -3.483,3.471l-9.518,-0c-2.322,-0 -3.483,-1.157 -3.483,-3.471l0,-18.623c0,-1.928 -0.967,-2.892 -2.902,-2.892l-5.34,0c-2.321,0 -3.482,-1.157 -3.482,-3.47l0,-3.008c0,-2.313 1.161,-3.47 3.482,-3.47l5.34,0c1.935,0 2.902,-1.118 2.902,-3.354c0,-2.237 -0.967,-3.355 -2.902,-3.355l-3.714,0c-2.322,0 -3.676,-1.157 -4.063,-3.47l-0.232,-1.157c-0.387,-2.313 0.58,-3.47 2.902,-3.47l11.724,0c3.715,0.694 5.727,-0.925 6.036,-4.858c0,-1.234 -0.967,-1.851 -2.902,-1.851l-21.243,-0c-1.935,-0 -2.902,0.964 -2.902,2.892l0,85.714c-0.309,4.087 -2.128,6.825 -5.456,8.213c-1.934,0.694 -5.533,0.925 -10.795,0.694c-2.322,-0 -3.676,-1.157 -4.063,-3.47l-0.929,-5.784c-0.542,-2.853 -0.503,-4.28 0.116,-4.28c3.018,-0.463 4.218,-2.313 3.599,-5.552l-0,-86.756Zm26.002,49.856c0,-2.391 0.735,-3.586 2.206,-3.586c1.47,-0 2.205,1.157 2.205,3.47l0,10.064c-1.083,3.161 -2.941,4.511 -5.572,4.048c-1.315,0 -2.167,-1.156 -2.554,-3.47l-0.116,-1.272c-0.387,-2.314 -0.232,-3.471 0.465,-3.471c3.095,-0.231 4.217,-2.159 3.366,-5.783Zm30.181,-0.116c0,-2.313 0.736,-3.47 2.206,-3.47c1.47,-0 2.205,1.157 2.205,3.47l0,10.179c0,2.314 -0.735,3.471 -2.205,3.471c-1.47,-0 -2.206,-1.157 -2.206,-3.471l0,-10.179Zm13.93,0.347c0,-2.545 0.735,-3.817 2.206,-3.817c1.47,-0 2.205,1.157 2.205,3.47l0,10.064c-0.774,2.853 -2.476,4.203 -5.107,4.048c-1.006,0 -1.703,-1.156 -2.09,-3.47l-0.232,-1.272c-0.387,-2.314 -0.271,-3.471 0.348,-3.471c0.697,-0.077 1.316,-0.385 1.858,-0.925c0.541,-0.617 0.812,-2.159 0.812,-4.627Zm30.414,-0.347c-0,-2.313 0.812,-3.47 2.437,-3.47c1.626,-0 2.438,1.157 2.438,3.47l0,10.179c0,2.314 -0.812,3.471 -2.438,3.471c-1.625,-0 -2.437,-1.157 -2.437,-3.471l-0,-10.179Zm-41.558,24.754c0,-2.467 1.084,-3.701 3.251,-3.701l10.795,-0c2.322,-0 3.483,0.54 3.483,1.619c-0,1.234 0.967,1.851 2.902,1.851l23.797,-0c2.321,-0 3.482,1.157 3.482,3.47l-0,3.933c-0,2.314 -1.161,3.47 -3.482,3.47l-23.797,0c-1.935,0 -2.902,0.964 -2.902,2.892l-0,2.198c-0,1.928 0.967,2.892 2.902,2.892l25.073,-0c2.322,-0 3.483,1.156 3.483,3.47l-0,5.899c-0,2.314 -1.161,3.47 -3.483,3.47l-78.819,0c-2.322,0 -3.483,-1.156 -3.483,-3.47l0,-5.899c0,-2.314 1.239,-3.47 3.715,-3.47c2.554,-0 3.831,-0.964 3.831,-2.892l-0,-12.609c-0,-2.313 1.16,-3.47 3.482,-3.47l9.635,0c2.322,0 3.482,1.157 3.482,3.47l0,12.609c0,1.928 0.968,2.892 2.902,2.892l6.849,-0c1.935,-0 2.902,-0.964 2.902,-2.892l0,-15.732Z" style="fill:#fff;fill-rule:nonzero;"/><path d="M612.934,26.612c0.155,-0.849 1.316,-1.273 3.483,-1.273l8.822,0c2.322,0 3.483,1.157 3.483,3.47c1.083,5.938 -0.929,10.527 -6.037,13.766c-2.012,0.694 -3.83,0.963 -5.456,0.809c-1.934,0 -2.902,0.964 -2.902,2.892l0,2.314c0,1.927 0.968,2.891 2.902,2.891l8.474,0c2.322,0 3.483,1.157 3.483,3.471l-0,6.709c-0,2.313 -1.161,3.47 -3.483,3.47l-8.474,-0c-1.934,-0 -2.902,0.964 -2.902,2.892l0,65.355c0,2.314 -1.16,3.47 -3.482,3.47l-10.447,0c-2.322,0 -3.483,-1.156 -3.483,-3.47l0,-65.355c0,-1.928 -0.967,-2.892 -2.902,-2.892l-8.59,-0c-2.322,-0 -3.482,-1.157 -3.482,-3.47l-0,-6.709c-0,-2.314 1.16,-3.471 3.482,-3.471l8.59,0c1.935,0 2.902,-0.964 2.902,-2.891l0,-2.314c0,-1.928 -0.967,-2.892 -2.902,-2.892l-7.313,0c-2.322,0 -3.676,-1.157 -4.063,-3.47l-0.929,-5.784c-0.464,-2.93 0.465,-4.395 2.786,-4.395l24.726,-0c1.702,-0.154 2.941,-1.196 3.714,-3.123Zm24.378,4.742c-0,-2.39 1.122,-3.586 3.366,-3.586l45.388,0c2.322,0 3.482,1.157 3.482,3.47l0,24.061c-0.309,5.243 -3.25,8.212 -8.822,8.906l-39.932,0c-2.322,0 -3.482,-1.156 -3.482,-3.47l-0,-29.381Zm34.824,11.336c0,-2.005 -0.928,-3.007 -2.786,-3.007l-11.724,-0c-1.935,-0 -2.902,0.964 -2.902,2.892l-0,6.824c-0,1.928 0.967,2.892 2.902,2.892c4.024,0.077 8.164,0 12.421,-0.231c2.089,-1.465 2.786,-4.589 2.089,-9.37Zm3.134,28.34c0.078,-1.157 1.2,-1.735 3.367,-1.735l8.938,0c2.322,0 3.483,1.157 3.483,3.47c0.309,3.779 0.038,6.632 -0.813,8.56c-1.625,3.393 -4.295,5.398 -8.01,6.015l-6.5,0c-1.935,0 -2.902,0.964 -2.902,2.892l-0,5.09c-0,1.928 0.967,2.892 2.902,2.892l11.84,-0c2.322,-0 3.483,1.156 3.483,3.47l-0,6.709c-0,2.313 -1.161,3.47 -3.483,3.47l-11.84,-0c-1.935,-0 -2.902,0.964 -2.902,2.892l-0,5.552c-0,1.928 0.967,2.892 2.902,2.892l13.117,0c2.322,0 3.482,1.157 3.482,3.47l0,6.709c0,2.314 -1.16,3.47 -3.482,3.47l-49.103,0c-2.321,0 -3.482,-1.156 -3.482,-3.47l-0,-6.709c-0,-2.313 1.161,-3.47 3.482,-3.47l12.769,0c1.935,0 2.902,-0.964 2.902,-2.892l0,-5.552c0,-1.928 -0.967,-2.892 -2.902,-2.892l-11.84,-0c-2.322,-0 -3.482,-1.157 -3.482,-3.47l-0,-6.709c-0,-2.314 1.16,-3.47 3.482,-3.47l11.84,-0c1.935,-0 2.902,-0.964 2.902,-2.892l0,-5.09c0,-1.928 -0.967,-2.892 -2.902,-2.892l-11.492,0c-2.321,0 -3.676,-1.157 -4.063,-3.47l-0.928,-5.899c-0.31,-2.314 0.696,-3.471 3.018,-3.471l29.833,0c3.173,0.694 5.301,-0.462 6.384,-3.47Zm-90.892,5.321c0,-2.468 1.161,-3.701 3.483,-3.701c2.554,-0 3.83,1.156 3.83,3.47l0,44.534c0.774,5.553 -1.663,8.946 -7.313,10.179c-1.702,0 -2.747,-1.156 -3.134,-3.47l-1.045,-6.824c-0.387,-2.237 -0.154,-3.394 0.697,-3.471c2.863,-0.462 4.024,-2.429 3.482,-5.899l0,-34.818Zm35.753,0c0,-2.468 1.161,-3.701 3.483,-3.701c2.476,-0 3.715,1.156 3.715,3.47l-0,52.169c-0,2.313 -1.2,3.47 -3.599,3.47c-2.399,-0 -3.599,-1.157 -3.599,-3.47l0,-51.938Z" style="fill:#fff;fill-rule:nonzero;"/></g></svg>