<?xml version="1.0" encoding="UTF-8" standalone="no"?><!DOCTYPE svg PUBLIC "-//W3C//DTD SVG 1.1//EN" "http://www.w3.org/Graphics/SVG/1.1/DTD/svg11.dtd"><svg width="100%" height="100%" viewBox="0 0 436 73" version="1.1" xmlns="http://www.w3.org/2000/svg" xmlns:xlink="http://www.w3.org/1999/xlink" xml:space="preserve" xmlns:serif="http://www.serif.com/" style="fill-rule:evenodd;clip-rule:evenodd;stroke-linejoin:round;stroke-miterlimit:2;"><path d="M415.335,72.377l-395.191,-0c-11.125,-0 -20.144,-9.018 -20.144,-20.144l-0,-32.089c-0,-11.125 9.019,-20.144 20.144,-20.144l395.191,0c11.125,0 20.143,9.019 20.143,20.144l-0,32.089c-0,11.126 -9.018,20.144 -20.143,20.144" style="fill:#fff;fill-rule:nonzero;"/><path d="M370.508,24.671c-3.048,-0 -4.575,3.687 -2.42,5.841l3.852,3.852c0.317,0.315 0.317,0.828 0,1.144l-3.852,3.851c-2.155,2.156 -0.628,5.842 2.42,5.842c0.907,0 1.778,-0.36 2.418,-1.002l8.692,-8.691c0.316,-0.316 0.316,-0.829 0,-1.144l-8.692,-8.691c-0.64,-0.642 -1.511,-1.002 -2.418,-1.002" style="fill:#004367;fill-rule:nonzero;"/><path d="M387.518,24.671c-3.048,-0 -4.576,3.687 -2.419,5.841l3.851,3.852c0.316,0.315 0.316,0.828 -0,1.144l-3.851,3.851c-2.157,2.156 -0.63,5.842 2.418,5.842c0.909,0 1.778,-0.36 2.421,-1.002l8.69,-8.691c0.316,-0.316 0.316,-0.829 -0,-1.144l-8.69,-8.691c-0.643,-0.642 -1.512,-1.002 -2.421,-1.002" style="fill:#004367;fill-rule:nonzero;"/><path d="M429.019,53.383c-2.001,7.693 -8.98,12.841 -16.824,13.009l-374.192,-0c-4.887,-0 -9.781,0.081 -14.668,-0c-6.085,-0.102 -11.75,-3.134 -14.927,-8.394c-2.473,-4.092 -2.502,-8.429 -2.502,-12.996l0,-14.988c0,-3.717 -0.375,-7.783 0.66,-11.391c2.296,-8.021 9.582,-12.613 17.657,-12.637c2.268,-0.007 4.537,-0 6.804,-0l379.914,-0c6.802,-0 13.113,2.87 16.508,9.045c2.194,3.99 2.125,8.193 2.125,12.562l-0,15.282c-0,3.438 0.317,7.156 -0.555,10.508m2.788,-32.012c-1.057,-10.229 -9.749,-17.58 -19.858,-17.729c-1.775,-0.027 -3.551,-0 -5.325,-0l-362.588,-0c-6.636,-0 -13.272,-0.022 -19.909,-0c-7.217,0.024 -13.932,3.244 -17.744,9.552c-2.397,3.97 -2.82,8.26 -2.82,12.764l-0,14.802c-0,3.502 -0.273,7.15 0.151,10.64c0.788,6.475 4.871,12.327 10.725,15.241c3.515,1.75 7.193,2.094 11.008,2.094l386.748,0c6.646,-0.143 12.805,-3.325 16.498,-8.916c2.632,-3.982 3.225,-8.401 3.225,-13.044l-0,-14.606c-0,-3.563 0.256,-7.244 -0.111,-10.798" style="fill:#004367;fill-rule:nonzero;"/><g><path d="M57.666,19.821c1.504,1.16 2.761,2.3 3.771,3.416l-1.483,1.483l3.867,0l0,2.932l-9.603,0c0.237,3.825 0.623,6.779 1.16,8.863c0.108,0.451 0.258,0.988 0.451,1.611c1.354,-2.406 2.482,-5.124 3.384,-8.153l2.804,1.192c-1.31,4.211 -2.944,7.735 -4.898,10.57c0.343,0.731 0.698,1.386 1.063,1.966c0.988,1.44 1.74,2.159 2.255,2.159c0.43,0 0.849,-1.578 1.257,-4.737l2.772,1.482c-0.816,4.47 -1.998,6.704 -3.545,6.704c-1.418,-0 -2.9,-0.956 -4.447,-2.868c-0.473,-0.602 -0.935,-1.311 -1.386,-2.127c-2.148,2.406 -4.651,4.243 -7.509,5.51l-1.74,-2.578c3.115,-1.396 5.726,-3.405 7.831,-6.026c-0.408,-1.075 -0.805,-2.331 -1.192,-3.771c-0.687,-2.556 -1.149,-5.822 -1.386,-9.796l-10.377,-0l0,4.704l7.896,0c-0.065,5.823 -0.355,9.507 -0.87,11.055c-0.516,1.332 -1.612,2.019 -3.288,2.062c-0.666,0 -1.557,-0.054 -2.674,-0.161l-0.935,-2.772c1.719,0.086 2.804,0.129 3.255,0.129c0.558,-0.021 0.934,-0.386 1.128,-1.096c0.171,-0.73 0.29,-2.836 0.354,-6.316l-4.866,-0l0,0.193c-0.129,5.909 -1.428,10.689 -3.9,14.341l-2.319,-2.063c2.019,-2.943 3.072,-7.035 3.158,-12.278l-0,-10.731l13.277,0c-0.043,-1.01 -0.064,-2.589 -0.064,-4.738l3.093,0c0,1.182 0.043,2.761 0.129,4.738l4.963,0c-0.946,-1.053 -2.052,-2.062 -3.319,-3.029l1.933,-1.87Z" style="fill:#004367;fill-rule:nonzero;"/><path d="M89.288,27.685l-7.348,-0c-0.322,0.838 -0.731,1.836 -1.225,2.997l7.799,-0l0.774,-2.997Zm-9.99,5.704c-0.688,1.182 -1.419,2.288 -2.192,3.319l14.212,0l0.741,-3.319l-12.761,-0Zm15.017,3.319l2.932,0c-0.064,6.252 -0.483,9.99 -1.256,11.215c-0.86,1.246 -2.267,1.869 -4.222,1.869c-0.494,-0 -1.558,-0.043 -3.19,-0.128l-0.774,-2.901l3.255,0.225c1.332,-0.064 2.159,-0.494 2.481,-1.289c0.344,-0.816 0.548,-2.9 0.612,-6.252l-19.432,0c-1.482,1.483 -3.126,2.804 -4.931,3.965l-1.515,-2.708c4.749,-3.136 8.24,-7.477 10.474,-13.019l-8.282,-0l-0,-2.708l4.899,0c-0.688,-1.095 -1.451,-2.169 -2.288,-3.222l2.416,-1.515c1.075,1.247 1.967,2.46 2.675,3.642l-1.547,1.095l3.094,0c0.451,-1.482 0.849,-3.126 1.192,-4.93l2.997,0.387c-0.343,1.719 -0.708,3.233 -1.095,4.543l9.861,0l-1.192,5.705l3.899,-0l-1.063,6.026Zm-17.306,5.221c-0.838,2.664 -2.02,4.974 -3.545,6.928l-2.675,-1.675c1.548,-1.805 2.686,-3.76 3.417,-5.865l2.803,0.612Zm3.867,-0.129c0.688,1.418 1.139,3.341 1.354,5.769l-2.932,0.354c-0.151,-2.471 -0.495,-4.404 -1.032,-5.801l2.61,-0.322Zm4.48,-0.644c0.902,1.74 1.622,3.383 2.159,4.93l-2.772,0.999c-0.493,-1.848 -1.084,-3.598 -1.772,-5.253l2.385,-0.676Zm4.898,-0.87c0.838,1.417 1.558,2.964 2.16,4.64l-2.804,0.709c-0.451,-1.482 -1.053,-3.008 -1.804,-4.576l2.448,-0.773Z" style="fill:#004367;fill-rule:nonzero;"/><path d="M121.167,19.821l10.602,0l0,2.804l-7.476,0l0,16.951l-3.126,0l0,-19.755Z" style="fill:#004367;fill-rule:nonzero;"/><path d="M151.306,20.015c4.038,4.168 8.68,7.444 13.922,9.829l-1.515,2.739c-1.655,-0.795 -3.158,-1.622 -4.512,-2.482l0,2.901l-7.444,0l0,4.834l9.056,0l-0,2.965l-9.056,-0l0,5.092l11.988,-0l0,2.997l-27.038,-0l0,-2.997l11.957,-0l-0,-5.092l-9.089,-0l0,-2.965l9.089,0l-0,-4.834l-7.445,0l0,-2.901c-1.375,0.839 -2.922,1.687 -4.641,2.547l-1.482,-2.675c5.607,-2.686 10.28,-6.005 14.018,-9.958l2.192,-0Zm7.83,10.055c-3.351,-2.063 -6.327,-4.49 -8.926,-7.283c-2.406,2.642 -5.382,5.07 -8.927,7.283l17.853,-0Z" style="fill:#004367;fill-rule:nonzero;"/><path d="M169.005,28.103l2.643,0l0,-7.895l2.965,0l-0,7.895l2.61,0l-0,2.901l-2.61,0l-0,8.862l2.353,-1.353l-0,2.964c-2.428,1.44 -4.963,2.633 -7.606,3.578l-0.741,-2.933c0.902,-0.215 1.912,-0.526 3.029,-0.934l0,-10.184l-2.643,0l0,-2.901Zm12.504,5.995c-0.193,6.38 -1.686,11.494 -4.479,15.34l-2.224,-1.966c2.385,-3.287 3.642,-7.831 3.771,-13.632l-0,-9.12l9.281,0c-0.043,-0.988 -0.065,-2.536 -0.065,-4.641l2.836,0c0,1.676 0.032,3.223 0.097,4.641l6.993,0l0,2.804l-6.897,-0c0.172,3.846 0.462,6.831 0.87,8.958l0.194,0.967c0.988,-2.191 1.783,-4.63 2.385,-7.315l2.482,1.063c-0.968,3.953 -2.256,7.337 -3.868,10.152c0.258,0.902 0.548,1.643 0.87,2.223c0.731,1.44 1.268,2.159 1.612,2.159c0.301,0 0.612,-1.439 0.934,-4.317l2.514,1.417c-0.687,4.405 -1.654,6.607 -2.901,6.607c-1.16,-0 -2.352,-0.967 -3.576,-2.9c-0.452,-0.666 -0.882,-1.473 -1.29,-2.418c-1.761,2.256 -3.781,3.996 -6.058,5.221l-1.837,-2.353c2.749,-1.396 5.017,-3.426 6.799,-6.09c-0.236,-0.731 -0.515,-1.837 -0.837,-3.32c-0.58,-2.685 -0.967,-6.037 -1.161,-10.054l-6.445,-0l-0,3.996l5.446,-0c0,5.973 -0.258,9.624 -0.773,10.956c-0.516,1.269 -1.418,1.935 -2.707,1.999l-2.159,0l-0.742,-2.482l2.224,0c0.581,-0.064 0.956,-0.558 1.128,-1.482c0.15,-0.903 0.247,-3.04 0.29,-6.413l-2.707,0Zm12.988,-14.212c0.859,1.203 1.568,2.471 2.127,3.803l-2.192,0.967c-0.688,-1.504 -1.408,-2.805 -2.159,-3.9l2.224,-0.87Z" style="fill:#004367;fill-rule:nonzero;"/><path d="M205.461,23.463l10.377,0l0,-3.384l2.965,0l-0,3.384l10.248,0l-0,2.804l-10.248,-0l-0,4.318l12.472,0l-0,2.868l-27.844,0l-0,-2.868l12.407,0l0,-4.319l-10.377,0l0,-2.803Zm11.118,10.732l2.933,-0l-0,3.867l8.862,-0l-0,2.868l-8.862,-0l-0,5.511c1.74,0.15 3.437,0.225 5.091,0.225c2.944,-0 5.425,-0.065 7.445,-0.193l-0.902,3.094c-1.741,-0 -3.857,-0.022 -6.349,-0.065c-5.522,-0.022 -9.314,-0.537 -11.376,-1.547c-1.547,-0.773 -2.954,-2.267 -4.222,-4.479c-1.031,2.212 -2.438,4.297 -4.222,6.251l-2.352,-2.062c3.287,-3.717 5.124,-7.821 5.511,-12.311l2.997,0.387c-0.13,1.74 -0.43,3.395 -0.903,4.963c1.311,2.449 2.804,4.007 4.48,4.673c0.558,0.236 1.181,0.43 1.869,0.58l0,-11.762Z" style="fill:#004367;fill-rule:nonzero;"/><path d="M238.855,40.446l10.538,0l0,-2.03l2.61,-0l-1.901,-1.708c1.933,-1.976 2.932,-4.468 2.997,-7.477l-0,-8.185l11.085,-0l0,14.695c0,1.912 -0.955,2.868 -2.868,2.868l-2.868,0l-0.741,-2.739c1.289,0.086 2.202,0.129 2.739,0.129c0.559,0 0.838,-0.419 0.838,-1.257l0,-1.45l-5.897,-0c-0.581,2.041 -1.568,3.814 -2.965,5.317l0,1.837l10.699,-0l-0,2.836l-10.699,0l0,2.61l12.794,0l-0,2.804l-28.488,-0l-0,-2.804l12.665,0l0,-2.61l-10.538,0l-0,-2.836Zm-1.772,-16.693l3.383,0c-0.515,-0.967 -1.031,-1.837 -1.547,-2.611l2.417,-1.192c0.688,1.075 1.396,2.342 2.127,3.803l1.902,0c0.666,-1.203 1.246,-2.514 1.74,-3.932l2.739,0.935c-0.43,1.031 -0.935,2.03 -1.515,2.997l3.513,0l-0,2.675l-5.736,-0l-0,2.771c-0.022,0.58 -0.075,1.279 -0.162,2.095l2.385,-0l0,-3.48l2.675,-0l-0,6.026l-5.672,0c-0.344,0.88 -0.73,1.633 -1.16,2.256c-1.16,1.568 -3.073,2.793 -5.737,3.674l-1.514,-2.385c2.406,-0.795 4.049,-1.816 4.931,-3.062l0.29,-0.483l-4.125,0l-0,-6.026l2.642,-0l0,3.48l2.385,-0c0.107,-0.602 0.182,-1.3 0.226,-2.095l-0,-2.771l-6.188,-0l0,-2.675Zm18.852,4.802l0,0.483c0,0.451 -0.042,1.063 -0.129,1.837l5.479,0l0,-2.32l-5.35,-0Zm5.35,-2.418l0,-2.384l-5.35,0l0,2.384l5.35,0Z" style="fill:#004367;fill-rule:nonzero;"/><path d="M270.798,21.143l9.346,-0l-0,2.288c-0.644,2.363 -1.439,4.962 -2.384,7.798c1.482,2.643 2.287,4.985 2.416,7.026c0,1.654 -0.289,2.826 -0.87,3.513c-0.88,0.902 -2.385,1.375 -4.511,1.418l-0.935,-3.062c0.709,0.108 1.246,0.162 1.611,0.162c0.645,-0.065 1.107,-0.237 1.386,-0.516c0.237,-0.301 0.354,-0.806 0.354,-1.515c0,-1.912 -0.816,-4.114 -2.448,-6.606c1.009,-2.793 1.815,-5.382 2.416,-7.767l-3.352,0l0,25.62l-3.029,0l0,-28.359Zm9.862,2.9l4.06,-0c-0.451,-1.074 -0.966,-2.073 -1.547,-2.997l2.869,-1.064c0.579,1.096 1.138,2.45 1.675,4.061l3.545,-0c0.623,-1.203 1.214,-2.546 1.773,-4.028l2.868,0.999c-0.495,1.139 -1.021,2.148 -1.579,3.029l4.318,-0l-0,2.965l-7.799,-0c-0.644,0.838 -1.375,1.633 -2.191,2.385c0.945,0.945 1.729,2.073 2.352,3.384c1.956,-0.946 3.696,-2.246 5.221,-3.9l2.192,1.805c-0.967,1.031 -1.988,1.923 -3.062,2.674c0.773,3.825 2.191,7.219 4.253,10.184l-2.094,2.611c-1.998,-3.459 -3.416,-7.305 -4.254,-11.538l-1.321,0.613c0.666,2.191 0.999,4.651 0.999,7.379c-0,3.267 -0.44,5.253 -1.322,5.963c-0.88,0.666 -2.309,1.042 -4.286,1.127l-1.579,0.032l-0.934,-2.739l2.384,0c0.903,0 1.59,-0.214 2.063,-0.644c0.473,-0.516 0.709,-1.762 0.709,-3.739c0,-0.837 -0.032,-1.611 -0.097,-2.319c-2.514,2.513 -5.467,4.629 -8.862,6.348l-1.74,-2.61c4.296,-1.998 7.648,-4.351 10.054,-7.058c-0.192,-0.752 -0.418,-1.439 -0.676,-2.062c-1.697,1.955 -3.921,3.598 -6.671,4.93l-1.483,-2.578c2.88,-1.246 5.178,-2.825 6.897,-4.737c-0.386,-0.58 -0.731,-1.021 -1.031,-1.322c-1.633,1.075 -3.448,2.042 -5.446,2.901l-1.58,-2.611c3.502,-1.224 6.145,-2.718 7.928,-4.479l-6.606,-0l-0,-2.965Z" style="fill:#004367;fill-rule:nonzero;"/><path d="M308.124,20.885l20.077,-0l-0,6.864l-20.077,0l0,-6.864Zm17.176,4.544l0,-2.127l-14.276,-0l0,2.127l14.276,-0Zm-18.755,3.835l23.267,-0l0,14.889l-6.219,-0.001c3.351,1.29 6.166,2.546 8.443,3.771l-2.127,2.127c-2.277,-1.44 -5.489,-2.987 -9.636,-4.641l1.289,-1.257l-7.057,0l1.482,1.29c-2.707,1.718 -6.091,3.243 -10.151,4.575l-1.805,-2.288c3.416,-1.074 6.349,-2.266 8.798,-3.577l-6.285,0l0,-14.889Zm20.368,12.182l0,-1.772l-17.435,-0l0,1.772l17.435,-0Zm-17.435,-4.093l17.435,0l0,-1.611l-17.435,0l0,1.611Zm0,-3.931l17.435,-0l0,-1.676l-17.435,0l0,1.676Z" style="fill:#004367;fill-rule:nonzero;"/><path d="M344.063,30.166l3.126,-0l0,19.755l-10.602,-0l0,-2.804l7.476,0l0,-16.951Z" style="fill:#004367;fill-rule:nonzero;"/></g></svg>