<?xml version="1.0" encoding="UTF-8" standalone="no"?><!DOCTYPE svg PUBLIC "-//W3C//DTD SVG 1.1//EN" "http://www.w3.org/Graphics/SVG/1.1/DTD/svg11.dtd"><svg width="100%" height="100%" viewBox="0 0 900 220" version="1.1" xmlns="http://www.w3.org/2000/svg" xmlns:xlink="http://www.w3.org/1999/xlink" xml:space="preserve" xmlns:serif="http://www.serif.com/" style="fill-rule:evenodd;clip-rule:evenodd;stroke-linejoin:round;stroke-miterlimit:2;"><rect id="Artboard1" x="0" y="0" width="900" height="219.457" style="fill:none;"/><clipPath id="_clip1"><rect id="Artboard11" serif:id="Artboard1" x="0" y="0" width="900" height="219.457"/></clipPath><g clip-path="url(#_clip1)"><g><path d="M189.128,161.951l0,-28.489l-61.141,0l-0,-21.017l49.734,-0l0,-18.917c7.985,5.014 15.97,10.028 23.955,14.13c6.16,-10.028 13.46,-21.424 21.902,-29.864c-33.993,-13.237 -72.093,-40.625 -94.222,-70.294c3.65,-0.454 5.931,-2.498 6.844,-5.224l-43.575,-2.276c-16.426,27.356 -53.385,62.274 -92.625,81.445c7.072,6.385 16.198,18.692 20.533,26.441c8.441,-4.558 16.654,-9.572 24.639,-14.814l-0,19.373l47.909,-0l0,21.017l-60.229,0l0,28.489l60.229,0l0,21.93l-78.48,0l-0,29.402l195.288,-0l0,-29.402l-81.902,0l-0,-21.93l61.141,0Zm-130.04,-78.68c21.217,-15.976 39.469,-33.777 51.332,-50.438c11.863,16.432 31.255,34.691 52.7,50.438l-104.032,0Z" style="fill:#fff;fill-rule:nonzero;"/><path d="M407.231,114.284c-1.597,-15.057 -2.51,-31.255 -3.422,-47.681l41.978,-0l-0,-29.887l-11.407,0l13.232,-7.528c-3.422,-7.985 -11.864,-19.164 -19.392,-27.377l-22.814,12.776c5.247,6.616 11.179,15.057 14.829,22.129l-17.339,0c-0.228,-9.582 -0.228,-19.163 0,-28.061c4.563,-0.684 6.844,-2.053 7.072,-4.563l-37.871,-2.281c0,11.407 0.228,23.042 0.456,34.905l-70.267,0l0,68.671c0,11.635 -0.228,24.639 -2.053,37.643l-3.194,-15.057l-14.601,5.247l-0,-49.279l16.882,0l0,-31.255l-16.882,0l-0,-42.206c4.563,-0.931 6.388,-2.328 6.616,-4.656l-36.502,-2.074l-0,48.936l-18.024,0l0,31.255l18.024,0l-0,59.317c-8.898,2.966 -17.111,5.703 -23.727,7.529l14.145,36.274c2.053,-0.684 3.65,-2.51 3.878,-5.019c13.004,-5.247 31.94,-13.917 50.191,-22.586c-3.422,14.601 -9.582,28.518 -20.076,39.925c6.616,3.65 19.392,14.144 24.182,20.076c15.058,-16.198 23.043,-39.012 27.377,-61.826c2.966,6.844 5.019,16.882 5.476,24.411c20.076,-0 26.464,-2.053 32.167,-10.038c4.563,-6.388 5.704,-26.465 6.388,-73.233l0,-8.442l-14.601,-0.684l-5.931,0.228l-19.392,0l-0,-23.27l41.065,-0c1.597,34.221 4.791,67.757 10.495,94.45c-10.495,15.057 -23.271,27.149 -38.328,36.046c6.388,4.791 16.426,15.057 20.761,20.761c10.266,-6.616 19.392,-14.601 27.833,-23.727c7.072,15.97 15.285,24.183 26.92,24.183c18.708,0 26.693,-8.669 31.484,-44.715c-7.301,-3.651 -16.198,-11.864 -22.13,-19.392c-0.456,22.357 -2.737,33.536 -5.703,33.536c-3.422,0 -6.616,-8.213 -9.81,-21.673c12.776,-20.989 22.129,-45.4 28.517,-72.321c3.422,0 5.704,-1.368 6.388,-3.422l-34.221,-7.756c-2.281,10.95 -5.019,21.673 -8.441,31.711l-0.228,0Zm-61.826,2.053c-0.457,24.868 -1.141,34.221 -2.738,36.959c-1.369,2.053 -2.966,2.738 -5.247,2.738c-2.282,-0 -5.019,-0 -8.67,-0.456c2.282,-13.461 3.423,-26.921 3.651,-39.241l13.004,0Z" style="fill:#fff;fill-rule:nonzero;"/><path d="M654.991,151l0,-29.401l-71.179,-0l-0,-20.561l86.693,-0l-0,-30.543l-86.693,0l-0,-17.139l68.214,0l-0,-30.314l-68.214,0l-0,-14.387c4.79,-0.684 6.616,-2.281 6.844,-4.791l-41.066,-2.281l0,21.459l-64.107,0l-0,30.314l64.107,0l0,17.139l-84.64,0l0,30.543l84.64,-0l0,69.6c-10.722,-6.166 -19.62,-15.071 -26.464,-27.615c2.282,-8.661 4.107,-16.866 5.476,-24.623c3.422,-0.228 5.703,-1.827 6.159,-4.112l-39.924,-6.168c-3.422,31.257 -13.232,69.368 -37.187,88.753c7.072,4.559 19.62,15.272 25.323,21.657c12.32,-10.488 21.674,-25.304 28.746,-41.499c24.639,31.011 59.773,38.305 103.348,38.305l50.191,0c1.825,-9.345 6.844,-24.617 11.407,-31.911c-10.951,0.228 -31.484,0.456 -46.313,0.456c-25.323,0 -35.362,-0.456 -46.54,-2.055l-0,-30.826l71.179,0Z" style="fill:#fff;fill-rule:nonzero;"/><path d="M812.18,176.096l64.336,-0l-0,-27.577l-64.336,0l0,-7.537c4.791,-0.67 6.616,-2.231 6.844,-4.685l-4.106,-0.225c10.722,-10.447 17.11,-23.847 20.761,-37.772l25.337,0l0,11.193c0,2.518 -0.913,3.437 -3.655,3.437c-2.519,-0 -11.419,-0 -18.274,-0.46c3.655,7.981 7.54,20.516 8.683,28.949c33.304,-0 44.245,-4.559 44.245,-31.241l0,-100.596l-82.33,-0l-0,47.44c-0,16.21 -1.371,35.353 -12.334,51.559l0,-43.119c4.111,-0.684 5.939,-2.053 6.167,-4.335l-32.642,-1.825l0,21.445l-8.673,0l0,-24.867l42.449,0l-0,-25.78l-22.358,0c3.65,-5.931 7.072,-12.547 9.81,-17.795c3.422,-0.228 5.247,-1.14 6.16,-2.965l-33.319,-7.757c-2.513,8.441 -7.072,19.848 -11.175,28.517l-12.763,0c-2.051,-8.213 -7.066,-19.848 -12.097,-28.517l-24.177,9.125c2.963,5.704 5.697,13.004 7.976,19.392l-20.973,0l0,25.78l41.294,0l-0,24.867l-8.698,0l-0,-15.513c4.12,-0.684 5.951,-2.053 6.18,-4.107l-32.16,-1.825l0,53.614l25.98,-0l-0,-7.529l7.782,-0c-2.289,8.67 -9.377,14.832 -31.027,19.397c5.697,4.564 15.952,17.117 19.371,23.279c30.577,-7.76 39.466,-23.964 41.289,-42.676l9.129,-0l0,5.475l24.878,0c-3.423,4.564 -7.532,8.673 -12.781,12.552c5.249,2.511 13.465,7.532 19.86,12.096l-24.874,-1.369l0,14.378l-62.743,0l0,27.577l62.743,-0l0,9.839l-86.451,-0l0,28.489l208.492,-0l-0,-28.489l-87.82,-0l0,-9.839Zm48.836,-133.206l-21.017,0l0,-6.872l21.017,-0l0,6.872Zm0,23.47l0,7.329l-21.473,0c0,-2.519 0.228,-4.809 0.228,-7.329l21.245,0Z" style="fill:#fff;fill-rule:nonzero;"/></g></g></svg>