<?xml version="1.0" encoding="UTF-8" standalone="no"?><!DOCTYPE svg PUBLIC "-//W3C//DTD SVG 1.1//EN" "http://www.w3.org/Graphics/SVG/1.1/DTD/svg11.dtd"><svg width="100%" height="100%" viewBox="0 0 1196 924" version="1.1" xmlns="http://www.w3.org/2000/svg" xmlns:xlink="http://www.w3.org/1999/xlink" xml:space="preserve" xmlns:serif="http://www.serif.com/" style="fill-rule:evenodd;clip-rule:evenodd;stroke-linejoin:round;stroke-miterlimit:2;"><g><path d="M1008.5,-0l-833.494,-0c-103.062,-0 -175.006,80.994 -175.006,180.9l0,446.287c0,99.913 71.944,180.9 175.006,180.9l578.625,0l119.525,115.869l38.338,-115.869l97.006,0c103.063,0 186.606,-80.987 186.606,-180.9l0,-446.287c0,-99.906 -83.543,-180.9 -186.606,-180.9" style="fill:#fff;fill-rule:nonzero;"/><path d="M748.518,780.942c0.131,0.319 0.368,0.65 0.65,0.994c-4.794,-0.407 -1.638,-3.4 -0.65,-0.994m138.268,-16.881l-29.731,88.387c-30.6,-29.481 -60.606,-59.906 -92.381,-88.037c-6.225,-5.507 -9.838,-5.419 -17.85,-5.419l-523.138,-0c-61.006,-0 -119.156,-21.406 -152.068,-76.106c-23.882,-39.688 -20.913,-82.769 -20.913,-126.832l0,-334.006c0,-9.419 -0.162,-18.856 0.031,-28.275c0.988,-47.625 25.619,-91.675 64.388,-119.044c36.044,-25.431 76.456,-29.556 118.675,-29.556l747.375,0c59.481,0 116.237,23.35 147.981,76.113c23.881,39.687 20.919,82.775 20.919,126.837l-0,359.906c-1.238,79.65 -65.456,143.357 -143.875,150.344c-37.175,3.313 -75.469,0.619 -112.763,0.619c-3.168,-0 -5.675,2.169 -6.65,5.069m286.632,-189.463c-0,-124.4 0.275,-248.806 -0,-373.212c-0.225,-101.075 -81.957,-177.8 -181.994,-179.113l-715.581,0c-20.875,0 -41.75,-0.062 -62.619,0c-48.45,0.15 -95.113,16.1 -130.938,49.4c-37.187,34.55 -54.931,81.419 -54.931,131.55l0,379.788c0,37.268 2.475,72.731 21.131,106.4c32.194,58.112 95.313,91.787 160.894,92.487c63.238,0.675 126.519,0 189.756,0l292.644,0c18.919,0 38.569,1.494 57.513,0.188c1.287,1.468 3.6,3.031 4.668,4.05c7.019,6.693 14.038,13.387 21.057,20.075c18.237,17.393 36.481,34.787 54.718,52.181c9.938,9.475 19.875,18.95 29.813,28.425c3.894,3.719 9.875,1.887 11.531,-3.044c11.425,-33.956 22.844,-67.906 34.269,-101.862c70.144,0.325 142.325,6.781 201.219,-39.313c38.168,-29.875 62.912,-74.437 66.418,-122.944c1.075,-14.931 0.432,-30.106 0.432,-45.056" style="fill:#005f89;fill-rule:nonzero;"/><path d="M994.373,584.653c-10.544,-0 -15.825,12.75 -8.369,20.2l13.319,13.318c1.094,1.094 1.094,2.863 0,3.957l-13.319,13.318c-7.456,7.457 -2.175,20.2 8.369,20.2c3.138,0 6.144,-1.243 8.363,-3.462l30.056,-30.056c1.094,-1.094 1.094,-2.863 -0,-3.957l-30.056,-30.05c-2.219,-2.218 -5.225,-3.468 -8.363,-3.468" style="fill:#005f89;fill-rule:nonzero;"/><path d="M1053.2,584.653c-10.543,-0 -15.818,12.75 -8.362,20.2l13.312,13.318c1.094,1.094 1.094,2.863 0,3.957l-13.312,13.318c-7.456,7.457 -2.181,20.2 8.362,20.2c3.138,0 6.15,-1.243 8.369,-3.462l30.05,-30.056c1.094,-1.094 1.094,-2.863 0,-3.957l-30.05,-30.05c-2.219,-2.218 -5.231,-3.468 -8.369,-3.468" style="fill:#005f89;fill-rule:nonzero;"/><g transform="matrix(6.25,0,0,6.25,-10171.5,-25050.4)"><g transform="matrix(24.401,0,0,24.401,1654.78,4066.03)"><path d="M0.362,-0.447l0,0.088l0.374,0l0,-0.088l-0.374,-0Zm0.374,0.171l-0.374,-0l0,0.086l0.374,-0l0,-0.086Zm0,0.168l-0.374,-0l0,0.209l-0.089,-0l0,-0.499c-0.053,0.062 -0.11,0.118 -0.173,0.169l-0.061,-0.08c0.117,-0.093 0.208,-0.198 0.274,-0.316l-0.247,-0l-0,-0.092l0.293,-0c0.012,-0.029 0.025,-0.066 0.04,-0.109l0.097,0.011c-0.011,0.035 -0.022,0.068 -0.033,0.098l0.483,-0l0,0.092l-0.524,-0c-0.015,0.031 -0.032,0.063 -0.053,0.096l0.456,-0l0,0.541c0,0.055 -0.032,0.083 -0.096,0.085l-0.112,-0l-0.023,-0.086c0.041,0.003 0.076,0.005 0.105,0.005c0.025,-0 0.037,-0.011 0.037,-0.033l0,-0.091Z" style="fill:#005f89;fill-rule:nonzero;"/></g><g transform="matrix(24.401,0,0,24.401,1680.65,4066.03)"><path d="M0.154,-0.424c-0.023,0.029 -0.054,0.063 -0.092,0.104l-0.031,-0.101c0.105,-0.117 0.181,-0.252 0.23,-0.405l0.089,0.042c-0.027,0.082 -0.061,0.156 -0.101,0.223l0,0.664l-0.095,-0l0,-0.527Zm0.673,0.002c0.049,0.119 0.09,0.244 0.125,0.375l-0.083,0.038c-0.038,-0.144 -0.08,-0.272 -0.126,-0.385l0.084,-0.028Zm-0.353,-0.192c-0.029,0.072 -0.064,0.14 -0.105,0.203l-0.082,-0.051c0.075,-0.111 0.128,-0.231 0.159,-0.358l0.089,0.019c-0.011,0.04 -0.02,0.072 -0.028,0.095l0.42,0l0,0.062c-0.017,0.065 -0.037,0.125 -0.059,0.18l-0.091,-0.026c0.021,-0.038 0.039,-0.079 0.052,-0.124l-0.355,-0Zm-0.013,0.71l-0.021,-0.09c0.048,0.005 0.087,0.007 0.117,0.007c0.024,-0 0.036,-0.013 0.036,-0.039l0,-0.515l0.092,-0l0,0.539c0,0.065 -0.032,0.098 -0.096,0.098l-0.128,-0Zm0.054,-0.484c-0.035,0.138 -0.08,0.259 -0.136,0.362l-0.089,-0.032c0.053,-0.094 0.1,-0.212 0.14,-0.354l0.085,0.024Z" style="fill:#005f89;fill-rule:nonzero;"/></g><g transform="matrix(24.401,0,0,24.401,1706.51,4066.03)"><path d="M0.362,-0.447l0,0.088l0.374,0l0,-0.088l-0.374,-0Zm0.374,0.171l-0.374,-0l0,0.086l0.374,-0l0,-0.086Zm0,0.168l-0.374,-0l0,0.209l-0.089,-0l0,-0.499c-0.053,0.062 -0.11,0.118 -0.173,0.169l-0.061,-0.08c0.117,-0.093 0.208,-0.198 0.274,-0.316l-0.247,-0l-0,-0.092l0.293,-0c0.012,-0.029 0.025,-0.066 0.04,-0.109l0.097,0.011c-0.011,0.035 -0.022,0.068 -0.033,0.098l0.483,-0l0,0.092l-0.524,-0c-0.015,0.031 -0.032,0.063 -0.053,0.096l0.456,-0l0,0.541c0,0.055 -0.032,0.083 -0.096,0.085l-0.112,-0l-0.023,-0.086c0.041,0.003 0.076,0.005 0.105,0.005c0.025,-0 0.037,-0.011 0.037,-0.033l0,-0.091Z" style="fill:#005f89;fill-rule:nonzero;"/></g><g transform="matrix(24.401,0,0,24.401,1732.38,4066.03)"><path d="M0.052,-0.765l0.898,0l-0,0.092l-0.126,0l-0,0.661c-0,0.072 -0.034,0.108 -0.103,0.108l-0.168,0l-0.022,-0.092c0.061,0.003 0.114,0.005 0.157,0.005c0.027,-0 0.041,-0.015 0.041,-0.045l-0,-0.637l-0.677,0l-0,-0.092Zm0.516,0.222l-0,0.385l-0.315,0l-0,0.082l-0.091,0l-0,-0.467l0.406,0Zm-0.315,0.299l0.225,0l-0,-0.214l-0.225,0l-0,0.214Z" style="fill:#005f89;fill-rule:nonzero;"/></g><g transform="matrix(24.401,0,0,24.401,1758.24,4066.03)"><path d="M0.191,-0.234l0,0.073l0.208,0l0,-0.073l-0.208,0Zm0.208,-0.078l0,-0.077l-0.208,0l0,0.077l0.208,0Zm-0.208,0.23l0,0.187l-0.092,0l0,-0.576l0.392,0l0,0.465c0,0.069 -0.032,0.104 -0.097,0.104l-0.079,0l-0.023,-0.089l0.071,0.004c0.024,-0 0.036,-0.013 0.036,-0.039l0,-0.056l-0.208,0Zm0.477,-0.296c-0.07,0 -0.105,-0.038 -0.105,-0.115l-0,-0.324l0.094,0l0,0.119c0.109,-0.017 0.193,-0.033 0.253,-0.05l0.031,0.084c-0.085,0.02 -0.18,0.038 -0.284,0.053l0,0.098c0,0.033 0.012,0.05 0.037,0.05l0.119,0c0.016,0 0.027,-0.005 0.034,-0.015c0.009,-0.013 0.014,-0.047 0.016,-0.101l0.089,0.029c-0.008,0.083 -0.021,0.132 -0.04,0.149c-0.019,0.015 -0.046,0.023 -0.081,0.023l-0.163,0Zm-0.01,0.353c0,0.019 0.012,0.028 0.035,0.028l0.12,0c0.015,-0 0.027,-0.005 0.034,-0.014c0.009,-0.013 0.014,-0.047 0.017,-0.102l0.087,0.027c-0.008,0.084 -0.021,0.134 -0.04,0.151c-0.017,0.015 -0.044,0.023 -0.08,0.023l-0.164,0c-0.069,-0 -0.103,-0.031 -0.103,-0.093l-0,-0.337l0.094,0l0,0.11c0.091,-0.009 0.175,-0.026 0.252,-0.049l0.031,0.085c-0.084,0.023 -0.178,0.039 -0.283,0.05l0,0.121Zm-0.24,-0.725c0.057,0.077 0.103,0.145 0.136,0.206l-0.078,0.056c-0.011,-0.023 -0.022,-0.043 -0.033,-0.062c-0.104,0.016 -0.229,0.028 -0.375,0.036l-0.026,-0.079c0.017,-0.006 0.031,-0.014 0.043,-0.024c0.062,-0.069 0.109,-0.137 0.14,-0.204l0.091,0.027c-0.041,0.081 -0.088,0.146 -0.141,0.197c0.061,-0.003 0.136,-0.011 0.227,-0.022c-0.015,-0.023 -0.034,-0.052 -0.057,-0.085l0.073,-0.046Z" style="fill:#005f89;fill-rule:nonzero;"/></g><g transform="matrix(24.401,0,0,24.401,1784.11,4066.03)"><path d="M0.104,-0.714l0.125,0l-0.023,0.512l-0.079,-0l-0.023,-0.512Zm0.062,0.571c0.022,-0 0.04,0.007 0.053,0.02c0.014,0.013 0.021,0.03 0.021,0.051c0,0.021 -0.007,0.038 -0.021,0.052c-0.015,0.013 -0.033,0.02 -0.053,0.02c-0.02,-0 -0.037,-0.007 -0.051,-0.021c-0.015,-0.014 -0.022,-0.031 -0.022,-0.051c0,-0.021 0.007,-0.038 0.022,-0.051c0.013,-0.013 0.03,-0.02 0.051,-0.02Z" style="fill:#005f89;fill-rule:nonzero;"/></g><g transform="matrix(18.1811,0,0,18.1811,1643.39,4090.1)"><path d="M0.917,-0.706l0,0.794l-0.093,-0l-0,-0.062l-0.154,-0l0,0.062l-0.093,-0l-0,-0.794l0.34,0Zm-0.247,0.64l0.154,-0l-0,-0.548l-0.154,0l0,0.548Zm-0.466,-0.751l0.096,0l-0,0.168l0.201,-0c-0,0.34 -0.005,0.55 -0.015,0.63c-0.01,0.076 -0.06,0.114 -0.149,0.114c-0.012,-0 -0.038,-0.002 -0.078,-0.005l-0.024,-0.087c0.038,0.003 0.067,0.005 0.087,0.005c0.042,-0 0.067,-0.023 0.075,-0.07c0.005,-0.043 0.009,-0.208 0.011,-0.494l-0.108,-0l-0,0.027c-0.003,0.292 -0.068,0.505 -0.193,0.64l-0.077,-0.068c0.114,-0.118 0.172,-0.309 0.174,-0.572l-0,-0.027l-0.151,-0l-0,-0.093l0.151,-0l-0,-0.168Z" style="fill:#005f89;fill-rule:nonzero;"/></g><g transform="matrix(18.1811,0,0,18.1811,1662.66,4090.1)"><path d="M0.445,-0.581c-0.044,-0.081 -0.098,-0.144 -0.161,-0.189l0.079,-0.05c0.084,0.059 0.158,0.171 0.223,0.337c0.095,0.233 0.218,0.399 0.37,0.497l-0.059,0.075c-0.157,-0.094 -0.288,-0.274 -0.394,-0.541l-0.007,-0.019c-0.068,0.242 -0.203,0.429 -0.405,0.561l-0.057,-0.081c0.208,-0.137 0.345,-0.333 0.411,-0.59Z" style="fill:#005f89;fill-rule:nonzero;"/></g><g transform="matrix(18.1811,0,0,18.1811,1681.94,4090.1)"><path d="M0.13,-0.714l0.322,0l0,-0.105l0.092,0l0,0.105l0.318,0l-0,0.087l-0.318,0l0,0.134l0.387,0l0,0.089l-0.864,0l-0,-0.089l0.385,0l-0,-0.134l-0.322,0l-0,-0.087Zm0.345,0.333l0.091,-0l-0,0.12l0.275,-0l-0,0.089l-0.275,-0l-0,0.171c0.054,0.005 0.107,0.007 0.158,0.007c0.091,-0 0.168,-0.002 0.231,-0.006l-0.028,0.096c-0.054,-0 -0.12,-0.001 -0.197,-0.002c-0.171,-0.001 -0.289,-0.017 -0.353,-0.048c-0.048,-0.024 -0.092,-0.07 -0.131,-0.139c-0.032,0.069 -0.076,0.133 -0.131,0.194l-0.073,-0.064c0.102,-0.115 0.159,-0.243 0.171,-0.382l0.093,0.012c-0.004,0.054 -0.013,0.105 -0.028,0.154c0.041,0.076 0.087,0.124 0.139,0.145c0.017,0.007 0.037,0.013 0.058,0.018l-0,-0.365Z" style="fill:#005f89;fill-rule:nonzero;"/></g><g transform="matrix(18.1811,0,0,18.1811,1701.21,4090.1)"><path d="M0.124,-0.187l0.327,0l0,-0.063l0.081,0l-0.059,-0.053c0.06,-0.061 0.091,-0.139 0.093,-0.232l-0,-0.254l0.344,0l-0,0.456c-0,0.059 -0.03,0.089 -0.089,0.089l-0.089,0l-0.023,-0.085c0.04,0.003 0.068,0.004 0.085,0.004c0.017,0 0.026,-0.013 0.026,-0.039l-0,-0.045l-0.183,0c-0.018,0.063 -0.049,0.118 -0.092,0.165l-0,0.057l0.332,-0l-0,0.088l-0.332,-0l-0,0.081l0.397,-0l-0,0.087l-0.884,-0l-0,-0.087l0.393,-0l-0,-0.081l-0.327,-0l-0,-0.088Zm-0.055,-0.518l0.105,0c-0.016,-0.03 -0.032,-0.057 -0.048,-0.081l0.075,-0.037c0.021,0.033 0.043,0.073 0.066,0.118l0.059,0c0.021,-0.037 0.039,-0.078 0.054,-0.122l0.085,0.029c-0.013,0.032 -0.029,0.063 -0.047,0.093l0.109,0l-0,0.083l-0.178,0l-0,0.086c-0.001,0.018 -0.002,0.04 -0.005,0.065l0.074,0l-0,-0.108l0.083,0l-0,0.187l-0.176,0c-0.011,0.027 -0.023,0.051 -0.036,0.07c-0.036,0.049 -0.095,0.087 -0.178,0.114l-0.047,-0.074c0.075,-0.025 0.126,-0.056 0.153,-0.095l0.009,-0.015l-0.128,0l-0,-0.187l0.082,0l-0,0.108l0.074,0c0.003,-0.019 0.006,-0.04 0.007,-0.065l-0,-0.086l-0.192,0l-0,-0.083Zm0.585,0.149l-0,0.015c-0,0.014 -0.001,0.033 -0.004,0.057l0.17,0l-0,-0.072l-0.166,0Zm0.166,-0.075l-0,-0.074l-0.166,0l-0,0.074l0.166,0Z" style="fill:#005f89;fill-rule:nonzero;"/></g><g transform="matrix(18.1811,0,0,18.1811,1720.48,4090.1)"><path d="M0.618,-0.813l0.096,0l0,0.286l0.221,0l0,0.093l-0.221,0l0,0.41l0.244,0l0,0.093l-0.59,0l0,-0.093l0.25,0l0,-0.41l-0.215,0l0,-0.093l0.215,0l0,-0.286Zm-0.432,0.523c-0.036,0.036 -0.075,0.071 -0.117,0.105l-0.03,-0.1c0.132,-0.107 0.221,-0.212 0.266,-0.313l-0.242,0l0,-0.091l0.141,0c-0.013,-0.034 -0.029,-0.071 -0.048,-0.11l0.09,-0.025c0.023,0.055 0.039,0.1 0.049,0.135l0.106,0l0,0.08c-0.025,0.071 -0.065,0.141 -0.118,0.21c0.06,0.035 0.112,0.071 0.157,0.11l-0.054,0.082c-0.034,-0.035 -0.07,-0.066 -0.107,-0.094l-0,0.402l-0.093,0l-0,-0.391Z" style="fill:#005f89;fill-rule:nonzero;"/></g><g transform="matrix(18.1811,0,0,18.1811,1739.75,4090.1)"><path d="M0.323,-0.653l0.464,0l0,0.254l-0.464,0l0,-0.254Zm0.375,0.17l0,-0.086l-0.285,0l0,0.086l0.285,-0Zm-0.452,0.14l0.289,-0l0,0.28l-0.289,-0l0,-0.28Zm0.205,0.199l0,-0.118l-0.121,-0l0,0.118l0.121,-0Zm0.149,-0.199l0.289,-0l0,0.28l-0.289,-0l-0,-0.28Zm0.205,0.199l-0,-0.118l-0.122,-0l-0,0.118l0.122,-0Zm-0.701,-0.644l0.809,-0l-0,0.091l-0.716,0l-0,0.676l0.736,-0l-0,0.091l-0.829,-0l-0,-0.858Z" style="fill:#005f89;fill-rule:nonzero;"/></g><g transform="matrix(18.1811,0,0,18.1811,1759.02,4090.1)"><path d="M0.917,-0.788l0,0.892l-0.091,0l-0,-0.037l-0.652,0l-0,0.037l-0.091,0l-0,-0.892l0.834,0Zm-0.743,0.771l0.652,0l-0,-0.69l-0.652,0l-0,0.69Zm0.058,-0.644l0.221,0l-0,-0.028l0.088,0l0,0.028l0.224,0l0,0.06l-0.224,0l0,0.034l0.188,0l-0,0.2c0.023,0.026 0.044,0.052 0.062,0.078l-0.056,0.039c-0.013,-0.019 -0.02,-0.031 -0.023,-0.034l-0.031,0.002l0,0.045l0.098,-0l0,0.07l-0.098,-0l0,0.05c0,0.049 -0.028,0.074 -0.084,0.074l-0.097,-0l-0.017,-0.075c0.04,0.003 0.069,0.004 0.087,0.004c0.019,-0 0.029,-0.007 0.029,-0.022l-0,-0.031l-0.27,-0c0.04,0.015 0.079,0.032 0.117,0.053l-0.039,0.06c-0.04,-0.027 -0.081,-0.049 -0.124,-0.065l0.032,-0.048l-0.096,-0l-0,-0.07l0.38,-0l-0,-0.04c-0.137,0.006 -0.256,0.011 -0.358,0.014l-0.009,-0.06c0.1,-0.001 0.174,-0.003 0.222,-0.004l-0,-0.031l-0.186,-0l-0,-0.209l0.185,-0l-0,-0.034l-0.221,-0l-0,-0.06Zm0.308,0.303l0,0.029l0.133,-0.005c-0.01,-0.013 -0.016,-0.021 -0.019,-0.024l-0.114,-0Zm0.111,-0.047l0,-0.036l-0.121,-0l0,0.036l0.121,-0Zm-0.187,-0l0,-0.036l-0.117,-0l-0,0.036l0.117,-0Zm-0.117,-0.078l0.117,-0l0,-0.033l-0.117,-0l-0,0.033Zm0.183,-0.033l0,0.033l0.121,-0l0,-0.033l-0.121,-0Z" style="fill:#005f89;fill-rule:nonzero;"/></g><g transform="matrix(18.1811,0,0,18.1811,1778.3,4090.1)"><path d="M0.073,-0.786l0.29,0l0,0.071c-0.02,0.073 -0.045,0.154 -0.074,0.242c0.046,0.082 0.071,0.155 0.075,0.218c0,0.051 -0.009,0.088 -0.027,0.109c-0.027,0.028 -0.074,0.043 -0.14,0.044l-0.029,-0.095c0.022,0.003 0.039,0.005 0.05,0.005c0.02,-0.002 0.034,-0.007 0.043,-0.016c0.007,-0.009 0.011,-0.025 0.011,-0.047c0,-0.059 -0.025,-0.128 -0.076,-0.205c0.031,-0.087 0.056,-0.167 0.075,-0.241l-0.104,0l0,0.795l-0.094,0l0,-0.88Zm0.306,0.09l0.126,0c-0.014,-0.033 -0.03,-0.064 -0.048,-0.093l0.089,-0.033c0.018,0.034 0.035,0.076 0.052,0.126l0.11,0c0.019,-0.037 0.038,-0.079 0.055,-0.125l0.089,0.031c-0.015,0.035 -0.032,0.067 -0.049,0.094l0.134,0l0,0.092l-0.242,0c-0.02,0.026 -0.043,0.051 -0.068,0.074c0.029,0.029 0.054,0.064 0.073,0.105c0.061,-0.029 0.115,-0.07 0.162,-0.121l0.068,0.056c-0.03,0.032 -0.062,0.06 -0.095,0.083c0.024,0.119 0.068,0.224 0.132,0.316l-0.065,0.081c-0.062,-0.107 -0.106,-0.227 -0.132,-0.358l-0.041,0.019c0.021,0.068 0.031,0.144 0.031,0.229c0,0.101 -0.014,0.163 -0.041,0.185c-0.027,0.021 -0.072,0.032 -0.133,0.035l-0.049,0.001l-0.029,-0.085l0.074,0c0.028,-0 0.049,-0.007 0.064,-0.02c0.015,-0.016 0.022,-0.055 0.022,-0.116c0,-0.026 -0.001,-0.05 -0.003,-0.072c-0.078,0.078 -0.17,0.144 -0.275,0.197l-0.054,-0.081c0.133,-0.062 0.237,-0.135 0.312,-0.219c-0.006,-0.023 -0.013,-0.045 -0.021,-0.064c-0.053,0.061 -0.122,0.112 -0.207,0.153l-0.046,-0.08c0.089,-0.039 0.161,-0.088 0.214,-0.147c-0.012,-0.018 -0.023,-0.032 -0.032,-0.041c-0.051,0.033 -0.107,0.063 -0.169,0.09l-0.049,-0.081c0.109,-0.038 0.191,-0.084 0.246,-0.139l-0.205,0l0,-0.092Z" style="fill:#005f89;fill-rule:nonzero;"/></g><g transform="matrix(18.1811,0,0,18.1811,1797.57,4090.1)"><path d="M0.104,-0.714l0.125,0l-0.023,0.512l-0.079,-0l-0.023,-0.512Zm0.062,0.571c0.022,-0 0.04,0.007 0.053,0.02c0.014,0.013 0.021,0.03 0.021,0.051c0,0.021 -0.007,0.038 -0.021,0.052c-0.015,0.013 -0.033,0.02 -0.053,0.02c-0.02,-0 -0.037,-0.007 -0.051,-0.021c-0.015,-0.014 -0.022,-0.031 -0.022,-0.051c0,-0.021 0.007,-0.038 0.022,-0.051c0.013,-0.013 0.03,-0.02 0.051,-0.02Z" style="fill:#005f89;fill-rule:nonzero;"/></g></g></g></svg>