<?xml version="1.0" encoding="UTF-8" standalone="no"?><!DOCTYPE svg PUBLIC "-//W3C//DTD SVG 1.1//EN" "http://www.w3.org/Graphics/SVG/1.1/DTD/svg11.dtd"><svg width="100%" height="100%" viewBox="0 0 900 166" version="1.1" xmlns="http://www.w3.org/2000/svg" xmlns:xlink="http://www.w3.org/1999/xlink" xml:space="preserve" xmlns:serif="http://www.serif.com/" style="fill-rule:evenodd;clip-rule:evenodd;stroke-linejoin:round;stroke-miterlimit:2;"><rect id="Artboard1" x="0" y="0" width="900" height="165.055" style="fill:none;"/><clipPath id="_clip1"><rect x="0" y="0" width="900" height="165.055"/></clipPath><g clip-path="url(#_clip1)"><g><path id="background" d="M819.532,82.461l80.468,-82.461l-819.516,0l-80.484,82.461l80.484,82.475l819.516,-0l-80.468,-82.475Z" style="fill:#005f89;fill-rule:nonzero;"/><g id="text"><path d="M242.017,29.767c-0,-2.361 1.108,-3.542 3.324,-3.542l10.432,0c2.293,0 3.439,1.143 3.439,3.427l0,2.514c0,1.904 0.955,2.855 2.866,2.855l36.799,0c2.292,0 3.439,1.143 3.439,3.427l-0,6.626c-0,2.285 -1.147,3.427 -3.439,3.427l-36.799,0c-1.911,0 -2.866,0.952 -2.866,2.856l0,12.337c0,1.904 0.955,2.856 2.866,2.856l40.009,0c2.292,0 3.439,1.142 3.439,3.427l-0,6.626c-0,2.284 -1.147,3.427 -3.439,3.427l-40.009,-0c-1.911,-0 -2.866,0.952 -2.866,2.856l0,9.138c0,1.904 0.955,2.856 2.866,2.856l35.423,0c2.293,0 3.439,1.143 3.439,3.427l0,6.626c0,2.284 -1.146,3.427 -3.439,3.427l-35.423,-0c-1.911,-0 -2.866,0.952 -2.866,2.856l0,8.681c0,1.904 0.955,2.856 2.866,2.856l40.009,0c2.292,0 3.439,1.143 3.439,3.427l-0,6.626c-0,2.285 -1.147,3.427 -3.439,3.427l-77.037,-0c-1.528,-0.305 -3.057,-0.762 -4.585,-1.371c-2.446,-1.447 -4.739,-1.485 -6.879,-0.114c-3.057,1.523 -7.336,2.018 -12.839,1.485c-2.293,-0 -3.63,-1.142 -4.012,-3.427l-0.917,-5.712c-0.535,-2.894 -0.382,-4.341 0.458,-4.341c4.28,-0.228 6.152,-2.284 5.617,-6.168l0,-23.418c0,-2.285 1.147,-3.427 3.44,-3.427l9.858,-0c2.293,-0 3.44,1.142 3.44,3.427l-0,19.876c-0,1.828 0.458,3.504 1.375,5.027c2.675,3.655 5.808,5.216 9.4,4.683l9.745,0c1.91,0 2.866,-0.952 2.866,-2.856l-0,-37.011c-0,-1.904 -0.956,-2.856 -2.866,-2.856l-40.582,-0c-2.293,-0 -3.439,-1.143 -3.439,-3.427l-0,-6.626c-0,-2.285 1.146,-3.427 3.439,-3.427l40.582,0c1.91,0 2.866,-0.952 2.866,-2.856l-0,-12.337c-0,-1.904 -0.956,-2.856 -2.866,-2.856l-37.372,0c-2.293,0 -3.439,-1.142 -3.439,-3.427l-0,-6.626c-0,-2.284 1.146,-3.427 3.439,-3.427l37.372,0c1.91,0 2.866,-0.951 2.866,-2.855l-0,-2.399Z" style="fill:#fff;fill-rule:nonzero;"/><path d="M331.709,30.452c-1.223,-2.513 -0.841,-3.77 1.146,-3.77l10.661,0c2.293,0 3.974,1.143 5.044,3.427c1.376,2.666 3.019,3.999 4.93,3.999c2.14,-0 3.821,-1.143 5.044,-3.427c1.452,-2.666 3.172,-3.999 5.159,-3.999l10.317,0c2.293,0 2.904,1.143 1.834,3.427l-0.458,1.028c-0.918,1.981 -0.115,2.971 2.407,2.971c2.446,-0 3.668,1.142 3.668,3.427l0,4.797c0,2.285 -1.146,3.427 -3.439,3.427l-13.412,0c-1.911,0 -2.866,0.952 -2.866,2.856l-0,15.079c-0,1.904 0.955,2.856 2.866,2.856c2.216,0.381 3.974,-0.571 5.273,-2.856c0.229,-2.361 0.306,-4.76 0.229,-7.197c0,-2.284 1.147,-3.427 3.439,-3.427l2.981,0c2.293,0 3.439,1.143 3.439,3.427l0,14.622c-0.153,3.808 -2.254,6.093 -6.305,6.855c-2.981,0.228 -5.999,0.304 -9.056,0.228c-1.911,-0 -2.866,0.952 -2.866,2.856c0.229,4.569 0.038,7.654 -0.573,9.253c-1.3,3.731 -3.936,5.94 -7.91,6.625l-22.469,0c-2.293,0 -3.631,-1.142 -4.013,-3.427l-0.458,-3.427c-0.459,-2.589 0.458,-3.884 2.751,-3.884l8.942,0c4.432,0.381 6.572,-1.523 6.419,-5.711c0,-1.523 -0.955,-2.285 -2.865,-2.285l-12.037,-0c-2.293,-0 -3.44,-1.142 -3.44,-3.427l0,-18.278c0,-2.284 1.147,-3.427 3.44,-3.427l2.98,0c2.293,0 3.439,1.143 3.439,3.427l0,7.197c0,1.904 0.956,2.856 2.866,2.856l2.752,0c1.91,0 2.865,-0.952 2.865,-2.856l0,-15.079c0,-1.904 -0.955,-2.856 -2.865,-2.856l-13.986,0c-2.293,0 -3.439,-1.142 -3.439,-3.427l-0,-4.797c-0,-2.285 1.146,-3.427 3.439,-3.427l3.095,-0c1.911,-0 2.255,-1.219 1.032,-3.656Zm55.599,1.142c-0,-2.36 1.108,-3.541 3.324,-3.541l37.487,0c2.293,0 3.439,1.143 3.439,3.427l-0,56.318c-0.459,4.95 -3.057,7.768 -7.795,8.453c-2.14,0.228 -4.318,0.305 -6.535,0.228c-2.293,0 -3.668,-1.142 -4.127,-3.427l-0.917,-4.226c-0.306,-1.904 -0.153,-2.97 0.459,-3.199c2.063,-1.142 2.789,-3.046 2.178,-5.712c-0,-2.056 -0.955,-3.084 -2.866,-3.084l-5.044,0c-1.911,0 -2.866,0.952 -2.866,2.856l-0,8.568c-0,1.903 -0.726,3.807 -2.178,5.711c-2.675,2.513 -6.267,3.503 -10.776,2.97c-1.911,0 -2.866,0.952 -2.866,2.856l-0,2.513c-0,1.904 0.955,2.856 2.866,2.856l36.455,0c2.292,0 3.439,1.143 3.439,3.427l-0,4.341c-0,2.285 -1.147,3.427 -3.439,3.427l-36.455,0c-1.911,0 -2.866,0.952 -2.866,2.856l-0,2.513c-0,1.904 0.955,2.856 2.866,2.856l40.008,0c2.293,0 3.439,1.142 3.439,3.427l0,4.798c0,2.285 -1.146,3.427 -3.439,3.427l-103.517,-0c-2.293,-0 -3.439,-1.142 -3.439,-3.427l-0,-4.798c-0,-2.285 1.146,-3.427 3.439,-3.427l40.581,0c1.911,0 2.866,-0.952 2.866,-2.856l0,-2.513c0,-1.904 -0.955,-2.856 -2.866,-2.856l-36.454,0c-2.293,0 -3.439,-1.142 -3.439,-3.427l-0,-4.341c-0,-2.284 1.146,-3.427 3.439,-3.427l36.454,0c1.911,0 2.866,-0.952 2.866,-2.856l0,-1.942c0,-2.284 1.147,-3.427 3.439,-3.427l7.796,0c1.91,0 2.636,-1.218 2.178,-3.655l-0.459,-3.199c-0.535,-2.589 -0.382,-3.922 0.459,-3.998c2.446,-0.609 3.401,-2.399 2.866,-5.369l-0,-49.121Zm27.513,11.195c-0,-1.98 -0.917,-2.97 -2.751,-2.97l-5.159,0c-1.911,0 -2.866,0.952 -2.866,2.856l-0,2.628c-0,1.903 0.955,2.855 2.866,2.855l5.044,0c1.911,0 2.866,-0.952 2.866,-2.855l-0,-2.514Zm-0,18.278c-0,-1.98 -0.917,-2.97 -2.751,-2.97l-5.159,-0c-1.911,-0 -2.866,0.952 -2.866,2.856l-0,3.198c-0,1.904 0.955,2.856 2.866,2.856l5.044,0c1.911,0 2.866,-0.952 2.866,-2.856l-0,-3.084Z" style="fill:#fff;fill-rule:nonzero;"/><path d="M500.501,27.825c-0,-1.143 1.07,-1.714 3.21,-1.714l10.546,0c2.293,0 3.439,0.495 3.439,1.485c0,1.143 0.956,1.714 2.866,1.714l39.55,-0c2.293,-0 3.439,1.142 3.439,3.427l0,10.509c0,2.285 -0.879,3.427 -2.636,3.427c-1.911,0 -2.866,0.952 -2.866,2.856l-0,4.57c-0,1.903 0.993,2.855 2.98,2.855c1.987,0 2.981,1.181 2.981,3.542c-0,2.361 -0.955,3.541 -2.866,3.541c-2.064,-0 -3.134,1.18 -3.21,3.541c-1.146,5.788 -4.242,8.568 -9.286,8.339l-85.519,0c-2.293,0 -3.439,-1.142 -3.439,-3.427l-0,-5.597c-0,-1.904 -0.956,-2.856 -2.866,-2.856c-1.834,-0 -2.751,-1.18 -2.751,-3.541c-0,-2.361 0.917,-3.542 2.751,-3.542c1.91,0 2.866,-0.952 2.866,-2.855l-0,-4.57c-0,-1.904 -0.917,-2.856 -2.752,-2.856c-1.834,0 -2.751,-1.142 -2.751,-3.427l0,-10.509c0,-2.285 1.147,-3.427 3.439,-3.427l40.009,-0c1.91,-0 2.866,-0.495 2.866,-1.485Zm45.855,14.165c-0.077,-2.209 -1.032,-3.313 -2.866,-3.313l-69.241,-0c-1.911,-0 -2.866,1.066 -2.866,3.199c-0,2.132 0.955,3.198 2.866,3.198l69.241,0c1.91,0 2.866,-1.028 2.866,-3.084Zm-45.855,12.223c-0,-1.98 -0.917,-2.97 -2.752,-2.97l-17.883,-0c-1.911,-0 -2.866,0.952 -2.866,2.856c0,1.903 0.955,2.855 2.866,2.855l17.769,0c1.91,0 2.866,-0.913 2.866,-2.741Zm40.352,-0c0,-1.98 -0.917,-2.97 -2.751,-2.97l-17.54,-0c-1.91,-0 -2.866,0.952 -2.866,2.856c0,1.903 0.956,2.855 2.866,2.855l17.425,0c1.911,0 2.866,-0.913 2.866,-2.741Zm-40.352,12.68c-0,-1.904 -0.917,-2.856 -2.752,-2.856l-17.883,-0c-1.911,-0 -2.866,0.914 -2.866,2.742c0,1.903 0.955,2.855 2.866,2.855l17.769,0c1.91,0 2.866,-0.913 2.866,-2.741Zm40.352,-1.257c0,-1.066 -0.955,-1.599 -2.866,-1.599l-17.425,-0c-1.91,-0 -2.866,0.914 -2.866,2.742c0,1.903 0.956,2.855 2.866,2.855l14.788,0c3.363,0.762 5.197,-0.571 5.503,-3.998Zm-82.08,19.534c-0,-2.361 1.108,-3.541 3.324,-3.541l93.43,-0c2.292,-0 3.439,1.142 3.439,3.427l-0,31.986c-0.153,4.797 -2.752,7.653 -7.796,8.567l-7.336,0.114c-1.911,0 -2.599,0.61 -2.064,1.828c1.376,2.513 3.21,3.96 5.503,4.341l13.298,0c2.292,0 3.439,0.724 3.439,2.17c-0,1.447 -1.147,2.171 -3.439,2.171l-30.952,-0c-4.662,-0.305 -8.101,-2.742 -10.318,-7.311c-1.528,-2.132 -3.21,-3.199 -5.044,-3.199l-9.515,0c-1.834,0 -3.553,1.143 -5.158,3.427c-3.134,4.341 -7.031,6.702 -11.693,7.083l-28.774,-0c-2.293,-0 -3.783,-0.724 -4.471,-2.171c-0.612,-1.446 0.229,-2.17 2.522,-2.17l16.278,0c1.223,-0.381 2.752,-1.333 4.586,-2.856c1.452,-2.208 1.223,-3.313 -0.688,-3.313l-15.132,0c-2.293,0 -3.439,-1.142 -3.439,-3.427l-0,-37.126Zm82.997,7.311c0,-1.904 -0.955,-2.856 -2.866,-2.856l-60.07,0c-1.91,0 -2.866,0.952 -2.866,2.856c0,1.904 0.956,2.856 2.866,2.856l60.07,0c1.911,0 2.866,-0.952 2.866,-2.856Zm0,10.967c-0.229,-1.904 -1.261,-2.856 -3.095,-2.856l-59.841,-0c-1.91,-0 -2.866,0.914 -2.866,2.741c0,1.904 0.956,2.856 2.866,2.856l60.07,0c1.911,0 2.866,-0.914 2.866,-2.741Zm0.115,9.481c-0.077,-0.914 -1.032,-1.371 -2.866,-1.371l-60.185,0c-1.91,0 -2.866,1.028 -2.866,3.085c0,2.056 0.956,3.084 2.866,3.084l57.319,-0c3.745,0.533 5.655,-1.066 5.732,-4.798Z" style="fill:#fff;fill-rule:nonzero;"/><path d="M654.963,29.767c-0,-2.057 1.07,-3.085 3.21,-3.085l10.546,0c2.293,0 3.44,0.99 3.44,2.97c-0,2.057 0.955,3.085 2.866,3.085l14.329,-0c2.293,-0 3.439,1.142 3.439,3.427l0,5.712c0,2.284 -1.146,3.427 -3.439,3.427l-14.329,-0c-1.911,-0 -2.866,0.951 -2.866,2.855l-0,4.456c-0,1.903 0.955,2.855 2.866,2.855l12.954,0c2.292,0 3.439,1.143 3.439,3.427l-0,5.826c-0,2.285 -0.65,3.427 -1.949,3.427c-1.452,0 -2.178,0.952 -2.178,2.856l-0,3.085c-0,1.903 0.917,2.855 2.751,2.855c1.834,0 2.751,1.143 2.751,3.427l0,6.74c0,2.285 -0.879,3.427 -2.636,3.427c-1.911,0 -2.866,0.952 -2.866,2.856l-0,33.128c-0.306,4.874 -3.478,8.111 -9.515,9.71l-15.476,-0c-2.293,-0 -3.63,-1.142 -4.013,-3.427l-0.917,-4.798c-0.458,-1.828 -1.605,-2.742 -3.439,-2.742c-6.572,1.067 -10.852,-1.789 -12.839,-8.567c-1.147,-5.026 -2.178,-10.053 -3.095,-15.079c-0.459,-2.437 0.382,-3.656 2.522,-3.656l9.515,0c2.292,0 3.668,1.143 4.127,3.428l1.604,7.996c0.077,1.295 1.109,2.323 3.096,3.084c0.917,0.229 1.375,1.295 1.375,3.199l0,4.226c0,1.904 0.956,2.856 2.866,2.856c4.433,0.914 6.764,-1.18 6.993,-6.283l0,-23.075c0,-1.904 -0.955,-2.856 -2.866,-2.856l-30.035,0c-2.293,0 -3.439,-1.142 -3.439,-3.427l0,-6.74c0,-2.284 1.146,-3.427 3.439,-3.427l30.035,0c1.911,0 2.866,-0.952 2.866,-2.855l0,-3.085c0,-1.904 -0.955,-2.856 -2.866,-2.856l-27.742,0c-2.293,0 -3.439,-1.142 -3.439,-3.427l-0,-5.826c-0,-2.284 1.146,-3.427 3.439,-3.427l12.61,0c1.911,0 2.866,-0.952 2.866,-2.855l-0,-4.456c-0,-1.904 -0.955,-2.855 -2.866,-2.855l-15.361,-0c-2.293,-0 -3.439,-1.143 -3.439,-3.427l-0,-5.712c-0,-2.285 1.146,-3.427 3.439,-3.427l15.361,-0c1.911,-0 2.866,-0.99 2.866,-2.97Zm-69.241,1.827c0,-2.36 1.108,-3.541 3.324,-3.541l34.85,0c2.293,0 3.439,1.143 3.439,3.427l0,95.843c-0.076,5.102 -3.018,8.072 -8.827,8.91l-29.347,-0c-2.293,-0 -3.439,-1.142 -3.439,-3.427l0,-101.212Zm26.137,12.909c0,-1.904 -0.955,-2.856 -2.866,-2.856l-4.929,0c-1.911,0 -2.866,0.952 -2.866,2.856l0,27.873c0,1.904 0.955,2.856 2.866,2.856l4.929,-0c1.911,-0 2.866,-0.952 2.866,-2.856l0,-27.873Zm0,47.293c0,-2.056 -0.879,-3.084 -2.636,-3.084l-5.159,-0c-1.911,-0 -2.866,0.951 -2.866,2.855l0,28.33c0,1.904 0.955,2.856 2.866,2.856c1.834,0.076 3.783,0 5.846,-0.228c1.682,-1.066 2.331,-2.856 1.949,-5.369l0,-25.36Z" style="fill:#fff;fill-rule:nonzero;"/></g></g></g></svg>