<?xml version="1.0" encoding="UTF-8" standalone="no"?><!DOCTYPE svg PUBLIC "-//W3C//DTD SVG 1.1//EN" "http://www.w3.org/Graphics/SVG/1.1/DTD/svg11.dtd"><svg width="100%" height="100%" viewBox="0 0 600 66" version="1.1" xmlns="http://www.w3.org/2000/svg" xmlns:xlink="http://www.w3.org/1999/xlink" xml:space="preserve" xmlns:serif="http://www.serif.com/" style="fill-rule:evenodd;clip-rule:evenodd;stroke-linejoin:round;stroke-miterlimit:2;"><path d="M567.956,32.838l32.044,-32.838l-567.949,0l-32.051,32.838l32.051,32.844l567.949,-0l-32.044,-32.844Z" style="fill:#005f89;fill-rule:nonzero;"/><g><path d="M43.31,12.638c0,-0.971 0.426,-1.456 1.278,-1.456l12.692,0c0.913,0 1.369,0.455 1.369,1.365l0,2.638c0,0.91 -0.456,1.365 -1.369,1.365l-1.69,0c-0.76,0 -1.141,0.379 -1.141,1.137l0,10.736c0,0.758 0.381,1.138 1.141,1.138l0.913,-0c0.913,-0 1.37,0.454 1.37,1.364l-0,2.639c-0,0.91 -0.457,1.364 -1.37,1.364l-0.913,0c-0.76,0 -1.141,0.38 -1.141,1.138l0,11.827c0,0.759 0.381,1.138 1.141,1.138l4.52,-0c0.883,-0.061 1.659,-0.486 2.328,-1.274l1.187,-2.684c0.396,-0.91 1.05,-1.365 1.963,-1.365l4.383,0c0.913,0 1.171,0.455 0.776,1.365c-0.913,2.093 -1.781,4.185 -2.602,6.278c-0.883,1.85 -2.192,2.866 -3.926,3.048l-20.087,-0c-0.913,-0 -1.37,-0.455 -1.37,-1.365l0,-2.639c0,-0.909 0.457,-1.364 1.37,-1.364l2.282,-0c0.761,-0 1.142,-0.379 1.142,-1.138l-0,-11.827c-0,-0.758 -0.381,-1.138 -1.142,-1.138l-1.369,0c-0.913,0 -1.37,-0.454 -1.37,-1.364l0,-2.639c0,-0.91 0.457,-1.364 1.37,-1.364l1.369,-0c0.761,-0 1.142,-0.38 1.142,-1.138l-0,-10.736c-0,-0.758 -0.381,-1.137 -1.142,-1.137l-1.734,0c-0.913,0 -1.37,-0.455 -1.37,-1.365l0,-2.547Zm18.489,0.091c0,-0.94 0.441,-1.41 1.324,-1.41l20.771,-0c0.913,-0 1.37,0.454 1.37,1.364l-0,25.02c-0.152,1.426 -0.73,2.427 -1.735,3.003c-0.395,0.182 -0.593,0.622 -0.593,1.319l-0,4.868c-0.122,1.728 0.624,2.441 2.237,2.138c0.791,-0 1.187,0.455 1.187,1.364l-0,2.639c-0,0.91 -0.457,1.365 -1.37,1.365l-5.432,-0c-1.918,-0 -3.09,-1.153 -3.516,-3.458l0,-8.688c0,-0.759 -0.38,-1.138 -1.141,-1.138l-11.732,0c-0.913,0 -1.37,-0.455 -1.37,-1.364l0,-27.022Zm16.617,4.867c0,-0.818 -0.35,-1.228 -1.05,-1.228l-7.578,0c-0.761,0 -1.141,0.379 -1.141,1.137l-0,1.593c-0,0.758 0.38,1.137 1.141,1.137l7.487,-0c0.761,-0 1.141,-0.379 1.141,-1.137l0,-1.502Zm0,8.189c0,-0.819 -0.35,-1.229 -1.05,-1.229l-7.578,0c-0.761,0 -1.141,0.38 -1.141,1.138l-0,1.455c-0,0.759 0.38,1.138 1.141,1.138l7.487,-0c0.761,-0 1.141,-0.379 1.141,-1.138l0,-1.364Zm0,8.052c-0.03,-0.849 -0.411,-1.274 -1.141,-1.274l-7.487,-0c-0.761,-0 -1.141,0.379 -1.141,1.137l-0,1.274c-0,0.758 0.38,1.137 1.141,1.137l6.483,0c1.734,0.152 2.45,-0.606 2.145,-2.274Z" style="fill:#fff;fill-rule:nonzero;"/><path d="M122.717,12.001c-0,-0.819 0.426,-1.228 1.278,-1.228l4.2,-0c0.913,-0 1.369,0.394 1.369,1.182c0,0.819 0.381,1.229 1.142,1.229l5.706,-0c0.913,-0 1.37,0.455 1.37,1.364l-0,2.275c-0,0.91 -0.457,1.365 -1.37,1.365l-5.706,-0c-0.761,-0 -1.142,0.379 -1.142,1.137l0,1.774c0,0.758 0.381,1.137 1.142,1.137l5.158,0c0.913,0 1.37,0.455 1.37,1.365l-0,2.32c-0,0.91 -0.259,1.365 -0.776,1.365c-0.579,-0 -0.868,0.379 -0.868,1.137l0,1.228c0,0.759 0.366,1.138 1.096,1.138c0.73,-0 1.096,0.455 1.096,1.365l-0,2.683c-0,0.91 -0.35,1.365 -1.05,1.365c-0.761,0 -1.142,0.379 -1.142,1.137l0,13.193c-0.121,1.941 -1.384,3.23 -3.789,3.867l-6.163,-0c-0.913,-0 -1.445,-0.455 -1.598,-1.365l-0.365,-1.911c-0.182,-0.728 -0.639,-1.091 -1.369,-1.091c-2.618,0.424 -4.322,-0.713 -5.113,-3.412c-0.457,-2.002 -0.868,-4.004 -1.233,-6.005c-0.182,-0.971 0.152,-1.456 1.004,-1.456l3.79,0c0.913,0 1.46,0.455 1.643,1.365l0.639,3.184c0.031,0.516 0.441,0.925 1.233,1.228c0.365,0.091 0.548,0.516 0.548,1.274l-0,1.683c-0,0.759 0.38,1.138 1.141,1.138c1.765,0.364 2.693,-0.47 2.785,-2.502l-0,-9.19c-0,-0.758 -0.381,-1.137 -1.142,-1.137l-11.96,0c-0.913,0 -1.37,-0.455 -1.37,-1.365l0,-2.683c0,-0.91 0.457,-1.365 1.37,-1.365l11.96,-0c0.761,-0 1.142,-0.379 1.142,-1.138l-0,-1.228c-0,-0.758 -0.381,-1.137 -1.142,-1.137l-11.047,-0c-0.913,-0 -1.37,-0.455 -1.37,-1.365l0,-2.32c0,-0.91 0.457,-1.365 1.37,-1.365l5.021,0c0.761,0 1.142,-0.379 1.142,-1.137l-0,-1.774c-0,-0.758 -0.381,-1.137 -1.142,-1.137l-6.117,-0c-0.913,-0 -1.37,-0.455 -1.37,-1.365l0,-2.275c0,-0.909 0.457,-1.364 1.37,-1.364l6.117,-0c0.761,-0 1.142,-0.395 1.142,-1.183Zm-27.574,0.728c-0,-0.94 0.441,-1.41 1.324,-1.41l13.878,-0c0.913,-0 1.37,0.454 1.37,1.364l-0,38.167c-0.031,2.032 -1.203,3.215 -3.516,3.549l-11.686,-0c-0.914,-0 -1.37,-0.455 -1.37,-1.365l-0,-40.305Zm10.409,5.14c-0,-0.758 -0.381,-1.137 -1.142,-1.137l-1.963,0c-0.761,0 -1.141,0.379 -1.141,1.137l-0,11.1c-0,0.758 0.38,1.137 1.141,1.137l1.963,0c0.761,0 1.142,-0.379 1.142,-1.137l-0,-11.1Zm-0,18.834c-0,-0.819 -0.35,-1.229 -1.05,-1.229l-2.055,0c-0.761,0 -1.141,0.379 -1.141,1.138l-0,11.281c-0,0.759 0.38,1.138 1.141,1.138c0.731,0.03 1.507,-0 2.328,-0.091c0.67,-0.425 0.929,-1.138 0.777,-2.138l-0,-10.099Z" style="fill:#fff;fill-rule:nonzero;"/><path d="M163.958,12.001c0,-0.94 0.442,-1.41 1.324,-1.41l4.154,-0c0.913,-0 1.37,0.455 1.37,1.364l-0,1.001c-0,0.758 0.38,1.138 1.141,1.138l14.654,-0c0.913,-0 1.37,0.454 1.37,1.364l-0,2.639c-0,0.91 -0.457,1.364 -1.37,1.364l-14.654,0c-0.761,0 -1.141,0.38 -1.141,1.138l-0,4.913c-0,0.758 0.38,1.137 1.141,1.137l15.933,0c0.913,0 1.369,0.455 1.369,1.365l0,2.638c0,0.91 -0.456,1.365 -1.369,1.365l-15.933,0c-0.761,0 -1.141,0.379 -1.141,1.137l-0,3.64c-0,0.758 0.38,1.137 1.141,1.137l14.107,-0c0.913,-0 1.369,0.455 1.369,1.365l0,2.638c0,0.91 -0.456,1.365 -1.369,1.365l-14.107,-0c-0.761,-0 -1.141,0.379 -1.141,1.137l-0,3.457c-0,0.759 0.38,1.138 1.141,1.138l15.933,-0c0.913,-0 1.369,0.455 1.369,1.364l0,2.639c0,0.91 -0.456,1.365 -1.369,1.365l-30.678,-0c-0.609,-0.122 -1.218,-0.304 -1.826,-0.546c-0.974,-0.576 -1.887,-0.592 -2.739,-0.046c-1.218,0.607 -2.922,0.804 -5.113,0.592c-0.913,-0 -1.446,-0.455 -1.598,-1.365l-0.365,-2.275c-0.213,-1.152 -0.153,-1.728 0.182,-1.728c1.705,-0.091 2.45,-0.91 2.237,-2.457l0,-9.325c0,-0.91 0.457,-1.365 1.37,-1.365l3.926,-0c0.913,-0 1.369,0.455 1.369,1.365l0,7.915c0,0.728 0.183,1.395 0.548,2.002c1.065,1.455 2.313,2.077 3.744,1.865l3.88,-0c0.761,-0 1.141,-0.379 1.141,-1.138l0,-14.739c0,-0.758 -0.38,-1.137 -1.141,-1.137l-16.161,0c-0.913,0 -1.369,-0.455 -1.369,-1.365l-0,-2.638c-0,-0.91 0.456,-1.365 1.369,-1.365l16.161,0c0.761,0 1.141,-0.379 1.141,-1.137l0,-4.913c0,-0.758 -0.38,-1.138 -1.141,-1.138l-14.883,0c-0.913,0 -1.369,-0.454 -1.369,-1.364l-0,-2.639c-0,-0.91 0.456,-1.364 1.369,-1.364l14.883,-0c0.761,-0 1.141,-0.38 1.141,-1.138l0,-0.955Z" style="fill:#fff;fill-rule:nonzero;"/><path d="M199.676,12.274c-0.487,-1.001 -0.335,-1.501 0.457,-1.501l4.245,-0c0.913,-0 1.583,0.455 2.009,1.364c0.548,1.062 1.202,1.593 1.963,1.593c0.852,-0 1.522,-0.455 2.009,-1.365c0.578,-1.062 1.263,-1.592 2.054,-1.592l4.108,-0c0.914,-0 1.157,0.455 0.731,1.364l-0.183,0.41c-0.365,0.788 -0.045,1.183 0.959,1.183c0.974,-0 1.461,0.455 1.461,1.364l-0,1.911c-0,0.91 -0.457,1.365 -1.37,1.365l-5.341,-0c-0.761,-0 -1.141,0.379 -1.141,1.137l-0,6.005c-0,0.758 0.38,1.137 1.141,1.137c0.883,0.152 1.583,-0.227 2.1,-1.137c0.091,-0.94 0.122,-1.896 0.091,-2.866c0,-0.91 0.457,-1.365 1.37,-1.365l1.187,0c0.913,0 1.369,0.455 1.369,1.365l0,5.823c-0.06,1.516 -0.897,2.426 -2.51,2.729c-1.187,0.091 -2.39,0.122 -3.607,0.091c-0.761,0 -1.141,0.379 -1.141,1.137c0.091,1.82 0.015,3.048 -0.228,3.685c-0.518,1.486 -1.568,2.366 -3.15,2.639l-8.948,-0c-0.913,-0 -1.446,-0.455 -1.598,-1.365l-0.183,-1.365c-0.182,-1.031 0.183,-1.546 1.096,-1.546l3.561,-0c1.765,0.151 2.617,-0.607 2.556,-2.275c0,-0.607 -0.38,-0.91 -1.141,-0.91l-4.793,0c-0.913,0 -1.37,-0.455 -1.37,-1.365l0,-7.278c0,-0.91 0.457,-1.365 1.37,-1.365l1.187,0c0.913,0 1.369,0.455 1.369,1.365l0,2.866c0,0.758 0.381,1.137 1.141,1.137l1.096,0c0.761,0 1.141,-0.379 1.141,-1.137l0,-6.005c0,-0.758 -0.38,-1.137 -1.141,-1.137l-5.569,-0c-0.913,-0 -1.37,-0.455 -1.37,-1.365l0,-1.911c0,-0.909 0.457,-1.364 1.37,-1.364l1.232,-0c0.761,-0 0.898,-0.486 0.411,-1.456Zm22.141,0.455c0,-0.94 0.441,-1.41 1.324,-1.41l14.928,-0c0.913,-0 1.37,0.454 1.37,1.364l-0,22.427c-0.183,1.972 -1.218,3.094 -3.105,3.367c-0.852,0.091 -1.719,0.121 -2.602,0.091c-0.913,-0 -1.461,-0.455 -1.643,-1.365l-0.366,-1.683c-0.121,-0.758 -0.06,-1.183 0.183,-1.274c0.822,-0.455 1.111,-1.213 0.867,-2.274c0,-0.819 -0.38,-1.229 -1.141,-1.229l-2.008,0c-0.761,0 -1.142,0.379 -1.142,1.138l0,3.411c0,0.759 -0.289,1.517 -0.867,2.275c-1.065,1.001 -2.496,1.395 -4.291,1.183c-0.761,-0 -1.142,0.379 -1.142,1.137l0,1.001c0,0.758 0.381,1.137 1.142,1.137l14.517,0c0.913,0 1.369,0.455 1.369,1.365l0,1.728c0,0.91 -0.456,1.365 -1.369,1.365l-14.517,0c-0.761,0 -1.142,0.379 -1.142,1.137l0,1.001c0,0.758 0.381,1.138 1.142,1.138l15.932,-0c0.913,-0 1.37,0.454 1.37,1.364l-0,1.911c-0,0.91 -0.457,1.365 -1.37,1.365l-41.223,-0c-0.913,-0 -1.37,-0.455 -1.37,-1.365l0,-1.911c0,-0.91 0.457,-1.364 1.37,-1.364l16.16,-0c0.761,-0 1.142,-0.38 1.142,-1.138l-0,-1.001c-0,-0.758 -0.381,-1.137 -1.142,-1.137l-14.517,0c-0.913,0 -1.37,-0.455 -1.37,-1.365l0,-1.728c0,-0.91 0.457,-1.365 1.37,-1.365l14.517,0c0.761,0 1.142,-0.379 1.142,-1.137l-0,-0.774c-0,-0.909 0.456,-1.364 1.369,-1.364l3.104,-0c0.761,-0 1.05,-0.486 0.868,-1.456l-0.183,-1.274c-0.213,-1.031 -0.152,-1.562 0.183,-1.592c0.974,-0.243 1.354,-0.955 1.141,-2.138l0,-19.561Zm10.956,4.458c0,-0.789 -0.365,-1.183 -1.095,-1.183l-2.054,0c-0.761,0 -1.142,0.379 -1.142,1.137l0,1.047c0,0.758 0.381,1.137 1.142,1.137l2.008,0c0.761,0 1.141,-0.379 1.141,-1.137l0,-1.001Zm0,7.279c0,-0.789 -0.365,-1.183 -1.095,-1.183l-2.054,-0c-0.761,-0 -1.142,0.379 -1.142,1.137l0,1.274c0,0.758 0.381,1.137 1.142,1.137l2.008,0c0.761,0 1.141,-0.379 1.141,-1.137l0,-1.228Z" style="fill:#fff;fill-rule:nonzero;"/><path d="M268.4,12.774c0.457,-1.213 1.096,-1.819 1.917,-1.819l3.424,-0c0.913,-0 1.233,0.455 0.959,1.364c-0.731,2.245 -1.415,4.489 -2.054,6.733c-0.396,0.789 -0.198,1.183 0.593,1.183l11.459,-0c0.73,-0 0.943,-0.41 0.639,-1.228l-0.685,-1.911c-0.335,-0.728 -0.867,-1.092 -1.598,-1.092l-4.017,0c-0.913,0 -1.37,-0.455 -1.37,-1.365l0,-2.274c0,-0.91 0.457,-1.365 1.37,-1.365l7.806,0c0.913,0 1.568,0.455 1.963,1.365c0.396,1.061 0.837,2.123 1.324,3.184c0.213,0.304 0.563,0.607 1.05,0.91c0.578,0.152 0.868,0.622 0.868,1.41l-0,2.411c-0,0.91 -0.32,1.365 -0.959,1.365c-0.7,0 -1.05,0.379 -1.05,1.137l-0,1.138c-0,0.909 -0.457,1.364 -1.37,1.364l-11.869,0c-0.731,0 -1.263,0.516 -1.598,1.547c-0.396,1.092 -0.228,1.638 0.502,1.638l6.209,-0c0.913,-0 1.369,0.455 1.369,1.364l0,21.063c-0.121,1.607 -0.837,2.669 -2.145,3.184c-0.791,0.334 -2.191,0.44 -4.2,0.319c-0.913,-0 -1.461,-0.455 -1.644,-1.365l-0.365,-2.275c-0.152,-0.909 -0.137,-1.364 0.046,-1.364c1.278,-0.273 1.765,-1.016 1.461,-2.229l-0,-12.92c-0,-0.758 -0.381,-1.137 -1.142,-1.137l-1.095,-0c-0.731,-0 -1.218,0.151 -1.461,0.455c-0.944,1.061 -2.435,1.516 -4.474,1.364c-0.913,0 -1.476,-0.454 -1.689,-1.364c-0.122,-0.334 -0.198,-0.683 -0.228,-1.047c-0.213,-1.031 -0.168,-1.546 0.137,-1.546c1.095,0.121 1.841,-0.349 2.237,-1.41l0.821,-2.73c0.335,-1.031 0.031,-1.547 -0.913,-1.547c-0.913,0 -1.369,-0.455 -1.369,-1.364l-0,-0.956c-0,-0.758 -0.183,-1.137 -0.548,-1.137c-0.365,0 -0.639,-0.455 -0.822,-1.365l-0.091,-0.455c-0.183,-0.849 -0.32,-1.349 -0.411,-1.501c-0.274,-0.394 -0.502,-0.455 -0.685,-0.182c-0.061,0.243 -0.091,0.728 -0.091,1.456l-0,6.733c-0.031,1.425 -0.715,2.562 -2.054,3.411c-0.944,0.364 -1.476,0.622 -1.598,0.774c-0,0.182 0.502,0.455 1.506,0.819c1.309,0.606 2.024,1.713 2.146,3.32l-0,12.01c-0.031,2.032 -1.202,3.215 -3.515,3.548l-4.474,0c-0.761,0 -1.141,0.38 -1.141,1.138l-0,1.501c-0,0.91 -0.457,1.365 -1.37,1.365l-3.606,-0c-0.913,-0 -1.37,-0.455 -1.37,-1.365l-0,-40.487c-0,-0.91 0.457,-1.365 1.37,-1.365l10.545,0c2.678,0.394 3.85,1.896 3.515,4.504c0,0.758 0.472,1.122 1.415,1.092c0.579,-0 1.096,-0.425 1.553,-1.274c0.243,-0.91 0.532,-1.82 0.867,-2.73Zm-10.135,5.914c0.335,-1.334 -0.289,-2.047 -1.871,-2.138c-0.609,0 -0.913,0.379 -0.913,1.137l-0,9.235c-0,0.758 0.304,1.137 0.913,1.137c1.521,0.061 2.145,-0.667 1.871,-2.183l0,-7.188Zm28.852,11.327c0.152,-0.94 0.67,-1.41 1.552,-1.41l1.918,0c0.913,0 1.308,0.455 1.187,1.365c-0.213,1.061 -0.381,2.123 -0.503,3.184c-0.121,1.335 -0.304,2.245 -0.547,2.73c-0.792,1.183 -1.887,1.819 -3.287,1.91c-0.913,0.031 -1.476,-0.409 -1.689,-1.319l-0.32,-1.365c-0.213,-1 -0.183,-1.531 0.091,-1.592c0.761,-0.182 1.172,-0.606 1.233,-1.274c0.061,-0.727 0.183,-1.47 0.365,-2.229Zm-28.852,5.596c0.335,-1.395 -0.304,-2.108 -1.917,-2.138c-0.578,-0 -0.867,0.379 -0.867,1.137l-0,9.28c-0,0.758 0.304,1.137 0.913,1.137c1.521,0.091 2.145,-0.652 1.871,-2.229l0,-7.187Zm10.044,1.956c0.243,-0.758 0.791,-1.137 1.643,-1.137l3.059,-0c0.913,-0 1.217,0.455 0.913,1.364l-0.959,3.185c-0.73,2.032 -2.359,2.926 -4.885,2.684c-0.913,-0 -1.476,-0.455 -1.689,-1.365c-0.152,-0.455 -0.258,-0.91 -0.319,-1.365c-0.213,-1.001 -0.107,-1.516 0.319,-1.546c0.822,0.06 1.461,-0.546 1.918,-1.82Zm16.982,5.095c-0.03,-1.001 0.365,-1.501 1.187,-1.501l2.374,-0c0.913,-0 1.4,0.455 1.461,1.364c0.061,1.668 0.167,3.336 0.319,5.004c0.092,0.455 0.442,0.804 1.05,1.047c0.244,0.06 0.366,0.546 0.366,1.456l-0,2.274c-0,0.91 -0.457,1.365 -1.37,1.365c-2.039,0.151 -3.53,-0.607 -4.474,-2.275c-0.365,-0.606 -0.548,-1.516 -0.548,-2.729l-0.365,-6.005Zm-17.53,4.822c0.274,-0.94 0.852,-1.41 1.735,-1.41l2.967,-0c0.913,-0 1.233,0.455 0.959,1.365l-0.913,3.184c-0.518,2.76 -2.176,4.018 -4.976,3.776c-0.913,-0 -1.476,-0.455 -1.69,-1.365l-0.319,-1.365c-0.213,-1.001 -0.076,-1.547 0.411,-1.637c0.608,0.03 1.111,-0.41 1.506,-1.32c0.061,-0.394 0.168,-0.803 0.32,-1.228Z" style="fill:#fff;fill-rule:nonzero;"/><path d="M301.379,12.729c-0,-0.94 0.441,-1.41 1.324,-1.41l38.164,-0c0.913,-0 1.37,0.454 1.37,1.364l-0,5.414c-0.091,2.092 -1.217,3.29 -3.378,3.594l-36.111,-0c-0.913,-0 -1.369,-0.455 -1.369,-1.365l-0,-7.597Zm33.782,3.23c-0,-0.698 -0.381,-1.047 -1.141,-1.047l-24.47,0c-0.761,0 -1.141,0.379 -1.141,1.138l0,0.909c0,0.759 0.38,1.138 1.141,1.138l23.465,-0c1.492,0.364 2.207,-0.349 2.146,-2.138Zm-33.782,9.735c-0,-0.94 0.441,-1.41 1.324,-1.41l38.164,-0c0.913,-0 1.37,0.454 1.37,1.364l-0,19.061c-0.091,1.941 -1.217,3.109 -3.378,3.503l-4.657,-0c-0.791,-0 -0.852,0.485 -0.182,1.456c0.456,0.849 1.171,1.349 2.145,1.501l6.072,-0c0.913,-0 1.369,0.455 1.369,1.365l0,0.5c0,0.91 -0.456,1.365 -1.369,1.365l-11.869,-0c-1.4,-0.031 -2.603,-0.592 -3.607,-1.684l-1.917,-3.411c-0.426,-0.728 -1.005,-1.092 -1.735,-1.092l-2.1,-0c-0.731,-0 -1.461,0.455 -2.191,1.365c-1.705,3.063 -3.881,4.67 -6.529,4.822l-10.043,-0c-0.913,-0 -1.506,-0.455 -1.78,-1.365c-0,-0.121 -0.046,-0.288 -0.137,-0.5c-0.244,-0.91 0.091,-1.365 1.004,-1.365l6.391,-0c0.792,0.03 1.659,-0.546 2.602,-1.729c0.64,-0.819 0.563,-1.228 -0.228,-1.228l-7.35,-0c-0.913,-0 -1.369,-0.455 -1.369,-1.365l-0,-21.153Zm33.782,4.003c-0,-0.758 -0.381,-1.137 -1.141,-1.137l-24.47,-0c-0.761,-0 -1.141,0.379 -1.141,1.137l0,0.864c0,0.759 0.38,1.138 1.141,1.138l24.47,-0c0.76,-0 1.141,-0.379 1.141,-1.138l-0,-0.864Zm-0,6.733c-0,-1.001 -0.381,-1.502 -1.141,-1.502l-24.47,0c-0.761,0 -1.141,0.501 -1.141,1.502c0,1 0.38,1.501 1.141,1.501l24.47,-0c0.76,-0 1.141,-0.501 1.141,-1.501Zm-0,5.595c-0,-0.606 -0.365,-0.91 -1.096,-0.91l-24.515,0c-0.761,0 -1.141,0.47 -1.141,1.41c0,0.941 0.38,1.411 1.141,1.411l23.511,-0c1.43,0.273 2.13,-0.364 2.1,-1.911Z" style="fill:#fff;fill-rule:nonzero;"/><path d="M371.427,12.001c0.456,-0.94 1.126,-1.41 2.008,-1.41l5.022,-0c0.913,-0 1.141,0.455 0.685,1.364c-1.492,2.851 -2.937,5.702 -4.337,8.553c-0.426,0.788 -0.244,1.183 0.548,1.183l3.743,-0c0.913,-0 1.583,0.454 2.009,1.364c3.774,8.34 7.654,16.68 11.641,25.02c0.335,0.334 0.746,0.607 1.232,0.819c0.64,0.152 0.959,0.592 0.959,1.319l0,2.821c0,0.91 -0.456,1.365 -1.369,1.365c-3.379,0.242 -5.889,-1.031 -7.533,-3.822l-11.915,-26.339c-0.365,-0.849 -0.746,-0.849 -1.141,0l-12.6,25.157c-0.822,1.819 -1.522,3.032 -2.1,3.639c-1.248,1.061 -2.983,1.516 -5.204,1.365c-0.913,-0 -1.461,-0.455 -1.644,-1.365l-0.365,-2.275c-0.213,-1.152 0.137,-1.743 1.05,-1.774c0.882,-0.151 1.537,-0.788 1.963,-1.91c5.722,-11.676 11.504,-23.368 17.348,-35.074Z" style="fill:#fff;fill-rule:nonzero;"/><path d="M410.614,11.455c-0,-0.576 0.441,-0.864 1.324,-0.864l4.2,-0c0.913,-0 1.369,0.273 1.369,0.819c0,0.576 0.381,0.864 1.142,0.864l4.61,-0c0.913,-0 1.37,0.455 1.37,1.365l-0,2.365c-0,0.758 0.259,1.137 0.776,1.137c0.517,0 0.807,-0.075 0.867,-0.227c-0.03,-0.182 0.092,-0.273 0.366,-0.273c0.517,0.061 0.989,-0.121 1.415,-0.546c0.365,-0.394 0.669,-1.137 0.913,-2.229c0.122,-0.576 0.289,-1.152 0.502,-1.729c0.304,-0.909 0.913,-1.364 1.826,-1.364l3.652,-0c0.913,-0 1.278,0.318 1.096,0.955c-0.152,0.728 0.137,1.092 0.867,1.092l8.081,-0c0.913,-0 1.369,0.455 1.369,1.365l0,2.638c0,0.91 -0.152,1.365 -0.456,1.365c-0.305,0.03 -0.609,0.5 -0.913,1.41l-4.885,16.832c-0.152,0.606 -0.137,1.213 0.046,1.819c1.004,3.033 2.054,6.066 3.149,9.099c0.305,1.091 1.111,1.652 2.42,1.683c0.426,-0 0.639,0.455 0.639,1.364l0,2.639c0,0.91 -0.456,1.365 -1.369,1.365c-3.866,0.515 -6.453,-1.198 -7.761,-5.141c-0.335,-0.94 -0.594,-1.016 -0.776,-0.227c-0.883,4.094 -3.333,5.883 -7.35,5.368c-0.913,-0 -1.461,-0.455 -1.644,-1.365l-0.365,-2.275c-0.213,-1.152 -0.091,-1.728 0.365,-1.728c1.735,0.091 2.8,-0.895 3.196,-2.957l2.009,-7.279c0.334,-0.667 0.38,-1.274 0.137,-1.819l-4.018,-11.464c-0.335,-0.971 -0.076,-1.456 0.776,-1.456l4.292,0c0.913,0 1.491,0.364 1.734,1.092c0.274,0.758 0.594,0.713 0.959,-0.137l1.598,-5.595c0.243,-0.819 -0.015,-1.228 -0.776,-1.228l-2.1,-0c-0.731,-0 -1.278,0.455 -1.644,1.364c-1.156,1.729 -2.845,2.427 -5.067,2.093c-0.913,0 -1.385,-0.136 -1.415,-0.409c-0.031,-0.334 -0.457,-0.501 -1.278,-0.501c-0.822,0 -1.233,0.379 -1.233,1.138c0.091,2.274 -0.959,3.639 -3.15,4.094l-2.83,0.045c-0.761,0 -1.142,0.364 -1.142,1.092c0,0.728 0.381,1.092 1.142,1.092l4.747,-0c0.913,-0 1.37,0.455 1.37,1.365c0.183,2.395 0.015,4.2 -0.502,5.413c-0.7,1.031 -1.689,1.592 -2.968,1.683l-16.617,0c-0.913,0 -1.369,-0.455 -1.369,-1.365l-0,-5.731c-0,-0.91 0.456,-1.365 1.369,-1.365l4.794,-0c0.76,-0 1.141,-0.364 1.141,-1.092c-0,-0.728 -0.381,-1.092 -1.141,-1.092l-4.611,0c-0.913,0 -1.37,-0.455 -1.37,-1.365l0,-2.774c0,-0.759 -0.198,-1.138 -0.593,-1.138c-0.365,0 -0.548,-0.455 -0.548,-1.364l-0,-0.865c-0,-0.91 0.183,-1.365 0.548,-1.365c0.395,0 0.593,-0.379 0.593,-1.137l0,-2.365c0,-0.91 0.457,-1.365 1.37,-1.365l4.611,-0c0.76,-0 1.141,-0.273 1.141,-0.819Zm-0,4.686c-0,-0.698 -0.457,-1.047 -1.37,-1.047c-0.943,0 -1.415,0.334 -1.415,1.001c0,0.698 0.457,1.046 1.37,1.046c0.943,0 1.415,-0.333 1.415,-1Zm9.678,-0c0,-0.698 -0.456,-1.047 -1.37,-1.047c-0.943,0 -1.415,0.334 -1.415,1.001c0,0.698 0.457,1.046 1.37,1.046c0.943,0 1.415,-0.333 1.415,-1Zm-9.678,5.823c-0,-0.819 -0.457,-1.229 -1.37,-1.229c-0.943,0 -1.415,0.394 -1.415,1.183c0,0.819 0.457,1.228 1.37,1.228c0.943,0 1.415,-0.394 1.415,-1.182Zm9.678,-0.546c0,-0.455 -0.456,-0.683 -1.37,-0.683c-0.943,0 -1.415,0.394 -1.415,1.183c0,0.819 0.289,1.228 0.868,1.228c1.187,0.273 1.826,-0.303 1.917,-1.728Zm-9.678,11.008c-0,-0.818 -0.487,-1.228 -1.461,-1.228c-1.004,0 -1.506,0.394 -1.506,1.183c-0,0.819 0.486,1.228 1.46,1.228c1.005,0 1.507,-0.394 1.507,-1.183Zm9.861,-0.545c-0,-0.455 -0.487,-0.683 -1.461,-0.683c-1.005,0 -1.507,0.394 -1.507,1.183c0,0.819 0.32,1.228 0.959,1.228c1.217,0.273 1.887,-0.303 2.009,-1.728Zm-16.8,7.324c-0,-0.304 0.426,-0.455 1.278,-0.455l4.246,-0c0.913,-0 1.369,0.136 1.369,0.409c0,0.303 0.381,0.455 1.142,0.455l4.336,0c0.761,0 1.142,-0.152 1.142,-0.455c-0,-0.273 0.456,-0.409 1.369,-0.409l4.109,-0c0.913,-0 1.369,0.136 1.369,0.409c0,0.303 0.229,0.455 0.685,0.455c0.426,0 0.639,0.455 0.639,1.365l0,1.046c0,0.91 -0.213,1.365 -0.639,1.365c-0.456,-0 -0.685,0.379 -0.685,1.137l0,0.682c0,0.91 -0.456,1.623 -1.369,2.139l-3.744,2.138c-0.7,0.424 -0.547,0.818 0.457,1.182c1.43,0.091 2.906,0.122 4.428,0.091c0.913,0 1.37,0.455 1.37,1.365l-0,1.001c-0,0.91 -0.457,1.365 -1.37,1.365l-5.889,-0c-1.095,-0.122 -2.252,-0.47 -3.469,-1.047c-0.731,-0.455 -1.553,-0.455 -2.466,0c-0.639,0.455 -1.689,0.804 -3.15,1.047l-3.926,-0c-0.913,-0 -1.476,-0.455 -1.689,-1.365l-0.228,-0.955c-0.183,-0.941 0.152,-1.411 1.004,-1.411c1.735,0.243 3.287,0.016 4.657,-0.682c0.091,-0.121 -0.32,-0.485 -1.233,-1.092l-2.328,-1.501c-0.943,-0.576 -1.415,-1.319 -1.415,-2.229l-0,-0.728c-0,-0.758 -0.228,-1.137 -0.685,-1.137c-0.426,-0 -0.639,-0.455 -0.639,-1.365l-0,-1.046c-0,-0.91 0.213,-1.365 0.639,-1.365c0.457,0 0.685,-0.136 0.685,-0.409Zm13.513,5.14c-0,-0.637 -0.365,-0.955 -1.096,-0.955l-4.382,-0c-0.761,-0 -1.142,0.288 -1.142,0.864c0,0.546 0.457,1.137 1.37,1.774l0.456,0.273c0.883,0.546 1.796,0.531 2.739,-0.045l0.822,-0.455c0.822,-0.485 1.233,-0.971 1.233,-1.456Z" style="fill:#fff;fill-rule:nonzero;"/><path d="M478.06,11.683c-0,-0.607 0.426,-0.91 1.278,-0.91l4.2,-0c0.913,-0 1.369,0.273 1.369,0.819c0,0.606 0.381,0.909 1.142,0.909l8.993,0c0.913,0 1.37,0.455 1.37,1.365l-0,1.046c-0,0.91 -0.457,1.365 -1.37,1.365l-8.993,0c-0.761,0 -1.142,0.455 -1.142,1.365c0,0.91 0.381,1.365 1.142,1.365l10.089,-0c0.913,-0 1.369,0.454 1.369,1.364l0,1.547c0,0.91 -0.487,1.365 -1.461,1.365c-0.974,-0 -1.658,0.485 -2.054,1.455l-0.73,1.729c-0.335,0.789 -0.107,1.183 0.684,1.183l1.872,-0c0.913,-0 1.37,0.455 1.37,1.365l-0,1.364c-0,0.91 -0.457,1.365 -1.37,1.365l-9.587,0c-0.761,0 -1.141,0.485 -1.141,1.456c-0,1.001 0.38,1.501 1.141,1.501l9.176,0c0.913,0 1.37,0.455 1.37,1.365l-0,1.41c-0,0.91 -0.457,1.365 -1.37,1.365l-9.176,-0c-0.761,-0 -1.141,0.515 -1.141,1.546c-0,1.032 0.38,1.547 1.141,1.547l10.089,0c0.913,0 1.37,0.455 1.37,1.365l-0,1.547c-0,0.909 -0.457,1.364 -1.37,1.364l-10.089,0c-0.761,0 -1.141,0.47 -1.141,1.41c-0,0.941 0.38,1.411 1.141,1.411l10.272,-0c0.913,-0 1.369,0.455 1.369,1.364l0,2.639c0,0.91 -0.456,1.365 -1.369,1.365l-29.765,-0c-0.974,-0.122 -1.887,-0.47 -2.739,-1.047c-0.822,-0.697 -1.385,-0.803 -1.689,-0.318c-0.487,0.758 -1.4,1.213 -2.739,1.365l-3.47,-0c-0.913,-0 -1.445,-0.455 -1.598,-1.365c-0.182,-0.758 -0.319,-1.516 -0.411,-2.275c-0.152,-0.909 -0.045,-1.364 0.32,-1.364c1.37,-0 1.948,-0.728 1.735,-2.184l-0,-10.963c-0,-0.758 -0.35,-1.138 -1.05,-1.138c-0.67,0 -1.005,-0.454 -1.005,-1.364l0,-2.275c0,-0.91 0.457,-1.365 1.37,-1.365l6.209,0c0.913,0 1.369,0.455 1.369,1.365l0,12.374c-0.152,0.728 0.137,1.698 0.868,2.911c0.669,1.304 1.597,2.062 2.784,2.275l10.409,-0c0.761,-0 1.141,-0.47 1.141,-1.411c0,-0.94 -0.38,-1.41 -1.141,-1.41l-9.039,0c-0.913,0 -1.37,-0.455 -1.37,-1.364l0,-1.547c0,-0.91 0.457,-1.365 1.37,-1.365l9.039,0c0.761,0 1.141,-0.515 1.141,-1.547c0,-1.031 -0.38,-1.546 -1.141,-1.546l-8.126,-0c-0.913,-0 -1.37,-0.455 -1.37,-1.365l0,-1.41c0,-0.91 0.457,-1.365 1.37,-1.365l8.126,0c0.761,0 1.141,-0.485 1.141,-1.456c0,-1.001 -0.38,-1.501 -1.141,-1.501l-9.039,0c-0.913,0 -1.37,-0.455 -1.37,-1.365l0,-1.364c0,-0.91 0.457,-1.365 1.37,-1.365l1.369,-0c0.761,-0 0.99,-0.485 0.685,-1.456l-0.639,-1.819c-0.335,-0.728 -1.004,-1.092 -2.009,-1.092c-1.004,-0 -1.506,-0.455 -1.506,-1.365l-0,-1.547c-0,-0.91 0.456,-1.364 1.369,-1.364l9.587,-0c0.761,-0 1.142,-0.455 1.142,-1.365c-0,-0.91 -0.381,-1.365 -1.142,-1.365l-8.491,0c-0.913,0 -1.369,-0.455 -1.369,-1.365l-0,-1.046c-0,-0.91 0.456,-1.365 1.369,-1.365l8.491,0c0.761,0 1.142,-0.273 1.142,-0.818Zm-22.324,1.455c-0,-0.94 0.441,-1.41 1.324,-1.41l4.017,0c0.913,0 1.37,0.455 1.37,1.365l-0,2.638c-0,0.91 -0.457,1.365 -1.37,1.365l-3.972,-0c-0.913,-0 -1.369,-0.455 -1.369,-1.365l-0,-2.593Zm-0,9.098c-0,-0.94 0.441,-1.41 1.324,-1.41l4.017,0c0.913,0 1.37,0.455 1.37,1.365l-0,2.638c-0,0.91 -0.457,1.365 -1.37,1.365l-3.972,0c-0.913,0 -1.369,-0.455 -1.369,-1.365l-0,-2.593Zm31.591,2.23c0.304,-0.789 0.076,-1.183 -0.685,-1.183l-9.587,-0c-0.761,-0 -0.974,0.485 -0.639,1.455l0.639,1.82c0.335,0.728 0.868,1.092 1.598,1.092l6.3,-0c0.761,-0 1.324,-0.485 1.689,-1.456l0.685,-1.728Z" style="fill:#fff;fill-rule:nonzero;"/><path d="M541.488,12.001c-0,-0.971 0.426,-1.456 1.278,-1.456l4.018,0c0.913,0 1.369,0.455 1.369,1.365l0,38.94c-0.517,2.214 -1.75,3.397 -3.698,3.549l-6.163,-0c-0.913,-0 -1.445,-0.455 -1.597,-1.365l-0.366,-2.32c-0.152,-0.91 0.229,-1.365 1.142,-1.365c1.674,0.152 2.815,0.015 3.423,-0.409c0.548,-0.455 0.746,-1.153 0.594,-2.093l-0,-34.846Zm-36.111,0.728c0,-0.94 0.442,-1.41 1.324,-1.41l21.046,-0c0.913,-0 1.369,0.454 1.369,1.364l0,2.684c0,0.91 -0.456,1.365 -1.369,1.365l-8.811,0c-0.73,0 -1.37,0.455 -1.917,1.365l-3.242,5.868c-0.395,0.789 -0.213,1.183 0.548,1.183l5.524,-0c0.731,-0.03 1.157,-0.303 1.278,-0.819c-0.334,-0.334 -0.654,-0.895 -0.958,-1.683c-0.457,-1.031 -0.289,-1.547 0.502,-1.547l3.88,0c0.913,0 1.583,0.455 2.009,1.365c0.456,1.061 0.959,2.123 1.506,3.184c1.583,2.851 0.792,4.489 -2.374,4.913l-18.169,0c-0.913,0 -1.369,-0.455 -1.369,-1.364l-0,-2.73c-0,-0.91 0.167,-1.668 0.502,-2.274c1.095,-2.093 2.237,-4.186 3.424,-6.278c0.426,-0.789 0.243,-1.183 -0.548,-1.183l-2.785,0c-0.913,0 -1.37,-0.455 -1.37,-1.365l0,-2.638Zm26.981,0.591c-0,-0.97 0.426,-1.456 1.278,-1.456l2.922,0c0.913,0 1.369,0.455 1.369,1.365l0,31.253c0,0.909 -0.456,1.364 -1.369,1.364l-2.831,0c-0.913,0 -1.369,-0.455 -1.369,-1.364l-0,-31.162Zm-18.352,21.426c-0,-0.94 0.441,-1.41 1.324,-1.41l4.154,0c0.913,0 1.369,0.455 1.369,1.365l0,1.183c0,0.758 0.381,1.137 1.142,1.137l5.569,0c0.913,0 1.37,0.455 1.37,1.365l-0,2.638c-0,0.91 -0.457,1.365 -1.37,1.365l-5.569,-0c-0.761,-0 -1.142,0.379 -1.142,1.137l0,4.367c0,0.759 0.381,1.138 1.142,1.138l5.889,-0c0.913,-0 1.369,0.455 1.369,1.364l0,2.639c0,0.91 -0.456,1.365 -1.369,1.365l-20.954,-0c-0.913,-0 -1.37,-0.455 -1.37,-1.365l0,-2.639c0,-0.909 0.457,-1.364 1.37,-1.364l5.934,-0c0.761,-0 1.142,-0.379 1.142,-1.138l-0,-4.367c-0,-0.758 -0.381,-1.137 -1.142,-1.137l-5.752,-0c-0.913,-0 -1.369,-0.455 -1.369,-1.365l-0,-2.638c-0,-0.91 0.456,-1.365 1.369,-1.365l5.752,0c0.761,0 1.142,-0.379 1.142,-1.137l-0,-1.138Z" style="fill:#fff;fill-rule:nonzero;"/></g></svg>