<?xml version="1.0" encoding="UTF-8" standalone="no"?><!DOCTYPE svg PUBLIC "-//W3C//DTD SVG 1.1//EN" "http://www.w3.org/Graphics/SVG/1.1/DTD/svg11.dtd"><svg width="100%" height="100%" viewBox="0 0 600 79" version="1.1" xmlns="http://www.w3.org/2000/svg" xmlns:xlink="http://www.w3.org/1999/xlink" xml:space="preserve" xmlns:serif="http://www.serif.com/" style="fill-rule:evenodd;clip-rule:evenodd;stroke-linejoin:round;stroke-miterlimit:2;"><path d="M561.847,39.098l38.153,-39.098l-561.839,0l-38.161,39.098l38.161,39.105l561.839,0l-38.153,-39.105Z" style="fill:#005f89;fill-rule:nonzero;"/><g><path d="M55.154,15.047c-0,-1.155 0.507,-1.733 1.522,-1.733l15.11,-0c1.087,-0 1.631,0.541 1.631,1.625l-0,3.141c-0,1.083 -0.544,1.625 -1.631,1.625l-2.011,0c-0.906,0 -1.359,0.451 -1.359,1.354l0,12.783c0,0.902 0.453,1.354 1.359,1.354l1.087,-0c1.087,-0 1.631,0.541 1.631,1.625l-0,3.141c-0,1.083 -0.544,1.625 -1.631,1.625l-1.087,0c-0.906,0 -1.359,0.451 -1.359,1.354l0,14.083c0,0.902 0.453,1.354 1.359,1.354l5.381,-0c1.051,-0.072 1.975,-0.578 2.772,-1.517l1.413,-3.195c0.471,-1.084 1.251,-1.625 2.338,-1.625l5.218,-0c1.087,-0 1.395,0.541 0.924,1.625c-1.087,2.491 -2.12,4.983 -3.098,7.474c-1.051,2.203 -2.61,3.412 -4.675,3.629l-23.916,0c-1.087,0 -1.631,-0.542 -1.631,-1.625l0,-3.141c0,-1.084 0.544,-1.625 1.631,-1.625l2.718,-0c0.906,-0 1.359,-0.452 1.359,-1.354l-0,-14.083c-0,-0.903 -0.453,-1.354 -1.359,-1.354l-1.631,0c-1.087,0 -1.631,-0.542 -1.631,-1.625l0,-3.141c0,-1.084 0.544,-1.625 1.631,-1.625l1.631,-0c0.906,-0 1.359,-0.452 1.359,-1.354l-0,-12.783c-0,-0.903 -0.453,-1.354 -1.359,-1.354l-2.066,0c-1.087,0 -1.63,-0.542 -1.63,-1.625l-0,-3.033Zm22.013,0.108c0,-1.119 0.526,-1.679 1.577,-1.679l24.731,0c1.087,0 1.63,0.542 1.63,1.625l0,29.79c-0.181,1.697 -0.869,2.889 -2.065,3.575c-0.471,0.216 -0.707,0.74 -0.707,1.571l0,5.795c-0.145,2.058 0.743,2.907 2.664,2.546c0.942,-0 1.413,0.541 1.413,1.625l-0,3.141c-0,1.083 -0.544,1.625 -1.631,1.625l-6.468,0c-2.283,0 -3.678,-1.372 -4.185,-4.116l-0,-10.346c-0,-0.902 -0.453,-1.354 -1.359,-1.354l-13.969,0c-1.087,0 -1.631,-0.541 -1.631,-1.625l0,-32.173Zm19.785,5.796c0,-0.975 -0.416,-1.463 -1.25,-1.463l-9.023,0c-0.906,0 -1.359,0.452 -1.359,1.355l0,1.895c0,0.903 0.453,1.354 1.359,1.354l8.914,0c0.906,0 1.359,-0.451 1.359,-1.354l0,-1.787Zm0,9.749c0,-0.975 -0.416,-1.462 -1.25,-1.462l-9.023,-0c-0.906,-0 -1.359,0.451 -1.359,1.354l0,1.733c0,0.903 0.453,1.354 1.359,1.354l8.914,0c0.906,0 1.359,-0.451 1.359,-1.354l0,-1.625Zm0,9.587c-0.036,-1.011 -0.489,-1.516 -1.359,-1.516l-8.914,-0c-0.906,-0 -1.359,0.451 -1.359,1.354l0,1.516c0,0.903 0.453,1.354 1.359,1.354l7.719,0c2.065,0.181 2.917,-0.722 2.554,-2.708Z" style="fill:#fff;fill-rule:nonzero;"/><path d="M149.698,14.289c-0,-0.975 0.507,-1.463 1.522,-1.463l5,0c1.087,0 1.631,0.47 1.631,1.409c0,0.975 0.453,1.462 1.359,1.462l6.794,0c1.087,0 1.631,0.542 1.631,1.625l-0,2.708c-0,1.083 -0.544,1.625 -1.631,1.625l-6.794,-0c-0.906,-0 -1.359,0.451 -1.359,1.354l0,2.112c0,0.903 0.453,1.355 1.359,1.355l6.142,-0c1.087,-0 1.631,0.541 1.631,1.624l-0,2.763c-0,1.083 -0.308,1.625 -0.924,1.625c-0.689,-0 -1.033,0.451 -1.033,1.354l-0,1.462c-0,0.903 0.435,1.354 1.304,1.354c0.87,0 1.305,0.542 1.305,1.625l-0,3.196c-0,1.083 -0.417,1.625 -1.25,1.625c-0.906,-0 -1.359,0.451 -1.359,1.354l-0,15.707c-0.145,2.311 -1.649,3.846 -4.512,4.604l-7.337,0c-1.088,0 -1.722,-0.542 -1.903,-1.625l-0.435,-2.275c-0.217,-0.866 -0.761,-1.3 -1.63,-1.3c-3.117,0.506 -5.146,-0.848 -6.088,-4.062c-0.544,-2.383 -1.033,-4.766 -1.468,-7.149c-0.217,-1.156 0.182,-1.734 1.196,-1.734l4.512,0c1.087,0 1.739,0.542 1.956,1.625l0.761,3.792c0.037,0.613 0.526,1.101 1.468,1.462c0.435,0.108 0.652,0.614 0.652,1.517l0,2.004c0,0.902 0.453,1.354 1.359,1.354c2.102,0.433 3.207,-0.56 3.316,-2.979l-0,-10.941c-0,-0.903 -0.453,-1.354 -1.359,-1.354l-14.241,-0c-1.087,-0 -1.631,-0.542 -1.631,-1.625l0,-3.196c0,-1.083 0.544,-1.625 1.631,-1.625l14.241,0c0.906,0 1.359,-0.451 1.359,-1.354l-0,-1.462c-0,-0.903 -0.453,-1.354 -1.359,-1.354l-13.154,-0c-1.087,-0 -1.631,-0.542 -1.631,-1.625l0,-2.763c0,-1.083 0.544,-1.624 1.631,-1.624l5.979,-0c0.906,-0 1.359,-0.452 1.359,-1.355l-0,-2.112c-0,-0.903 -0.453,-1.354 -1.359,-1.354l-7.284,-0c-1.087,-0 -1.63,-0.542 -1.63,-1.625l-0,-2.708c-0,-1.083 0.543,-1.625 1.63,-1.625l7.284,0c0.906,0 1.359,-0.469 1.359,-1.408Zm-32.83,0.866c-0,-1.119 0.525,-1.679 1.576,-1.679l16.524,0c1.087,0 1.63,0.542 1.63,1.625l0,45.443c-0.036,2.42 -1.431,3.828 -4.185,4.225l-13.915,0c-1.087,0 -1.63,-0.542 -1.63,-1.625l-0,-47.989Zm12.393,6.121c-0,-0.903 -0.453,-1.354 -1.359,-1.354l-2.338,-0c-0.905,-0 -1.358,0.451 -1.358,1.354l-0,13.216c-0,0.902 0.453,1.354 1.358,1.354l2.338,-0c0.906,-0 1.359,-0.452 1.359,-1.354l-0,-13.216Zm-0,22.423c-0,-0.974 -0.417,-1.462 -1.251,-1.462l-2.446,0c-0.905,0 -1.358,0.451 -1.358,1.354l-0,13.433c-0,0.902 0.453,1.354 1.358,1.354c0.87,0.036 1.794,-0 2.773,-0.109c0.797,-0.505 1.105,-1.354 0.924,-2.545l-0,-12.025Z" style="fill:#fff;fill-rule:nonzero;"/><path d="M198.802,14.289c-0,-1.12 0.525,-1.679 1.576,-1.679l4.946,-0c1.087,-0 1.631,0.541 1.631,1.625l-0,1.191c-0,0.903 0.453,1.354 1.359,1.354l17.448,0c1.087,0 1.63,0.542 1.63,1.625l0,3.142c0,1.083 -0.543,1.625 -1.63,1.625l-17.448,-0c-0.906,-0 -1.359,0.451 -1.359,1.354l-0,5.849c-0,0.903 0.453,1.354 1.359,1.354l18.969,0c1.088,0 1.631,0.542 1.631,1.625l0,3.142c0,1.083 -0.543,1.625 -1.631,1.625l-18.969,-0c-0.906,-0 -1.359,0.451 -1.359,1.354l-0,4.333c-0,0.903 0.453,1.354 1.359,1.354l16.795,-0c1.087,-0 1.631,0.542 1.631,1.625l-0,3.141c-0,1.084 -0.544,1.625 -1.631,1.625l-16.795,0c-0.906,0 -1.359,0.452 -1.359,1.354l-0,4.117c-0,0.902 0.453,1.354 1.359,1.354l18.969,-0c1.088,-0 1.631,0.541 1.631,1.625l0,3.141c0,1.083 -0.543,1.625 -1.631,1.625l-36.526,0c-0.725,-0.144 -1.449,-0.361 -2.174,-0.65c-1.16,-0.686 -2.247,-0.704 -3.261,-0.054c-1.45,0.722 -3.479,0.957 -6.088,0.704c-1.087,0 -1.721,-0.542 -1.902,-1.625l-0.435,-2.708c-0.254,-1.372 -0.181,-2.058 0.217,-2.058c2.029,-0.109 2.917,-1.084 2.664,-2.925l-0,-11.104c-0,-1.083 0.543,-1.624 1.63,-1.624l4.675,-0c1.087,-0 1.63,0.541 1.63,1.624l0,9.425c0,0.866 0.218,1.661 0.653,2.383c1.268,1.733 2.754,2.473 4.457,2.221l4.62,-0c0.906,-0 1.359,-0.452 1.359,-1.354l-0,-17.549c-0,-0.903 -0.453,-1.354 -1.359,-1.354l-19.242,-0c-1.087,-0 -1.63,-0.542 -1.63,-1.625l-0,-3.142c-0,-1.083 0.543,-1.625 1.63,-1.625l19.242,0c0.906,0 1.359,-0.451 1.359,-1.354l-0,-5.849c-0,-0.903 -0.453,-1.354 -1.359,-1.354l-17.72,-0c-1.087,-0 -1.63,-0.542 -1.63,-1.625l-0,-3.142c-0,-1.083 0.543,-1.625 1.63,-1.625l17.72,0c0.906,0 1.359,-0.451 1.359,-1.354l-0,-1.137Z" style="fill:#fff;fill-rule:nonzero;"/><path d="M241.329,14.614c-0.58,-1.192 -0.399,-1.788 0.543,-1.788l5.055,0c1.087,0 1.884,0.542 2.392,1.625c0.652,1.264 1.431,1.896 2.337,1.896c1.015,-0 1.812,-0.542 2.392,-1.625c0.688,-1.264 1.503,-1.896 2.446,-1.896l4.891,0c1.088,0 1.377,0.542 0.87,1.625l-0.217,0.488c-0.435,0.939 -0.055,1.408 1.141,1.408c1.16,-0 1.739,0.542 1.739,1.625l0,2.275c0,1.083 -0.543,1.625 -1.63,1.625l-6.36,-0c-0.906,-0 -1.359,0.451 -1.359,1.354l0,7.149c0,0.903 0.453,1.354 1.359,1.354c1.051,0.181 1.885,-0.27 2.501,-1.354c0.108,-1.119 0.145,-2.257 0.108,-3.412c0,-1.083 0.544,-1.625 1.631,-1.625l1.413,0c1.087,0 1.631,0.542 1.631,1.625l-0,6.933c-0.073,1.805 -1.069,2.889 -2.99,3.25c-1.413,0.108 -2.844,0.144 -4.294,0.108c-0.906,0 -1.359,0.451 -1.359,1.354c0.109,2.167 0.019,3.629 -0.271,4.387c-0.616,1.77 -1.866,2.817 -3.751,3.142l-10.653,-0c-1.087,-0 -1.721,-0.542 -1.903,-1.625l-0.217,-1.625c-0.217,-1.228 0.217,-1.842 1.304,-1.842l4.24,0c2.102,0.181 3.116,-0.722 3.044,-2.708c-0,-0.722 -0.453,-1.083 -1.359,-1.083l-5.707,0c-1.087,0 -1.631,-0.542 -1.631,-1.625l0,-8.666c0,-1.083 0.544,-1.625 1.631,-1.625l1.413,0c1.087,0 1.631,0.542 1.631,1.625l-0,3.412c-0,0.903 0.453,1.354 1.359,1.354l1.304,0c0.906,0 1.359,-0.451 1.359,-1.354l-0,-7.149c-0,-0.903 -0.453,-1.354 -1.359,-1.354l-6.631,-0c-1.087,-0 -1.631,-0.542 -1.631,-1.625l0,-2.275c0,-1.083 0.544,-1.625 1.631,-1.625l1.467,-0c0.906,-0 1.069,-0.578 0.49,-1.733Zm26.362,0.541c-0,-1.119 0.525,-1.679 1.576,-1.679l17.774,0c1.087,0 1.63,0.542 1.63,1.625l0,26.703c-0.217,2.347 -1.449,3.683 -3.696,4.008c-1.014,0.108 -2.047,0.144 -3.098,0.108c-1.087,0 -1.739,-0.541 -1.957,-1.625l-0.435,-2.004c-0.144,-0.902 -0.072,-1.408 0.218,-1.516c0.978,-0.542 1.323,-1.445 1.033,-2.709c-0,-0.974 -0.453,-1.462 -1.359,-1.462l-2.392,0c-0.906,0 -1.359,0.451 -1.359,1.354l0,4.062c0,0.903 -0.344,1.806 -1.032,2.709c-1.269,1.191 -2.972,1.661 -5.11,1.408c-0.906,-0 -1.359,0.451 -1.359,1.354l0,1.191c0,0.903 0.453,1.355 1.359,1.355l17.285,-0c1.087,-0 1.631,0.541 1.631,1.624l-0,2.059c-0,1.083 -0.544,1.625 -1.631,1.625l-17.285,-0c-0.906,-0 -1.359,0.451 -1.359,1.354l0,1.191c0,0.903 0.453,1.354 1.359,1.354l18.97,0c1.087,0 1.631,0.542 1.631,1.625l-0,2.275c-0,1.083 -0.544,1.625 -1.631,1.625l-49.082,0c-1.087,0 -1.631,-0.542 -1.631,-1.625l0,-2.275c0,-1.083 0.544,-1.625 1.631,-1.625l19.241,0c0.906,0 1.359,-0.451 1.359,-1.354l0,-1.191c0,-0.903 -0.453,-1.354 -1.359,-1.354l-17.284,-0c-1.087,-0 -1.631,-0.542 -1.631,-1.625l-0,-2.059c-0,-1.083 0.544,-1.624 1.631,-1.624l17.284,-0c0.906,-0 1.359,-0.452 1.359,-1.355l0,-0.92c0,-1.084 0.544,-1.625 1.631,-1.625l3.696,-0c0.906,-0 1.25,-0.578 1.033,-1.733l-0.218,-1.517c-0.253,-1.228 -0.181,-1.86 0.218,-1.896c1.159,-0.289 1.612,-1.137 1.359,-2.545l-0,-23.291Zm13.045,5.308c-0,-0.938 -0.435,-1.408 -1.305,-1.408l-2.446,0c-0.906,0 -1.359,0.452 -1.359,1.354l0,1.246c0,0.903 0.453,1.354 1.359,1.354l2.392,0c0.906,0 1.359,-0.451 1.359,-1.354l-0,-1.192Zm-0,8.667c-0,-0.939 -0.435,-1.409 -1.305,-1.409l-2.446,0c-0.906,0 -1.359,0.452 -1.359,1.354l0,1.517c0,0.903 0.453,1.354 1.359,1.354l2.392,0c0.906,0 1.359,-0.451 1.359,-1.354l-0,-1.462Z" style="fill:#fff;fill-rule:nonzero;"/><path d="M321.197,14.397c0,-1.047 0.507,-1.571 1.522,-1.571l5.001,0c1.087,0 1.63,0.488 1.63,1.463c0,1.047 0.453,1.571 1.359,1.571l18.752,-0c1.088,-0 1.631,0.541 1.631,1.624l0,3.196c0,1.083 -0.543,1.625 -1.631,1.625l-4.783,-0c-0.869,-0 -1.467,0.487 -1.793,1.462l-1.033,2.979c-0.363,1.011 -0.109,1.517 0.761,1.517l5.544,-0c1.087,-0 1.631,0.542 1.631,1.625l-0,30.765c-0.218,2.347 -1.45,3.683 -3.697,4.008c-1.195,0.108 -2.409,0.144 -3.641,0.108c-1.087,0 -1.758,-0.542 -2.011,-1.625l-0.327,-1.625c-0.217,-1.191 -0.199,-1.805 0.055,-1.841c1.341,-0.361 1.83,-1.21 1.467,-2.546l0,-21.124c0,-0.902 -0.453,-1.354 -1.358,-1.354l-30.167,0c-0.906,0 -1.359,0.452 -1.359,1.354l-0,27.136c-0,1.083 -0.544,1.625 -1.631,1.625l-4.946,0c-1.087,0 -1.631,-0.542 -1.631,-1.625l0,-33.256c0,-1.083 0.544,-1.625 1.631,-1.625l4.783,-0c0.906,-0 1.196,-0.578 0.87,-1.733l-0.87,-2.925c-0.362,-0.867 -0.978,-1.3 -1.848,-1.3l-4.294,-0c-1.087,-0 -1.63,-0.542 -1.63,-1.625l-0,-3.196c-0,-1.083 0.543,-1.624 1.63,-1.624l19.024,-0c0.906,-0 1.359,-0.488 1.359,-1.463Zm12.284,9.316c0.29,-0.939 -0.018,-1.408 -0.924,-1.408l-15.273,-0c-0.906,-0 -1.196,0.578 -0.87,1.733l0.87,2.925c0.362,0.867 0.978,1.3 1.848,1.3l11.523,-0c0.906,-0 1.558,-0.578 1.957,-1.733l0.869,-2.817Zm-19.187,15.166c0.29,-0.794 0.96,-1.192 2.011,-1.192l4.512,0c1.087,0 1.413,0.542 0.978,1.625c-0.507,1.264 -0.96,2.528 -1.359,3.792c-0.435,1.263 -1.304,2.166 -2.609,2.708c-0.833,0.325 -2.228,0.433 -4.185,0.325c-1.087,-0 -1.758,-0.542 -2.011,-1.625c-0.181,-0.542 -0.308,-1.083 -0.381,-1.625c-0.253,-1.228 -0.127,-1.842 0.381,-1.842c1.304,0.145 2.192,-0.577 2.663,-2.166Zm14.078,0.542c-0,-1.156 0.507,-1.734 1.522,-1.734l4.62,0c1.087,0 1.631,0.416 1.631,1.246c-0.435,1.553 0.289,2.383 2.174,2.492c0.58,-0 0.869,0.541 0.869,1.625l0,1.895c0,1.083 -0.543,1.625 -1.63,1.625c-3.334,0.217 -5.726,0 -7.175,-0.65c-1.232,-0.794 -1.866,-1.805 -1.902,-3.033c-0.109,-1.155 -0.145,-2.311 -0.109,-3.466Zm-16.089,11.482c-0,-1.083 0.544,-1.625 1.631,-1.625l22.122,0c1.087,0 1.631,0.542 1.631,1.625l-0,8.991c-0.037,2.42 -1.432,3.828 -4.186,4.225l-19.567,0c-1.087,0 -1.631,-0.542 -1.631,-1.625l-0,-11.591Zm17.176,5.2c-0,-1.156 -0.435,-1.733 -1.305,-1.733l-6.305,-0c-0.906,-0 -1.359,0.451 -1.359,1.354l0,1.95c0,0.902 0.453,1.354 1.359,1.354c2.175,0.036 4.403,-0 6.686,-0.109c0.942,-0.794 1.25,-1.733 0.924,-2.816Z" style="fill:#fff;fill-rule:nonzero;"/><path d="M403.24,13.639c-0,-0.722 0.507,-1.083 1.522,-1.083l5,-0c1.087,-0 1.631,0.541 1.631,1.624l-0,3.954c-0.145,2.456 -1.522,3.846 -4.131,4.171l-35.548,-0c-0.906,-0 -1.359,0.451 -1.359,1.354l0,3.033c0,0.903 0.453,1.354 1.359,1.354l37.179,0c1.087,0 1.63,0.542 1.63,1.625l0,14.299c0,2.311 -1.377,3.683 -4.131,4.117l-34.678,-0c-0.906,-0 -1.359,0.451 -1.359,1.354l0,11.103c-0.145,2.311 -1.359,3.683 -3.641,4.117c-1.233,0.108 -2.483,0.144 -3.751,0.108c-1.087,0 -1.721,-0.542 -1.902,-1.625l-0.435,-2.708c-0.254,-1.372 -0.218,-2.076 0.109,-2.112c1.195,-0.217 1.666,-1.066 1.413,-2.546l-0,-38.294c-0,-1.083 0.543,-1.624 1.63,-1.624l36.907,-0c0.834,0.18 1.54,0.018 2.12,-0.488c0.435,-0.505 0.58,-1.083 0.435,-1.733Zm-0.87,22.207c0,-0.939 -0.435,-1.408 -1.304,-1.408l-29.352,-0c-0.906,-0 -1.359,0.451 -1.359,1.354l0,4.549c0,0.903 0.453,1.354 1.359,1.354l28.156,0c1.993,0.181 2.826,-0.704 2.5,-2.654l0,-3.195Z" style="fill:#fff;fill-rule:nonzero;"/><path d="M450.332,13.91c0,-0.723 0.508,-1.084 1.522,-1.084l5.001,0c1.087,0 1.631,0.325 1.631,0.975c-0,0.722 0.453,1.084 1.359,1.084l10.707,-0c1.087,-0 1.631,0.541 1.631,1.624l0,1.246c0,1.083 -0.544,1.625 -1.631,1.625l-10.707,0c-0.906,0 -1.359,0.542 -1.359,1.625c-0,1.083 0.453,1.625 1.359,1.625l12.012,-0c1.087,-0 1.631,0.542 1.631,1.625l-0,1.841c-0,1.084 -0.58,1.625 -1.74,1.625c-1.159,0 -1.975,0.578 -2.446,1.734l-0.869,2.058c-0.399,0.939 -0.127,1.408 0.815,1.408l2.228,-0c1.087,-0 1.631,0.542 1.631,1.625l0,1.625c0,1.083 -0.544,1.625 -1.631,1.625l-11.414,-0c-0.906,-0 -1.359,0.577 -1.359,1.733c0,1.191 0.453,1.787 1.359,1.787l10.925,0c1.087,0 1.631,0.542 1.631,1.625l-0,1.679c-0,1.084 -0.544,1.625 -1.631,1.625l-10.925,0c-0.906,0 -1.359,0.614 -1.359,1.842c0,1.227 0.453,1.841 1.359,1.841l12.012,0c1.087,0 1.631,0.542 1.631,1.625l-0,1.842c-0,1.083 -0.544,1.625 -1.631,1.625l-12.012,-0c-0.906,-0 -1.359,0.559 -1.359,1.679c0,1.119 0.453,1.679 1.359,1.679l12.23,-0c1.087,-0 1.63,0.541 1.63,1.625l0,3.141c0,1.083 -0.543,1.625 -1.63,1.625l-35.439,0c-1.16,-0.144 -2.247,-0.56 -3.262,-1.246c-0.978,-0.83 -1.648,-0.957 -2.011,-0.379c-0.58,0.903 -1.667,1.444 -3.261,1.625l-4.131,0c-1.087,0 -1.721,-0.542 -1.902,-1.625c-0.218,-0.903 -0.381,-1.805 -0.49,-2.708c-0.181,-1.083 -0.054,-1.625 0.381,-1.625c1.63,0 2.319,-0.867 2.065,-2.6l0,-13.053c0,-0.903 -0.416,-1.354 -1.25,-1.354c-0.797,-0 -1.196,-0.542 -1.196,-1.625l0,-2.708c0,-1.084 0.544,-1.625 1.631,-1.625l7.392,-0c1.087,-0 1.631,0.541 1.631,1.625l-0,14.732c-0.181,0.867 0.163,2.022 1.033,3.467c0.797,1.552 1.902,2.455 3.315,2.708l12.393,-0c0.906,-0 1.359,-0.56 1.359,-1.679c-0,-1.12 -0.453,-1.679 -1.359,-1.679l-10.762,-0c-1.087,-0 -1.631,-0.542 -1.631,-1.625l0,-1.842c0,-1.083 0.544,-1.625 1.631,-1.625l10.762,0c0.906,0 1.359,-0.614 1.359,-1.841c-0,-1.228 -0.453,-1.842 -1.359,-1.842l-9.675,0c-1.087,0 -1.631,-0.541 -1.631,-1.625l0,-1.679c0,-1.083 0.544,-1.625 1.631,-1.625l9.675,0c0.906,0 1.359,-0.577 1.359,-1.733c-0,-1.192 -0.453,-1.787 -1.359,-1.787l-10.762,-0c-1.087,-0 -1.631,-0.542 -1.631,-1.625l0,-1.625c0,-1.083 0.544,-1.625 1.631,-1.625l1.63,-0c0.906,-0 1.178,-0.578 0.816,-1.733l-0.761,-2.167c-0.399,-0.866 -1.196,-1.3 -2.392,-1.3c-1.196,0 -1.793,-0.541 -1.793,-1.625l-0,-1.841c-0,-1.083 0.543,-1.625 1.63,-1.625l11.415,-0c0.906,-0 1.358,-0.542 1.358,-1.625c0,-1.083 -0.452,-1.625 -1.358,-1.625l-10.11,0c-1.087,0 -1.631,-0.542 -1.631,-1.625l0,-1.246c0,-1.083 0.544,-1.624 1.631,-1.624l10.11,-0c0.906,-0 1.358,-0.325 1.358,-0.975Zm-26.579,1.733c0,-1.12 0.526,-1.679 1.576,-1.679l4.784,-0c1.087,-0 1.63,0.541 1.63,1.625l0,3.141c0,1.083 -0.543,1.625 -1.63,1.625l-4.729,0c-1.087,0 -1.631,-0.542 -1.631,-1.625l0,-3.087Zm0,10.833c0,-1.12 0.526,-1.68 1.576,-1.68l4.784,0c1.087,0 1.63,0.542 1.63,1.625l0,3.142c0,1.083 -0.543,1.625 -1.63,1.625l-4.729,-0c-1.087,-0 -1.631,-0.542 -1.631,-1.625l0,-3.087Zm37.613,2.654c0.363,-0.939 0.091,-1.409 -0.815,-1.409l-11.414,0c-0.906,0 -1.16,0.578 -0.761,1.734l0.761,2.166c0.398,0.867 1.032,1.3 1.902,1.3l7.501,-0c0.906,-0 1.576,-0.578 2.011,-1.733l0.815,-2.058Z" style="fill:#fff;fill-rule:nonzero;"/><path d="M525.853,14.289c-0,-1.156 0.507,-1.733 1.522,-1.733l4.783,-0c1.087,-0 1.63,0.541 1.63,1.624l0,46.364c-0.616,2.636 -2.083,4.044 -4.402,4.225l-7.338,0c-1.087,0 -1.721,-0.542 -1.903,-1.625l-0.434,-2.762c-0.182,-1.083 0.271,-1.625 1.358,-1.625c1.993,0.18 3.352,0.018 4.077,-0.488c0.652,-0.541 0.888,-1.372 0.707,-2.491l-0,-41.489Zm-42.995,0.866c0,-1.119 0.526,-1.679 1.576,-1.679l25.058,0c1.087,0 1.631,0.542 1.631,1.625l-0,3.196c-0,1.083 -0.544,1.625 -1.631,1.625l-10.491,-0c-0.869,-0 -1.63,0.541 -2.282,1.625l-3.86,6.987c-0.471,0.939 -0.253,1.408 0.653,1.408l6.577,-0c0.869,-0.036 1.377,-0.361 1.521,-0.975c-0.398,-0.397 -0.779,-1.065 -1.141,-2.004c-0.544,-1.228 -0.344,-1.842 0.598,-1.842l4.62,0c1.087,0 1.884,0.542 2.392,1.625c0.543,1.264 1.141,2.528 1.793,3.792c1.885,3.394 0.943,5.344 -2.826,5.849l-21.633,0c-1.087,0 -1.631,-0.541 -1.631,-1.624l0,-3.25c0,-1.084 0.199,-1.986 0.598,-2.708c1.305,-2.492 2.663,-4.983 4.077,-7.475c0.507,-0.939 0.29,-1.408 -0.653,-1.408l-3.315,-0c-1.087,-0 -1.631,-0.542 -1.631,-1.625l0,-3.142Zm32.124,0.705c-0,-1.156 0.507,-1.734 1.522,-1.734l3.478,0c1.087,0 1.631,0.542 1.631,1.625l-0,37.21c-0,1.084 -0.544,1.625 -1.631,1.625l-3.37,0c-1.087,0 -1.63,-0.541 -1.63,-1.625l-0,-37.101Zm-21.851,25.51c0,-1.119 0.526,-1.679 1.576,-1.679l4.947,0c1.087,0 1.63,0.542 1.63,1.625l0,1.409c0,0.902 0.453,1.354 1.359,1.354l6.631,-0c1.088,-0 1.631,0.541 1.631,1.625l0,3.141c0,1.083 -0.543,1.625 -1.631,1.625l-6.631,-0c-0.906,-0 -1.359,0.451 -1.359,1.354l0,5.2c0,0.902 0.453,1.354 1.359,1.354l7.012,-0c1.087,-0 1.631,0.541 1.631,1.625l-0,3.141c-0,1.083 -0.544,1.625 -1.631,1.625l-24.949,0c-1.087,0 -1.63,-0.542 -1.63,-1.625l-0,-3.141c-0,-1.084 0.543,-1.625 1.63,-1.625l7.066,-0c0.906,-0 1.359,-0.452 1.359,-1.354l0,-5.2c0,-0.903 -0.453,-1.354 -1.359,-1.354l-6.848,-0c-1.087,-0 -1.631,-0.542 -1.631,-1.625l0,-3.141c0,-1.084 0.544,-1.625 1.631,-1.625l6.848,-0c0.906,-0 1.359,-0.452 1.359,-1.354l0,-1.355Z" style="fill:#fff;fill-rule:nonzero;"/></g></svg>