<?xml version="1.0" encoding="UTF-8" standalone="no"?><!DOCTYPE svg PUBLIC "-//W3C//DTD SVG 1.1//EN" "http://www.w3.org/Graphics/SVG/1.1/DTD/svg11.dtd"><svg width="100%" height="100%" viewBox="0 0 1440 783" version="1.1" xmlns="http://www.w3.org/2000/svg" xmlns:xlink="http://www.w3.org/1999/xlink" xml:space="preserve" xmlns:serif="http://www.serif.com/" style="fill-rule:evenodd;clip-rule:evenodd;stroke-linejoin:round;stroke-miterlimit:2;"><rect id="Artboard1" x="0" y="0" width="1440" height="782.913" style="fill:none;"/><clipPath id="_clip1"><rect x="0" y="0" width="1440" height="782.913"/></clipPath><g clip-path="url(#_clip1)"><path d="M-0,729.731c34.724,-0.254 69.347,-3.639 104.053,-4.756c29.081,-0.934 58.181,-14.594 86.991,-5.432c46.147,14.676 90.547,-0.629 135.48,-3.224c20.264,-1.173 41.563,-15.098 61.879,-8.363c45.12,14.956 89.043,1.661 132.653,-3.201c28.543,-3.181 57.751,-0.25 86.276,-2.769c77.295,-6.823 155.738,9.356 233.136,1.274c19.489,-2.036 39.075,3.56 58.494,5.19c81.58,6.846 162.884,5.514 244.837,21.209c58.105,11.128 116.297,5.272 174.692,15.816c40.502,7.313 81.013,12.109 121.509,20.374l0,68.224l-1440,-0l-0,-104.342Zm1440,-165.583c-47.864,-17.776 -95.756,-32.7 -143.767,-44.099c-16.164,-3.838 -32.731,-11.985 -49.474,-17.845c22.732,-18.653 46.524,-11.908 69.991,-8.444c41.077,6.066 82.161,12.006 123.25,19.032l0,51.356Z" style="fill:#77c1d3;"/><path d="M181.59,237.562c-0.215,-0.207 -0.426,-0.42 -0.636,-0.64c-6.309,-6.65 -8.788,-13.903 -19.222,-14.371c-12.36,-0.555 -32.494,2.639 -37.607,-12.354c-3.072,-9.011 -0.014,-19.507 -6.59,-27.4c-4.592,-5.512 -12.191,-7.843 -19.357,-7.514c-12.286,0.565 -22.286,9.111 -34.294,10.758c-14.115,1.937 -20.801,-11.492 -32.167,-17.108c-20.058,-9.91 -37.28,-1.141 -47.562,6.869c-11.39,8.871 -18.707,22.419 -20.828,36.618c-2.575,17.244 13.304,33.991 30.211,41.534c8.357,3.729 17.7,4.612 26.852,4.678c10.765,0.075 21.553,-0.284 32.253,-0.524c20.173,-0.451 184.759,0.962 184.759,-4.163c-0,-3.256 -23.935,-6.344 -27.33,-7.315c-9.694,-2.771 -20.852,-1.724 -28.482,-9.068" style="fill:#ffeed7;fill-rule:nonzero;"/><g><path d="M1228.77,97.055l3.561,36.055l20.583,-23.964l66.91,-56.666l-57.537,19.175c-0,-0 -28.249,14.302 -29.526,16.15c-1.276,1.848 -3.991,9.25 -3.991,9.25" style="fill:#6db1b5;fill-rule:nonzero;"/><path d="M1198.88,82.191l120.888,-29.287l-90.192,44.153l-30.696,-14.866Z" style="fill:#8fd0d6;fill-rule:nonzero;"/><path d="M1276.32,123.014l-38.069,-18.217l81.572,-52.316l-43.503,70.533Z" style="fill:#8fd0d6;fill-rule:nonzero;"/><path d="M1185.42,136.694c3.216,-4.245 7.049,-7.994 11.391,-11.144l1.422,1.961c-4.149,3.009 -7.81,6.591 -10.882,10.646l-1.931,-1.463Zm-28.864,10.764c2.636,-0.978 7.442,-2.657 10.006,-2.93c1.99,-0.211 3.819,-0.339 5.589,-0.389l0.067,2.422c-1.705,0.047 -3.472,0.171 -5.4,0.376c-1.682,0.179 -5.115,1.197 -9.421,2.791l-0.841,-2.27Zm30.844,1.484l-0.316,-0.129l0.9,-2.249l0.342,0.14c5.131,2.125 9.483,5.898 11.942,10.352l-2.121,1.17c-2.198,-3.982 -6.115,-7.366 -10.747,-9.284m-10.895,12.993c-0.141,-2.319 0.014,-4.726 0.464,-7.152c0.242,-1.304 0.574,-2.638 0.986,-3.963l2.312,0.719c-0.382,1.234 -0.691,2.474 -0.916,3.686c-0.414,2.232 -0.558,4.44 -0.429,6.563c0.093,1.506 0.342,3.016 0.741,4.488l-2.338,0.635c-0.442,-1.631 -0.718,-3.305 -0.82,-4.976m-46.344,2.678c3.73,-3.57 7.793,-6.99 12.076,-10.163l1.442,1.946c-4.201,3.113 -8.186,6.467 -11.842,9.967l-1.676,-1.75Zm57.104,15.623c-0.146,-0.081 -0.291,-0.164 -0.434,-0.247l1.224,-2.091c0.126,0.074 0.252,0.146 0.358,0.206c0,0 0.069,0.029 0.248,0.062c1.331,0.247 4.793,0.043 6.667,-1.228c1.575,-1.069 2.804,-2.637 3.652,-4.664l2.235,0.935c-1.019,2.433 -2.584,4.416 -4.527,5.734c-2.599,1.762 -6.798,1.914 -8.469,1.605c-0.395,-0.073 -0.708,-0.176 -0.954,-0.312m-76.398,9.307c2.404,-4.497 5.322,-8.95 8.673,-13.236l1.908,1.492c-3.265,4.176 -6.107,8.512 -8.445,12.885l-2.136,-1.141Z" style="fill:#6db1b5;fill-rule:nonzero;"/><path d="M1211.74,120.507c2.502,-0.849 5.042,-1.483 7.551,-1.886l-0.386,-2.392c-2.64,0.425 -5.313,1.093 -7.943,1.983l0.778,2.295Z" style="fill:#6db1b5;fill-rule:nonzero;"/></g><g><path d="M228.716,592.319l34.786,-4.356l6.289,33.031l-1.074,6.972l-13.302,15.256l-20.939,-11.494l-5.76,-39.409Z" style="fill:#d0f0f4;fill-rule:nonzero;"/><path d="M207.626,620.536l38.214,12.423c6.663,2.165 14.092,0.743 19.186,-4.066c2.091,-1.974 3.868,-4.551 4.765,-7.899c0,0 0.252,47.414 -34.812,42.145l-37.265,-12.113l-2.052,6.313l-14.127,-26.725l28.046,-15.571l-1.955,5.493Z" style="fill:#d0f0f4;fill-rule:nonzero;"/><path d="M171.559,609.721l-12.698,32.678l-32.052,-10.164l-5.624,-4.259l-7.101,-18.953l20.063,-12.962l37.412,13.66Z" style="fill:#d0f0f4;fill-rule:nonzero;"/><path d="M156.754,577.755l-29.09,27.72c-5.072,4.833 -7.351,12.045 -5.54,18.813c0.743,2.779 2.166,5.567 4.685,7.947c-0,-0 -41.837,-22.311 -20.539,-50.658l28.367,-27.032l-4.579,-4.806l30.229,0.271l0.371,32.077l-3.904,-4.332Z" style="fill:#d0f0f4;fill-rule:nonzero;"/><path d="M186.099,558.619l-23.101,-26.371l23.834,-23.718l6.377,-3.017l20.089,2.469l2.214,23.783l-29.413,26.854Z" style="fill:#d0f0f4;fill-rule:nonzero;"/><path d="M221.288,560.276l-11.125,-38.612c-1.939,-6.732 -7.28,-12.088 -14.117,-13.613c-2.808,-0.626 -5.938,-0.654 -9.213,0.479c-0,0 39.129,-26.776 54.413,5.217l10.849,37.653l6.379,-1.838l-14.22,26.677l-28.612,-14.505l5.646,-1.458Z" style="fill:#d0f0f4;fill-rule:nonzero;"/></g><g><path d="M1263.08,622.471l15.733,-9.58l10.128,14.477l0.987,3.572l-3.09,10.177l-12.511,-0.999l-11.247,-17.647Z" style="fill:#ffeed7;fill-rule:nonzero;"/><path d="M1259.05,640.537l20.99,-2.277c3.659,-0.397 6.913,-2.678 8.319,-6.08c0.578,-1.397 0.875,-3.014 0.583,-4.812c0,-0 10.332,22.67 -7.608,27.696l-20.468,2.22l0.376,3.467l-12.527,-9.766l10.089,-13.502l0.246,3.054Z" style="fill:#ffeed7;fill-rule:nonzero;"/><path d="M1239.43,643.121l0.951,18.396l-17.55,2.031l-3.612,-0.83l-7.486,-7.554l6.825,-10.533l20.872,-1.51Z" style="fill:#ffeed7;fill-rule:nonzero;"/><path d="M1225.45,630.988l-7.972,19.55c-1.39,3.409 -0.929,7.357 1.396,10.211c0.954,1.171 2.237,2.201 3.957,2.799c0,-0 -24.856,-1.683 -20.754,-19.856l7.775,-19.064l-3.23,-1.317l14.545,-6.38l7.087,15.293l-2.804,-1.236Z" style="fill:#ffeed7;fill-rule:nonzero;"/><path d="M1235.39,615.497l-16.751,-7.664l6.316,-16.499l2.405,-2.82l10.16,-3.143l6.183,10.922l-8.313,19.204Z" style="fill:#ffeed7;fill-rule:nonzero;"/><path d="M1252.62,608.713l-13.648,-16.11c-2.379,-2.808 -6.092,-4.225 -9.698,-3.484c-1.48,0.305 -2.986,0.966 -4.312,2.214c0,-0 12.987,-21.26 27.202,-9.218l13.309,15.71l2.661,-2.255l-1.07,15.847l-16.837,-0.789l2.393,-1.915Z" style="fill:#ffeed7;fill-rule:nonzero;"/></g></g></svg>