<?xml version="1.0" encoding="UTF-8"?>
<svg width="100px" height="44px" viewBox="0 0 100 44" version="1.1" xmlns="http://www.w3.org/2000/svg" xmlns:xlink="http://www.w3.org/1999/xlink">
    <!-- Generator: Sketch 54.1 (76490) - https://sketchapp.com -->
    <title>background</title>
    <desc>Created with Sketch.</desc>
    <defs>
        <rect id="path-1" x="0" y="0" width="100" height="54.3689583"></rect>
    </defs>
    <g id="Page-1" stroke="none" stroke-width="1" fill="none" fill-rule="evenodd">
        <g id="background" transform="translate(0.000000, -3.000000)">
            <rect id="Artboard1" x="0" y="0" width="100" height="54.3689583"></rect>
            <g id="Clipped">
                <g id="Group-Clipped">
                    <mask id="mask-2" fill="white">
                        <use xlink:href="#path-1"></use>
                    </mask>
                    <g id="path-1"></g>
                    <g id="Group" mask="url(#mask-2)">
                        <g transform="translate(-3.000000, 3.000000)">
                            <g transform="translate(0.430556, 0.611111)">
                                <path d="M102.569444,35.5658333 C99.2455556,34.3313889 95.9197222,33.295 92.585625,32.5034028 C91.463125,32.236875 90.3126389,31.6711111 89.1499306,31.2641667 C90.7285417,29.9688194 92.3807639,30.4372222 94.0104167,30.6777778 C96.8629861,31.0990278 99.7160417,31.5115278 102.569444,31.9994444 L102.569444,35.5658333 L102.569444,35.5658333 Z" id="Shape" fill="#77C1D3"></path>
                                <path d="M11.9520661,11.6940881 C11.9403112,11.6830917 11.9287748,11.6717765 11.9172931,11.6600896 C11.5723514,11.3068233 11.4368133,10.921524 10.866339,10.8966625 C10.1905617,10.8671795 9.08974445,11.0368535 8.81019346,10.2403842 C8.64223329,9.76169512 8.80942804,9.20411878 8.44988821,8.78482095 C8.19882269,8.49200838 7.78335086,8.36817926 7.39155307,8.38565664 C6.71982163,8.415671 6.17307618,8.86965797 5.51654425,8.95715114 C4.74481307,9.06004989 4.37925906,8.34666454 3.7578282,8.04832721 C2.66116619,7.5218808 1.71956119,7.98771416 1.15739752,8.41322734 C0.534654467,8.88447922 0.134600827,9.60418616 0.0186361186,10.358476 C-0.122150833,11.2745247 0.746026254,12.1641713 1.67040877,12.5648761 C2.12732394,12.7629709 2.6381482,12.8098782 3.13852964,12.8133843 C3.7271011,12.8173686 4.31693009,12.7982975 4.9019477,12.7855481 C6.00489729,12.7615897 15.0035618,12.8366521 15.0035618,12.564398 C15.0035618,12.3914304 13.6949266,12.2273874 13.5093065,12.1758051 C12.9792915,12.028602 12.3692329,12.0842215 11.9520661,11.6940881" id="Path" fill="#FFEED7" fill-rule="nonzero"></path>
                                <g transform="translate(79.652778, 0.000000)" fill-rule="nonzero">
                                    <path d="M8.24791667,3.12881944 L8.49520833,5.63263889 L9.92458333,3.96847222 L14.5711111,0.0333333333 L10.5754861,1.36493056 C10.5754861,1.36493056 8.61375,2.358125 8.52506944,2.48645833 C8.43645833,2.61479167 8.24791667,3.12881944 8.24791667,3.12881944" id="Path" fill="#6DB1B5"></path>
                                    <polygon id="Path" fill="#8FD0D6" points="6.17222222 2.09659722 14.5672222 0.0627777778 8.30388889 3.12895833"></polygon>
                                    <polygon id="Path" fill="#8FD0D6" points="11.55 4.93152778 8.90631944 3.66645833 14.5710417 0.0334027778"></polygon>
                                    <path d="M5.2375,5.88152778 C5.46083333,5.58673611 5.72701389,5.32638889 6.02854167,5.10763889 L6.12729167,5.24381944 C5.83916667,5.45277778 5.58493056,5.70152778 5.37159722,5.983125 L5.2375,5.88152778 Z M3.23305556,6.62902778 C3.41611111,6.56111111 3.74986111,6.44451389 3.92791667,6.42555556 C4.06611111,6.41090278 4.193125,6.40201389 4.31604167,6.39854167 L4.32069444,6.56673611 C4.20229167,6.57 4.07958333,6.57861111 3.94569444,6.59284722 C3.82888889,6.60527778 3.59048611,6.67597222 3.29145833,6.78666667 L3.23305556,6.62902778 L3.23305556,6.62902778 Z M5.375,6.73208333 L5.35305556,6.723125 L5.41555556,6.56694444 L5.43930556,6.57666667 C5.795625,6.72423611 6.09784722,6.98625 6.26861111,7.29555556 L6.12131944,7.37680556 C5.96868056,7.10027778 5.69666667,6.86527778 5.375,6.73208333 L5.375,6.73208333 Z M4.61840278,7.634375 C4.60861111,7.47333333 4.619375,7.30618056 4.650625,7.13770833 C4.66743056,7.04715278 4.69048611,6.95451389 4.71909722,6.8625 L4.87965278,6.91243056 C4.853125,6.998125 4.83166667,7.08423611 4.81604167,7.16840278 C4.78729167,7.32340278 4.77729167,7.47673611 4.78625,7.62416667 C4.79270833,7.72875 4.81,7.83361111 4.83770833,7.93583333 L4.67534722,7.97993056 C4.64465278,7.86666667 4.62548611,7.75041667 4.61840278,7.634375 L4.61840278,7.634375 Z M1.40006944,7.82034722 C1.65909722,7.57243056 1.94125,7.33493056 2.23868056,7.11458333 L2.33881944,7.24972222 C2.04708333,7.46590278 1.77034722,7.69881944 1.51645833,7.941875 L1.40006944,7.82034722 Z M5.365625,8.90527778 C5.35548611,8.89965278 5.34541667,8.89388889 5.33548611,8.888125 L5.42048611,8.74291667 C5.42923611,8.74805556 5.43798611,8.75305556 5.44534722,8.75722222 C5.44534722,8.75722222 5.45013889,8.75923611 5.46256944,8.76152778 C5.555,8.77868056 5.79541667,8.76451389 5.92555556,8.67625 C6.03493056,8.60201389 6.12027778,8.493125 6.17916667,8.35236111 L6.334375,8.41729167 C6.26361111,8.58625 6.15493056,8.72395833 6.02,8.81548611 C5.83951389,8.93784722 5.54791667,8.94840278 5.431875,8.92694444 C5.40444444,8.921875 5.38270833,8.91472222 5.365625,8.90527778 L5.365625,8.90527778 Z M0.0602083333,9.55159722 C0.227152778,9.23930556 0.429791667,8.93006944 0.6625,8.63243056 L0.795,8.73604167 C0.568263889,9.02604167 0.370902778,9.32715278 0.208541667,9.63083333 L0.0602083333,9.55159722 Z" id="Shape" fill="#6DB1B5"></path>
                                    <path d="M7.06527778,4.75743056 C7.23902778,4.69847222 7.41541667,4.65444444 7.58965278,4.62645833 L7.56284722,4.46034722 C7.37951389,4.48986111 7.19388889,4.53625 7.01125,4.59805556 L7.06527778,4.75743056 L7.06527778,4.75743056 Z" id="Path" fill="#6DB1B5"></path>
                                </g>
                                <g transform="translate(9.513889, 30.972222)" fill="#D0F0F4" fill-rule="nonzero" id="Path">
                                    <polygon points="8.93861111 6.54993056 11.3543056 6.24743056 11.7910417 8.54125 11.7164583 9.02541667 10.7927083 10.0848611 9.33861111 9.28666667"></polygon>
                                    <path d="M7.47402778,8.50944444 L10.1277778,9.37215278 C10.5904861,9.5225 11.1063889,9.42375 11.4601389,9.08979167 C11.6053472,8.95270833 11.72875,8.77375 11.7910417,8.54125 C11.7910417,8.54125 11.8085417,11.8338889 9.37354167,11.4679861 L6.78569444,10.6268056 L6.64319444,11.0652083 L5.66215278,9.20930556 L7.60979167,8.12798611 L7.47402778,8.50944444 L7.47402778,8.50944444 Z"></path>
                                    <polygon points="4.969375 7.75840278 4.08756944 10.0277083 1.86173611 9.321875 1.47118056 9.02611111 0.978055556 7.70993056 2.37131944 6.80979167"></polygon>
                                    <path d="M3.94125,5.53854167 L1.92111111,7.46354167 C1.56888889,7.79916667 1.410625,8.3 1.53638889,8.77 C1.58798611,8.96298611 1.68680556,9.15659722 1.86173611,9.321875 C1.86173611,9.321875 -1.04361111,7.7725 0.435416667,5.80395833 L2.40534722,3.92673611 L2.08736111,3.59298611 L4.18659722,3.61180556 L4.21236111,5.839375 L3.94125,5.53854167 L3.94125,5.53854167 Z"></path>
                                    <polygon points="5.97909722 4.20965278 4.37486111 2.37833333 6.03 0.73125 6.47284722 0.521736111 7.86791667 0.693194444 8.02166667 2.34479167"></polygon>
                                    <path d="M8.42277778,4.32472222 L7.65020833,1.64333333 C7.51555556,1.17583333 7.14465278,0.803888889 6.66986111,0.697986111 C6.47486111,0.654513889 6.2575,0.652569444 6.03006944,0.73125 C6.03006944,0.73125 8.74736111,-1.12819444 9.80875,1.09354167 L10.5621528,3.70833333 L11.0051389,3.58069444 L10.0176389,5.43326389 L8.03069444,4.42597222 L8.42277778,4.32472222 L8.42277778,4.32472222 Z"></path>
                                </g>
                                <g transform="translate(85.972222, 36.527778)" fill="#FFEED7" fill-rule="nonzero" id="Path">
                                    <polygon points="4.31111111 3.08826389 5.40368056 2.42298611 6.10701389 3.42833333 6.17555556 3.67638889 5.96097222 4.383125 5.09215278 4.31375"></polygon>
                                    <path d="M4.03125,4.34284722 L5.48888889,4.18472222 C5.74298611,4.15715278 5.96895833,3.99875 6.06659722,3.7625 C6.10673611,3.66548611 6.12736111,3.55319444 6.10708333,3.42833333 C6.10708333,3.42833333 6.82458333,5.00263889 5.57875,5.35166667 L4.15736111,5.50583333 L4.18347222,5.74659722 L3.31354167,5.06840278 L4.01416667,4.13076389 L4.03125,4.34284722 Z"></path>
                                    <polygon points="2.66875 4.52229167 2.73479167 5.79979167 1.51604167 5.94083333 1.26520833 5.88319444 0.745347222 5.35861111 1.21930556 4.62715278"></polygon>
                                    <path d="M1.69791667,3.67972222 L1.14430556,5.03736111 C1.04777778,5.27409722 1.07979167,5.54826389 1.24125,5.74645833 C1.3075,5.82777778 1.39659722,5.89930556 1.51604167,5.94083333 C1.51604167,5.94083333 -0.210069444,5.82395833 0.0747916667,4.56194444 L0.614722222,3.23805556 L0.390416667,3.14659722 L1.40048611,2.70354167 L1.89263889,3.76555556 L1.69791667,3.67972222 L1.69791667,3.67972222 Z"></path>
                                    <polygon points="2.38819444 2.60395833 1.22493056 2.07173611 1.66354167 0.925972222 1.83055556 0.730138889 2.53611111 0.511875 2.96548611 1.27034722"></polygon>
                                    <path d="M3.58472222,2.13284722 L2.63694444,1.01409722 C2.47173611,0.819097222 2.21388889,0.720694444 1.96347222,0.772152778 C1.86069444,0.793333333 1.75611111,0.839236111 1.66402778,0.925902778 C1.66402778,0.925902778 2.56590278,-0.550486111 3.55305556,0.285763889 L4.47729167,1.37673611 L4.66208333,1.22013889 L4.58777778,2.320625 L3.41854167,2.26583333 L3.58472222,2.13284722 L3.58472222,2.13284722 Z"></path>
                                </g>
                            </g>
                        </g>
                    </g>
                </g>
            </g>
        </g>
    </g>
</svg>