<?xml version="1.0" encoding="UTF-8" standalone="no"?><!DOCTYPE svg PUBLIC "-//W3C//DTD SVG 1.1//EN" "http://www.w3.org/Graphics/SVG/1.1/DTD/svg11.dtd"><svg width="100%" height="100%" viewBox="0 0 900 165" version="1.1" xmlns="http://www.w3.org/2000/svg" xmlns:xlink="http://www.w3.org/1999/xlink" xml:space="preserve" xmlns:serif="http://www.serif.com/" style="fill-rule:evenodd;clip-rule:evenodd;stroke-linejoin:round;stroke-miterlimit:2;"><path d="M819.532,82.461l80.468,-82.461l-819.517,0l-80.483,82.461l80.483,82.474l819.517,-0l-80.468,-82.474Z" style="fill:#005f89;fill-rule:nonzero;"/><g><path d="M230.451,29.026c0,-2.391 1.122,-3.586 3.366,-3.586l10.564,0c2.322,0 3.482,1.157 3.482,3.47l0,2.545c0,1.928 0.968,2.892 2.902,2.892l37.263,0c2.321,0 3.482,1.157 3.482,3.47l0,6.709c0,2.314 -1.161,3.471 -3.482,3.471l-37.263,-0c-1.934,-0 -2.902,0.963 -2.902,2.891l0,12.493c0,1.928 0.968,2.892 2.902,2.892l40.513,-0c2.322,-0 3.482,1.157 3.482,3.47l0,6.709c0,2.314 -1.16,3.47 -3.482,3.47l-40.513,0c-1.934,0 -2.902,0.964 -2.902,2.892l0,9.254c0,1.928 0.968,2.892 2.902,2.892l35.87,0c2.321,0 3.482,1.157 3.482,3.47l0,6.709c0,2.314 -1.161,3.471 -3.482,3.471l-35.87,-0c-1.934,-0 -2.902,0.963 -2.902,2.891l0,8.792c0,1.927 0.968,2.891 2.902,2.891l40.513,0c2.322,0 3.482,1.157 3.482,3.471l0,6.709c0,2.313 -1.16,3.47 -3.482,3.47l-78.007,-0c-1.548,-0.309 -3.096,-0.771 -4.643,-1.388c-2.477,-1.465 -4.798,-1.504 -6.965,-0.116c-3.096,1.542 -7.429,2.044 -13.001,1.504c-2.322,-0 -3.676,-1.157 -4.063,-3.47l-0.929,-5.784c-0.542,-2.93 -0.387,-4.396 0.464,-4.396c4.334,-0.231 6.23,-2.313 5.688,-6.246l0,-23.713c0,-2.314 1.161,-3.47 3.483,-3.47l9.983,-0c2.322,-0 3.482,1.156 3.482,3.47l0,20.127c0,1.851 0.465,3.547 1.393,5.09c2.709,3.701 5.882,5.282 9.519,4.742l9.867,0c1.935,0 2.902,-0.964 2.902,-2.891l0,-37.479c0,-1.928 -0.967,-2.892 -2.902,-2.892l-41.093,0c-2.322,0 -3.482,-1.156 -3.482,-3.47l-0,-6.709c-0,-2.313 1.16,-3.47 3.482,-3.47l41.093,-0c1.935,-0 2.902,-0.964 2.902,-2.892l0,-12.493c0,-1.928 -0.967,-2.891 -2.902,-2.891l-37.843,-0c-2.321,-0 -3.482,-1.157 -3.482,-3.471l-0,-6.709c-0,-2.313 1.161,-3.47 3.482,-3.47l37.843,0c1.935,0 2.902,-0.964 2.902,-2.892l0,-2.429Z" style="fill:#fff;fill-rule:nonzero;"/><path d="M321.273,29.72c-1.238,-2.545 -0.851,-3.817 1.161,-3.817l10.796,-0c2.322,-0 4.024,1.157 5.107,3.47c1.393,2.699 3.057,4.049 4.992,4.049c2.167,-0 3.869,-1.157 5.108,-3.471c1.47,-2.699 3.211,-4.048 5.223,-4.048l10.448,-0c2.321,-0 2.94,1.157 1.857,3.47l-0.464,1.041c-0.929,2.005 -0.116,3.008 2.437,3.008c2.477,-0 3.715,1.156 3.715,3.47l-0,4.858c-0,2.314 -1.161,3.47 -3.482,3.47l-13.582,0c-1.935,0 -2.902,0.964 -2.902,2.892l-0,15.269c-0,1.928 0.967,2.892 2.902,2.892c2.244,0.386 4.024,-0.578 5.34,-2.892c0.232,-2.39 0.309,-4.82 0.232,-7.287c-0,-2.314 1.161,-3.471 3.482,-3.471l3.018,0c2.322,0 3.483,1.157 3.483,3.471l-0,14.806c-0.155,3.856 -2.283,6.169 -6.385,6.94c-3.018,0.232 -6.075,0.309 -9.17,0.232c-1.935,-0 -2.902,0.964 -2.902,2.892c0.232,4.626 0.039,7.75 -0.581,9.369c-1.315,3.779 -3.985,6.015 -8.009,6.709l-22.752,0c-2.322,0 -3.676,-1.157 -4.063,-3.47l-0.464,-3.47c-0.465,-2.622 0.464,-3.933 2.786,-3.933l9.054,-0c4.488,0.385 6.655,-1.542 6.501,-5.784c-0,-1.542 -0.968,-2.313 -2.903,-2.313l-12.188,-0c-2.322,-0 -3.483,-1.157 -3.483,-3.471l0,-18.507c0,-2.314 1.161,-3.471 3.483,-3.471l3.018,0c2.322,0 3.482,1.157 3.482,3.471l0,7.287c0,1.928 0.968,2.892 2.903,2.892l2.785,-0c1.935,-0 2.903,-0.964 2.903,-2.892l-0,-15.269c-0,-1.928 -0.968,-2.892 -2.903,-2.892l-14.162,0c-2.321,0 -3.482,-1.156 -3.482,-3.47l0,-4.858c0,-2.314 1.161,-3.47 3.482,-3.47l3.135,-0c1.934,-0 2.283,-1.234 1.044,-3.702Zm56.3,1.157c0,-2.391 1.122,-3.586 3.367,-3.586l37.958,-0c2.322,-0 3.483,1.157 3.483,3.47l-0,57.027c-0.465,5.013 -3.096,7.866 -7.894,8.56c-2.167,0.231 -4.372,0.309 -6.616,0.231c-2.322,0 -3.715,-1.156 -4.179,-3.47l-0.929,-4.28c-0.31,-1.928 -0.155,-3.007 0.464,-3.239c2.09,-1.156 2.825,-3.084 2.206,-5.783c-0,-2.082 -0.968,-3.123 -2.902,-3.123l-5.108,-0c-1.935,-0 -2.902,0.964 -2.902,2.891l0,8.676c0,1.928 -0.735,3.856 -2.205,5.784c-2.709,2.544 -6.346,3.547 -10.912,3.007c-1.935,0 -2.902,0.964 -2.902,2.892l-0,2.545c-0,1.928 0.967,2.892 2.902,2.892l36.914,-0c2.322,-0 3.482,1.156 3.482,3.47l0,4.395c0,2.314 -1.16,3.471 -3.482,3.471l-36.914,-0c-1.935,-0 -2.902,0.964 -2.902,2.891l-0,2.545c-0,1.928 0.967,2.892 2.902,2.892l40.512,0c2.322,0 3.483,1.157 3.483,3.47l-0,4.859c-0,2.313 -1.161,3.47 -3.483,3.47l-104.822,-0c-2.321,-0 -3.482,-1.157 -3.482,-3.47l0,-4.859c0,-2.313 1.161,-3.47 3.482,-3.47l41.093,0c1.935,0 2.903,-0.964 2.903,-2.892l-0,-2.545c-0,-1.927 -0.968,-2.891 -2.903,-2.891l-36.914,-0c-2.321,-0 -3.482,-1.157 -3.482,-3.471l-0,-4.395c-0,-2.314 1.161,-3.47 3.482,-3.47l36.914,-0c1.935,-0 2.903,-0.964 2.903,-2.892l-0,-1.967c-0,-2.313 1.16,-3.47 3.482,-3.47l7.894,0c1.934,0 2.669,-1.234 2.205,-3.701l-0.464,-3.239c-0.542,-2.622 -0.387,-3.972 0.464,-4.049c2.477,-0.617 3.444,-2.429 2.902,-5.437l0,-49.739Zm27.86,11.336c-0,-2.005 -0.929,-3.008 -2.786,-3.008l-5.224,0c-1.935,0 -2.902,0.964 -2.902,2.892l0,2.661c0,1.928 0.967,2.892 2.902,2.892l5.108,-0c1.934,-0 2.902,-0.964 2.902,-2.892l-0,-2.545Zm-0,18.508c-0,-2.005 -0.929,-3.008 -2.786,-3.008l-5.224,0c-1.935,0 -2.902,0.964 -2.902,2.892l0,3.239c0,1.928 0.967,2.892 2.902,2.892l5.108,-0c1.934,-0 2.902,-0.964 2.902,-2.892l-0,-3.123Z" style="fill:#fff;fill-rule:nonzero;"/><path d="M452.492,29.257c0.697,-2.622 2.09,-3.932 4.179,-3.932l10.68,-0c2.321,-0 3.25,0.732 2.786,2.197c-0.542,1.697 0.193,2.545 2.205,2.545l21.359,0c2.322,0 3.483,1.157 3.483,3.47l-0,2.198c-0,2.314 -1.161,3.47 -3.483,3.47l-1.741,0c-1.935,0 -2.902,0.579 -2.902,1.735c-0.155,1.466 0.774,2.931 2.786,4.396l9.519,0.116c1.857,-0 3.134,-0.27 3.83,-0.81c1.161,-1.08 2.013,-3.046 2.554,-5.899c0.697,-3.085 1.509,-6.208 2.438,-9.37c0.697,-2.313 2.206,-3.47 4.527,-3.47l10.099,-0c2.322,-0 3.251,0.617 2.786,1.851c-0.541,1.542 0.155,2.313 2.09,2.313l22.52,0c2.321,0 3.482,1.157 3.482,3.47l0,2.198c0,2.314 -1.161,3.47 -3.482,3.47l-3.599,0c-1.935,0 -2.554,1.234 -1.857,3.702c0.851,2.853 2.67,4.01 5.456,3.47c1.78,0 2.67,1.157 2.67,3.47l-0,1.157c-0,2.314 -1.161,3.47 -3.483,3.47l-11.376,0c-2.554,-0.231 -4.605,-1.812 -6.152,-4.742l-2.438,-6.941c-1.161,-2.39 -2.747,-3.586 -4.759,-3.586c-2.09,0 -3.483,1.041 -4.179,3.124c-0.542,1.156 -0.968,2.429 -1.277,3.817c-0.851,2.93 -2.438,5.089 -4.76,6.477l-3.598,0.926l-30.878,-0c-1.857,-0.154 -3.676,-1.234 -5.456,-3.239c-1.006,-1.774 -1.973,-4.473 -2.902,-8.097c-0.696,-2.005 -2.012,-3.008 -3.947,-3.008c-2.012,0 -3.366,1.234 -4.062,3.702c-1.471,8.02 -6.462,11.413 -14.975,10.179c-2.322,0 -3.715,-1.157 -4.179,-3.47l-1.045,-4.743c-0.464,-2.39 -0.193,-3.586 0.813,-3.586c1.702,0.078 3.095,-1.195 4.179,-3.817l2.089,-8.213Zm39.816,30.307c0,-0.848 1.084,-1.273 3.251,-1.273l10.679,0c2.322,0 3.483,0.386 3.483,1.157c0.077,0.848 1.044,1.273 2.902,1.273l39.584,-0c2.321,-0 3.482,1.156 3.482,3.47l0,4.858c0,2.314 -1.161,3.47 -3.482,3.47l-39.584,0c-1.935,0 -2.902,1.196 -2.902,3.586c-0,2.468 0.967,3.702 2.902,3.702l37.262,-0c2.322,-0 3.482,1.157 3.482,3.47l0,4.511c0,2.314 -1.083,3.47 -3.25,3.47c-2.321,0 -3.482,0.964 -3.482,2.892l-0,2.776c-0,1.928 0.967,2.892 2.902,2.892l2.67,0c2.321,0 3.482,1.157 3.482,3.471l0,5.321c0,2.313 -1.161,3.47 -3.482,3.47l-2.67,-0c-1.935,-0 -2.902,0.964 -2.902,2.892l-0,12.839c-0.852,4.859 -3.831,7.866 -8.939,9.023l-22.055,-0c-2.322,-0 -3.676,-1.157 -4.063,-3.47l-0.813,-4.743c-0.309,-2.391 0.658,-3.586 2.902,-3.586l11.144,0c3.173,-0.925 4.489,-3.046 3.947,-6.362l0,-3.701c0,-1.928 -0.967,-2.892 -2.902,-2.892l-75.685,-0c-2.322,-0 -3.483,-1.157 -3.483,-3.47l0,-5.321c0,-2.314 1.161,-3.471 3.483,-3.471l75.685,0c1.935,0 2.902,-0.964 2.902,-2.892l0,-2.776c0,-1.928 -0.967,-2.892 -2.902,-2.892l-72.899,0c-2.322,0 -3.483,-1.156 -3.483,-3.47l0,-4.511c0,-2.313 1.161,-3.47 3.483,-3.47l36.449,-0c1.935,-0 2.902,-1.196 2.902,-3.586c0,-2.468 -0.967,-3.702 -2.902,-3.702l-39.235,0c-2.322,0 -3.483,-1.156 -3.483,-3.47l0,-4.858c0,-2.314 1.161,-3.47 3.483,-3.47l39.235,-0c1.935,-0 2.902,-0.386 2.902,-1.157Zm-31.458,63.505c-1.935,-2.545 -1.818,-3.818 0.348,-3.818l14.046,0c2.322,0 4.295,1.157 5.921,3.471c2.012,2.776 4.333,3.855 6.964,3.239l7.081,-0c2.322,-0 3.483,1.156 3.483,3.47l-0,3.933c-0,2.313 -1.161,3.47 -3.483,3.47l-19.269,-0c-3.328,-0.617 -5.998,-2.005 -8.01,-4.164c-2.167,-3.162 -4.527,-6.362 -7.081,-9.601Z" style="fill:#fff;fill-rule:nonzero;"/><path d="M591.953,30.298c2.322,-2.313 4.643,-3.47 6.965,-3.47l14.278,0c2.322,0 2.36,1.157 0.116,3.47c-4.101,4.088 -8.203,8.29 -12.305,12.609c-1.934,2.005 -1.818,3.007 0.349,3.007l14.51,0c2.322,0 3.482,1.157 3.482,3.471l0,5.783c0,2.314 -1.122,4.627 -3.366,6.941l-14.046,15.037c-2.167,2.314 -2.167,3.47 0,3.47c2.863,0.078 5.727,0 8.59,-0.231c1.78,-1.079 2.477,-2.892 2.09,-5.437c-0,-1.927 1.16,-2.891 3.482,-2.891l1.277,-0c2.322,-0 3.482,1.156 3.482,3.47c0.465,6.478 0,11.259 -1.393,14.343c-1.547,2.931 -4.14,4.357 -7.777,4.28c-1.935,0.077 -2.902,1.08 -2.902,3.008l-0,36.206c-0,2.313 -1.161,3.47 -3.483,3.47l-10.563,-0c-2.322,-0 -3.483,-1.157 -3.483,-3.47l0,-36.206c0,-1.928 -0.967,-2.892 -2.902,-2.892l-8.125,-0c-2.322,-0 -3.483,-1.157 -3.483,-3.47l0,-6.131c0,-2.313 1.084,-4.627 3.251,-6.94l14.162,-15.038c2.012,-2.082 1.973,-3.123 -0.117,-3.123l-13.233,-0c-2.322,-0 -3.482,-1.157 -3.482,-3.47l-0,-7.403c-0,-2.314 1.47,-4.936 4.411,-7.866c3.25,-3.47 6.655,-6.979 10.215,-10.527Zm32.619,0.579c0,-2.391 1.122,-3.586 3.366,-3.586l53.398,-0c2.322,-0 3.483,1.157 3.483,3.47l-0,7.519c-0,2.313 -0.542,4.241 -1.626,5.784c-3.327,4.549 -6.539,9.099 -9.634,13.649c-1.393,2.005 -1.045,3.008 1.044,3.008l7.313,-0c2.322,-0 3.483,1.156 3.483,3.47l-0,9.948c-0,2.313 -0.348,4.241 -1.045,5.783l-9.402,22.904c-0.852,2.005 -0.697,4.087 0.464,6.246l3.947,7.866c0.851,3.316 2.94,5.398 6.268,6.246c1.006,0 1.509,1.08 1.509,3.239l0,6.941c0,2.313 -1.161,3.47 -3.482,3.47c-6.037,0.54 -11.26,-1.967 -15.671,-7.519c-1.316,-2.313 -2.477,-2.391 -3.483,-0.231c-2.941,5.938 -7.584,8.521 -13.93,7.75c-2.321,-0 -3.676,-1.157 -4.063,-3.47l-0.464,-2.661c-0.387,-2.236 -1.354,-2.159 -2.902,0.232c-1.702,3.624 -4.295,5.59 -7.777,5.899l-5.572,-0c-2.322,-0 -3.676,-1.157 -4.063,-3.47l-1.161,-6.941c-0.31,-2.236 -0.271,-3.393 0.116,-3.47c2.477,-0.848 3.56,-2.93 3.25,-6.246l0,-72.759c0,-1.928 -0.58,-2.892 -1.741,-2.892c-1.083,0 -1.625,-1.157 -1.625,-3.47l0,-6.709Zm39.7,13.302c1.47,-2.082 1.2,-3.123 -0.813,-3.123l-16.019,0c-1.935,0 -2.902,0.964 -2.902,2.892l0,35.974c0,1.928 0.967,2.892 2.902,2.892l11.492,0c2.322,0 3.676,0.424 4.063,1.273c0.542,1.156 1.316,0.578 2.322,-1.735c0.541,-1.62 1.199,-3.278 1.973,-4.974c0.851,-2.005 0.271,-3.008 -1.741,-3.008l-9.054,0c-2.322,0 -3.483,-1.157 -3.483,-3.47l0,-7.403c0,-2.314 0.58,-4.242 1.741,-5.784l9.519,-13.534Zm-15.439,46.154c-0.851,-1.774 -1.857,-3.586 -3.018,-5.437c-0.387,-0.077 -0.735,0.116 -1.045,0.579c-0.155,0.617 -0.232,1.812 -0.232,3.586l0,31c0,1.851 0.194,2.892 0.581,3.123c3.559,0.463 5.881,-1.233 6.964,-5.089c1.006,-3.008 2.129,-6.015 3.367,-9.023c0.696,-2.005 0.503,-4.087 -0.581,-6.246l-6.036,-12.493Zm-69.649,15.038c-0,-2.468 1.006,-3.702 3.018,-3.702c2.244,0 3.366,1.157 3.366,3.47l0,17.583c0.852,4.858 -1.393,8.02 -6.732,9.485c-1.161,-0 -1.935,-1.157 -2.322,-3.47l-0.929,-5.784c-0.309,-2.313 -0.038,-3.547 0.813,-3.702c0.851,0.078 1.703,-0.616 2.554,-2.082c0.232,-3.933 0.309,-7.865 0.232,-11.798Zm34.825,-0c-0,-2.468 1.006,-3.702 3.018,-3.702c2.167,0 3.25,1.157 3.25,3.47l-0,23.135c-0,2.313 -1.045,3.47 -3.134,3.47c-2.09,0 -3.134,-1.157 -3.134,-3.47l-0,-22.903Z" style="fill:#fff;fill-rule:nonzero;"/></g></svg>