<?xml version="1.0" encoding="UTF-8" standalone="no"?><!DOCTYPE svg PUBLIC "-//W3C//DTD SVG 1.1//EN" "http://www.w3.org/Graphics/SVG/1.1/DTD/svg11.dtd"><svg width="100%" height="100%" viewBox="0 0 900 165" version="1.1" xmlns="http://www.w3.org/2000/svg" xmlns:xlink="http://www.w3.org/1999/xlink" xml:space="preserve" xmlns:serif="http://www.serif.com/" style="fill-rule:evenodd;clip-rule:evenodd;stroke-linejoin:round;stroke-miterlimit:2;"><path d="M819.532,82.461l80.468,-82.461l-819.516,-0l-80.484,82.461l80.484,82.475l819.516,-0l-80.468,-82.475Z" style="fill:#005f89;fill-rule:nonzero;"/><g><path d="M242.017,29.767c0,-2.36 1.108,-3.541 3.325,-3.541l10.432,0c2.292,0 3.439,1.142 3.439,3.427l-0,2.513c-0,1.904 0.955,2.856 2.866,2.856l36.798,0c2.293,0 3.439,1.142 3.439,3.427l0,6.626c0,2.284 -1.146,3.427 -3.439,3.427l-36.798,-0c-1.911,-0 -2.866,0.952 -2.866,2.856l-0,12.337c-0,1.904 0.955,2.856 2.866,2.856l40.008,-0c2.293,-0 3.439,1.142 3.439,3.427l0,6.625c0,2.285 -1.146,3.427 -3.439,3.427l-40.008,0c-1.911,0 -2.866,0.952 -2.866,2.856l-0,9.139c-0,1.904 0.955,2.856 2.866,2.856l35.423,-0c2.292,-0 3.439,1.142 3.439,3.427l-0,6.625c-0,2.285 -1.147,3.427 -3.439,3.427l-35.423,0c-1.911,0 -2.866,0.952 -2.866,2.856l-0,8.682c-0,1.904 0.955,2.856 2.866,2.856l40.008,-0c2.293,-0 3.439,1.142 3.439,3.427l0,6.626c0,2.284 -1.146,3.427 -3.439,3.427l-77.036,-0c-1.529,-0.305 -3.057,-0.762 -4.586,-1.371c-2.445,-1.447 -4.738,-1.485 -6.878,-0.114c-3.057,1.523 -7.337,2.018 -12.839,1.485c-2.293,-0 -3.63,-1.143 -4.013,-3.427l-0.917,-5.712c-0.535,-2.894 -0.382,-4.341 0.459,-4.341c4.28,-0.229 6.152,-2.285 5.617,-6.169l0,-23.418c0,-2.284 1.146,-3.427 3.439,-3.427l9.859,0c2.293,0 3.439,1.143 3.439,3.427l0,19.877c0,1.828 0.459,3.503 1.376,5.026c2.675,3.656 5.808,5.217 9.4,4.684l9.744,-0c1.911,-0 2.866,-0.952 2.866,-2.856l0,-37.012c0,-1.904 -0.955,-2.856 -2.866,-2.856l-40.581,0c-2.293,0 -3.439,-1.142 -3.439,-3.427l-0,-6.625c-0,-2.285 1.146,-3.427 3.439,-3.427l40.581,-0c1.911,-0 2.866,-0.952 2.866,-2.856l0,-12.337c0,-1.904 -0.955,-2.856 -2.866,-2.856l-37.372,-0c-2.292,-0 -3.439,-1.143 -3.439,-3.427l0,-6.626c0,-2.285 1.147,-3.427 3.439,-3.427l37.372,0c1.911,0 2.866,-0.952 2.866,-2.856l0,-2.399Z" style="fill:#fff;fill-rule:nonzero;"/><path d="M331.709,30.453c-1.222,-2.513 -0.84,-3.77 1.147,-3.77l10.661,0c2.293,0 3.974,1.142 5.044,3.427c1.376,2.666 3.019,3.998 4.929,3.998c2.14,0 3.822,-1.142 5.045,-3.427c1.452,-2.665 3.171,-3.998 5.158,-3.998l10.318,0c2.292,0 2.904,1.142 1.834,3.427l-0.459,1.028c-0.917,1.98 -0.114,2.97 2.408,2.97c2.445,0 3.668,1.143 3.668,3.427l0,4.798c0,2.285 -1.146,3.427 -3.439,3.427l-13.413,0c-1.91,0 -2.866,0.952 -2.866,2.856l0,15.079c0,1.904 0.956,2.856 2.866,2.856c2.217,0.381 3.974,-0.571 5.274,-2.856c0.229,-2.361 0.305,-4.76 0.229,-7.197c-0,-2.285 1.146,-3.427 3.439,-3.427l2.981,0c2.292,0 3.439,1.142 3.439,3.427l-0,14.622c-0.153,3.808 -2.255,6.093 -6.305,6.854c-2.981,0.229 -6,0.305 -9.057,0.229c-1.91,-0 -2.866,0.952 -2.866,2.855c0.23,4.57 0.039,7.654 -0.573,9.253c-1.299,3.732 -3.936,5.941 -7.91,6.626l-22.469,0c-2.292,0 -3.63,-1.142 -4.012,-3.427l-0.459,-3.427c-0.458,-2.589 0.459,-3.884 2.752,-3.884l8.941,0c4.433,0.381 6.573,-1.523 6.42,-5.712c0,-1.523 -0.955,-2.284 -2.866,-2.284l-12.037,-0c-2.292,-0 -3.439,-1.143 -3.439,-3.427l0,-18.278c0,-2.285 1.147,-3.427 3.439,-3.427l2.981,0c2.293,0 3.439,1.142 3.439,3.427l-0,7.197c-0,1.904 0.955,2.856 2.866,2.856l2.751,-0c1.911,-0 2.866,-0.952 2.866,-2.856l0,-15.079c0,-1.904 -0.955,-2.856 -2.866,-2.856l-13.986,0c-2.292,0 -3.439,-1.142 -3.439,-3.427l0,-4.798c0,-2.284 1.147,-3.427 3.439,-3.427l3.096,0c1.91,0 2.254,-1.218 1.031,-3.655Zm55.6,1.142c-0,-2.361 1.108,-3.541 3.324,-3.541l37.486,-0c2.293,-0 3.44,1.142 3.44,3.427l-0,56.317c-0.459,4.95 -3.057,7.768 -7.796,8.454c-2.14,0.228 -4.318,0.304 -6.534,0.228c-2.293,0 -3.669,-1.142 -4.127,-3.427l-0.917,-4.227c-0.306,-1.903 -0.153,-2.97 0.458,-3.198c2.064,-1.142 2.79,-3.046 2.179,-5.712c-0,-2.056 -0.956,-3.084 -2.866,-3.084l-5.044,-0c-1.911,-0 -2.866,0.952 -2.866,2.856l-0,8.567c-0,1.904 -0.726,3.808 -2.179,5.712c-2.674,2.513 -6.266,3.503 -10.775,2.97c-1.911,0 -2.866,0.952 -2.866,2.856l-0,2.513c-0,1.904 0.955,2.856 2.866,2.856l36.454,-0c2.293,-0 3.439,1.142 3.439,3.427l0,4.341c0,2.285 -1.146,3.427 -3.439,3.427l-36.454,-0c-1.911,-0 -2.866,0.952 -2.866,2.856l-0,2.513c-0,1.904 0.955,2.856 2.866,2.856l40.008,-0c2.293,-0 3.439,1.142 3.439,3.427l0,4.798c0,2.284 -1.146,3.427 -3.439,3.427l-103.518,-0c-2.292,-0 -3.439,-1.143 -3.439,-3.427l0,-4.798c0,-2.285 1.147,-3.427 3.439,-3.427l40.582,-0c1.911,-0 2.866,-0.952 2.866,-2.856l0,-2.513c0,-1.904 -0.955,-2.856 -2.866,-2.856l-36.455,-0c-2.292,-0 -3.439,-1.142 -3.439,-3.427l0,-4.341c0,-2.285 1.147,-3.427 3.439,-3.427l36.455,-0c1.911,-0 2.866,-0.952 2.866,-2.856l0,-1.942c0,-2.285 1.146,-3.427 3.439,-3.427l7.795,0c1.911,0 2.637,-1.218 2.179,-3.655l-0.459,-3.199c-0.535,-2.589 -0.382,-3.922 0.459,-3.998c2.445,-0.609 3.401,-2.399 2.866,-5.369l-0,-49.121Zm27.513,11.195c-0,-1.98 -0.918,-2.97 -2.752,-2.97l-5.158,-0c-1.911,-0 -2.866,0.952 -2.866,2.856l-0,2.627c-0,1.904 0.955,2.856 2.866,2.856l5.044,0c1.91,0 2.866,-0.952 2.866,-2.856l-0,-2.513Zm-0,18.278c-0,-1.981 -0.918,-2.971 -2.752,-2.971l-5.158,0c-1.911,0 -2.866,0.952 -2.866,2.856l-0,3.199c-0,1.904 0.955,2.856 2.866,2.856l5.044,-0c1.91,-0 2.866,-0.952 2.866,-2.856l-0,-3.084Z" style="fill:#fff;fill-rule:nonzero;"/><path d="M460.264,30.339c-0,-2.437 1.07,-3.656 3.209,-3.656l10.547,0c2.293,0 3.439,1.142 3.439,3.427l0,5.712c0,1.904 1.032,2.856 3.095,2.856c1.988,-0 2.981,1.142 2.981,3.427l0,6.625c0,2.285 -0.993,3.427 -2.981,3.427c-2.063,0 -3.095,0.952 -3.095,2.856l0,64.885c0,1.904 0.956,2.856 2.866,2.856l1.49,-0c2.293,-0 3.44,1.142 3.44,3.427l-0,6.626c-0,2.284 -1.147,3.427 -3.44,3.427l-25.105,-0c-2.293,-0 -3.439,-1.143 -3.439,-3.427l-0,-6.626c-0,-2.285 1.146,-3.427 3.439,-3.427c2.369,-0 3.554,-0.952 3.554,-2.856l-0,-64.885c-0,-1.904 -1.109,-2.856 -3.325,-2.856c-2.14,0 -3.21,-1.142 -3.21,-3.427l0,-6.625c0,-2.285 1.07,-3.427 3.21,-3.427c2.216,-0 3.325,-0.952 3.325,-2.856l-0,-5.483Zm58.923,-0c0,-2.437 1.07,-3.656 3.21,-3.656l10.088,0c2.293,0 3.439,1.142 3.439,3.427l0,11.88c0,1.98 1.223,2.628 3.669,1.942l16.966,-4.112c2.599,-0.609 3.898,0.228 3.898,2.513l-0,60.544c-0.459,4.95 -3.057,7.806 -7.796,8.568l-5.846,0.114c-2.293,0 -3.63,-1.142 -4.012,-3.427c-0.459,-1.904 -0.803,-3.808 -1.032,-5.712c-0.382,-2.284 -0.191,-3.427 0.573,-3.427c3.057,-0.381 4.28,-2.246 3.668,-5.597l0,-32.9c0,-1.904 -1.031,-2.589 -3.095,-2.056c-1.375,0.229 -2.789,0.571 -4.241,1.028c-1.835,0.609 -2.752,1.828 -2.752,3.656l0,47.293c0,2.284 -1.146,3.427 -3.439,3.427l-9.859,-0c-2.292,-0 -3.439,-1.143 -3.439,-3.427l0,-43.295c0,-1.904 -1.031,-2.589 -3.095,-2.056l-4.127,0.914c-2.14,0.609 -3.21,1.713 -3.21,3.312l0,48.093c-0.305,4.341 1.529,6.131 5.503,5.369l45.969,-0c2.293,-0 3.44,1.142 3.44,3.427l-0,6.626c-0,2.284 -1.147,3.427 -3.44,3.427l-59.038,-0c-4.815,-0 -7.757,-2.894 -8.827,-8.682l0,-54.033c0,-1.904 -0.993,-2.627 -2.98,-2.17c-1.758,0.457 -2.637,-0.457 -2.637,-2.742l-0,-8.453c-0,-2.285 0.917,-3.618 2.751,-3.999c1.911,-0.533 2.866,-1.713 2.866,-3.541l0,-17.021c0,-2.284 1.146,-3.427 3.439,-3.427l9.515,0c2.293,0 3.439,1.143 3.439,3.427l0,13.137c0,1.904 1.223,2.513 3.669,1.828l4.012,-1.028c1.834,-0.533 2.751,-1.714 2.751,-3.541l0,-15.65Z" style="fill:#fff;fill-rule:nonzero;"/><path d="M585.493,31.595c0,-2.361 1.109,-3.541 3.325,-3.541l97.556,-0c2.293,-0 3.439,1.142 3.439,3.427l0,95.957c-0.305,5.178 -3.209,8.11 -8.712,8.796l-92.168,-0c-2.293,-0 -3.44,-1.143 -3.44,-3.427l0,-101.212Zm87.583,11.195c0,-1.98 -0.917,-2.97 -2.751,-2.97l-65.229,-0c-1.91,-0 -2.866,0.952 -2.866,2.856l0,79.05c0,1.904 0.956,2.856 2.866,2.856l62.707,-0c4.203,0.38 5.961,-1.485 5.273,-5.598l0,-76.194Zm-64.426,5.94c0,-2.361 1.108,-3.541 3.325,-3.541l50.44,-0c2.293,-0 3.439,1.142 3.439,3.427c0.764,7.387 -1.834,11.766 -7.795,13.137c-2.904,0.228 -5.808,0.305 -8.713,0.228c-1.91,0 -2.866,0.876 -2.866,2.628c0,1.828 0.956,2.741 2.866,2.741l14.445,0c2.292,0 3.439,1.181 3.439,3.542c-0,2.437 -1.147,3.655 -3.439,3.655l-52.733,0c-2.293,0 -3.44,-1.18 -3.44,-3.541c0,-2.437 1.147,-3.656 3.44,-3.656l15.361,0c1.911,0 2.866,-0.875 2.866,-2.627c-0,-1.828 -0.955,-2.742 -2.866,-2.742l-14.33,0c-2.292,0 -3.439,-1.142 -3.439,-3.427l0,-9.824Zm40.811,3.656c0,-1.523 -0.917,-2.285 -2.751,-2.285l-18.801,0c-1.91,0 -2.866,1.18 -2.866,3.541c0,2.361 0.956,3.542 2.866,3.542l16.164,-0c3.592,0.837 5.388,-0.762 5.388,-4.798Zm-41.728,30.957c0,-2.437 1.07,-3.655 3.21,-3.655l52.733,-0c2.293,-0 3.439,1.142 3.439,3.427l0,27.416c-0.076,5.026 -3.019,7.958 -8.827,8.796l-47.116,-0c-2.293,-0 -3.439,-1.142 -3.439,-3.427l0,-32.557Zm44.938,5.598c-0,-1.98 -0.917,-2.97 -2.751,-2.97l-24.877,-0c-1.91,-0 -2.866,0.952 -2.866,2.855l0,21.476c0,1.904 0.956,2.856 2.866,2.856l22.24,0c4.203,0.533 5.999,-1.332 5.388,-5.597l-0,-18.62Zm-25.679,5.94c0,-2.361 1.108,-3.541 3.325,-3.541l14.559,-0c2.292,-0 3.439,1.142 3.439,3.427c0.153,3.046 -0,5.331 -0.459,6.854c-1.223,4.112 -3.974,6.283 -8.254,6.511l-9.171,-0c-2.292,-0 -3.439,-1.142 -3.439,-3.427l0,-9.824Zm14.215,3.655c0,-1.523 -1.146,-2.284 -3.439,-2.284c-2.446,-0 -3.668,1.18 -3.668,3.541c-0,2.361 0.764,3.541 2.292,3.541c3.287,0.533 4.892,-1.066 4.815,-4.798Z" style="fill:#fff;fill-rule:nonzero;"/></g></svg>